M48
; DRILL file KiCad 10.0.1 date 2026-05-08T17:23:44
; FORMAT={-:-/ absolute / metric / decimal}
; #@! TF.CreationDate,2026-05-08T17:23:44-06:00
; #@! TF.GenerationSoftware,Kicad,Pcbnew,10.0.1
; #@! TF.FileFunction,Plated,1,2,PTH
FMAT,2
METRIC
; #@! TA.AperFunction,Plated,PTH,ViaDrill
T1C0.300
; #@! TA.AperFunction,Plated,PTH,ComponentDrill
T2C0.600
; #@! TA.AperFunction,Plated,PTH,ComponentDrill
T3C0.950
; #@! TA.AperFunction,Plated,PTH,ComponentDrill
T4C1.000
%
G90
G05
T1
X108.48Y-90.734
X108.514Y-89.935
X108.948Y-89.559
X108.948Y-89.559
X109.721Y-89.767
X109.896Y-92.292
X111.199Y-88.188
X112.921Y-81.267
X113.013Y-85.024
X113.321Y-93.667
X115.046Y-94.567
X118.984Y-97.529
X119.36Y-95.953
X120.098Y-98.643
X120.124Y-99.867
X120.296Y-75.192
X120.421Y-70.092
X122.017Y-81.867
X122.329Y-90.841
X123.401Y-78.317
X123.996Y-93.017
X124.222Y-73.61
X124.726Y-91.697
X124.726Y-91.697
X125.446Y-86.167
X125.603Y-102.866
X125.621Y-83.542
X125.996Y-90.817
X125.996Y-90.817
X126.155Y-102.866
X126.196Y-104.069
X126.446Y-102.329
X126.521Y-94.792
X127.321Y-77.292
X127.396Y-83.867
X127.846Y-80.442
X128.007Y-77.429
X128.421Y-80.642
X128.521Y-76.092
X129.671Y-84.692
X129.784Y-94.855
X130.773Y-80.717
X130.779Y-92.242
X131.546Y-80.367
X132.217Y-83.838
X132.696Y-92.242
X132.771Y-98.333
X132.996Y-90.531
X133.321Y-92.867
X133.543Y-77.542
X133.621Y-86.467
X133.821Y-93.959
X133.821Y-90.493
X134.146Y-74.267
X134.271Y-78.942
X134.545Y-81.216
X134.746Y-73.667
X135.096Y-78.167
X136.671Y-93.317
X136.68Y-86.008
X137.746Y-102.292
X138.021Y-74.667
X138.821Y-106.816
X139.821Y-66.117
X141.246Y-106.816
X141.821Y-75.042
X142.221Y-66.067
X143.871Y-71.389
X145.971Y-65.857
X145.971Y-67.317
X147.046Y-88.067
X147.921Y-76.467
X148.971Y-80.095
X150.996Y-65.242
X151.155Y-83.654
X151.171Y-76.342
X151.884Y-77.279
X152.02Y-79.143
X152.549Y-77.724
X152.796Y-81.298
X152.821Y-74.867
X153.046Y-80.092
X153.387Y-75.751
X153.543Y-81.585
X153.546Y-65.192
X154.746Y-83.293
X155.346Y-83.293
X156.296Y-77.317
X156.709Y-82.045
X156.709Y-82.045
X157.371Y-82.493
X159.646Y-88.142
X160.496Y-75.692
X160.496Y-80.392
X160.521Y-76.392
X160.546Y-79.542
X161.296Y-84.767
T3
X109.271Y-102.267
X111.771Y-102.267
X112.521Y-65.317
X114.271Y-102.267
X115.021Y-65.317
X116.771Y-102.267
X117.521Y-65.317
X120.021Y-65.317
X122.521Y-65.317
T4
X103.397Y-98.781
X103.397Y-101.321
X103.397Y-103.861
X103.397Y-106.401
X105.404Y-69.215
X105.404Y-71.755
X105.404Y-74.295
X105.404Y-76.835
X107.944Y-69.215
X107.944Y-71.755
X107.944Y-74.295
X107.944Y-76.835
X134.512Y-107.366
X137.052Y-107.366
X139.592Y-107.366
X142.132Y-107.366
X144.672Y-107.366
X147.212Y-107.366
X147.999Y-61.443
X149.752Y-107.366
X150.499Y-61.443
X152.292Y-107.366
X158.794Y-60.731
X158.916Y-104.961
X161.294Y-60.731
X161.416Y-104.961
T2
G00X102.876Y-85.597
M15
G01X102.276Y-85.597
M16
G05
G00X102.876Y-94.237
M15
G01X102.276Y-94.237
M16
G05
G00X107.306Y-85.597
M15
G01X106.206Y-85.597
M16
G05
G00X107.306Y-94.237
M15
G01X106.206Y-94.237
M16
G05
M30
