%TF.GenerationSoftware,KiCad,Pcbnew,10.0.1*%
%TF.CreationDate,2026-05-04T13:19:36-06:00*%
%TF.ProjectId,2026_12_2Wheel_Balance_Robot_v1,32303236-5f31-4325-9f32-576865656c5f,rev?*%
%TF.SameCoordinates,Original*%
%TF.FileFunction,Legend,Bot*%
%TF.FilePolarity,Positive*%
%FSLAX46Y46*%
G04 Gerber Fmt 4.6, Leading zero omitted, Abs format (unit mm)*
G04 Created by KiCad (PCBNEW 10.0.1) date 2026-05-04 13:19:36*
%MOMM*%
%LPD*%
G01*
G04 APERTURE LIST*
%ADD10C,0.100000*%
G04 APERTURE END LIST*
D10*
X153156927Y-94519331D02*
X153728355Y-94519331D01*
X153442641Y-95519331D02*
X153442641Y-94519331D01*
X154442641Y-95471712D02*
X154347403Y-95519331D01*
X154347403Y-95519331D02*
X154156927Y-95519331D01*
X154156927Y-95519331D02*
X154061689Y-95471712D01*
X154061689Y-95471712D02*
X154014070Y-95376473D01*
X154014070Y-95376473D02*
X154014070Y-94995521D01*
X154014070Y-94995521D02*
X154061689Y-94900283D01*
X154061689Y-94900283D02*
X154156927Y-94852664D01*
X154156927Y-94852664D02*
X154347403Y-94852664D01*
X154347403Y-94852664D02*
X154442641Y-94900283D01*
X154442641Y-94900283D02*
X154490260Y-94995521D01*
X154490260Y-94995521D02*
X154490260Y-95090759D01*
X154490260Y-95090759D02*
X154014070Y-95185997D01*
X155299784Y-95471712D02*
X155204546Y-95519331D01*
X155204546Y-95519331D02*
X155014070Y-95519331D01*
X155014070Y-95519331D02*
X154918832Y-95471712D01*
X154918832Y-95471712D02*
X154871213Y-95376473D01*
X154871213Y-95376473D02*
X154871213Y-94995521D01*
X154871213Y-94995521D02*
X154918832Y-94900283D01*
X154918832Y-94900283D02*
X155014070Y-94852664D01*
X155014070Y-94852664D02*
X155204546Y-94852664D01*
X155204546Y-94852664D02*
X155299784Y-94900283D01*
X155299784Y-94900283D02*
X155347403Y-94995521D01*
X155347403Y-94995521D02*
X155347403Y-95090759D01*
X155347403Y-95090759D02*
X154871213Y-95185997D01*
X155775975Y-95519331D02*
X155775975Y-94519331D01*
X155775975Y-94900283D02*
X155871213Y-94852664D01*
X155871213Y-94852664D02*
X156061689Y-94852664D01*
X156061689Y-94852664D02*
X156156927Y-94900283D01*
X156156927Y-94900283D02*
X156204546Y-94947902D01*
X156204546Y-94947902D02*
X156252165Y-95043140D01*
X156252165Y-95043140D02*
X156252165Y-95328854D01*
X156252165Y-95328854D02*
X156204546Y-95424092D01*
X156204546Y-95424092D02*
X156156927Y-95471712D01*
X156156927Y-95471712D02*
X156061689Y-95519331D01*
X156061689Y-95519331D02*
X155871213Y-95519331D01*
X155871213Y-95519331D02*
X155775975Y-95471712D01*
X157395023Y-95233616D02*
X157871213Y-95233616D01*
X157299785Y-95519331D02*
X157633118Y-94519331D01*
X157633118Y-94519331D02*
X157966451Y-95519331D01*
X158442642Y-95519331D02*
X158347404Y-95471712D01*
X158347404Y-95471712D02*
X158299785Y-95376473D01*
X158299785Y-95376473D02*
X158299785Y-94519331D01*
X158823595Y-95519331D02*
X158823595Y-94852664D01*
X158823595Y-95043140D02*
X158871214Y-94947902D01*
X158871214Y-94947902D02*
X158918833Y-94900283D01*
X158918833Y-94900283D02*
X159014071Y-94852664D01*
X159014071Y-94852664D02*
X159109309Y-94852664D01*
X159585500Y-95519331D02*
X159490262Y-95471712D01*
X159490262Y-95471712D02*
X159442643Y-95424092D01*
X159442643Y-95424092D02*
X159395024Y-95328854D01*
X159395024Y-95328854D02*
X159395024Y-95043140D01*
X159395024Y-95043140D02*
X159442643Y-94947902D01*
X159442643Y-94947902D02*
X159490262Y-94900283D01*
X159490262Y-94900283D02*
X159585500Y-94852664D01*
X159585500Y-94852664D02*
X159728357Y-94852664D01*
X159728357Y-94852664D02*
X159823595Y-94900283D01*
X159823595Y-94900283D02*
X159871214Y-94947902D01*
X159871214Y-94947902D02*
X159918833Y-95043140D01*
X159918833Y-95043140D02*
X159918833Y-95328854D01*
X159918833Y-95328854D02*
X159871214Y-95424092D01*
X159871214Y-95424092D02*
X159823595Y-95471712D01*
X159823595Y-95471712D02*
X159728357Y-95519331D01*
X159728357Y-95519331D02*
X159585500Y-95519331D01*
X160299786Y-95471712D02*
X160395024Y-95519331D01*
X160395024Y-95519331D02*
X160585500Y-95519331D01*
X160585500Y-95519331D02*
X160680738Y-95471712D01*
X160680738Y-95471712D02*
X160728357Y-95376473D01*
X160728357Y-95376473D02*
X160728357Y-95328854D01*
X160728357Y-95328854D02*
X160680738Y-95233616D01*
X160680738Y-95233616D02*
X160585500Y-95185997D01*
X160585500Y-95185997D02*
X160442643Y-95185997D01*
X160442643Y-95185997D02*
X160347405Y-95138378D01*
X160347405Y-95138378D02*
X160299786Y-95043140D01*
X160299786Y-95043140D02*
X160299786Y-94995521D01*
X160299786Y-94995521D02*
X160347405Y-94900283D01*
X160347405Y-94900283D02*
X160442643Y-94852664D01*
X160442643Y-94852664D02*
X160585500Y-94852664D01*
X160585500Y-94852664D02*
X160680738Y-94900283D01*
X161156929Y-95519331D02*
X161156929Y-94519331D01*
X161585500Y-95519331D02*
X161585500Y-94995521D01*
X161585500Y-94995521D02*
X161537881Y-94900283D01*
X161537881Y-94900283D02*
X161442643Y-94852664D01*
X161442643Y-94852664D02*
X161299786Y-94852664D01*
X161299786Y-94852664D02*
X161204548Y-94900283D01*
X161204548Y-94900283D02*
X161156929Y-94947902D01*
X162204548Y-95519331D02*
X162109310Y-95471712D01*
X162109310Y-95471712D02*
X162061691Y-95424092D01*
X162061691Y-95424092D02*
X162014072Y-95328854D01*
X162014072Y-95328854D02*
X162014072Y-95043140D01*
X162014072Y-95043140D02*
X162061691Y-94947902D01*
X162061691Y-94947902D02*
X162109310Y-94900283D01*
X162109310Y-94900283D02*
X162204548Y-94852664D01*
X162204548Y-94852664D02*
X162347405Y-94852664D01*
X162347405Y-94852664D02*
X162442643Y-94900283D01*
X162442643Y-94900283D02*
X162490262Y-94947902D01*
X162490262Y-94947902D02*
X162537881Y-95043140D01*
X162537881Y-95043140D02*
X162537881Y-95328854D01*
X162537881Y-95328854D02*
X162490262Y-95424092D01*
X162490262Y-95424092D02*
X162442643Y-95471712D01*
X162442643Y-95471712D02*
X162347405Y-95519331D01*
X162347405Y-95519331D02*
X162204548Y-95519331D01*
X163109310Y-95519331D02*
X163014072Y-95471712D01*
X163014072Y-95471712D02*
X162966453Y-95424092D01*
X162966453Y-95424092D02*
X162918834Y-95328854D01*
X162918834Y-95328854D02*
X162918834Y-95043140D01*
X162918834Y-95043140D02*
X162966453Y-94947902D01*
X162966453Y-94947902D02*
X163014072Y-94900283D01*
X163014072Y-94900283D02*
X163109310Y-94852664D01*
X163109310Y-94852664D02*
X163252167Y-94852664D01*
X163252167Y-94852664D02*
X163347405Y-94900283D01*
X163347405Y-94900283D02*
X163395024Y-94947902D01*
X163395024Y-94947902D02*
X163442643Y-95043140D01*
X163442643Y-95043140D02*
X163442643Y-95328854D01*
X163442643Y-95328854D02*
X163395024Y-95424092D01*
X163395024Y-95424092D02*
X163347405Y-95471712D01*
X163347405Y-95471712D02*
X163252167Y-95519331D01*
X163252167Y-95519331D02*
X163109310Y-95519331D01*
X164299786Y-95519331D02*
X164299786Y-94519331D01*
X164299786Y-95471712D02*
X164204548Y-95519331D01*
X164204548Y-95519331D02*
X164014072Y-95519331D01*
X164014072Y-95519331D02*
X163918834Y-95471712D01*
X163918834Y-95471712D02*
X163871215Y-95424092D01*
X163871215Y-95424092D02*
X163823596Y-95328854D01*
X163823596Y-95328854D02*
X163823596Y-95043140D01*
X163823596Y-95043140D02*
X163871215Y-94947902D01*
X163871215Y-94947902D02*
X163918834Y-94900283D01*
X163918834Y-94900283D02*
X164014072Y-94852664D01*
X164014072Y-94852664D02*
X164204548Y-94852664D01*
X164204548Y-94852664D02*
X164299786Y-94900283D01*
X153299784Y-96605465D02*
X153633117Y-96605465D01*
X153775974Y-97129275D02*
X153299784Y-97129275D01*
X153299784Y-97129275D02*
X153299784Y-96129275D01*
X153299784Y-96129275D02*
X153775974Y-96129275D01*
X154204546Y-97129275D02*
X154204546Y-96129275D01*
X154204546Y-96129275D02*
X154775974Y-97129275D01*
X154775974Y-97129275D02*
X154775974Y-96129275D01*
X155823593Y-97034036D02*
X155775974Y-97081656D01*
X155775974Y-97081656D02*
X155633117Y-97129275D01*
X155633117Y-97129275D02*
X155537879Y-97129275D01*
X155537879Y-97129275D02*
X155395022Y-97081656D01*
X155395022Y-97081656D02*
X155299784Y-96986417D01*
X155299784Y-96986417D02*
X155252165Y-96891179D01*
X155252165Y-96891179D02*
X155204546Y-96700703D01*
X155204546Y-96700703D02*
X155204546Y-96557846D01*
X155204546Y-96557846D02*
X155252165Y-96367370D01*
X155252165Y-96367370D02*
X155299784Y-96272132D01*
X155299784Y-96272132D02*
X155395022Y-96176894D01*
X155395022Y-96176894D02*
X155537879Y-96129275D01*
X155537879Y-96129275D02*
X155633117Y-96129275D01*
X155633117Y-96129275D02*
X155775974Y-96176894D01*
X155775974Y-96176894D02*
X155823593Y-96224513D01*
X156252165Y-96605465D02*
X156585498Y-96605465D01*
X156728355Y-97129275D02*
X156252165Y-97129275D01*
X156252165Y-97129275D02*
X156252165Y-96129275D01*
X156252165Y-96129275D02*
X156728355Y-96129275D01*
X157156927Y-96748322D02*
X157918832Y-96748322D01*
X158299784Y-96129275D02*
X158918831Y-96129275D01*
X158918831Y-96129275D02*
X158585498Y-96510227D01*
X158585498Y-96510227D02*
X158728355Y-96510227D01*
X158728355Y-96510227D02*
X158823593Y-96557846D01*
X158823593Y-96557846D02*
X158871212Y-96605465D01*
X158871212Y-96605465D02*
X158918831Y-96700703D01*
X158918831Y-96700703D02*
X158918831Y-96938798D01*
X158918831Y-96938798D02*
X158871212Y-97034036D01*
X158871212Y-97034036D02*
X158823593Y-97081656D01*
X158823593Y-97081656D02*
X158728355Y-97129275D01*
X158728355Y-97129275D02*
X158442641Y-97129275D01*
X158442641Y-97129275D02*
X158347403Y-97081656D01*
X158347403Y-97081656D02*
X158299784Y-97034036D01*
X159299784Y-96224513D02*
X159347403Y-96176894D01*
X159347403Y-96176894D02*
X159442641Y-96129275D01*
X159442641Y-96129275D02*
X159680736Y-96129275D01*
X159680736Y-96129275D02*
X159775974Y-96176894D01*
X159775974Y-96176894D02*
X159823593Y-96224513D01*
X159823593Y-96224513D02*
X159871212Y-96319751D01*
X159871212Y-96319751D02*
X159871212Y-96414989D01*
X159871212Y-96414989D02*
X159823593Y-96557846D01*
X159823593Y-96557846D02*
X159252165Y-97129275D01*
X159252165Y-97129275D02*
X159871212Y-97129275D01*
X160204546Y-96129275D02*
X160823593Y-96129275D01*
X160823593Y-96129275D02*
X160490260Y-96510227D01*
X160490260Y-96510227D02*
X160633117Y-96510227D01*
X160633117Y-96510227D02*
X160728355Y-96557846D01*
X160728355Y-96557846D02*
X160775974Y-96605465D01*
X160775974Y-96605465D02*
X160823593Y-96700703D01*
X160823593Y-96700703D02*
X160823593Y-96938798D01*
X160823593Y-96938798D02*
X160775974Y-97034036D01*
X160775974Y-97034036D02*
X160728355Y-97081656D01*
X160728355Y-97081656D02*
X160633117Y-97129275D01*
X160633117Y-97129275D02*
X160347403Y-97129275D01*
X160347403Y-97129275D02*
X160252165Y-97081656D01*
X160252165Y-97081656D02*
X160204546Y-97034036D01*
X161775974Y-97129275D02*
X161204546Y-97129275D01*
X161490260Y-97129275D02*
X161490260Y-96129275D01*
X161490260Y-96129275D02*
X161395022Y-96272132D01*
X161395022Y-96272132D02*
X161299784Y-96367370D01*
X161299784Y-96367370D02*
X161204546Y-96414989D01*
X153252165Y-97834457D02*
X153299784Y-97786838D01*
X153299784Y-97786838D02*
X153395022Y-97739219D01*
X153395022Y-97739219D02*
X153633117Y-97739219D01*
X153633117Y-97739219D02*
X153728355Y-97786838D01*
X153728355Y-97786838D02*
X153775974Y-97834457D01*
X153775974Y-97834457D02*
X153823593Y-97929695D01*
X153823593Y-97929695D02*
X153823593Y-98024933D01*
X153823593Y-98024933D02*
X153775974Y-98167790D01*
X153775974Y-98167790D02*
X153204546Y-98739219D01*
X153204546Y-98739219D02*
X153823593Y-98739219D01*
X154014070Y-98834457D02*
X154775974Y-98834457D01*
X154918832Y-98072552D02*
X155109308Y-98739219D01*
X155109308Y-98739219D02*
X155299784Y-98263028D01*
X155299784Y-98263028D02*
X155490260Y-98739219D01*
X155490260Y-98739219D02*
X155680736Y-98072552D01*
X156061689Y-98739219D02*
X156061689Y-97739219D01*
X156490260Y-98739219D02*
X156490260Y-98215409D01*
X156490260Y-98215409D02*
X156442641Y-98120171D01*
X156442641Y-98120171D02*
X156347403Y-98072552D01*
X156347403Y-98072552D02*
X156204546Y-98072552D01*
X156204546Y-98072552D02*
X156109308Y-98120171D01*
X156109308Y-98120171D02*
X156061689Y-98167790D01*
X157347403Y-98691600D02*
X157252165Y-98739219D01*
X157252165Y-98739219D02*
X157061689Y-98739219D01*
X157061689Y-98739219D02*
X156966451Y-98691600D01*
X156966451Y-98691600D02*
X156918832Y-98596361D01*
X156918832Y-98596361D02*
X156918832Y-98215409D01*
X156918832Y-98215409D02*
X156966451Y-98120171D01*
X156966451Y-98120171D02*
X157061689Y-98072552D01*
X157061689Y-98072552D02*
X157252165Y-98072552D01*
X157252165Y-98072552D02*
X157347403Y-98120171D01*
X157347403Y-98120171D02*
X157395022Y-98215409D01*
X157395022Y-98215409D02*
X157395022Y-98310647D01*
X157395022Y-98310647D02*
X156918832Y-98405885D01*
X158204546Y-98691600D02*
X158109308Y-98739219D01*
X158109308Y-98739219D02*
X157918832Y-98739219D01*
X157918832Y-98739219D02*
X157823594Y-98691600D01*
X157823594Y-98691600D02*
X157775975Y-98596361D01*
X157775975Y-98596361D02*
X157775975Y-98215409D01*
X157775975Y-98215409D02*
X157823594Y-98120171D01*
X157823594Y-98120171D02*
X157918832Y-98072552D01*
X157918832Y-98072552D02*
X158109308Y-98072552D01*
X158109308Y-98072552D02*
X158204546Y-98120171D01*
X158204546Y-98120171D02*
X158252165Y-98215409D01*
X158252165Y-98215409D02*
X158252165Y-98310647D01*
X158252165Y-98310647D02*
X157775975Y-98405885D01*
X158823594Y-98739219D02*
X158728356Y-98691600D01*
X158728356Y-98691600D02*
X158680737Y-98596361D01*
X158680737Y-98596361D02*
X158680737Y-97739219D01*
X158966452Y-98834457D02*
X159728356Y-98834457D01*
X159966452Y-98739219D02*
X159966452Y-97739219D01*
X159966452Y-98120171D02*
X160061690Y-98072552D01*
X160061690Y-98072552D02*
X160252166Y-98072552D01*
X160252166Y-98072552D02*
X160347404Y-98120171D01*
X160347404Y-98120171D02*
X160395023Y-98167790D01*
X160395023Y-98167790D02*
X160442642Y-98263028D01*
X160442642Y-98263028D02*
X160442642Y-98548742D01*
X160442642Y-98548742D02*
X160395023Y-98643980D01*
X160395023Y-98643980D02*
X160347404Y-98691600D01*
X160347404Y-98691600D02*
X160252166Y-98739219D01*
X160252166Y-98739219D02*
X160061690Y-98739219D01*
X160061690Y-98739219D02*
X159966452Y-98691600D01*
X161299785Y-98739219D02*
X161299785Y-98215409D01*
X161299785Y-98215409D02*
X161252166Y-98120171D01*
X161252166Y-98120171D02*
X161156928Y-98072552D01*
X161156928Y-98072552D02*
X160966452Y-98072552D01*
X160966452Y-98072552D02*
X160871214Y-98120171D01*
X161299785Y-98691600D02*
X161204547Y-98739219D01*
X161204547Y-98739219D02*
X160966452Y-98739219D01*
X160966452Y-98739219D02*
X160871214Y-98691600D01*
X160871214Y-98691600D02*
X160823595Y-98596361D01*
X160823595Y-98596361D02*
X160823595Y-98501123D01*
X160823595Y-98501123D02*
X160871214Y-98405885D01*
X160871214Y-98405885D02*
X160966452Y-98358266D01*
X160966452Y-98358266D02*
X161204547Y-98358266D01*
X161204547Y-98358266D02*
X161299785Y-98310647D01*
X161918833Y-98739219D02*
X161823595Y-98691600D01*
X161823595Y-98691600D02*
X161775976Y-98596361D01*
X161775976Y-98596361D02*
X161775976Y-97739219D01*
X162728357Y-98739219D02*
X162728357Y-98215409D01*
X162728357Y-98215409D02*
X162680738Y-98120171D01*
X162680738Y-98120171D02*
X162585500Y-98072552D01*
X162585500Y-98072552D02*
X162395024Y-98072552D01*
X162395024Y-98072552D02*
X162299786Y-98120171D01*
X162728357Y-98691600D02*
X162633119Y-98739219D01*
X162633119Y-98739219D02*
X162395024Y-98739219D01*
X162395024Y-98739219D02*
X162299786Y-98691600D01*
X162299786Y-98691600D02*
X162252167Y-98596361D01*
X162252167Y-98596361D02*
X162252167Y-98501123D01*
X162252167Y-98501123D02*
X162299786Y-98405885D01*
X162299786Y-98405885D02*
X162395024Y-98358266D01*
X162395024Y-98358266D02*
X162633119Y-98358266D01*
X162633119Y-98358266D02*
X162728357Y-98310647D01*
X163204548Y-98072552D02*
X163204548Y-98739219D01*
X163204548Y-98167790D02*
X163252167Y-98120171D01*
X163252167Y-98120171D02*
X163347405Y-98072552D01*
X163347405Y-98072552D02*
X163490262Y-98072552D01*
X163490262Y-98072552D02*
X163585500Y-98120171D01*
X163585500Y-98120171D02*
X163633119Y-98215409D01*
X163633119Y-98215409D02*
X163633119Y-98739219D01*
X164537881Y-98691600D02*
X164442643Y-98739219D01*
X164442643Y-98739219D02*
X164252167Y-98739219D01*
X164252167Y-98739219D02*
X164156929Y-98691600D01*
X164156929Y-98691600D02*
X164109310Y-98643980D01*
X164109310Y-98643980D02*
X164061691Y-98548742D01*
X164061691Y-98548742D02*
X164061691Y-98263028D01*
X164061691Y-98263028D02*
X164109310Y-98167790D01*
X164109310Y-98167790D02*
X164156929Y-98120171D01*
X164156929Y-98120171D02*
X164252167Y-98072552D01*
X164252167Y-98072552D02*
X164442643Y-98072552D01*
X164442643Y-98072552D02*
X164537881Y-98120171D01*
X165347405Y-98691600D02*
X165252167Y-98739219D01*
X165252167Y-98739219D02*
X165061691Y-98739219D01*
X165061691Y-98739219D02*
X164966453Y-98691600D01*
X164966453Y-98691600D02*
X164918834Y-98596361D01*
X164918834Y-98596361D02*
X164918834Y-98215409D01*
X164918834Y-98215409D02*
X164966453Y-98120171D01*
X164966453Y-98120171D02*
X165061691Y-98072552D01*
X165061691Y-98072552D02*
X165252167Y-98072552D01*
X165252167Y-98072552D02*
X165347405Y-98120171D01*
X165347405Y-98120171D02*
X165395024Y-98215409D01*
X165395024Y-98215409D02*
X165395024Y-98310647D01*
X165395024Y-98310647D02*
X164918834Y-98405885D01*
X165585501Y-98834457D02*
X166347405Y-98834457D01*
X166585501Y-98739219D02*
X166585501Y-98072552D01*
X166585501Y-98263028D02*
X166633120Y-98167790D01*
X166633120Y-98167790D02*
X166680739Y-98120171D01*
X166680739Y-98120171D02*
X166775977Y-98072552D01*
X166775977Y-98072552D02*
X166871215Y-98072552D01*
X167347406Y-98739219D02*
X167252168Y-98691600D01*
X167252168Y-98691600D02*
X167204549Y-98643980D01*
X167204549Y-98643980D02*
X167156930Y-98548742D01*
X167156930Y-98548742D02*
X167156930Y-98263028D01*
X167156930Y-98263028D02*
X167204549Y-98167790D01*
X167204549Y-98167790D02*
X167252168Y-98120171D01*
X167252168Y-98120171D02*
X167347406Y-98072552D01*
X167347406Y-98072552D02*
X167490263Y-98072552D01*
X167490263Y-98072552D02*
X167585501Y-98120171D01*
X167585501Y-98120171D02*
X167633120Y-98167790D01*
X167633120Y-98167790D02*
X167680739Y-98263028D01*
X167680739Y-98263028D02*
X167680739Y-98548742D01*
X167680739Y-98548742D02*
X167633120Y-98643980D01*
X167633120Y-98643980D02*
X167585501Y-98691600D01*
X167585501Y-98691600D02*
X167490263Y-98739219D01*
X167490263Y-98739219D02*
X167347406Y-98739219D01*
X168109311Y-98739219D02*
X168109311Y-97739219D01*
X168109311Y-98120171D02*
X168204549Y-98072552D01*
X168204549Y-98072552D02*
X168395025Y-98072552D01*
X168395025Y-98072552D02*
X168490263Y-98120171D01*
X168490263Y-98120171D02*
X168537882Y-98167790D01*
X168537882Y-98167790D02*
X168585501Y-98263028D01*
X168585501Y-98263028D02*
X168585501Y-98548742D01*
X168585501Y-98548742D02*
X168537882Y-98643980D01*
X168537882Y-98643980D02*
X168490263Y-98691600D01*
X168490263Y-98691600D02*
X168395025Y-98739219D01*
X168395025Y-98739219D02*
X168204549Y-98739219D01*
X168204549Y-98739219D02*
X168109311Y-98691600D01*
X169156930Y-98739219D02*
X169061692Y-98691600D01*
X169061692Y-98691600D02*
X169014073Y-98643980D01*
X169014073Y-98643980D02*
X168966454Y-98548742D01*
X168966454Y-98548742D02*
X168966454Y-98263028D01*
X168966454Y-98263028D02*
X169014073Y-98167790D01*
X169014073Y-98167790D02*
X169061692Y-98120171D01*
X169061692Y-98120171D02*
X169156930Y-98072552D01*
X169156930Y-98072552D02*
X169299787Y-98072552D01*
X169299787Y-98072552D02*
X169395025Y-98120171D01*
X169395025Y-98120171D02*
X169442644Y-98167790D01*
X169442644Y-98167790D02*
X169490263Y-98263028D01*
X169490263Y-98263028D02*
X169490263Y-98548742D01*
X169490263Y-98548742D02*
X169442644Y-98643980D01*
X169442644Y-98643980D02*
X169395025Y-98691600D01*
X169395025Y-98691600D02*
X169299787Y-98739219D01*
X169299787Y-98739219D02*
X169156930Y-98739219D01*
X169775978Y-98072552D02*
X170156930Y-98072552D01*
X169918835Y-97739219D02*
X169918835Y-98596361D01*
X169918835Y-98596361D02*
X169966454Y-98691600D01*
X169966454Y-98691600D02*
X170061692Y-98739219D01*
X170061692Y-98739219D02*
X170156930Y-98739219D01*
M02*
