%TF.GenerationSoftware,KiCad,Pcbnew,9.0.9*%
%TF.CreationDate,2026-05-15T17:36:55-06:00*%
%TF.ProjectId,Phil's_lab,5068696c-2773-45f6-9c61-622e6b696361,rev?*%
%TF.SameCoordinates,Original*%
%TF.FileFunction,Copper,L1,Top*%
%TF.FilePolarity,Positive*%
%FSLAX46Y46*%
G04 Gerber Fmt 4.6, Leading zero omitted, Abs format (unit mm)*
G04 Created by KiCad (PCBNEW 9.0.9) date 2026-05-15 17:36:55*
%MOMM*%
%LPD*%
G01*
G04 APERTURE LIST*
G04 Aperture macros list*
%AMRoundRect*
0 Rectangle with rounded corners*
0 $1 Rounding radius*
0 $2 $3 $4 $5 $6 $7 $8 $9 X,Y pos of 4 corners*
0 Add a 4 corners polygon primitive as box body*
4,1,4,$2,$3,$4,$5,$6,$7,$8,$9,$2,$3,0*
0 Add four circle primitives for the rounded corners*
1,1,$1+$1,$2,$3*
1,1,$1+$1,$4,$5*
1,1,$1+$1,$6,$7*
1,1,$1+$1,$8,$9*
0 Add four rect primitives between the rounded corners*
20,1,$1+$1,$2,$3,$4,$5,0*
20,1,$1+$1,$4,$5,$6,$7,0*
20,1,$1+$1,$6,$7,$8,$9,0*
20,1,$1+$1,$8,$9,$2,$3,0*%
G04 Aperture macros list end*
%TA.AperFunction,SMDPad,CuDef*%
%ADD10RoundRect,0.250000X-0.350000X0.450000X-0.350000X-0.450000X0.350000X-0.450000X0.350000X0.450000X0*%
%TD*%
%TA.AperFunction,ComponentPad*%
%ADD11C,1.700000*%
%TD*%
%TA.AperFunction,ComponentPad*%
%ADD12C,2.000000*%
%TD*%
%TA.AperFunction,SMDPad,CuDef*%
%ADD13RoundRect,0.135000X-0.135000X-0.185000X0.135000X-0.185000X0.135000X0.185000X-0.135000X0.185000X0*%
%TD*%
%TA.AperFunction,SMDPad,CuDef*%
%ADD14RoundRect,0.135000X0.185000X-0.135000X0.185000X0.135000X-0.185000X0.135000X-0.185000X-0.135000X0*%
%TD*%
%TA.AperFunction,ComponentPad*%
%ADD15R,1.700000X1.700000*%
%TD*%
%TA.AperFunction,SMDPad,CuDef*%
%ADD16R,1.900000X2.300000*%
%TD*%
%TA.AperFunction,SMDPad,CuDef*%
%ADD17R,1.900000X1.800000*%
%TD*%
%TA.AperFunction,SMDPad,CuDef*%
%ADD18R,1.900000X1.900000*%
%TD*%
%TA.AperFunction,SMDPad,CuDef*%
%ADD19R,1.350000X0.400000*%
%TD*%
%TA.AperFunction,SMDPad,CuDef*%
%ADD20RoundRect,0.218750X-0.218750X-0.256250X0.218750X-0.256250X0.218750X0.256250X-0.218750X0.256250X0*%
%TD*%
%TA.AperFunction,SMDPad,CuDef*%
%ADD21RoundRect,0.100000X-0.130000X-0.100000X0.130000X-0.100000X0.130000X0.100000X-0.130000X0.100000X0*%
%TD*%
%TA.AperFunction,SMDPad,CuDef*%
%ADD22RoundRect,0.250000X-0.337500X-0.475000X0.337500X-0.475000X0.337500X0.475000X-0.337500X0.475000X0*%
%TD*%
%TA.AperFunction,SMDPad,CuDef*%
%ADD23RoundRect,0.155000X-0.212500X-0.155000X0.212500X-0.155000X0.212500X0.155000X-0.212500X0.155000X0*%
%TD*%
%TA.AperFunction,SMDPad,CuDef*%
%ADD24RoundRect,0.075000X-0.075000X0.125000X-0.075000X-0.125000X0.075000X-0.125000X0.075000X0.125000X0*%
%TD*%
%TA.AperFunction,SMDPad,CuDef*%
%ADD25RoundRect,0.075000X0.125000X0.075000X-0.125000X0.075000X-0.125000X-0.075000X0.125000X-0.075000X0*%
%TD*%
%TA.AperFunction,SMDPad,CuDef*%
%ADD26RoundRect,0.237500X0.237500X-0.300000X0.237500X0.300000X-0.237500X0.300000X-0.237500X-0.300000X0*%
%TD*%
%TA.AperFunction,SMDPad,CuDef*%
%ADD27RoundRect,0.225000X-0.225000X-0.250000X0.225000X-0.250000X0.225000X0.250000X-0.225000X0.250000X0*%
%TD*%
%TA.AperFunction,SMDPad,CuDef*%
%ADD28RoundRect,0.075000X0.075000X-0.125000X0.075000X0.125000X-0.075000X0.125000X-0.075000X-0.125000X0*%
%TD*%
%TA.AperFunction,SMDPad,CuDef*%
%ADD29RoundRect,0.075000X-0.125000X-0.075000X0.125000X-0.075000X0.125000X0.075000X-0.125000X0.075000X0*%
%TD*%
%TA.AperFunction,SMDPad,CuDef*%
%ADD30RoundRect,0.375000X-0.375000X0.625000X-0.375000X-0.625000X0.375000X-0.625000X0.375000X0.625000X0*%
%TD*%
%TA.AperFunction,SMDPad,CuDef*%
%ADD31RoundRect,0.500000X-1.400000X0.500000X-1.400000X-0.500000X1.400000X-0.500000X1.400000X0.500000X0*%
%TD*%
%TA.AperFunction,SMDPad,CuDef*%
%ADD32RoundRect,0.075000X-0.662500X-0.075000X0.662500X-0.075000X0.662500X0.075000X-0.662500X0.075000X0*%
%TD*%
%TA.AperFunction,SMDPad,CuDef*%
%ADD33RoundRect,0.075000X-0.075000X-0.662500X0.075000X-0.662500X0.075000X0.662500X-0.075000X0.662500X0*%
%TD*%
%TA.AperFunction,ViaPad*%
%ADD34C,0.700000*%
%TD*%
%TA.AperFunction,Conductor*%
%ADD35C,0.200000*%
%TD*%
G04 APERTURE END LIST*
D10*
%TO.P,Y1,4,G*%
%TO.N,~*%
X57166800Y-53118100D03*
%TO.P,Y1,3,3*%
%TO.N,Net-(10p2-Pad2)*%
X57166800Y-55318100D03*
%TO.P,Y1,2,G*%
%TO.N,~*%
X55466800Y-55318100D03*
%TO.P,Y1,1,1*%
X55466800Y-53118100D03*
%TD*%
D11*
%TO.P,SW1,3,C*%
%TO.N,+3.3V*%
X57658000Y-45110400D03*
%TO.P,SW1,2,B*%
%TO.N,~*%
X57658000Y-41110400D03*
%TO.P,SW1,1,A*%
%TO.N,Net-(SW1-A)*%
X57658000Y-37110400D03*
D12*
%TO.P,SW1,*%
%TO.N,*%
X53408000Y-47110400D03*
X59408000Y-47110400D03*
X53408000Y-35110400D03*
X59408000Y-35110400D03*
%TD*%
D13*
%TO.P,R5,2*%
%TO.N,/12C2_SDA*%
X68378800Y-70307200D03*
%TO.P,R5,1*%
%TO.N,unconnected-(R5-Pad1)*%
X67358800Y-70307200D03*
%TD*%
%TO.P,R4,2*%
%TO.N,/12C2_SCL*%
X65582800Y-70256400D03*
%TO.P,R4,1*%
%TO.N,unconnected-(R4-Pad1)*%
X64562800Y-70256400D03*
%TD*%
%TO.P,R3,2*%
%TO.N,GND*%
X81436400Y-48310800D03*
%TO.P,R3,1*%
%TO.N,+3.3V*%
X80416400Y-48310800D03*
%TD*%
%TO.P,R2,2*%
%TO.N,/USB_D+*%
X62488000Y-40233600D03*
%TO.P,R2,1*%
%TO.N,+3.3V*%
X61468000Y-40233600D03*
%TD*%
D14*
%TO.P,R1,2*%
%TO.N,Net-(U1-BOOT0)*%
X70000000Y-39730000D03*
%TO.P,R1,1*%
%TO.N,Net-(SW1-A)*%
X70000000Y-40750000D03*
%TD*%
D11*
%TO.P,J4,4,Pin_4*%
%TO.N,GND*%
X70205600Y-74218800D03*
%TO.P,J4,3,Pin_3*%
%TO.N,/12C2_SDA*%
X67665600Y-74218800D03*
%TO.P,J4,2,Pin_2*%
%TO.N,/12C2_SCL*%
X65125600Y-74218800D03*
D15*
%TO.P,J4,1,Pin_1*%
%TO.N,+3.3V*%
X62585600Y-74218800D03*
%TD*%
D11*
%TO.P,J3,4,Pin_4*%
%TO.N,GND*%
X83667600Y-29616400D03*
%TO.P,J3,3,Pin_3*%
%TO.N,/USART1_T1_RX*%
X81127600Y-29616400D03*
%TO.P,J3,2,Pin_2*%
%TO.N,/USART1_TX*%
X78587600Y-29616400D03*
D15*
%TO.P,J3,1,Pin_1*%
%TO.N,+3.3V*%
X76047600Y-29616400D03*
%TD*%
D11*
%TO.P,J2,4,Pin_4*%
%TO.N,GND*%
X69240400Y-29667200D03*
%TO.P,J2,3,Pin_3*%
%TO.N,/SWCLK*%
X66700400Y-29667200D03*
%TO.P,J2,2,Pin_2*%
X64160400Y-29667200D03*
D15*
%TO.P,J2,1,Pin_1*%
%TO.N,+3.3V*%
X61620400Y-29667200D03*
%TD*%
D16*
%TO.P,J1,11,SHIELD*%
%TO.N,unconnected-(J1-SHIELD-Pad11)_3*%
X99110800Y-44208400D03*
D17*
%TO.N,unconnected-(J1-SHIELD-Pad11)*%
X99110800Y-46808400D03*
D16*
%TO.N,unconnected-(J1-SHIELD-Pad11)_2*%
X99110800Y-49558400D03*
D18*
%TO.N,unconnected-(J1-SHIELD-Pad11)_1*%
X99110800Y-52108400D03*
%TO.N,unconnected-(J1-SHIELD-Pad11)_5*%
X99110800Y-54508400D03*
D16*
%TO.N,unconnected-(J1-SHIELD-Pad11)_4*%
X99110800Y-57058400D03*
D19*
%TO.P,J1,10,SSRX+*%
%TO.N,unconnected-(J1-SSRX+-Pad10)*%
X96435800Y-45308400D03*
%TO.P,J1,9,SSRX-*%
%TO.N,unconnected-(J1-SSRX--Pad9)*%
X96435800Y-45958400D03*
%TO.P,J1,8,DRAIN*%
%TO.N,unconnected-(J1-DRAIN-Pad8)*%
X96435800Y-46608400D03*
%TO.P,J1,7,SSTX+*%
%TO.N,unconnected-(J1-SSTX+-Pad7)*%
X96435800Y-47258400D03*
%TO.P,J1,6,SSTX-*%
%TO.N,unconnected-(J1-SSTX--Pad6)*%
X96435800Y-47908400D03*
%TO.P,J1,5,GND*%
%TO.N,GND*%
X96435800Y-52008400D03*
%TO.P,J1,4,ID*%
%TO.N,unconnected-(J1-ID-Pad4)*%
X96435800Y-52658400D03*
%TO.P,J1,3,D+*%
%TO.N,/USB_D+*%
X96435800Y-53308400D03*
%TO.P,J1,2,D-*%
%TO.N,/USB_D-*%
X96435800Y-53958400D03*
%TO.P,J1,1,VBUS*%
%TO.N,VBUS*%
X96435800Y-54608400D03*
%TD*%
D20*
%TO.P,FB1,2*%
%TO.N,+3.3V*%
X57353200Y-64871600D03*
%TO.P,FB1,1*%
%TO.N,+3.3VA*%
X55778200Y-64871600D03*
%TD*%
D21*
%TO.P,D1,2,A*%
%TO.N,+3.3V*%
X89819000Y-64820800D03*
%TO.P,D1,1,K*%
X89179000Y-64820800D03*
%TD*%
D22*
%TO.P,C11,2*%
%TO.N,GND*%
X63927900Y-66090800D03*
%TO.P,C11,1*%
%TO.N,+3.3V*%
X61852900Y-66090800D03*
%TD*%
%TO.P,C10,2*%
%TO.N,GND*%
X57243800Y-62636400D03*
%TO.P,C10,1*%
%TO.N,VBUS*%
X55168800Y-62636400D03*
%TD*%
D23*
%TO.P,C9,2*%
%TO.N,~*%
X56913400Y-58420000D03*
%TO.P,C9,1*%
%TO.N,/NRST*%
X55778400Y-58420000D03*
%TD*%
D24*
%TO.P,C8,2*%
%TO.N,~*%
X79602000Y-44349300D03*
%TO.P,C8,1*%
%TO.N,+3.3V*%
X79602000Y-43849300D03*
%TD*%
D25*
%TO.P,C7,2*%
%TO.N,~*%
X62390400Y-49682400D03*
%TO.P,C7,1*%
%TO.N,+3.3VA*%
X62890400Y-49682400D03*
%TD*%
D26*
%TO.P,C6,2*%
%TO.N,~*%
X71475600Y-52324000D03*
%TO.P,C6,1*%
%TO.N,+3.3VA*%
X71475600Y-54049000D03*
%TD*%
D27*
%TO.P,C5,2*%
%TO.N,GND*%
X69507400Y-66090800D03*
%TO.P,C5,1*%
%TO.N,+3.3V*%
X67957400Y-66090800D03*
%TD*%
D28*
%TO.P,C4,1*%
%TO.N,+3.3V*%
X59588400Y-52290200D03*
%TO.P,C4,2*%
%TO.N,GND*%
X59588400Y-51790200D03*
%TD*%
D29*
%TO.P,C3,2*%
%TO.N,GND*%
X62814600Y-47650400D03*
%TO.P,C3,1*%
%TO.N,+3.3V*%
X62314600Y-47650400D03*
%TD*%
D28*
%TO.P,C2,2*%
%TO.N,GND*%
X86461600Y-62492000D03*
%TO.P,C2,1*%
%TO.N,+3.3V*%
X86461600Y-62992000D03*
%TD*%
D29*
%TO.P,C1,2*%
%TO.N,GND*%
X83176600Y-53035200D03*
%TO.P,C1,1*%
%TO.N,+3.3V*%
X82676600Y-53035200D03*
%TD*%
D28*
%TO.P,10p2,2*%
%TO.N,Net-(10p2-Pad2)*%
X79589600Y-58779600D03*
%TO.P,10p2,1*%
%TO.N,Net-(U1-PD0)*%
X79589600Y-59279600D03*
%TD*%
D29*
%TO.P,10p1,2*%
%TO.N,~*%
X78503000Y-52730400D03*
%TO.P,10p1,1*%
%TO.N,Net-(U1-PD0)*%
X78003000Y-52730400D03*
%TD*%
D30*
%TO.P,U2,1,GND*%
%TO.N,GND*%
X84189600Y-61722000D03*
%TO.P,U2,2,VO*%
%TO.N,+3.3V*%
X81889600Y-61722000D03*
D31*
X81889600Y-68022000D03*
D30*
%TO.P,U2,3,VI*%
%TO.N,VBUS*%
X79589600Y-61722000D03*
%TD*%
D32*
%TO.P,U1,1,VBAT*%
%TO.N,+3.3V*%
X61159500Y-53126900D03*
%TO.P,U1,2,PC13*%
%TO.N,unconnected-(U1-PC13-Pad2)*%
X61159500Y-53626900D03*
%TO.P,U1,3,PC14*%
%TO.N,unconnected-(U1-PC14-Pad3)*%
X61159500Y-54126900D03*
%TO.P,U1,4,PC15*%
%TO.N,unconnected-(U1-PC15-Pad4)*%
X61159500Y-54626900D03*
%TO.P,U1,5,PD0*%
%TO.N,Net-(U1-PD0)*%
X61159500Y-55126900D03*
%TO.P,U1,6,PD1*%
%TO.N,unconnected-(U1-PD1-Pad6)*%
X61159500Y-55626900D03*
%TO.P,U1,7,NRST*%
%TO.N,/NRST*%
X61159500Y-56126900D03*
%TO.P,U1,8,VSSA*%
%TO.N,GND*%
X61159500Y-56626900D03*
%TO.P,U1,9,VDDA*%
%TO.N,+3.3VA*%
X61159500Y-57126900D03*
%TO.P,U1,10,PA0*%
%TO.N,unconnected-(U1-PA0-Pad10)*%
X61159500Y-57626900D03*
%TO.P,U1,11,PA1*%
%TO.N,unconnected-(U1-PA1-Pad11)*%
X61159500Y-58126900D03*
%TO.P,U1,12,PA2*%
%TO.N,unconnected-(U1-PA2-Pad12)*%
X61159500Y-58626900D03*
D33*
%TO.P,U1,13,PA3*%
%TO.N,unconnected-(U1-PA3-Pad13)*%
X62572000Y-60039400D03*
%TO.P,U1,14,PA4*%
%TO.N,unconnected-(U1-PA4-Pad14)*%
X63072000Y-60039400D03*
%TO.P,U1,15,PA5*%
%TO.N,unconnected-(U1-PA5-Pad15)*%
X63572000Y-60039400D03*
%TO.P,U1,16,PA6*%
%TO.N,unconnected-(U1-PA6-Pad16)*%
X64072000Y-60039400D03*
%TO.P,U1,17,PA7*%
%TO.N,unconnected-(U1-PA7-Pad17)*%
X64572000Y-60039400D03*
%TO.P,U1,18,PB0*%
%TO.N,unconnected-(U1-PB0-Pad18)*%
X65072000Y-60039400D03*
%TO.P,U1,19,PB1*%
%TO.N,unconnected-(U1-PB1-Pad19)*%
X65572000Y-60039400D03*
%TO.P,U1,20,PB2*%
%TO.N,unconnected-(U1-PB2-Pad20)*%
X66072000Y-60039400D03*
%TO.P,U1,21,PB10*%
%TO.N,/12C2_SCL*%
X66572000Y-60039400D03*
%TO.P,U1,22,PB11*%
%TO.N,/12C2_SDA*%
X67072000Y-60039400D03*
%TO.P,U1,23,VSS*%
%TO.N,GND*%
X67572000Y-60039400D03*
%TO.P,U1,24,VDD*%
%TO.N,+3.3V*%
X68072000Y-60039400D03*
D32*
%TO.P,U1,25,PB12*%
%TO.N,unconnected-(U1-PB12-Pad25)*%
X69484500Y-58626900D03*
%TO.P,U1,26,PB13*%
%TO.N,unconnected-(U1-PB13-Pad26)*%
X69484500Y-58126900D03*
%TO.P,U1,27,PB14*%
%TO.N,unconnected-(U1-PB14-Pad27)*%
X69484500Y-57626900D03*
%TO.P,U1,28,PB15*%
%TO.N,unconnected-(U1-PB15-Pad28)*%
X69484500Y-57126900D03*
%TO.P,U1,29,PA8*%
%TO.N,unconnected-(U1-PA8-Pad29)*%
X69484500Y-56626900D03*
%TO.P,U1,30,PA9*%
%TO.N,unconnected-(U1-PA9-Pad30)*%
X69484500Y-56126900D03*
%TO.P,U1,31,PA10*%
%TO.N,unconnected-(U1-PA10-Pad31)*%
X69484500Y-55626900D03*
%TO.P,U1,32,PA11*%
%TO.N,/USB_D-*%
X69484500Y-55126900D03*
%TO.P,U1,33,PA12*%
%TO.N,/USB_D+*%
X69484500Y-54626900D03*
%TO.P,U1,34,PA13*%
%TO.N,/SWCLK*%
X69484500Y-54126900D03*
%TO.P,U1,35,VSS*%
%TO.N,GND*%
X69484500Y-53626900D03*
%TO.P,U1,36,VDD*%
%TO.N,+3.3V*%
X69484500Y-53126900D03*
D33*
%TO.P,U1,37,PA14*%
%TO.N,/SWCLK*%
X68072000Y-51714400D03*
%TO.P,U1,38,PA15*%
%TO.N,unconnected-(U1-PA15-Pad38)*%
X67572000Y-51714400D03*
%TO.P,U1,39,PB3*%
%TO.N,unconnected-(U1-PB3-Pad39)*%
X67072000Y-51714400D03*
%TO.P,U1,40,PB4*%
%TO.N,unconnected-(U1-PB4-Pad40)*%
X66572000Y-51714400D03*
%TO.P,U1,41,PB5*%
%TO.N,unconnected-(U1-PB5-Pad41)*%
X66072000Y-51714400D03*
%TO.P,U1,42,PB6*%
%TO.N,/USART1_TX*%
X65572000Y-51714400D03*
%TO.P,U1,43,PB7*%
%TO.N,/USART1_T1_RX*%
X65072000Y-51714400D03*
%TO.P,U1,44,BOOT0*%
%TO.N,Net-(U1-BOOT0)*%
X64572000Y-51714400D03*
%TO.P,U1,45,PB8*%
%TO.N,unconnected-(U1-PB8-Pad45)*%
X64072000Y-51714400D03*
%TO.P,U1,46,PB9*%
%TO.N,unconnected-(U1-PB9-Pad46)*%
X63572000Y-51714400D03*
%TO.P,U1,47,VSS*%
%TO.N,GND*%
X63072000Y-51714400D03*
%TO.P,U1,48,VDD*%
%TO.N,+3.3V*%
X62572000Y-51714400D03*
%TD*%
D34*
%TO.N,+3.3VA*%
X63500000Y-50250000D03*
%TO.N,~*%
X62500000Y-48750000D03*
X58250000Y-50500000D03*
%TO.N,/12C2_SDA*%
X60000000Y-65500000D03*
X59500000Y-67250000D03*
X60750000Y-63750000D03*
X69500000Y-70000000D03*
%TO.N,Net-(U1-PD0)*%
X83250000Y-65750000D03*
X59250000Y-54000000D03*
%TO.N,/USART1_T1_RX*%
X67000000Y-49000000D03*
%TO.N,/USART1_TX*%
X65500000Y-53750000D03*
%TO.N,Net-(U1-BOOT0)*%
X67500000Y-48000000D03*
%TO.N,/USART1_T1_RX*%
X67000000Y-50250000D03*
%TO.N,GND*%
X66750000Y-53626900D03*
%TO.N,/USART1_T1_RX*%
X73000000Y-27250000D03*
%TO.N,+3.3V*%
X87000000Y-71750000D03*
X88625000Y-69875000D03*
X84750000Y-69250000D03*
%TO.N,~*%
X56750000Y-42500000D03*
X52250000Y-40750000D03*
X79750000Y-52500000D03*
X70250000Y-52250000D03*
X72250000Y-50750000D03*
X57250000Y-60500000D03*
X70500000Y-51750000D03*
%TO.N,/USART1_TX*%
X79750000Y-30750000D03*
X67750000Y-43500000D03*
%TO.N,~*%
X75750000Y-49000000D03*
X79500000Y-46000000D03*
%TO.N,/USART1_TX*%
X65250000Y-45500000D03*
X77750000Y-31500000D03*
%TO.N,VBUS*%
X76500000Y-64750000D03*
X77500000Y-71000000D03*
%TO.N,+3.3VA*%
X63750000Y-56750000D03*
%TO.N,+3.3V*%
X82750000Y-64500000D03*
X86250000Y-65000000D03*
%TO.N,/SWCLK*%
X68250000Y-45000000D03*
X65500000Y-36250000D03*
%TO.N,/USB_D-*%
X97500000Y-54000000D03*
X67750000Y-56000000D03*
%TO.N,~*%
X74000000Y-52750000D03*
X74500000Y-49000000D03*
X58250000Y-39500000D03*
X79250000Y-45000000D03*
%TO.N,+3.3V*%
X61500000Y-38500000D03*
X67250000Y-36500000D03*
%TO.N,Net-(U1-BOOT0)*%
X69750000Y-42500000D03*
%TO.N,~*%
X57500000Y-58000000D03*
X59250000Y-55250000D03*
%TO.N,Net-(U1-PD0)*%
X77250000Y-53750000D03*
X78250000Y-56500000D03*
%TO.N,VBUS*%
X88500000Y-58250000D03*
X81500000Y-59750000D03*
%TO.N,+3.3V*%
X68250000Y-67250000D03*
X64000000Y-69000000D03*
X62750000Y-76000000D03*
X77750000Y-68000000D03*
X60000000Y-76500000D03*
X58250000Y-65000000D03*
X60750000Y-66500000D03*
X56750000Y-65750000D03*
X60500000Y-67500000D03*
X66250000Y-66750000D03*
%TO.N,/SWCLK*%
X68000000Y-54750000D03*
X68250000Y-52750000D03*
%TO.N,+3.3V*%
X59500000Y-50000000D03*
%TO.N,GND*%
X59000000Y-51750000D03*
X62500000Y-53750000D03*
X83500000Y-59500000D03*
X86250000Y-51750000D03*
%TO.N,/USB_D+*%
X73000000Y-47000000D03*
X71500000Y-55750000D03*
X76250000Y-56250000D03*
%TO.N,+3.3VA*%
X58750000Y-64250000D03*
X72500000Y-62750000D03*
%TO.N,~*%
X55750000Y-51750000D03*
X55750000Y-51750000D03*
X71500000Y-51000000D03*
%TD*%
D35*
%TO.N,+3.3VA*%
X62750001Y-50250000D02*
X63500000Y-50250000D01*
X62717158Y-50217157D02*
X62750001Y-50250000D01*
X62890400Y-50043915D02*
X62717158Y-50217157D01*
X62890400Y-49682400D02*
X62890400Y-50043915D01*
%TO.N,~*%
X62390400Y-48859600D02*
X62500000Y-48750000D01*
X62390400Y-49682400D02*
X62390400Y-48859600D01*
X57166800Y-53118100D02*
X57166800Y-51583200D01*
X57166800Y-51583200D02*
X58250000Y-50500000D01*
%TO.N,/12C2_SDA*%
X59500000Y-66000000D02*
X60000000Y-65500000D01*
X59500000Y-67250000D02*
X59500000Y-66000000D01*
%TO.N,+3.3VA*%
X73250000Y-63500000D02*
X72500000Y-62750000D01*
%TO.N,/12C2_SDA*%
X68500000Y-77750000D02*
X54000000Y-77750000D01*
X68378800Y-70307200D02*
X68500000Y-70428400D01*
X68500000Y-70428400D02*
X68500000Y-77750000D01*
X55250000Y-67250000D02*
X59500000Y-67250000D01*
X54000000Y-77750000D02*
X55250000Y-76500000D01*
X55250000Y-76500000D02*
X55250000Y-67250000D01*
X67072000Y-60039400D02*
X67072000Y-59072000D01*
X62500000Y-58750000D02*
X60750000Y-60500000D01*
X67072000Y-59072000D02*
X66750000Y-58750000D01*
X66750000Y-58750000D02*
X62500000Y-58750000D01*
X60750000Y-60500000D02*
X60750000Y-63750000D01*
X67022000Y-60089400D02*
X67022000Y-60500000D01*
X67072000Y-60039400D02*
X67022000Y-60089400D01*
X68378800Y-70307200D02*
X69192800Y-70307200D01*
X69192800Y-70307200D02*
X69500000Y-70000000D01*
%TO.N,Net-(U1-PD0)*%
X83750000Y-64250000D02*
X83750000Y-65250000D01*
X83000000Y-60750000D02*
X83000000Y-63500000D01*
X83000000Y-63500000D02*
X83750000Y-64250000D01*
X83750000Y-65250000D02*
X83250000Y-65750000D01*
X82750000Y-60500000D02*
X83000000Y-60750000D01*
X82750000Y-59250000D02*
X82750000Y-60500000D01*
X82250000Y-58750000D02*
X82750000Y-59250000D01*
X82750000Y-59250000D02*
X82811097Y-59311097D01*
X79589600Y-59279600D02*
X79810000Y-59500000D01*
X80750000Y-59500000D02*
X81500000Y-58750000D01*
X79810000Y-59500000D02*
X80750000Y-59500000D01*
X81500000Y-58750000D02*
X82250000Y-58750000D01*
X61159500Y-55126900D02*
X60376900Y-55126900D01*
X60376900Y-55126900D02*
X59250000Y-54000000D01*
%TO.N,/USART1_T1_RX*%
X67000000Y-50250000D02*
X67000000Y-49000000D01*
%TO.N,GND*%
X69484500Y-53626900D02*
X67250000Y-53626900D01*
X67250000Y-53626900D02*
X66376900Y-54500000D01*
X66376900Y-54500000D02*
X64500000Y-54500000D01*
X64500000Y-54500000D02*
X64500000Y-54178000D01*
X64500000Y-54178000D02*
X63072000Y-52750000D01*
%TO.N,/USART1_TX*%
X65572000Y-51714400D02*
X65572000Y-53678000D01*
X65572000Y-53678000D02*
X65500000Y-53750000D01*
%TO.N,Net-(U1-BOOT0)*%
X66894000Y-48000000D02*
X67500000Y-48000000D01*
X64572000Y-50322000D02*
X66894000Y-48000000D01*
%TO.N,/USART1_T1_RX*%
X66750000Y-50500000D02*
X67000000Y-50250000D01*
X65000000Y-50500000D02*
X66750000Y-50500000D01*
X65072000Y-51714400D02*
X65072000Y-50572000D01*
X65072000Y-50572000D02*
X65000000Y-50500000D01*
%TO.N,GND*%
X66750000Y-53626900D02*
X66623100Y-53626900D01*
X66587100Y-53464000D02*
X66750000Y-53626900D01*
X63914200Y-49585800D02*
X63914200Y-48750000D01*
X63914200Y-48750000D02*
X62814600Y-47650400D01*
%TO.N,/USART1_T1_RX*%
X78761200Y-27250000D02*
X73000000Y-27250000D01*
X81127600Y-29616400D02*
X78761200Y-27250000D01*
%TO.N,+3.3V*%
X86250000Y-65000000D02*
X86250000Y-67500000D01*
X86250000Y-67500000D02*
X88750000Y-70000000D01*
X83117600Y-69250000D02*
X84750000Y-69250000D01*
X81889600Y-68022000D02*
X83117600Y-69250000D01*
%TO.N,~*%
X57658000Y-41592000D02*
X56750000Y-42500000D01*
X57658000Y-41110400D02*
X57658000Y-41592000D01*
X43750000Y-60000000D02*
X46500000Y-57250000D01*
X46500000Y-57250000D02*
X46500000Y-41000000D01*
X44250000Y-60500000D02*
X43750000Y-60000000D01*
X57250000Y-60500000D02*
X44250000Y-60500000D01*
X46500000Y-41000000D02*
X46750000Y-40750000D01*
X46750000Y-40750000D02*
X52250000Y-40750000D01*
X78503000Y-52730400D02*
X78503000Y-52500000D01*
X78503000Y-52500000D02*
X79750000Y-52500000D01*
X70250000Y-52000000D02*
X70250000Y-52250000D01*
X70500000Y-51750000D02*
X70250000Y-52000000D01*
X71475600Y-52324000D02*
X72250000Y-51549600D01*
X72250000Y-51549600D02*
X72250000Y-50750000D01*
X57000000Y-59750000D02*
X57250000Y-60000000D01*
X57250000Y-60000000D02*
X57250000Y-60500000D01*
X71250000Y-51000000D02*
X70500000Y-51750000D01*
X71500000Y-51000000D02*
X71250000Y-51000000D01*
%TO.N,/USART1_TX*%
X78616400Y-29616400D02*
X79750000Y-30750000D01*
X78587600Y-29616400D02*
X78616400Y-29616400D01*
X67250000Y-43500000D02*
X67750000Y-43500000D01*
X65250000Y-45500000D02*
X67250000Y-43500000D01*
%TO.N,/12C2_SCL*%
X65125600Y-74218800D02*
X65125600Y-70713600D01*
X65125600Y-70713600D02*
X65582800Y-70256400D01*
%TO.N,~*%
X75500000Y-49000000D02*
X75750000Y-49000000D01*
X75000000Y-49500000D02*
X75500000Y-49000000D01*
X79250000Y-45000000D02*
X79500000Y-45250000D01*
X79500000Y-45250000D02*
X79500000Y-46000000D01*
%TO.N,+3.3VA*%
X55778200Y-64871600D02*
X55778200Y-64721800D01*
X74000000Y-56750000D02*
X73250000Y-57500000D01*
X73250000Y-57500000D02*
X73250000Y-63500000D01*
X71475600Y-54225600D02*
X74000000Y-56750000D01*
X71475600Y-54049000D02*
X71475600Y-54225600D01*
%TO.N,/USART1_TX*%
X65572000Y-45822000D02*
X65250000Y-45500000D01*
X78587600Y-29616400D02*
X77750000Y-30454000D01*
X77750000Y-30454000D02*
X77750000Y-31500000D01*
%TO.N,+3.3V*%
X72532600Y-64500000D02*
X73750000Y-64500000D01*
%TO.N,VBUS*%
X79528000Y-61722000D02*
X76500000Y-64750000D01*
X79589600Y-61722000D02*
X79528000Y-61722000D01*
X53750000Y-78250000D02*
X80500000Y-78250000D01*
X80500000Y-78250000D02*
X77500000Y-75250000D01*
X54532400Y-62000000D02*
X50000000Y-62000000D01*
X55168800Y-62636400D02*
X54532400Y-62000000D01*
X50000000Y-74500000D02*
X53750000Y-78250000D01*
X50000000Y-62000000D02*
X50000000Y-74500000D01*
X77500000Y-75250000D02*
X77500000Y-71000000D01*
%TO.N,+3.3VA*%
X63373100Y-57126900D02*
X63750000Y-56750000D01*
X61159500Y-57126900D02*
X63373100Y-57126900D01*
%TO.N,+3.3V*%
X81889600Y-63639600D02*
X82750000Y-64500000D01*
X81889600Y-61722000D02*
X81889600Y-63639600D01*
X86461600Y-62992000D02*
X86250000Y-63203600D01*
X86250000Y-63203600D02*
X86250000Y-65000000D01*
%TO.N,~*%
X55466800Y-55318100D02*
X54750000Y-56034900D01*
X57000000Y-59750000D02*
X57000000Y-58506600D01*
X57000000Y-58506600D02*
X56913400Y-58420000D01*
X54750000Y-59750000D02*
X57000000Y-59750000D01*
X54750000Y-56034900D02*
X54750000Y-59750000D01*
X57166800Y-53118100D02*
X55466800Y-53118100D01*
%TO.N,/SWCLK*%
X68250000Y-51536400D02*
X68250000Y-45000000D01*
X68072000Y-51714400D02*
X68250000Y-51536400D01*
X66700400Y-29667200D02*
X66700400Y-35049600D01*
X66700400Y-35049600D02*
X65500000Y-36250000D01*
%TO.N,/USB_D-*%
X97458400Y-53958400D02*
X97500000Y-54000000D01*
X96435800Y-53958400D02*
X97458400Y-53958400D01*
X68623100Y-55126900D02*
X67750000Y-56000000D01*
X69484500Y-55126900D02*
X68623100Y-55126900D01*
%TO.N,~*%
X73574000Y-52324000D02*
X74000000Y-52750000D01*
X71475600Y-52324000D02*
X73574000Y-52324000D01*
X78503000Y-51503000D02*
X76500000Y-49500000D01*
X78503000Y-52500000D02*
X78503000Y-51503000D01*
X75000000Y-49500000D02*
X74500000Y-49000000D01*
X76500000Y-49500000D02*
X75000000Y-49500000D01*
X57658000Y-40092000D02*
X58250000Y-39500000D01*
X57658000Y-41110400D02*
X57658000Y-40092000D01*
X79602000Y-44349300D02*
X79602000Y-44648000D01*
X79602000Y-44648000D02*
X79250000Y-45000000D01*
%TO.N,/12C2_SDA*%
X67665600Y-74218800D02*
X67665600Y-71020400D01*
X67665600Y-71020400D02*
X68378800Y-70307200D01*
%TO.N,/USART1_TX*%
X78587600Y-29616400D02*
X78587600Y-29087600D01*
%TO.N,+3.3V*%
X61468000Y-38532000D02*
X61500000Y-38500000D01*
X61468000Y-40233600D02*
X61468000Y-38532000D01*
X75849300Y-43849300D02*
X68250000Y-36250000D01*
X68000000Y-36500000D02*
X67250000Y-36500000D01*
X79602000Y-43849300D02*
X75849300Y-43849300D01*
X68250000Y-36250000D02*
X68000000Y-36500000D01*
X78752700Y-43000000D02*
X78500000Y-43000000D01*
X78500000Y-46394400D02*
X80416400Y-48310800D01*
X79602000Y-43849300D02*
X78752700Y-43000000D01*
X78500000Y-43000000D02*
X78500000Y-46394400D01*
X82676600Y-53035200D02*
X80416400Y-50775000D01*
X80416400Y-50775000D02*
X80416400Y-48310800D01*
X61468000Y-40233600D02*
X61468000Y-46803800D01*
X61468000Y-46803800D02*
X62314600Y-47650400D01*
X61468000Y-40233600D02*
X61468000Y-41300400D01*
X61468000Y-41300400D02*
X57658000Y-45110400D01*
%TO.N,Net-(U1-BOOT0)*%
X64572000Y-50322000D02*
X64500000Y-50250000D01*
X64572000Y-51714400D02*
X64572000Y-50322000D01*
X70730000Y-39730000D02*
X71250000Y-40250000D01*
X70000000Y-39730000D02*
X70730000Y-39730000D01*
X71250000Y-40250000D02*
X71250000Y-41000000D01*
X71250000Y-41000000D02*
X69750000Y-42500000D01*
%TO.N,Net-(SW1-A)*%
X70000000Y-40750000D02*
X66360400Y-37110400D01*
X66360400Y-37110400D02*
X57658000Y-37110400D01*
%TO.N,~*%
X57080000Y-58420000D02*
X57500000Y-58000000D01*
X56913400Y-58420000D02*
X57080000Y-58420000D01*
X57166800Y-53118100D02*
X59250000Y-55201300D01*
X59250000Y-55201300D02*
X59250000Y-55250000D01*
%TO.N,Net-(U1-PD0)*%
X78003000Y-52997000D02*
X77250000Y-53750000D01*
X78003000Y-52730400D02*
X78003000Y-52997000D01*
X78279600Y-59279600D02*
X78250000Y-59250000D01*
X79589600Y-59279600D02*
X78279600Y-59279600D01*
X78250000Y-59250000D02*
X78250000Y-56500000D01*
%TO.N,VBUS*%
X88500000Y-56250000D02*
X88500000Y-58250000D01*
X90141600Y-54608400D02*
X88500000Y-56250000D01*
X79589600Y-61722000D02*
X79589600Y-61660400D01*
X79589600Y-61660400D02*
X81500000Y-59750000D01*
X96435800Y-54608400D02*
X90141600Y-54608400D01*
%TO.N,GND*%
X87758400Y-52008400D02*
X83500000Y-47750000D01*
X96435800Y-52008400D02*
X87758400Y-52008400D01*
X83500000Y-47750000D02*
X82939200Y-48310800D01*
X82939200Y-48310800D02*
X81436400Y-48310800D01*
%TO.N,+3.3V*%
X67957400Y-66957400D02*
X68250000Y-67250000D01*
X67957400Y-66090800D02*
X67957400Y-66957400D01*
X62585600Y-70414400D02*
X64000000Y-69000000D01*
X62585600Y-74218800D02*
X62585600Y-70414400D01*
X62585600Y-74218800D02*
X62750000Y-74383200D01*
X62750000Y-74383200D02*
X62750000Y-76000000D01*
X77772000Y-68022000D02*
X77750000Y-68000000D01*
X81889600Y-68022000D02*
X77772000Y-68022000D01*
X81889600Y-61722000D02*
X81889600Y-68022000D01*
X62281200Y-74218800D02*
X60000000Y-76500000D01*
X62585600Y-74218800D02*
X62281200Y-74218800D01*
X57353200Y-64871600D02*
X58121600Y-64871600D01*
X58121600Y-64871600D02*
X58250000Y-65000000D01*
X71000000Y-27250000D02*
X61250000Y-27250000D01*
X61250000Y-27250000D02*
X61250000Y-29296800D01*
X76047600Y-29616400D02*
X73366400Y-29616400D01*
X61250000Y-29296800D02*
X61620400Y-29667200D01*
X73366400Y-29616400D02*
X71000000Y-27250000D01*
X61159200Y-66090800D02*
X60750000Y-66500000D01*
X61852900Y-66090800D02*
X61159200Y-66090800D01*
X56750000Y-65474800D02*
X56750000Y-65750000D01*
X57353200Y-64871600D02*
X56750000Y-65474800D01*
X61852900Y-66147100D02*
X60500000Y-67500000D01*
X61852900Y-66090800D02*
X61852900Y-66147100D01*
X66909200Y-66090800D02*
X66250000Y-66750000D01*
X67957400Y-66090800D02*
X66909200Y-66090800D01*
%TO.N,GND*%
X73416600Y-70000000D02*
X86500000Y-70000000D01*
X86500000Y-70000000D02*
X84189600Y-67689600D01*
X69507400Y-66090800D02*
X73416600Y-70000000D01*
X84189600Y-67689600D02*
X84189600Y-61722000D01*
X86461600Y-62492000D02*
X84959600Y-62492000D01*
X84959600Y-62492000D02*
X84189600Y-61722000D01*
%TO.N,+3.3V*%
X86461600Y-62992000D02*
X88290400Y-64820800D01*
X88290400Y-64820800D02*
X89819000Y-64820800D01*
%TO.N,/SWCLK*%
X68623100Y-54126900D02*
X68000000Y-54750000D01*
X69484500Y-54126900D02*
X68623100Y-54126900D01*
X68250000Y-51892400D02*
X68250000Y-52750000D01*
X68072000Y-51714400D02*
X68250000Y-51892400D01*
%TO.N,GND*%
X81436400Y-35563600D02*
X84000000Y-33000000D01*
X84000000Y-33000000D02*
X83667600Y-32667600D01*
X83667600Y-32667600D02*
X83667600Y-29616400D01*
X81436400Y-48310800D02*
X81436400Y-35563600D01*
X69250000Y-66348200D02*
X69250000Y-69250000D01*
X67087100Y-69250000D02*
X63927900Y-66090800D01*
X69507400Y-66090800D02*
X69250000Y-66348200D01*
X69250000Y-69250000D02*
X67087100Y-69250000D01*
X70205600Y-74218800D02*
X70205600Y-66789000D01*
X70205600Y-66789000D02*
X69507400Y-66090800D01*
%TO.N,+3.3V*%
X59500000Y-50000000D02*
X61214400Y-51714400D01*
X61214400Y-51714400D02*
X62572000Y-51714400D01*
X57658000Y-48158000D02*
X59500000Y-50000000D01*
X57658000Y-45110400D02*
X57658000Y-48158000D01*
%TO.N,GND*%
X67250000Y-53626900D02*
X66750000Y-53626900D01*
X63072000Y-51714400D02*
X63072000Y-52750000D01*
X59548200Y-51750000D02*
X59000000Y-51750000D01*
X59588400Y-51790200D02*
X59548200Y-51750000D01*
X63072000Y-52750000D02*
X63072000Y-53178000D01*
X63072000Y-53178000D02*
X62500000Y-53750000D01*
X84189600Y-61722000D02*
X84189600Y-60189600D01*
X84189600Y-60189600D02*
X83500000Y-59500000D01*
X83176600Y-52750000D02*
X84176600Y-51750000D01*
X84176600Y-51750000D02*
X86250000Y-51750000D01*
X83176600Y-50051000D02*
X83176600Y-52750000D01*
X81436400Y-48310800D02*
X83176600Y-50051000D01*
X83176600Y-52750000D02*
X83176600Y-53035200D01*
%TO.N,/USB_D+*%
X66233600Y-40233600D02*
X73000000Y-47000000D01*
X62488000Y-40233600D02*
X66233600Y-40233600D01*
X70376900Y-54626900D02*
X71500000Y-55750000D01*
X69484500Y-54626900D02*
X70376900Y-54626900D01*
X85191600Y-53308400D02*
X82750000Y-55750000D01*
X96435800Y-53308400D02*
X85191600Y-53308400D01*
X82750000Y-55750000D02*
X76750000Y-55750000D01*
X76750000Y-55750000D02*
X76250000Y-56250000D01*
%TO.N,GND*%
X63072000Y-54322000D02*
X67750000Y-59000000D01*
X67750000Y-59000000D02*
X67572000Y-59178000D01*
X63072000Y-51714400D02*
X63072000Y-54322000D01*
X67572000Y-59178000D02*
X67572000Y-60039400D01*
X63072000Y-51714400D02*
X63072000Y-56178000D01*
X63072000Y-56178000D02*
X62623100Y-56626900D01*
X62623100Y-56626900D02*
X61159500Y-56626900D01*
%TO.N,unconnected-(U1-PA15-Pad38)*%
X67572000Y-51714400D02*
X67557600Y-51714400D01*
%TO.N,GND*%
X71823200Y-32250000D02*
X82250000Y-32250000D01*
X82250000Y-32250000D02*
X82250000Y-31034000D01*
X82250000Y-31034000D02*
X83667600Y-29616400D01*
X69240400Y-29667200D02*
X71823200Y-32250000D01*
%TO.N,/SWCLK*%
X64160400Y-29667200D02*
X66700400Y-29667200D01*
%TO.N,+3.3V*%
X55750000Y-35537600D02*
X55750000Y-45250000D01*
X61620400Y-29667200D02*
X55750000Y-35537600D01*
X55750000Y-45250000D02*
X57518400Y-45250000D01*
X57518400Y-45250000D02*
X57658000Y-45110400D01*
%TO.N,+3.3VA*%
X56128400Y-64871600D02*
X57000000Y-64000000D01*
X55778200Y-64871600D02*
X56128400Y-64871600D01*
X57000000Y-64000000D02*
X58000000Y-64000000D01*
X58250000Y-64250000D02*
X58750000Y-64250000D01*
X58000000Y-64000000D02*
X58250000Y-64250000D01*
%TO.N,~*%
X55466800Y-55318100D02*
X55466800Y-53118100D01*
X55466800Y-53118100D02*
X55750000Y-52834900D01*
X55750000Y-52834900D02*
X55750000Y-51750000D01*
X57118100Y-53118100D02*
X55750000Y-51750000D01*
X57166800Y-53118100D02*
X57118100Y-53118100D01*
X71475600Y-52324000D02*
X71475600Y-51024400D01*
X71475600Y-51024400D02*
X71500000Y-51000000D01*
%TO.N,GND*%
X54500000Y-64250000D02*
X54250000Y-64000000D01*
X59750000Y-64500000D02*
X57750000Y-66500000D01*
X54500000Y-66500000D02*
X54500000Y-64250000D01*
X64500000Y-64500000D02*
X59750000Y-64500000D01*
X67572000Y-61428000D02*
X64500000Y-64500000D01*
X54250000Y-64000000D02*
X55880200Y-64000000D01*
X67572000Y-60039400D02*
X67572000Y-61428000D01*
X57750000Y-66500000D02*
X54500000Y-66500000D01*
X55880200Y-64000000D02*
X57243800Y-62636400D01*
X67572000Y-60039400D02*
X67572000Y-62446700D01*
X67572000Y-62446700D02*
X63927900Y-66090800D01*
X67572000Y-60039400D02*
X67572000Y-64155400D01*
X67572000Y-64155400D02*
X69507400Y-66090800D01*
%TO.N,+3.3V*%
X75250000Y-50500000D02*
X75250000Y-63000000D01*
X75250000Y-63000000D02*
X73750000Y-64500000D01*
X69484500Y-51765500D02*
X71250000Y-50000000D01*
X74750000Y-50000000D02*
X75250000Y-50500000D01*
X69484500Y-53126900D02*
X69484500Y-51765500D01*
X71250000Y-50000000D02*
X74750000Y-50000000D01*
X72532600Y-64500000D02*
X68072000Y-60039400D01*
X69484500Y-53126900D02*
X69484500Y-50515500D01*
X69484500Y-50515500D02*
X71689200Y-48310800D01*
X71689200Y-48310800D02*
X80416400Y-48310800D01*
%TO.N,+3.3VA*%
X59250000Y-62750000D02*
X58000000Y-64000000D01*
X59250000Y-57250000D02*
X59250000Y-62750000D01*
X61159500Y-57126900D02*
X59373100Y-57126900D01*
X59373100Y-57126900D02*
X59250000Y-57250000D01*
%TO.N,GND*%
X58873100Y-56626900D02*
X58250000Y-57250000D01*
X61159500Y-56626900D02*
X58873100Y-56626900D01*
X58250000Y-57250000D02*
X58250000Y-61630200D01*
X58250000Y-61630200D02*
X57243800Y-62636400D01*
%TO.N,/NRST*%
X61159500Y-56126900D02*
X58071500Y-56126900D01*
X58071500Y-56126900D02*
X55778400Y-58420000D01*
%TO.N,+3.3V*%
X61159500Y-53126900D02*
X62572000Y-51714400D01*
X61159500Y-53126900D02*
X60425100Y-53126900D01*
X60425100Y-53126900D02*
X59588400Y-52290200D01*
X61750000Y-50892400D02*
X61750000Y-47750000D01*
X62572000Y-51714400D02*
X61750000Y-50892400D01*
X61750000Y-47750000D02*
X62215000Y-47750000D01*
X62215000Y-47750000D02*
X62314600Y-47650400D01*
X60785600Y-51714400D02*
X60000000Y-52500000D01*
X60000000Y-52500000D02*
X59790200Y-52290200D01*
X62572000Y-51714400D02*
X60785600Y-51714400D01*
X59790200Y-52290200D02*
X59588400Y-52290200D01*
%TD*%
M02*
