M48
; DRILL file {KiCad 9.0.9} date 2026-05-15T17:36:29-0600
; FORMAT={-:-/ absolute / metric / decimal}
; #@! TF.CreationDate,2026-05-15T17:36:29-06:00
; #@! TF.GenerationSoftware,Kicad,Pcbnew,9.0.9
; #@! TF.FileFunction,Plated,1,2,PTH
FMAT,2
METRIC
; #@! TA.AperFunction,Plated,PTH,ViaDrill
T1C0.300
; #@! TA.AperFunction,Plated,PTH,ComponentDrill
T2C0.900
; #@! TA.AperFunction,Plated,PTH,ComponentDrill
T3C1.000
; #@! TA.AperFunction,Plated,PTH,ComponentDrill
T4C1.200
%
G90
G05
T1
X52.25Y-40.75
X55.75Y-51.75
X55.75Y-51.75
X56.75Y-42.5
X56.75Y-65.75
X57.25Y-60.5
X57.5Y-58.0
X58.25Y-39.5
X58.25Y-50.5
X58.25Y-65.0
X58.75Y-64.25
X59.0Y-51.75
X59.25Y-54.0
X59.25Y-55.25
X59.5Y-50.0
X59.5Y-67.25
X60.0Y-65.5
X60.0Y-76.5
X60.5Y-67.5
X60.75Y-63.75
X60.75Y-66.5
X61.5Y-38.5
X62.5Y-48.75
X62.5Y-53.75
X62.75Y-76.0
X63.5Y-50.25
X63.75Y-56.75
X64.0Y-69.0
X65.25Y-45.5
X65.5Y-36.25
X65.5Y-53.75
X66.25Y-66.75
X66.75Y-53.627
X67.0Y-49.0
X67.0Y-50.25
X67.25Y-36.5
X67.5Y-48.0
X67.75Y-43.5
X67.75Y-56.0
X68.0Y-54.75
X68.25Y-45.0
X68.25Y-52.75
X68.25Y-67.25
X69.5Y-70.0
X69.75Y-42.5
X70.25Y-52.25
X70.5Y-51.75
X71.5Y-51.0
X71.5Y-55.75
X72.25Y-50.75
X72.5Y-62.75
X73.0Y-27.25
X73.0Y-47.0
X74.0Y-52.75
X74.5Y-49.0
X75.75Y-49.0
X76.25Y-56.25
X76.5Y-64.75
X77.25Y-53.75
X77.5Y-71.0
X77.75Y-31.5
X77.75Y-68.0
X78.25Y-56.5
X79.25Y-45.0
X79.5Y-46.0
X79.75Y-30.75
X79.75Y-52.5
X81.5Y-59.75
X82.75Y-64.5
X83.25Y-65.75
X83.5Y-59.5
X84.75Y-69.25
X86.25Y-51.75
X86.25Y-65.0
X87.0Y-71.75
X88.5Y-58.25
X88.625Y-69.875
X97.5Y-54.0
T2
X57.658Y-37.11
X57.658Y-41.11
X57.658Y-45.11
T3
X61.62Y-29.667
X62.586Y-74.219
X64.16Y-29.667
X65.126Y-74.219
X66.7Y-29.667
X67.666Y-74.219
X69.24Y-29.667
X70.206Y-74.219
X76.048Y-29.616
X78.588Y-29.616
X81.128Y-29.616
X83.668Y-29.616
T4
X53.408Y-35.11
X53.408Y-47.11
X59.408Y-35.11
X59.408Y-47.11
M30
