%TF.GenerationSoftware,KiCad,Pcbnew,9.0.9*%
%TF.CreationDate,2026-05-15T17:36:55-06:00*%
%TF.ProjectId,Phil's_lab,5068696c-2773-45f6-9c61-622e6b696361,rev?*%
%TF.SameCoordinates,Original*%
%TF.FileFunction,Copper,L2,Bot*%
%TF.FilePolarity,Positive*%
%FSLAX46Y46*%
G04 Gerber Fmt 4.6, Leading zero omitted, Abs format (unit mm)*
G04 Created by KiCad (PCBNEW 9.0.9) date 2026-05-15 17:36:55*
%MOMM*%
%LPD*%
G01*
G04 APERTURE LIST*
%TA.AperFunction,ComponentPad*%
%ADD10C,1.700000*%
%TD*%
%TA.AperFunction,ComponentPad*%
%ADD11C,2.000000*%
%TD*%
%TA.AperFunction,ComponentPad*%
%ADD12R,1.700000X1.700000*%
%TD*%
%TA.AperFunction,ViaPad*%
%ADD13C,0.700000*%
%TD*%
%TA.AperFunction,Conductor*%
%ADD14C,0.200000*%
%TD*%
G04 APERTURE END LIST*
D10*
%TO.P,SW1,3,C*%
%TO.N,+3.3V*%
X57658000Y-45110400D03*
%TO.P,SW1,2,B*%
%TO.N,~*%
X57658000Y-41110400D03*
%TO.P,SW1,1,A*%
%TO.N,Net-(SW1-A)*%
X57658000Y-37110400D03*
D11*
%TO.P,SW1,*%
%TO.N,*%
X53408000Y-47110400D03*
X59408000Y-47110400D03*
X53408000Y-35110400D03*
X59408000Y-35110400D03*
%TD*%
D10*
%TO.P,J4,4,Pin_4*%
%TO.N,GND*%
X70205600Y-74218800D03*
%TO.P,J4,3,Pin_3*%
%TO.N,/12C2_SDA*%
X67665600Y-74218800D03*
%TO.P,J4,2,Pin_2*%
%TO.N,/12C2_SCL*%
X65125600Y-74218800D03*
D12*
%TO.P,J4,1,Pin_1*%
%TO.N,+3.3V*%
X62585600Y-74218800D03*
%TD*%
D10*
%TO.P,J3,4,Pin_4*%
%TO.N,GND*%
X83667600Y-29616400D03*
%TO.P,J3,3,Pin_3*%
%TO.N,/USART1_T1_RX*%
X81127600Y-29616400D03*
%TO.P,J3,2,Pin_2*%
%TO.N,/USART1_TX*%
X78587600Y-29616400D03*
D12*
%TO.P,J3,1,Pin_1*%
%TO.N,+3.3V*%
X76047600Y-29616400D03*
%TD*%
D10*
%TO.P,J2,4,Pin_4*%
%TO.N,GND*%
X69240400Y-29667200D03*
%TO.P,J2,3,Pin_3*%
%TO.N,/SWCLK*%
X66700400Y-29667200D03*
%TO.P,J2,2,Pin_2*%
X64160400Y-29667200D03*
D12*
%TO.P,J2,1,Pin_1*%
%TO.N,+3.3V*%
X61620400Y-29667200D03*
%TD*%
D13*
%TO.N,+3.3VA*%
X63500000Y-50250000D03*
%TO.N,~*%
X62500000Y-48750000D03*
X58250000Y-50500000D03*
%TO.N,/12C2_SDA*%
X60000000Y-65500000D03*
X59500000Y-67250000D03*
X60750000Y-63750000D03*
X69500000Y-70000000D03*
%TO.N,Net-(U1-PD0)*%
X83250000Y-65750000D03*
X59250000Y-54000000D03*
%TO.N,/USART1_T1_RX*%
X67000000Y-49000000D03*
%TO.N,/USART1_TX*%
X65500000Y-53750000D03*
%TO.N,Net-(U1-BOOT0)*%
X67500000Y-48000000D03*
%TO.N,/USART1_T1_RX*%
X67000000Y-50250000D03*
%TO.N,GND*%
X66750000Y-53626900D03*
%TO.N,/USART1_T1_RX*%
X73000000Y-27250000D03*
%TO.N,+3.3V*%
X87000000Y-71750000D03*
X88625000Y-69875000D03*
X84750000Y-69250000D03*
%TO.N,~*%
X56750000Y-42500000D03*
X52250000Y-40750000D03*
X79750000Y-52500000D03*
X70250000Y-52250000D03*
X72250000Y-50750000D03*
X57250000Y-60500000D03*
X70500000Y-51750000D03*
%TO.N,/USART1_TX*%
X79750000Y-30750000D03*
X67750000Y-43500000D03*
%TO.N,~*%
X75750000Y-49000000D03*
X79500000Y-46000000D03*
%TO.N,/USART1_TX*%
X65250000Y-45500000D03*
X77750000Y-31500000D03*
%TO.N,VBUS*%
X76500000Y-64750000D03*
X77500000Y-71000000D03*
%TO.N,+3.3VA*%
X63750000Y-56750000D03*
%TO.N,+3.3V*%
X82750000Y-64500000D03*
X86250000Y-65000000D03*
%TO.N,/SWCLK*%
X68250000Y-45000000D03*
X65500000Y-36250000D03*
%TO.N,/USB_D-*%
X97500000Y-54000000D03*
X67750000Y-56000000D03*
%TO.N,~*%
X74000000Y-52750000D03*
X74500000Y-49000000D03*
X58250000Y-39500000D03*
X79250000Y-45000000D03*
%TO.N,+3.3V*%
X61500000Y-38500000D03*
X67250000Y-36500000D03*
%TO.N,Net-(U1-BOOT0)*%
X69750000Y-42500000D03*
%TO.N,~*%
X57500000Y-58000000D03*
X59250000Y-55250000D03*
%TO.N,Net-(U1-PD0)*%
X77250000Y-53750000D03*
X78250000Y-56500000D03*
%TO.N,VBUS*%
X88500000Y-58250000D03*
X81500000Y-59750000D03*
%TO.N,+3.3V*%
X68250000Y-67250000D03*
X64000000Y-69000000D03*
X62750000Y-76000000D03*
X77750000Y-68000000D03*
X60000000Y-76500000D03*
X58250000Y-65000000D03*
X60750000Y-66500000D03*
X56750000Y-65750000D03*
X60500000Y-67500000D03*
X66250000Y-66750000D03*
%TO.N,/SWCLK*%
X68000000Y-54750000D03*
X68250000Y-52750000D03*
%TO.N,+3.3V*%
X59500000Y-50000000D03*
%TO.N,GND*%
X59000000Y-51750000D03*
X62500000Y-53750000D03*
X83500000Y-59500000D03*
X86250000Y-51750000D03*
%TO.N,/USB_D+*%
X73000000Y-47000000D03*
X71500000Y-55750000D03*
X76250000Y-56250000D03*
%TO.N,+3.3VA*%
X58750000Y-64250000D03*
X72500000Y-62750000D03*
%TO.N,~*%
X55750000Y-51750000D03*
X55750000Y-51750000D03*
X71500000Y-51000000D03*
%TD*%
D14*
%TO.N,+3.3VA*%
X65250000Y-50250000D02*
X65750000Y-50750000D01*
X63500000Y-50250000D02*
X65250000Y-50250000D01*
%TO.N,~*%
X66000000Y-54750000D02*
X64750000Y-54750000D01*
X64750000Y-54750000D02*
X64250000Y-54250000D01*
X67000000Y-55750000D02*
X66000000Y-54750000D01*
X62250000Y-60500000D02*
X67000000Y-55750000D01*
X57250000Y-60500000D02*
X62250000Y-60500000D01*
%TO.N,+3.3VA*%
X63500000Y-50250000D02*
X61500000Y-50250000D01*
X61500000Y-50250000D02*
X61250000Y-50000000D01*
%TO.N,~*%
X62500000Y-48750000D02*
X62000000Y-48250000D01*
X60750000Y-49500000D02*
X62000000Y-48250000D01*
X59000000Y-51000000D02*
X60000000Y-51000000D01*
X60750000Y-50250000D02*
X60750000Y-49500000D01*
X58250000Y-50500000D02*
X58500000Y-50500000D01*
X60000000Y-51000000D02*
X60750000Y-50250000D01*
X58500000Y-50500000D02*
X59000000Y-51000000D01*
%TO.N,/12C2_SDA*%
X60000000Y-65500000D02*
X60000000Y-64500000D01*
X60000000Y-64500000D02*
X60750000Y-63750000D01*
%TO.N,/USB_D+*%
X76250000Y-56250000D02*
X72250000Y-56250000D01*
X73000000Y-55500000D02*
X72250000Y-56250000D01*
X73000000Y-47000000D02*
X73000000Y-55500000D01*
%TO.N,/12C2_SDA*%
X72750000Y-63500000D02*
X73000000Y-63750000D01*
X72000000Y-63500000D02*
X72750000Y-63500000D01*
X73000000Y-63750000D02*
X73750000Y-64500000D01*
X71750000Y-63750000D02*
X72000000Y-63500000D01*
X62000000Y-63750000D02*
X71750000Y-63750000D01*
X66250000Y-72000000D02*
X73750000Y-64500000D01*
X64750000Y-72000000D02*
X66250000Y-72000000D01*
X61500000Y-68750000D02*
X64750000Y-72000000D01*
X59750000Y-67500000D02*
X59750000Y-68750000D01*
X59500000Y-67250000D02*
X59750000Y-67500000D01*
X59750000Y-68750000D02*
X61500000Y-68750000D01*
X62000000Y-63750000D02*
X62250000Y-63500000D01*
X60750000Y-63750000D02*
X62000000Y-63750000D01*
%TO.N,Net-(U1-PD0)*%
X72250000Y-61750000D02*
X60250000Y-61750000D01*
X51250000Y-64250000D02*
X51250000Y-59250000D01*
X82250000Y-65750000D02*
X80500000Y-64000000D01*
X80500000Y-64000000D02*
X75250000Y-64000000D01*
X72500000Y-62000000D02*
X72250000Y-61750000D01*
X83250000Y-65750000D02*
X82250000Y-65750000D01*
X75000000Y-64250000D02*
X72750000Y-62000000D01*
X75250000Y-64000000D02*
X75000000Y-64250000D01*
X72750000Y-62000000D02*
X72500000Y-62000000D01*
X57000000Y-65000000D02*
X52000000Y-65000000D01*
X60250000Y-61750000D02*
X57000000Y-65000000D01*
X52000000Y-65000000D02*
X51250000Y-64250000D01*
X51250000Y-59250000D02*
X54000000Y-59250000D01*
X54000000Y-59250000D02*
X59250000Y-54000000D01*
%TO.N,/USART1_T1_RX*%
X66000000Y-46000000D02*
X67250000Y-44750000D01*
X67500000Y-44750000D02*
X69000000Y-43250000D01*
X67250000Y-44750000D02*
X67500000Y-44750000D01*
X67000000Y-49000000D02*
X66000000Y-48000000D01*
X66000000Y-48000000D02*
X66000000Y-46000000D01*
%TO.N,/USART1_TX*%
X71000000Y-48250000D02*
X71000000Y-42000000D01*
X65500000Y-53750000D02*
X71000000Y-48250000D01*
X71000000Y-42000000D02*
X70250000Y-41250000D01*
X67750000Y-43500000D02*
X70250000Y-41000000D01*
X70250000Y-41250000D02*
X70250000Y-41000000D01*
%TO.N,Net-(U1-BOOT0)*%
X67500000Y-48000000D02*
X69750000Y-45750000D01*
X69750000Y-45750000D02*
X69750000Y-42500000D01*
%TO.N,/USART1_T1_RX*%
X66250000Y-50250000D02*
X64967157Y-48967157D01*
X67000000Y-50250000D02*
X66250000Y-50250000D01*
X64684314Y-49250000D02*
X64967157Y-48967157D01*
X64000000Y-49250000D02*
X64684314Y-49250000D01*
X64750000Y-43500000D02*
X64000000Y-44250000D01*
X64000000Y-44250000D02*
X64000000Y-49250000D01*
X64750000Y-42500000D02*
X64750000Y-43500000D01*
X70500000Y-36750000D02*
X64750000Y-42500000D01*
X73000000Y-27250000D02*
X70500000Y-29750000D01*
X70500000Y-29750000D02*
X70500000Y-36750000D01*
%TO.N,+3.3V*%
X88625000Y-69875000D02*
X87000000Y-71500000D01*
X84750000Y-69250000D02*
X87000000Y-71500000D01*
X87000000Y-71500000D02*
X87000000Y-71750000D01*
%TO.N,~*%
X56750000Y-42500000D02*
X55750000Y-42500000D01*
X55750000Y-42500000D02*
X54000000Y-40750000D01*
X52250000Y-40750000D02*
X54000000Y-40750000D01*
X79750000Y-52500000D02*
X79750000Y-51250000D01*
X79750000Y-51250000D02*
X79500000Y-51000000D01*
X89500000Y-51000000D02*
X79500000Y-51000000D01*
X61250000Y-47500000D02*
X61250000Y-45250000D01*
X94250000Y-68750000D02*
X105000000Y-58000000D01*
X94250000Y-73500000D02*
X94250000Y-68750000D01*
X60250000Y-48500000D02*
X61250000Y-47500000D01*
X103750000Y-36750000D02*
X89500000Y-51000000D01*
X49000000Y-75500000D02*
X51000000Y-77500000D01*
X61250000Y-45250000D02*
X58500000Y-42500000D01*
X58500000Y-42500000D02*
X57500000Y-43500000D01*
X55750000Y-51750000D02*
X55750000Y-51500000D01*
X58000000Y-49250000D02*
X60250000Y-49250000D01*
X57500000Y-43500000D02*
X49000000Y-43500000D01*
X105000000Y-58000000D02*
X105000000Y-38000000D01*
X49000000Y-43500000D02*
X49000000Y-75500000D01*
X55750000Y-51500000D02*
X58000000Y-49250000D01*
X90250000Y-77500000D02*
X94250000Y-73500000D01*
X51000000Y-77500000D02*
X90250000Y-77500000D01*
X60250000Y-49250000D02*
X60250000Y-48500000D01*
X105000000Y-38000000D02*
X103750000Y-36750000D01*
X72250000Y-50750000D02*
X71500000Y-50000000D01*
%TO.N,/USART1_TX*%
X79750000Y-30750000D02*
X79750000Y-31250000D01*
X79750000Y-31250000D02*
X79500000Y-31500000D01*
X79500000Y-31750000D02*
X79500000Y-31500000D01*
X70250000Y-41000000D02*
X79500000Y-31750000D01*
%TO.N,/SWCLK*%
X63500000Y-43250000D02*
X60250000Y-40000000D01*
X60750000Y-39500000D02*
X60750000Y-37750000D01*
X60250000Y-40000000D02*
X60750000Y-39500000D01*
X68250000Y-45000000D02*
X68000000Y-45000000D01*
%TO.N,+3.3VA*%
X61250000Y-51250000D02*
X61250000Y-50000000D01*
X63750000Y-53750000D02*
X61250000Y-51250000D01*
X63750000Y-56750000D02*
X63750000Y-53750000D01*
%TO.N,~*%
X75750000Y-49000000D02*
X75750000Y-48750000D01*
X75750000Y-48750000D02*
X78500000Y-46000000D01*
X79500000Y-46000000D02*
X78500000Y-46000000D01*
%TO.N,/USB_D+*%
X72000000Y-56250000D02*
X71500000Y-55750000D01*
%TO.N,+3.3VA*%
X59250000Y-63750000D02*
X60250000Y-62750000D01*
X59250000Y-65000000D02*
X59000000Y-65250000D01*
X59250000Y-63750000D02*
X59250000Y-65000000D01*
%TO.N,/USART1_TX*%
X65250000Y-45500000D02*
X65250000Y-47000000D01*
X65250000Y-47000000D02*
X64500000Y-47750000D01*
X77750000Y-31500000D02*
X64500000Y-44750000D01*
X64500000Y-44750000D02*
X64500000Y-47750000D01*
%TO.N,VBUS*%
X76500000Y-64750000D02*
X77000000Y-65250000D01*
X77000000Y-65250000D02*
X79250000Y-65250000D01*
X79250000Y-69250000D02*
X79250000Y-65250000D01*
X77500000Y-71000000D02*
X79250000Y-69250000D01*
%TO.N,+3.3V*%
X82750000Y-64500000D02*
X83000000Y-64500000D01*
X83000000Y-64500000D02*
X83250000Y-64250000D01*
X84000000Y-65000000D02*
X83250000Y-64250000D01*
X86250000Y-65000000D02*
X84000000Y-65000000D01*
%TO.N,/SWCLK*%
X64000000Y-37750000D02*
X65500000Y-36250000D01*
X60750000Y-37750000D02*
X64000000Y-37750000D01*
%TO.N,/USB_D-*%
X89000000Y-59250000D02*
X94125000Y-54125000D01*
X97500000Y-54000000D02*
X97375000Y-54125000D01*
X97375000Y-54125000D02*
X94125000Y-54125000D01*
X94125000Y-54125000D02*
X94250000Y-54000000D01*
X89000000Y-63250000D02*
X89000000Y-59250000D01*
X75000000Y-63250000D02*
X89000000Y-63250000D01*
X67750000Y-56000000D02*
X75000000Y-63250000D01*
%TO.N,~*%
X74000000Y-52250000D02*
X74250000Y-52000000D01*
X74000000Y-52750000D02*
X74000000Y-52250000D01*
X74250000Y-49250000D02*
X74250000Y-52000000D01*
X74500000Y-49000000D02*
X74250000Y-49250000D01*
X56250000Y-39500000D02*
X56250000Y-34500000D01*
X86750000Y-28500000D02*
X86750000Y-30250000D01*
X56250000Y-34500000D02*
X55000000Y-33250000D01*
X58250000Y-39500000D02*
X56250000Y-39500000D01*
X62250000Y-26000000D02*
X84250000Y-26000000D01*
X55000000Y-33250000D02*
X62250000Y-26000000D01*
X84250000Y-26000000D02*
X86750000Y-28500000D01*
X86750000Y-30250000D02*
X79250000Y-37750000D01*
X79250000Y-37750000D02*
X79250000Y-45000000D01*
%TO.N,+3.3V*%
X61500000Y-38500000D02*
X62000000Y-38500000D01*
X62000000Y-38500000D02*
X62500000Y-39000000D01*
X64750000Y-39000000D02*
X62500000Y-39000000D01*
X67250000Y-36500000D02*
X64750000Y-39000000D01*
%TO.N,~*%
X59250000Y-55750000D02*
X59250000Y-55250000D01*
X57500000Y-58000000D02*
X57500000Y-57500000D01*
X57500000Y-57500000D02*
X59250000Y-55750000D01*
%TO.N,Net-(U1-PD0)*%
X77250000Y-53750000D02*
X78250000Y-53750000D01*
X78250000Y-56500000D02*
X78250000Y-53750000D01*
%TO.N,VBUS*%
X88500000Y-58250000D02*
X88500000Y-59500000D01*
X88500000Y-59500000D02*
X87500000Y-60500000D01*
X82250000Y-60500000D02*
X87500000Y-60500000D01*
X81500000Y-59750000D02*
X82250000Y-60500000D01*
%TO.N,+3.3V*%
X68250000Y-67250000D02*
X67750000Y-67250000D01*
X64000000Y-69000000D02*
X66000000Y-69000000D01*
X66000000Y-69000000D02*
X67750000Y-67250000D01*
X62750000Y-76000000D02*
X62750000Y-76500000D01*
X62750000Y-76500000D02*
X63000000Y-76750000D01*
X72750000Y-76750000D02*
X63000000Y-76750000D01*
X72750000Y-73000000D02*
X72750000Y-76750000D01*
X77750000Y-68000000D02*
X72750000Y-73000000D01*
X60000000Y-76500000D02*
X59250000Y-75750000D01*
X59250000Y-75750000D02*
X59250000Y-74750000D01*
X58250000Y-73750000D02*
X59250000Y-74750000D01*
X58250000Y-65000000D02*
X58250000Y-73750000D01*
X60750000Y-66500000D02*
X60250000Y-66500000D01*
X60250000Y-66500000D02*
X60000000Y-66250000D01*
X56750000Y-65750000D02*
X57250000Y-66250000D01*
X57250000Y-66250000D02*
X60000000Y-66250000D01*
X60500000Y-67500000D02*
X65500000Y-67500000D01*
X65500000Y-67500000D02*
X66250000Y-66750000D01*
%TO.N,/SWCLK*%
X68000000Y-54750000D02*
X67500000Y-54750000D01*
X67500000Y-54750000D02*
X67250000Y-54500000D01*
X68250000Y-53500000D02*
X67250000Y-54500000D01*
X68250000Y-52750000D02*
X68250000Y-53500000D01*
%TO.N,GND*%
X59000000Y-51750000D02*
X60000000Y-51750000D01*
X60000000Y-51750000D02*
X60250000Y-51500000D01*
X62500000Y-53750000D02*
X60250000Y-51500000D01*
X83500000Y-59500000D02*
X84000000Y-59500000D01*
X84000000Y-59500000D02*
X86250000Y-57250000D01*
X86250000Y-57250000D02*
X86250000Y-51750000D01*
%TO.N,/USB_D+*%
X72250000Y-56250000D02*
X72000000Y-56250000D01*
%TO.N,+3.3VA*%
X58750000Y-64250000D02*
X59250000Y-63750000D01*
X60250000Y-62750000D02*
X72500000Y-62750000D01*
%TD*%
%TA.AperFunction,NonConductor*%
G36*
X72246146Y-26620185D02*
G01*
X72291901Y-26672989D01*
X72301845Y-26742147D01*
X72282209Y-26793390D01*
X72246298Y-26847134D01*
X72246296Y-26847138D01*
X72182184Y-27001917D01*
X72182182Y-27001925D01*
X72149500Y-27166228D01*
X72149500Y-27199902D01*
X72129815Y-27266941D01*
X72113181Y-27287583D01*
X70517440Y-28883323D01*
X70456117Y-28916808D01*
X70386425Y-28911824D01*
X70330492Y-28869952D01*
X70329441Y-28868527D01*
X70270509Y-28787414D01*
X70270505Y-28787409D01*
X70120186Y-28637090D01*
X69948220Y-28512151D01*
X69758814Y-28415644D01*
X69758813Y-28415643D01*
X69758812Y-28415643D01*
X69556643Y-28349954D01*
X69556641Y-28349953D01*
X69556640Y-28349953D01*
X69395357Y-28324408D01*
X69346687Y-28316700D01*
X69134113Y-28316700D01*
X69085442Y-28324408D01*
X68924160Y-28349953D01*
X68823072Y-28382798D01*
X68742889Y-28408852D01*
X68721985Y-28415644D01*
X68532579Y-28512151D01*
X68360613Y-28637090D01*
X68210290Y-28787413D01*
X68085349Y-28959382D01*
X68080884Y-28968146D01*
X68032909Y-29018942D01*
X67965088Y-29035736D01*
X67898953Y-29013198D01*
X67859916Y-28968146D01*
X67855450Y-28959382D01*
X67730509Y-28787413D01*
X67580186Y-28637090D01*
X67408220Y-28512151D01*
X67218814Y-28415644D01*
X67218813Y-28415643D01*
X67218812Y-28415643D01*
X67016643Y-28349954D01*
X67016641Y-28349953D01*
X67016640Y-28349953D01*
X66855357Y-28324408D01*
X66806687Y-28316700D01*
X66594113Y-28316700D01*
X66545442Y-28324408D01*
X66384160Y-28349953D01*
X66283072Y-28382798D01*
X66202889Y-28408852D01*
X66181985Y-28415644D01*
X65992579Y-28512151D01*
X65820613Y-28637090D01*
X65670290Y-28787413D01*
X65545349Y-28959382D01*
X65540884Y-28968146D01*
X65492909Y-29018942D01*
X65425088Y-29035736D01*
X65358953Y-29013198D01*
X65319916Y-28968146D01*
X65315450Y-28959382D01*
X65190509Y-28787413D01*
X65040186Y-28637090D01*
X64868220Y-28512151D01*
X64678814Y-28415644D01*
X64678813Y-28415643D01*
X64678812Y-28415643D01*
X64476643Y-28349954D01*
X64476641Y-28349953D01*
X64476640Y-28349953D01*
X64315357Y-28324408D01*
X64266687Y-28316700D01*
X64054113Y-28316700D01*
X64005442Y-28324408D01*
X63844160Y-28349953D01*
X63743072Y-28382798D01*
X63662889Y-28408852D01*
X63641985Y-28415644D01*
X63452579Y-28512151D01*
X63280615Y-28637089D01*
X63167073Y-28750631D01*
X63105750Y-28784115D01*
X63036058Y-28779131D01*
X62980125Y-28737259D01*
X62963210Y-28706282D01*
X62914197Y-28574871D01*
X62914193Y-28574864D01*
X62827947Y-28459655D01*
X62827944Y-28459652D01*
X62712735Y-28373406D01*
X62712728Y-28373402D01*
X62577882Y-28323108D01*
X62577883Y-28323108D01*
X62518283Y-28316701D01*
X62518281Y-28316700D01*
X62518273Y-28316700D01*
X62518265Y-28316700D01*
X61081896Y-28316700D01*
X61014857Y-28297015D01*
X60969102Y-28244211D01*
X60959158Y-28175053D01*
X60988183Y-28111497D01*
X60994215Y-28105019D01*
X62462416Y-26636819D01*
X62523739Y-26603334D01*
X62550097Y-26600500D01*
X72179107Y-26600500D01*
X72246146Y-26620185D01*
G37*
%TD.AperFunction*%
%TA.AperFunction,NonConductor*%
G36*
X78846742Y-30953589D02*
G01*
X78878134Y-30957646D01*
X78880838Y-30959922D01*
X78884314Y-30960568D01*
X78907372Y-30982258D01*
X78931586Y-31002642D01*
X78934138Y-31007437D01*
X78935205Y-31008441D01*
X78935675Y-31010326D01*
X78942800Y-31023712D01*
X78977375Y-31107183D01*
X78984844Y-31176652D01*
X78970202Y-31216635D01*
X78940424Y-31268212D01*
X78940423Y-31268214D01*
X78940423Y-31268215D01*
X78899499Y-31420943D01*
X78899499Y-31420945D01*
X78899499Y-31449903D01*
X78890854Y-31479343D01*
X78884331Y-31509330D01*
X78880576Y-31514345D01*
X78879814Y-31516942D01*
X78863181Y-31537583D01*
X78812181Y-31588583D01*
X78750858Y-31622068D01*
X78681166Y-31617084D01*
X78625233Y-31575212D01*
X78600816Y-31509748D01*
X78600500Y-31500902D01*
X78600500Y-31416232D01*
X78600499Y-31416228D01*
X78589472Y-31360791D01*
X78567816Y-31251918D01*
X78520774Y-31138351D01*
X78517917Y-31111773D01*
X78511439Y-31085836D01*
X78514239Y-31077564D01*
X78513306Y-31068884D01*
X78525270Y-31044981D01*
X78533845Y-31019656D01*
X78540673Y-31014211D01*
X78544581Y-31006405D01*
X78567569Y-30992765D01*
X78588474Y-30976096D01*
X78599214Y-30973988D01*
X78604669Y-30970752D01*
X78622716Y-30967544D01*
X78629011Y-30966900D01*
X78693887Y-30966900D01*
X78812238Y-30948154D01*
X78815619Y-30947809D01*
X78846742Y-30953589D01*
G37*
%TD.AperFunction*%
%TA.AperFunction,NonConductor*%
G36*
X66805398Y-43381953D02*
G01*
X66818834Y-43382914D01*
X66836560Y-43396184D01*
X66856703Y-43405383D01*
X66863985Y-43416714D01*
X66874767Y-43424786D01*
X66882504Y-43445531D01*
X66894477Y-43464161D01*
X66897628Y-43486079D01*
X66899184Y-43490250D01*
X66899500Y-43499096D01*
X66899500Y-43583771D01*
X66932182Y-43748074D01*
X66932184Y-43748082D01*
X66987358Y-43881284D01*
X66996297Y-43902863D01*
X67027616Y-43949735D01*
X67067595Y-44009568D01*
X67071557Y-44022224D01*
X67079728Y-44032669D01*
X67081794Y-44054918D01*
X67088472Y-44076245D01*
X67084963Y-44089034D01*
X67086190Y-44102239D01*
X67075898Y-44122075D01*
X67069987Y-44143625D01*
X67059402Y-44153873D01*
X67054014Y-44164259D01*
X67035824Y-44176701D01*
X67026215Y-44186005D01*
X67018781Y-44190271D01*
X67018215Y-44190423D01*
X66968096Y-44219358D01*
X66967919Y-44219461D01*
X66881285Y-44269479D01*
X66881282Y-44269481D01*
X66769478Y-44381286D01*
X66130539Y-45020224D01*
X66069216Y-45053709D01*
X65999524Y-45048725D01*
X65943591Y-45006853D01*
X65939756Y-45001433D01*
X65910629Y-44957842D01*
X65910623Y-44957834D01*
X65792162Y-44839373D01*
X65652860Y-44746295D01*
X65612235Y-44729468D01*
X65557832Y-44685627D01*
X65535767Y-44619333D01*
X65553046Y-44551633D01*
X65572003Y-44527230D01*
X66687819Y-43411415D01*
X66707255Y-43400802D01*
X66723989Y-43386302D01*
X66737320Y-43384385D01*
X66749142Y-43377930D01*
X66771228Y-43379509D01*
X66793147Y-43376358D01*
X66805398Y-43381953D01*
G37*
%TD.AperFunction*%
%TA.AperFunction,NonConductor*%
G36*
X58543333Y-43408414D02*
G01*
X58587680Y-43436915D01*
X60613181Y-45462416D01*
X60646666Y-45523739D01*
X60649500Y-45550097D01*
X60649500Y-45930511D01*
X60629815Y-45997550D01*
X60577011Y-46043305D01*
X60507853Y-46053249D01*
X60444297Y-46024224D01*
X60437819Y-46018192D01*
X60385512Y-45965885D01*
X60385510Y-45965883D01*
X60194433Y-45827057D01*
X60177500Y-45818429D01*
X59983996Y-45719833D01*
X59759368Y-45646846D01*
X59526097Y-45609900D01*
X59526092Y-45609900D01*
X59289908Y-45609900D01*
X59289903Y-45609900D01*
X59095257Y-45640729D01*
X59025964Y-45631774D01*
X58972512Y-45586778D01*
X58951872Y-45520027D01*
X58957928Y-45479941D01*
X58975246Y-45426643D01*
X59008500Y-45216687D01*
X59008500Y-45004113D01*
X58975246Y-44794157D01*
X58909557Y-44591988D01*
X58813051Y-44402584D01*
X58813049Y-44402581D01*
X58813048Y-44402579D01*
X58688109Y-44230613D01*
X58537786Y-44080290D01*
X58365819Y-43955351D01*
X58365818Y-43955350D01*
X58365816Y-43955349D01*
X58205249Y-43873536D01*
X58154453Y-43825561D01*
X58137658Y-43757740D01*
X58160195Y-43691605D01*
X58173856Y-43675378D01*
X58412321Y-43436912D01*
X58473641Y-43403430D01*
X58543333Y-43408414D01*
G37*
%TD.AperFunction*%
%TA.AperFunction,NonConductor*%
G36*
X67500473Y-45451273D02*
G01*
X67556407Y-45493145D01*
X67560242Y-45498564D01*
X67589373Y-45542161D01*
X67589376Y-45542165D01*
X67707837Y-45660626D01*
X67778280Y-45707694D01*
X67847137Y-45753703D01*
X68001918Y-45817816D01*
X68130438Y-45843380D01*
X68166228Y-45850499D01*
X68166232Y-45850500D01*
X68166233Y-45850500D01*
X68333768Y-45850500D01*
X68333769Y-45850499D01*
X68498082Y-45817816D01*
X68498094Y-45817810D01*
X68503909Y-45816048D01*
X68504631Y-45818429D01*
X68563245Y-45812117D01*
X68625730Y-45843380D01*
X68661393Y-45903462D01*
X68658913Y-45973288D01*
X68628932Y-46021832D01*
X67537584Y-47113181D01*
X67476261Y-47146666D01*
X67449903Y-47149500D01*
X67416228Y-47149500D01*
X67251925Y-47182182D01*
X67251917Y-47182184D01*
X67097139Y-47246295D01*
X66957837Y-47339373D01*
X66839376Y-47457834D01*
X66839371Y-47457840D01*
X66827601Y-47475456D01*
X66773989Y-47520260D01*
X66704664Y-47528967D01*
X66641636Y-47498812D01*
X66604918Y-47439368D01*
X66600500Y-47406564D01*
X66600500Y-46300096D01*
X66620185Y-46233057D01*
X66636815Y-46212419D01*
X67369461Y-45479772D01*
X67430782Y-45446289D01*
X67500473Y-45451273D01*
G37*
%TD.AperFunction*%
%TA.AperFunction,NonConductor*%
G36*
X60189234Y-29012513D02*
G01*
X60245167Y-29054385D01*
X60269584Y-29119849D01*
X60269900Y-29128695D01*
X60269900Y-30565070D01*
X60269901Y-30565076D01*
X60276308Y-30624683D01*
X60326602Y-30759528D01*
X60326606Y-30759535D01*
X60412852Y-30874744D01*
X60412855Y-30874747D01*
X60528064Y-30960993D01*
X60528071Y-30960997D01*
X60662917Y-31011291D01*
X60662916Y-31011291D01*
X60669844Y-31012035D01*
X60722527Y-31017700D01*
X62518272Y-31017699D01*
X62577883Y-31011291D01*
X62712731Y-30960996D01*
X62827946Y-30874746D01*
X62914196Y-30759531D01*
X62963210Y-30628116D01*
X63005081Y-30572184D01*
X63070545Y-30547766D01*
X63138818Y-30562617D01*
X63167073Y-30583769D01*
X63280613Y-30697309D01*
X63452579Y-30822248D01*
X63452581Y-30822249D01*
X63452584Y-30822251D01*
X63641988Y-30918757D01*
X63844157Y-30984446D01*
X64054113Y-31017700D01*
X64054114Y-31017700D01*
X64266686Y-31017700D01*
X64266687Y-31017700D01*
X64476643Y-30984446D01*
X64678812Y-30918757D01*
X64868216Y-30822251D01*
X64954538Y-30759535D01*
X65040186Y-30697309D01*
X65040188Y-30697306D01*
X65040192Y-30697304D01*
X65190504Y-30546992D01*
X65190506Y-30546988D01*
X65190509Y-30546986D01*
X65315448Y-30375020D01*
X65315447Y-30375020D01*
X65315451Y-30375016D01*
X65319914Y-30366254D01*
X65367888Y-30315459D01*
X65435708Y-30298663D01*
X65501844Y-30321199D01*
X65540886Y-30366256D01*
X65545351Y-30375020D01*
X65670290Y-30546986D01*
X65820613Y-30697309D01*
X65992579Y-30822248D01*
X65992581Y-30822249D01*
X65992584Y-30822251D01*
X66181988Y-30918757D01*
X66384157Y-30984446D01*
X66594113Y-31017700D01*
X66594114Y-31017700D01*
X66806686Y-31017700D01*
X66806687Y-31017700D01*
X67016643Y-30984446D01*
X67218812Y-30918757D01*
X67408216Y-30822251D01*
X67494538Y-30759535D01*
X67580186Y-30697309D01*
X67580188Y-30697306D01*
X67580192Y-30697304D01*
X67730504Y-30546992D01*
X67730506Y-30546988D01*
X67730509Y-30546986D01*
X67855448Y-30375020D01*
X67855447Y-30375020D01*
X67855451Y-30375016D01*
X67859914Y-30366254D01*
X67907888Y-30315459D01*
X67975708Y-30298663D01*
X68041844Y-30321199D01*
X68080886Y-30366256D01*
X68085351Y-30375020D01*
X68210290Y-30546986D01*
X68360613Y-30697309D01*
X68532579Y-30822248D01*
X68532581Y-30822249D01*
X68532584Y-30822251D01*
X68721988Y-30918757D01*
X68924157Y-30984446D01*
X69134113Y-31017700D01*
X69134114Y-31017700D01*
X69346686Y-31017700D01*
X69346687Y-31017700D01*
X69556643Y-30984446D01*
X69737185Y-30925783D01*
X69807023Y-30923789D01*
X69866856Y-30959869D01*
X69897684Y-31022570D01*
X69899500Y-31043715D01*
X69899500Y-36449902D01*
X69879815Y-36516941D01*
X69863181Y-36537583D01*
X64269481Y-42131282D01*
X64269479Y-42131285D01*
X64219361Y-42218094D01*
X64219359Y-42218096D01*
X64190425Y-42268209D01*
X64190424Y-42268210D01*
X64190423Y-42268215D01*
X64149499Y-42420943D01*
X64149499Y-42420945D01*
X64149499Y-42589046D01*
X64149500Y-42589059D01*
X64149500Y-42750903D01*
X64129815Y-42817942D01*
X64077011Y-42863697D01*
X64007853Y-42873641D01*
X63944297Y-42844616D01*
X63937819Y-42838584D01*
X61186916Y-40087681D01*
X61153431Y-40026358D01*
X61158415Y-39956666D01*
X61186915Y-39912319D01*
X61230520Y-39868716D01*
X61309577Y-39731784D01*
X61350501Y-39579057D01*
X61350501Y-39474500D01*
X61370186Y-39407461D01*
X61422990Y-39361706D01*
X61474501Y-39350500D01*
X61583768Y-39350500D01*
X61583769Y-39350499D01*
X61748082Y-39317816D01*
X61827451Y-39284939D01*
X61896919Y-39277471D01*
X61959398Y-39308746D01*
X61962584Y-39311820D01*
X62131284Y-39480520D01*
X62131286Y-39480521D01*
X62131290Y-39480524D01*
X62268209Y-39559573D01*
X62268212Y-39559575D01*
X62268216Y-39559577D01*
X62420943Y-39600501D01*
X62420945Y-39600501D01*
X62586654Y-39600501D01*
X62586670Y-39600500D01*
X64663331Y-39600500D01*
X64663347Y-39600501D01*
X64670943Y-39600501D01*
X64829054Y-39600501D01*
X64829057Y-39600501D01*
X64981785Y-39559577D01*
X65051233Y-39519481D01*
X65118716Y-39480520D01*
X65230520Y-39368716D01*
X65230520Y-39368714D01*
X65240724Y-39358511D01*
X65240727Y-39358506D01*
X67212416Y-37386819D01*
X67273739Y-37353334D01*
X67300097Y-37350500D01*
X67333768Y-37350500D01*
X67333769Y-37350499D01*
X67498082Y-37317816D01*
X67652863Y-37253703D01*
X67792162Y-37160626D01*
X67910626Y-37042162D01*
X68003703Y-36902863D01*
X68067816Y-36748082D01*
X68100500Y-36583767D01*
X68100500Y-36416233D01*
X68067816Y-36251918D01*
X68003703Y-36097137D01*
X67940084Y-36001925D01*
X67910626Y-35957837D01*
X67792162Y-35839373D01*
X67652860Y-35746295D01*
X67498082Y-35682184D01*
X67498074Y-35682182D01*
X67333771Y-35649500D01*
X67333767Y-35649500D01*
X67166233Y-35649500D01*
X67166228Y-35649500D01*
X67001925Y-35682182D01*
X67001917Y-35682184D01*
X66847139Y-35746295D01*
X66707837Y-35839373D01*
X66589376Y-35957834D01*
X66589373Y-35957838D01*
X66539067Y-36033127D01*
X66485455Y-36077932D01*
X66416130Y-36086639D01*
X66353102Y-36056485D01*
X66321579Y-36006952D01*
X66320147Y-36007546D01*
X66317815Y-36001917D01*
X66253703Y-35847137D01*
X66217632Y-35793153D01*
X66160626Y-35707837D01*
X66042162Y-35589373D01*
X65902860Y-35496295D01*
X65748082Y-35432184D01*
X65748074Y-35432182D01*
X65583771Y-35399500D01*
X65583767Y-35399500D01*
X65416233Y-35399500D01*
X65416228Y-35399500D01*
X65251925Y-35432182D01*
X65251917Y-35432184D01*
X65097139Y-35496295D01*
X64957837Y-35589373D01*
X64839373Y-35707837D01*
X64746295Y-35847139D01*
X64682184Y-36001917D01*
X64682182Y-36001925D01*
X64649500Y-36166228D01*
X64649500Y-36199903D01*
X64629815Y-36266942D01*
X64613181Y-36287584D01*
X63787584Y-37113181D01*
X63726261Y-37146666D01*
X63699903Y-37149500D01*
X60670943Y-37149500D01*
X60518216Y-37190423D01*
X60518209Y-37190426D01*
X60381290Y-37269475D01*
X60381282Y-37269481D01*
X60269481Y-37381282D01*
X60269475Y-37381290D01*
X60190426Y-37518209D01*
X60190423Y-37518216D01*
X60149500Y-37670943D01*
X60149500Y-39199902D01*
X60129815Y-39266941D01*
X60113181Y-39287583D01*
X59881284Y-39519481D01*
X59769483Y-39631281D01*
X59769481Y-39631284D01*
X59690423Y-39768214D01*
X59690423Y-39768215D01*
X59649499Y-39920943D01*
X59649499Y-39920945D01*
X59649499Y-40079054D01*
X59649498Y-40079054D01*
X59660519Y-40120185D01*
X59690423Y-40231785D01*
X59769481Y-40368716D01*
X63131284Y-43730519D01*
X63268215Y-43809577D01*
X63365577Y-43835665D01*
X63425237Y-43872029D01*
X63455766Y-43934876D01*
X63447471Y-44004251D01*
X63440873Y-44017435D01*
X63440424Y-44018212D01*
X63440423Y-44018214D01*
X63440423Y-44018215D01*
X63399499Y-44170943D01*
X63399499Y-44170945D01*
X63399499Y-44339046D01*
X63399500Y-44339059D01*
X63399500Y-48156564D01*
X63379815Y-48223603D01*
X63327011Y-48269358D01*
X63257853Y-48279302D01*
X63194297Y-48250277D01*
X63172399Y-48225456D01*
X63160628Y-48207840D01*
X63160623Y-48207834D01*
X63042162Y-48089373D01*
X62902860Y-47996295D01*
X62748082Y-47932184D01*
X62748074Y-47932182D01*
X62583771Y-47899500D01*
X62583767Y-47899500D01*
X62550097Y-47899500D01*
X62483058Y-47879815D01*
X62462416Y-47863181D01*
X62368718Y-47769483D01*
X62368716Y-47769481D01*
X62231785Y-47690423D01*
X62079057Y-47649499D01*
X61974501Y-47649499D01*
X61965815Y-47646948D01*
X61956855Y-47648237D01*
X61932813Y-47637258D01*
X61907462Y-47629814D01*
X61901535Y-47622974D01*
X61893299Y-47619213D01*
X61879008Y-47596977D01*
X61861707Y-47577010D01*
X61859419Y-47566497D01*
X61855524Y-47560435D01*
X61850501Y-47525499D01*
X61850501Y-47475456D01*
X61850501Y-47457834D01*
X61850501Y-47420942D01*
X61850500Y-47420938D01*
X61850500Y-45170943D01*
X61844755Y-45149500D01*
X61809577Y-45018215D01*
X61774718Y-44957838D01*
X61730520Y-44881284D01*
X61618716Y-44769480D01*
X61618715Y-44769479D01*
X61614385Y-44765149D01*
X61614374Y-44765139D01*
X58989751Y-42140516D01*
X58980521Y-42131286D01*
X58980520Y-42131284D01*
X58868716Y-42019480D01*
X58834280Y-41999598D01*
X58824474Y-41990710D01*
X58812874Y-41971742D01*
X58797534Y-41955654D01*
X58795002Y-41942517D01*
X58788022Y-41931103D01*
X58788518Y-41908874D01*
X58784312Y-41887046D01*
X58789301Y-41873862D01*
X58789583Y-41861250D01*
X58799811Y-41846089D01*
X58807435Y-41825945D01*
X58813051Y-41818216D01*
X58909557Y-41628812D01*
X58975246Y-41426643D01*
X59008500Y-41216687D01*
X59008500Y-41004113D01*
X58975246Y-40794157D01*
X58909557Y-40591988D01*
X58813051Y-40402584D01*
X58788444Y-40368715D01*
X58763687Y-40334639D01*
X58740207Y-40268833D01*
X58756033Y-40200779D01*
X58788517Y-40165777D01*
X58787458Y-40164486D01*
X58792156Y-40160629D01*
X58792162Y-40160626D01*
X58910626Y-40042162D01*
X59003703Y-39902863D01*
X59067816Y-39748082D01*
X59100500Y-39583767D01*
X59100500Y-39416233D01*
X59067816Y-39251918D01*
X59003703Y-39097137D01*
X58972537Y-39050494D01*
X58910626Y-38957837D01*
X58792162Y-38839373D01*
X58652860Y-38746295D01*
X58498082Y-38682184D01*
X58498074Y-38682182D01*
X58333771Y-38649500D01*
X58333767Y-38649500D01*
X58166233Y-38649500D01*
X58166228Y-38649500D01*
X58001925Y-38682182D01*
X58001917Y-38682184D01*
X57847139Y-38746295D01*
X57707837Y-38839373D01*
X57707834Y-38839376D01*
X57684030Y-38863181D01*
X57622707Y-38896666D01*
X57596349Y-38899500D01*
X56974500Y-38899500D01*
X56907461Y-38879815D01*
X56861706Y-38827011D01*
X56850500Y-38775500D01*
X56850500Y-38417009D01*
X56870185Y-38349970D01*
X56922989Y-38304215D01*
X56992147Y-38294271D01*
X57030793Y-38306523D01*
X57139588Y-38361957D01*
X57341757Y-38427646D01*
X57551713Y-38460900D01*
X57551714Y-38460900D01*
X57764286Y-38460900D01*
X57764287Y-38460900D01*
X57974243Y-38427646D01*
X58176412Y-38361957D01*
X58365816Y-38265451D01*
X58438813Y-38212416D01*
X58537786Y-38140509D01*
X58537788Y-38140506D01*
X58537792Y-38140504D01*
X58688104Y-37990192D01*
X58688106Y-37990188D01*
X58688109Y-37990186D01*
X58813048Y-37818220D01*
X58813047Y-37818220D01*
X58813051Y-37818216D01*
X58909557Y-37628812D01*
X58975246Y-37426643D01*
X59008500Y-37216687D01*
X59008500Y-37004113D01*
X58975246Y-36794157D01*
X58957927Y-36740857D01*
X58955932Y-36671021D01*
X58992012Y-36611188D01*
X59054713Y-36580359D01*
X59095253Y-36580070D01*
X59198092Y-36596357D01*
X59289904Y-36610900D01*
X59289908Y-36610900D01*
X59526097Y-36610900D01*
X59759368Y-36573953D01*
X59983992Y-36500968D01*
X60194433Y-36393743D01*
X60385510Y-36254917D01*
X60552517Y-36087910D01*
X60691343Y-35896833D01*
X60798568Y-35686392D01*
X60871553Y-35461768D01*
X60881415Y-35399500D01*
X60908500Y-35228497D01*
X60908500Y-34992302D01*
X60871553Y-34759031D01*
X60798566Y-34534403D01*
X60691342Y-34323966D01*
X60552517Y-34132890D01*
X60385510Y-33965883D01*
X60194433Y-33827057D01*
X59983996Y-33719833D01*
X59759368Y-33646846D01*
X59526097Y-33609900D01*
X59526092Y-33609900D01*
X59289908Y-33609900D01*
X59289903Y-33609900D01*
X59056631Y-33646846D01*
X58832003Y-33719833D01*
X58621566Y-33827057D01*
X58512550Y-33906262D01*
X58430490Y-33965883D01*
X58430488Y-33965885D01*
X58430487Y-33965885D01*
X58263485Y-34132887D01*
X58263485Y-34132888D01*
X58263483Y-34132890D01*
X58203862Y-34214950D01*
X58124657Y-34323966D01*
X58017433Y-34534403D01*
X57944446Y-34759031D01*
X57907500Y-34992302D01*
X57907500Y-35228497D01*
X57944447Y-35461769D01*
X57944447Y-35461772D01*
X57993816Y-35613712D01*
X57995811Y-35683553D01*
X57959731Y-35743386D01*
X57897030Y-35774214D01*
X57856487Y-35774503D01*
X57811758Y-35767418D01*
X57764287Y-35759900D01*
X57551713Y-35759900D01*
X57503042Y-35767608D01*
X57341760Y-35793153D01*
X57139582Y-35858845D01*
X57030794Y-35914275D01*
X56962125Y-35927171D01*
X56897385Y-35900894D01*
X56857128Y-35843788D01*
X56850500Y-35803790D01*
X56850500Y-34589059D01*
X56850501Y-34589046D01*
X56850501Y-34420945D01*
X56850501Y-34420943D01*
X56809577Y-34268215D01*
X56752392Y-34169168D01*
X56730520Y-34131284D01*
X56618716Y-34019480D01*
X56618713Y-34019478D01*
X55936915Y-33337680D01*
X55903430Y-33276357D01*
X55908414Y-33206665D01*
X55936911Y-33162323D01*
X60058221Y-29041012D01*
X60119542Y-29007529D01*
X60189234Y-29012513D01*
G37*
%TD.AperFunction*%
%TA.AperFunction,NonConductor*%
G36*
X65318833Y-47882915D02*
G01*
X65374766Y-47924787D01*
X65399183Y-47990251D01*
X65399499Y-47999097D01*
X65399499Y-48079054D01*
X65399498Y-48079054D01*
X65407389Y-48108504D01*
X65440423Y-48231785D01*
X65462116Y-48269358D01*
X65469358Y-48281900D01*
X65469361Y-48281905D01*
X65482022Y-48303836D01*
X65486185Y-48320998D01*
X65498492Y-48371734D01*
X65498491Y-48371735D01*
X65498492Y-48371737D01*
X65489580Y-48397485D01*
X65475640Y-48437761D01*
X65475638Y-48437762D01*
X65475638Y-48437763D01*
X65456549Y-48452774D01*
X65420718Y-48480951D01*
X65420717Y-48480951D01*
X65420716Y-48480952D01*
X65393862Y-48483515D01*
X65351165Y-48487592D01*
X65312633Y-48473220D01*
X65198942Y-48407580D01*
X65046214Y-48366656D01*
X65031942Y-48366656D01*
X65010697Y-48360417D01*
X64988612Y-48358839D01*
X64977826Y-48350765D01*
X64964903Y-48346971D01*
X64950406Y-48330240D01*
X64932677Y-48316970D01*
X64927967Y-48304345D01*
X64919148Y-48294167D01*
X64915997Y-48272253D01*
X64908258Y-48251506D01*
X64911121Y-48238342D01*
X64909204Y-48225009D01*
X64918402Y-48204867D01*
X64923108Y-48183233D01*
X64936378Y-48165505D01*
X64938229Y-48161453D01*
X64944258Y-48154978D01*
X64949736Y-48149500D01*
X64980520Y-48118716D01*
X64980521Y-48118713D01*
X65187819Y-47911415D01*
X65249141Y-47877931D01*
X65318833Y-47882915D01*
G37*
%TD.AperFunction*%
%TA.AperFunction,NonConductor*%
G36*
X70318834Y-46132915D02*
G01*
X70374767Y-46174787D01*
X70399184Y-46240251D01*
X70399500Y-46249097D01*
X70399500Y-47949902D01*
X70379815Y-48016941D01*
X70363181Y-48037583D01*
X68062181Y-50338583D01*
X68000858Y-50372068D01*
X67931166Y-50367084D01*
X67875233Y-50325212D01*
X67850816Y-50259748D01*
X67850500Y-50250902D01*
X67850500Y-50166232D01*
X67850499Y-50166228D01*
X67817817Y-50001925D01*
X67817816Y-50001918D01*
X67764681Y-49873641D01*
X67753704Y-49847139D01*
X67752018Y-49844616D01*
X67660626Y-49707838D01*
X67660624Y-49707835D01*
X67657205Y-49703669D01*
X67629888Y-49639361D01*
X67641676Y-49570493D01*
X67657205Y-49546331D01*
X67660624Y-49542164D01*
X67660626Y-49542162D01*
X67753703Y-49402863D01*
X67817816Y-49248082D01*
X67850500Y-49083767D01*
X67850500Y-48916233D01*
X67844251Y-48884819D01*
X67850477Y-48815231D01*
X67893338Y-48760052D01*
X67897884Y-48757217D01*
X67897798Y-48757088D01*
X67997563Y-48690426D01*
X68042162Y-48660626D01*
X68160626Y-48542162D01*
X68253703Y-48402863D01*
X68317816Y-48248082D01*
X68350500Y-48083767D01*
X68350500Y-48050097D01*
X68370185Y-47983058D01*
X68386819Y-47962416D01*
X69265468Y-47083767D01*
X70187821Y-46161414D01*
X70249142Y-46127931D01*
X70318834Y-46132915D01*
G37*
%TD.AperFunction*%
%TA.AperFunction,NonConductor*%
G36*
X62875789Y-50859144D02*
G01*
X62905776Y-50865668D01*
X62910791Y-50869422D01*
X62913388Y-50870185D01*
X62934030Y-50886819D01*
X62957837Y-50910626D01*
X62999277Y-50938315D01*
X63097137Y-51003703D01*
X63251918Y-51067816D01*
X63416228Y-51100499D01*
X63416232Y-51100500D01*
X63416233Y-51100500D01*
X63583768Y-51100500D01*
X63583769Y-51100499D01*
X63748082Y-51067816D01*
X63902863Y-51003703D01*
X64042162Y-50910626D01*
X64053288Y-50899500D01*
X64065970Y-50886819D01*
X64127293Y-50853334D01*
X64153651Y-50850500D01*
X64949903Y-50850500D01*
X65016942Y-50870185D01*
X65037583Y-50886818D01*
X65381284Y-51230520D01*
X65381286Y-51230521D01*
X65381290Y-51230524D01*
X65518209Y-51309573D01*
X65518212Y-51309575D01*
X65518216Y-51309577D01*
X65670943Y-51350501D01*
X65670945Y-51350501D01*
X65829056Y-51350501D01*
X65829058Y-51350501D01*
X65981785Y-51309577D01*
X66118716Y-51230520D01*
X66230520Y-51118716D01*
X66309577Y-50981785D01*
X66309577Y-50981784D01*
X66313641Y-50974746D01*
X66316422Y-50976351D01*
X66350777Y-50933681D01*
X66417062Y-50911588D01*
X66484769Y-50928838D01*
X66490432Y-50932405D01*
X66597137Y-51003703D01*
X66751918Y-51067816D01*
X66916228Y-51100499D01*
X66916232Y-51100500D01*
X67000902Y-51100500D01*
X67067941Y-51120185D01*
X67113696Y-51172989D01*
X67123640Y-51242147D01*
X67094615Y-51305703D01*
X67088583Y-51312181D01*
X65537584Y-52863181D01*
X65476261Y-52896666D01*
X65449903Y-52899500D01*
X65416228Y-52899500D01*
X65251925Y-52932182D01*
X65251917Y-52932184D01*
X65097139Y-52996295D01*
X64957837Y-53089373D01*
X64839373Y-53207837D01*
X64746295Y-53347139D01*
X64682184Y-53501917D01*
X64682182Y-53501923D01*
X64661665Y-53605070D01*
X64629280Y-53666981D01*
X64568564Y-53701555D01*
X64504131Y-53699562D01*
X64490435Y-53695417D01*
X64481785Y-53690423D01*
X64413234Y-53672054D01*
X64411297Y-53671468D01*
X64383668Y-53653387D01*
X64355458Y-53636192D01*
X64354383Y-53634223D01*
X64352833Y-53633209D01*
X64348350Y-53623175D01*
X64327440Y-53584879D01*
X64309577Y-53518215D01*
X64274718Y-53457838D01*
X64230520Y-53381284D01*
X64118716Y-53269480D01*
X64118715Y-53269479D01*
X64114385Y-53265149D01*
X64114374Y-53265139D01*
X61911416Y-51062181D01*
X61877931Y-51000858D01*
X61882915Y-50931166D01*
X61924787Y-50875233D01*
X61990251Y-50850816D01*
X61999097Y-50850500D01*
X62846349Y-50850500D01*
X62875789Y-50859144D01*
G37*
%TD.AperFunction*%
%TA.AperFunction,NonConductor*%
G36*
X64510247Y-55307913D02*
G01*
X64510366Y-55307473D01*
X64518214Y-55309575D01*
X64518216Y-55309577D01*
X64670943Y-55350501D01*
X64670945Y-55350501D01*
X64836654Y-55350501D01*
X64836670Y-55350500D01*
X65699903Y-55350500D01*
X65766942Y-55370185D01*
X65787583Y-55386818D01*
X66063083Y-55662319D01*
X66096568Y-55723641D01*
X66091584Y-55793333D01*
X66063083Y-55837680D01*
X64771832Y-57128932D01*
X64710509Y-57162417D01*
X64640817Y-57157433D01*
X64584884Y-57115561D01*
X64560467Y-57050097D01*
X64567866Y-57004460D01*
X64566048Y-57003909D01*
X64567810Y-56998094D01*
X64567816Y-56998082D01*
X64600500Y-56833767D01*
X64600500Y-56666233D01*
X64567816Y-56501918D01*
X64503703Y-56347137D01*
X64440084Y-56251925D01*
X64410626Y-56207837D01*
X64386819Y-56184030D01*
X64353334Y-56122707D01*
X64350500Y-56096349D01*
X64350500Y-55425685D01*
X64370185Y-55358646D01*
X64422989Y-55312891D01*
X64492147Y-55302947D01*
X64510247Y-55307913D01*
G37*
%TD.AperFunction*%
%TA.AperFunction,NonConductor*%
G36*
X67116556Y-56585191D02*
G01*
X67160903Y-56613692D01*
X67207837Y-56660626D01*
X67216229Y-56666233D01*
X67347137Y-56753703D01*
X67501918Y-56817816D01*
X67666228Y-56850499D01*
X67666232Y-56850500D01*
X67666233Y-56850500D01*
X67699903Y-56850500D01*
X67766942Y-56870185D01*
X67787584Y-56886819D01*
X71838584Y-60937819D01*
X71872069Y-60999142D01*
X71867085Y-61068834D01*
X71825213Y-61124767D01*
X71759749Y-61149184D01*
X71750903Y-61149500D01*
X62749099Y-61149500D01*
X62727855Y-61143262D01*
X62705768Y-61141683D01*
X62694982Y-61133609D01*
X62682060Y-61129815D01*
X62667562Y-61113083D01*
X62649834Y-61099813D01*
X62645125Y-61087190D01*
X62636305Y-61077011D01*
X62633153Y-61055095D01*
X62625415Y-61034349D01*
X62628278Y-61021185D01*
X62626361Y-61007853D01*
X62635558Y-60987712D01*
X62640265Y-60966076D01*
X62653536Y-60948346D01*
X62655386Y-60944297D01*
X62661416Y-60937821D01*
X62661417Y-60937819D01*
X62730520Y-60868716D01*
X62730521Y-60868713D01*
X66985543Y-56613690D01*
X67046864Y-56580207D01*
X67116556Y-56585191D01*
G37*
%TD.AperFunction*%
%TA.AperFunction,NonConductor*%
G36*
X81938858Y-63853363D02*
G01*
X81948942Y-63852097D01*
X81971817Y-63863041D01*
X81996146Y-63870185D01*
X82002800Y-63877864D01*
X82011969Y-63882251D01*
X82025297Y-63903827D01*
X82041901Y-63922989D01*
X82043347Y-63933046D01*
X82048689Y-63941694D01*
X82048236Y-63967050D01*
X82051845Y-63992147D01*
X82047590Y-64003250D01*
X82047442Y-64011553D01*
X82032209Y-64043390D01*
X81996298Y-64097134D01*
X81996296Y-64097138D01*
X81932184Y-64251917D01*
X81932182Y-64251922D01*
X81922520Y-64300498D01*
X81890134Y-64362408D01*
X81829418Y-64396982D01*
X81759649Y-64393241D01*
X81713222Y-64363986D01*
X81411416Y-64062181D01*
X81377931Y-64000858D01*
X81382915Y-63931167D01*
X81424786Y-63875233D01*
X81490251Y-63850816D01*
X81499097Y-63850500D01*
X81929107Y-63850500D01*
X81938858Y-63853363D01*
G37*
%TD.AperFunction*%
%TA.AperFunction,NonConductor*%
G36*
X65900379Y-68045931D02*
G01*
X65943573Y-68100850D01*
X65950219Y-68170403D01*
X65918206Y-68232507D01*
X65916140Y-68234624D01*
X65883950Y-68266815D01*
X65787582Y-68363182D01*
X65726262Y-68396666D01*
X65699903Y-68399500D01*
X64653651Y-68399500D01*
X64628943Y-68392245D01*
X64603415Y-68388868D01*
X64592916Y-68381666D01*
X64586612Y-68379815D01*
X64573510Y-68370123D01*
X64569596Y-68366808D01*
X64542162Y-68339374D01*
X64518674Y-68323680D01*
X64513294Y-68319123D01*
X64497799Y-68295599D01*
X64479740Y-68273991D01*
X64478838Y-68266815D01*
X64474859Y-68260774D01*
X64474541Y-68232608D01*
X64471031Y-68204666D01*
X64474152Y-68198141D01*
X64474071Y-68190909D01*
X64489030Y-68167045D01*
X64501186Y-68141638D01*
X64507339Y-68137836D01*
X64511181Y-68131709D01*
X64536665Y-68119721D01*
X64560628Y-68104919D01*
X64571145Y-68103502D01*
X64574405Y-68101969D01*
X64578503Y-68102511D01*
X64593435Y-68100500D01*
X65413331Y-68100500D01*
X65413347Y-68100501D01*
X65420943Y-68100501D01*
X65579054Y-68100501D01*
X65579057Y-68100501D01*
X65731785Y-68059577D01*
X65766454Y-68039559D01*
X65834351Y-68023083D01*
X65900379Y-68045931D01*
G37*
%TD.AperFunction*%
%TA.AperFunction,NonConductor*%
G36*
X63473604Y-68120185D02*
G01*
X63519359Y-68172989D01*
X63529303Y-68242147D01*
X63500278Y-68305703D01*
X63475456Y-68327601D01*
X63470886Y-68330655D01*
X63457835Y-68339375D01*
X63339373Y-68457837D01*
X63246295Y-68597139D01*
X63182184Y-68751917D01*
X63182182Y-68751925D01*
X63149500Y-68916228D01*
X63149500Y-69083771D01*
X63182182Y-69248074D01*
X63183952Y-69253909D01*
X63181576Y-69254629D01*
X63187877Y-69313278D01*
X63156598Y-69375755D01*
X63096506Y-69411403D01*
X63026681Y-69408903D01*
X62978168Y-69378933D01*
X61987590Y-68388355D01*
X61980521Y-68381286D01*
X61980520Y-68381284D01*
X61911414Y-68312178D01*
X61883347Y-68260774D01*
X61877932Y-68250858D01*
X61882916Y-68181166D01*
X61912507Y-68141638D01*
X61924788Y-68125232D01*
X61979252Y-68104919D01*
X61990252Y-68100816D01*
X61999098Y-68100500D01*
X63406565Y-68100500D01*
X63473604Y-68120185D01*
G37*
%TD.AperFunction*%
%TA.AperFunction,NonConductor*%
G36*
X72516942Y-64120185D02*
G01*
X72537584Y-64136819D01*
X72813083Y-64412318D01*
X72846568Y-64473641D01*
X72841584Y-64543333D01*
X72813083Y-64587680D01*
X66037584Y-71363181D01*
X65976261Y-71396666D01*
X65949903Y-71399500D01*
X65050097Y-71399500D01*
X64983058Y-71379815D01*
X64962416Y-71363181D01*
X63621066Y-70021831D01*
X63587581Y-69960508D01*
X63592565Y-69890816D01*
X63634437Y-69834883D01*
X63699901Y-69810466D01*
X63745538Y-69817868D01*
X63746091Y-69816048D01*
X63751907Y-69817811D01*
X63751918Y-69817816D01*
X63916228Y-69850499D01*
X63916232Y-69850500D01*
X63916233Y-69850500D01*
X64083768Y-69850500D01*
X64083769Y-69850499D01*
X64248082Y-69817816D01*
X64402863Y-69753703D01*
X64542162Y-69660626D01*
X64549928Y-69652860D01*
X64565970Y-69636819D01*
X64627293Y-69603334D01*
X64653651Y-69600500D01*
X65913331Y-69600500D01*
X65913347Y-69600501D01*
X65920943Y-69600501D01*
X66079054Y-69600501D01*
X66079057Y-69600501D01*
X66231785Y-69559577D01*
X66281904Y-69530639D01*
X66368716Y-69480520D01*
X66480520Y-69368716D01*
X66480520Y-69368714D01*
X66490728Y-69358507D01*
X66490729Y-69358504D01*
X67787417Y-68061817D01*
X67848738Y-68028334D01*
X67918430Y-68033318D01*
X67922483Y-68034912D01*
X68001918Y-68067816D01*
X68166228Y-68100499D01*
X68166232Y-68100500D01*
X68166233Y-68100500D01*
X68333768Y-68100500D01*
X68333769Y-68100499D01*
X68498082Y-68067816D01*
X68652863Y-68003703D01*
X68792162Y-67910626D01*
X68910626Y-67792162D01*
X69003703Y-67652863D01*
X69067816Y-67498082D01*
X69100500Y-67333767D01*
X69100500Y-67166233D01*
X69067816Y-67001918D01*
X69010349Y-66863181D01*
X69003704Y-66847139D01*
X68910626Y-66707837D01*
X68792162Y-66589373D01*
X68652860Y-66496295D01*
X68498082Y-66432184D01*
X68498074Y-66432182D01*
X68333771Y-66399500D01*
X68333767Y-66399500D01*
X68166233Y-66399500D01*
X68166228Y-66399500D01*
X68001925Y-66432182D01*
X68001917Y-66432184D01*
X67847139Y-66496295D01*
X67707841Y-66589371D01*
X67707835Y-66589375D01*
X67662701Y-66634509D01*
X67607117Y-66666600D01*
X67518222Y-66690420D01*
X67518209Y-66690426D01*
X67381290Y-66769475D01*
X67381286Y-66769478D01*
X67312181Y-66838583D01*
X67250857Y-66872067D01*
X67181166Y-66867082D01*
X67125232Y-66825211D01*
X67100816Y-66759746D01*
X67100500Y-66750901D01*
X67100500Y-66666232D01*
X67100499Y-66666228D01*
X67094190Y-66634509D01*
X67067816Y-66501918D01*
X67013250Y-66370185D01*
X67003704Y-66347139D01*
X66910626Y-66207837D01*
X66792162Y-66089373D01*
X66652860Y-65996295D01*
X66498082Y-65932184D01*
X66498074Y-65932182D01*
X66333771Y-65899500D01*
X66333767Y-65899500D01*
X66166233Y-65899500D01*
X66166228Y-65899500D01*
X66001925Y-65932182D01*
X66001917Y-65932184D01*
X65847139Y-65996295D01*
X65707837Y-66089373D01*
X65589373Y-66207837D01*
X65496295Y-66347139D01*
X65432184Y-66501917D01*
X65432182Y-66501925D01*
X65399500Y-66666228D01*
X65399500Y-66699903D01*
X65390855Y-66729343D01*
X65384332Y-66759330D01*
X65380577Y-66764345D01*
X65379815Y-66766942D01*
X65363181Y-66787584D01*
X65287584Y-66863181D01*
X65226261Y-66896666D01*
X65199903Y-66899500D01*
X61688792Y-66899500D01*
X61621753Y-66879815D01*
X61575998Y-66827011D01*
X61566054Y-66757853D01*
X61567175Y-66751309D01*
X61597172Y-66600499D01*
X61600500Y-66583767D01*
X61600500Y-66416233D01*
X61567816Y-66251918D01*
X61503703Y-66097137D01*
X61472537Y-66050494D01*
X61410626Y-65957837D01*
X61292162Y-65839373D01*
X61152860Y-65746295D01*
X60998082Y-65682184D01*
X60998077Y-65682182D01*
X60950307Y-65672680D01*
X60888396Y-65640294D01*
X60853823Y-65579578D01*
X60850500Y-65551063D01*
X60850500Y-65416232D01*
X60850499Y-65416228D01*
X60817817Y-65251925D01*
X60817816Y-65251918D01*
X60753703Y-65097137D01*
X60722537Y-65050494D01*
X60660626Y-64957837D01*
X60636819Y-64934030D01*
X60622115Y-64907102D01*
X60605523Y-64881284D01*
X60604631Y-64875083D01*
X60603334Y-64872707D01*
X60600500Y-64846349D01*
X60600500Y-64800097D01*
X60620185Y-64733058D01*
X60636819Y-64712416D01*
X60712416Y-64636819D01*
X60773739Y-64603334D01*
X60800097Y-64600500D01*
X60833768Y-64600500D01*
X60833769Y-64600499D01*
X60998082Y-64567816D01*
X61152863Y-64503703D01*
X61292162Y-64410626D01*
X61303288Y-64399500D01*
X61315970Y-64386819D01*
X61377293Y-64353334D01*
X61403651Y-64350500D01*
X61920939Y-64350500D01*
X61920943Y-64350501D01*
X62079057Y-64350501D01*
X62079061Y-64350500D01*
X71663331Y-64350500D01*
X71663347Y-64350501D01*
X71670943Y-64350501D01*
X71829054Y-64350501D01*
X71829057Y-64350501D01*
X71981785Y-64309577D01*
X72053424Y-64268216D01*
X72118716Y-64230520D01*
X72216789Y-64132446D01*
X72221575Y-64128531D01*
X72248285Y-64117233D01*
X72273740Y-64103334D01*
X72283671Y-64102266D01*
X72285925Y-64101313D01*
X72288461Y-64101751D01*
X72300098Y-64100500D01*
X72449903Y-64100500D01*
X72516942Y-64120185D01*
G37*
%TD.AperFunction*%
%TA.AperFunction,NonConductor*%
G36*
X103793333Y-37658414D02*
G01*
X103837680Y-37686915D01*
X104363181Y-38212416D01*
X104396666Y-38273739D01*
X104399500Y-38300097D01*
X104399500Y-57699902D01*
X104379815Y-57766941D01*
X104363181Y-57787583D01*
X93769481Y-68381282D01*
X93769479Y-68381285D01*
X93760599Y-68396666D01*
X93725282Y-68457838D01*
X93690423Y-68518215D01*
X93649499Y-68670943D01*
X93649499Y-68670945D01*
X93649499Y-68839046D01*
X93649500Y-68839059D01*
X93649500Y-73199903D01*
X93629815Y-73266942D01*
X93613181Y-73287584D01*
X90037584Y-76863181D01*
X89976261Y-76896666D01*
X89949903Y-76899500D01*
X73474500Y-76899500D01*
X73407461Y-76879815D01*
X73361706Y-76827011D01*
X73350500Y-76775500D01*
X73350500Y-73300097D01*
X73370185Y-73233058D01*
X73386819Y-73212416D01*
X77712416Y-68886819D01*
X77773739Y-68853334D01*
X77800097Y-68850500D01*
X77833768Y-68850500D01*
X77833769Y-68850499D01*
X77998082Y-68817816D01*
X78152863Y-68753703D01*
X78292162Y-68660626D01*
X78410626Y-68542162D01*
X78422397Y-68524544D01*
X78476009Y-68479740D01*
X78545334Y-68471031D01*
X78608362Y-68501186D01*
X78645081Y-68560628D01*
X78649500Y-68593435D01*
X78649500Y-68949902D01*
X78629815Y-69016941D01*
X78613181Y-69037583D01*
X77537584Y-70113181D01*
X77476261Y-70146666D01*
X77449903Y-70149500D01*
X77416228Y-70149500D01*
X77251925Y-70182182D01*
X77251917Y-70182184D01*
X77097139Y-70246295D01*
X76957837Y-70339373D01*
X76839373Y-70457837D01*
X76746295Y-70597139D01*
X76682184Y-70751917D01*
X76682182Y-70751925D01*
X76649500Y-70916228D01*
X76649500Y-71083771D01*
X76682182Y-71248074D01*
X76682184Y-71248082D01*
X76746295Y-71402860D01*
X76839373Y-71542162D01*
X76957837Y-71660626D01*
X77016615Y-71699900D01*
X77097137Y-71753703D01*
X77251918Y-71817816D01*
X77416228Y-71850499D01*
X77416232Y-71850500D01*
X77416233Y-71850500D01*
X77583768Y-71850500D01*
X77583769Y-71850499D01*
X77748082Y-71817816D01*
X77902863Y-71753703D01*
X78042162Y-71660626D01*
X78160626Y-71542162D01*
X78253703Y-71402863D01*
X78317816Y-71248082D01*
X78350500Y-71083767D01*
X78350500Y-71050097D01*
X78370185Y-70983058D01*
X78386819Y-70962416D01*
X79009862Y-70339373D01*
X79730520Y-69618716D01*
X79809577Y-69481784D01*
X79850501Y-69329057D01*
X79850501Y-69170942D01*
X79850501Y-69166228D01*
X83899500Y-69166228D01*
X83899500Y-69333771D01*
X83932182Y-69498074D01*
X83932184Y-69498082D01*
X83996295Y-69652860D01*
X84089373Y-69792162D01*
X84207837Y-69910626D01*
X84216229Y-69916233D01*
X84347137Y-70003703D01*
X84501918Y-70067816D01*
X84666228Y-70100499D01*
X84666232Y-70100500D01*
X84666233Y-70100500D01*
X84699903Y-70100500D01*
X84766942Y-70120185D01*
X84787584Y-70136819D01*
X86130422Y-71479658D01*
X86163907Y-71540981D01*
X86164359Y-71591529D01*
X86149501Y-71666231D01*
X86149500Y-71666234D01*
X86149500Y-71833771D01*
X86182182Y-71998074D01*
X86182184Y-71998082D01*
X86246295Y-72152860D01*
X86339373Y-72292162D01*
X86457837Y-72410626D01*
X86550494Y-72472537D01*
X86597137Y-72503703D01*
X86751918Y-72567816D01*
X86916228Y-72600499D01*
X86916232Y-72600500D01*
X86916233Y-72600500D01*
X87083768Y-72600500D01*
X87083769Y-72600499D01*
X87248082Y-72567816D01*
X87402863Y-72503703D01*
X87542162Y-72410626D01*
X87660626Y-72292162D01*
X87753703Y-72152863D01*
X87817816Y-71998082D01*
X87850500Y-71833767D01*
X87850500Y-71666233D01*
X87835640Y-71591528D01*
X87841867Y-71521939D01*
X87869573Y-71479660D01*
X88587416Y-70761819D01*
X88648739Y-70728334D01*
X88675097Y-70725500D01*
X88708768Y-70725500D01*
X88708769Y-70725499D01*
X88873082Y-70692816D01*
X89027863Y-70628703D01*
X89167162Y-70535626D01*
X89285626Y-70417162D01*
X89378703Y-70277863D01*
X89442816Y-70123082D01*
X89475500Y-69958767D01*
X89475500Y-69791233D01*
X89442816Y-69626918D01*
X89389447Y-69498074D01*
X89378704Y-69472139D01*
X89369148Y-69457838D01*
X89336451Y-69408903D01*
X89285626Y-69332837D01*
X89167162Y-69214373D01*
X89027860Y-69121295D01*
X88873082Y-69057184D01*
X88873074Y-69057182D01*
X88708771Y-69024500D01*
X88708767Y-69024500D01*
X88541233Y-69024500D01*
X88541228Y-69024500D01*
X88376925Y-69057182D01*
X88376917Y-69057184D01*
X88222139Y-69121295D01*
X88082837Y-69214373D01*
X87964373Y-69332837D01*
X87871295Y-69472139D01*
X87807184Y-69626917D01*
X87807182Y-69626925D01*
X87774500Y-69791228D01*
X87774500Y-69824902D01*
X87754815Y-69891941D01*
X87738181Y-69912583D01*
X87087681Y-70563083D01*
X87026358Y-70596568D01*
X86956666Y-70591584D01*
X86912319Y-70563083D01*
X85636819Y-69287583D01*
X85603334Y-69226260D01*
X85600500Y-69199902D01*
X85600500Y-69166232D01*
X85600499Y-69166228D01*
X85591196Y-69119460D01*
X85567816Y-69001918D01*
X85503703Y-68847137D01*
X85440084Y-68751925D01*
X85410626Y-68707837D01*
X85292162Y-68589373D01*
X85152860Y-68496295D01*
X84998082Y-68432184D01*
X84998074Y-68432182D01*
X84833771Y-68399500D01*
X84833767Y-68399500D01*
X84666233Y-68399500D01*
X84666228Y-68399500D01*
X84501925Y-68432182D01*
X84501917Y-68432184D01*
X84347139Y-68496295D01*
X84207837Y-68589373D01*
X84089373Y-68707837D01*
X83996295Y-68847139D01*
X83932184Y-69001917D01*
X83932182Y-69001925D01*
X83899500Y-69166228D01*
X79850501Y-69166228D01*
X79850501Y-69163347D01*
X79850500Y-69163329D01*
X79850500Y-65170945D01*
X79850500Y-65170943D01*
X79809577Y-65018216D01*
X79774718Y-64957838D01*
X79730524Y-64881290D01*
X79730518Y-64881282D01*
X79661417Y-64812181D01*
X79627932Y-64750858D01*
X79632916Y-64681166D01*
X79674788Y-64625233D01*
X79740252Y-64600816D01*
X79749098Y-64600500D01*
X80199903Y-64600500D01*
X80266942Y-64620185D01*
X80287583Y-64636818D01*
X81881284Y-66230520D01*
X81881286Y-66230521D01*
X81881290Y-66230524D01*
X81988052Y-66292162D01*
X82018216Y-66309577D01*
X82170943Y-66350501D01*
X82170945Y-66350501D01*
X82336654Y-66350501D01*
X82336670Y-66350500D01*
X82596349Y-66350500D01*
X82663388Y-66370185D01*
X82684030Y-66386819D01*
X82707837Y-66410626D01*
X82800494Y-66472537D01*
X82847137Y-66503703D01*
X83001918Y-66567816D01*
X83166228Y-66600499D01*
X83166232Y-66600500D01*
X83166233Y-66600500D01*
X83333768Y-66600500D01*
X83333769Y-66600499D01*
X83498082Y-66567816D01*
X83652863Y-66503703D01*
X83792162Y-66410626D01*
X83910626Y-66292162D01*
X84003703Y-66152863D01*
X84067816Y-65998082D01*
X84100500Y-65833767D01*
X84100500Y-65724500D01*
X84120185Y-65657461D01*
X84172989Y-65611706D01*
X84224500Y-65600500D01*
X85596349Y-65600500D01*
X85663388Y-65620185D01*
X85684030Y-65636819D01*
X85707837Y-65660626D01*
X85800494Y-65722537D01*
X85847137Y-65753703D01*
X86001918Y-65817816D01*
X86166228Y-65850499D01*
X86166232Y-65850500D01*
X86166233Y-65850500D01*
X86333768Y-65850500D01*
X86333769Y-65850499D01*
X86498082Y-65817816D01*
X86652863Y-65753703D01*
X86792162Y-65660626D01*
X86910626Y-65542162D01*
X87003703Y-65402863D01*
X87067816Y-65248082D01*
X87100500Y-65083767D01*
X87100500Y-64916233D01*
X87067816Y-64751918D01*
X87011978Y-64617115D01*
X87003704Y-64597139D01*
X87000711Y-64592660D01*
X86967752Y-64543333D01*
X86910626Y-64457837D01*
X86792162Y-64339373D01*
X86652860Y-64246295D01*
X86498082Y-64182184D01*
X86498074Y-64182182D01*
X86333771Y-64149500D01*
X86333767Y-64149500D01*
X86166233Y-64149500D01*
X86166228Y-64149500D01*
X86001925Y-64182182D01*
X86001917Y-64182184D01*
X85847139Y-64246295D01*
X85707837Y-64339373D01*
X85707834Y-64339376D01*
X85684030Y-64363181D01*
X85622707Y-64396666D01*
X85596349Y-64399500D01*
X84300097Y-64399500D01*
X84233058Y-64379815D01*
X84212416Y-64363181D01*
X83911416Y-64062181D01*
X83877931Y-64000858D01*
X83882915Y-63931166D01*
X83924787Y-63875233D01*
X83990251Y-63850816D01*
X83999097Y-63850500D01*
X89079055Y-63850500D01*
X89079057Y-63850500D01*
X89231784Y-63809577D01*
X89368716Y-63730520D01*
X89480520Y-63618716D01*
X89559577Y-63481784D01*
X89600500Y-63329057D01*
X89600500Y-59550097D01*
X89620185Y-59483058D01*
X89636819Y-59462416D01*
X94337417Y-54761819D01*
X94398740Y-54728334D01*
X94425098Y-54725500D01*
X97017313Y-54725500D01*
X97084352Y-54745185D01*
X97086192Y-54746390D01*
X97097137Y-54753703D01*
X97251918Y-54817816D01*
X97399326Y-54847137D01*
X97416228Y-54850499D01*
X97416232Y-54850500D01*
X97416233Y-54850500D01*
X97583768Y-54850500D01*
X97583769Y-54850499D01*
X97748082Y-54817816D01*
X97902863Y-54753703D01*
X98042162Y-54660626D01*
X98160626Y-54542162D01*
X98253703Y-54402863D01*
X98317816Y-54248082D01*
X98350500Y-54083767D01*
X98350500Y-53916233D01*
X98317816Y-53751918D01*
X98253703Y-53597137D01*
X98201811Y-53519475D01*
X98160626Y-53457837D01*
X98042162Y-53339373D01*
X97902860Y-53246295D01*
X97748082Y-53182184D01*
X97748074Y-53182182D01*
X97583771Y-53149500D01*
X97583767Y-53149500D01*
X97416233Y-53149500D01*
X97416228Y-53149500D01*
X97251925Y-53182182D01*
X97251917Y-53182184D01*
X97097139Y-53246295D01*
X96957837Y-53339373D01*
X96839376Y-53457834D01*
X96831654Y-53469392D01*
X96778041Y-53514196D01*
X96728552Y-53524500D01*
X94660636Y-53524500D01*
X94598636Y-53507887D01*
X94481788Y-53440424D01*
X94481789Y-53440424D01*
X94463739Y-53435587D01*
X94329058Y-53399499D01*
X94170943Y-53399499D01*
X94119263Y-53413347D01*
X94018214Y-53440423D01*
X94018209Y-53440426D01*
X93881290Y-53519475D01*
X93881282Y-53519481D01*
X93756284Y-53644480D01*
X89472773Y-57927990D01*
X89411450Y-57961475D01*
X89341758Y-57956491D01*
X89285825Y-57914619D01*
X89270531Y-57887763D01*
X89253703Y-57847137D01*
X89160626Y-57707837D01*
X89042162Y-57589373D01*
X88902860Y-57496295D01*
X88748082Y-57432184D01*
X88748074Y-57432182D01*
X88583771Y-57399500D01*
X88583767Y-57399500D01*
X88416233Y-57399500D01*
X88416228Y-57399500D01*
X88251925Y-57432182D01*
X88251917Y-57432184D01*
X88097139Y-57496295D01*
X87957837Y-57589373D01*
X87839373Y-57707837D01*
X87746295Y-57847139D01*
X87682184Y-58001917D01*
X87682182Y-58001925D01*
X87649500Y-58166228D01*
X87649500Y-58333771D01*
X87682182Y-58498074D01*
X87682184Y-58498082D01*
X87746295Y-58652860D01*
X87839372Y-58792160D01*
X87839373Y-58792161D01*
X87839374Y-58792162D01*
X87863181Y-58815969D01*
X87896666Y-58877290D01*
X87899500Y-58903650D01*
X87899500Y-59199902D01*
X87879815Y-59266941D01*
X87863181Y-59287583D01*
X87287584Y-59863181D01*
X87226261Y-59896666D01*
X87199903Y-59899500D01*
X84749096Y-59899500D01*
X84682057Y-59879815D01*
X84636302Y-59827011D01*
X84626358Y-59757853D01*
X84655383Y-59694297D01*
X84661415Y-59687819D01*
X85002097Y-59347137D01*
X86730520Y-57618716D01*
X86809577Y-57481784D01*
X86850501Y-57329057D01*
X86850501Y-57170942D01*
X86850501Y-57163347D01*
X86850500Y-57163329D01*
X86850500Y-52403650D01*
X86870185Y-52336611D01*
X86886815Y-52315972D01*
X86910626Y-52292162D01*
X87003703Y-52152863D01*
X87067816Y-51998082D01*
X87100500Y-51833767D01*
X87100500Y-51724500D01*
X87120185Y-51657461D01*
X87172989Y-51611706D01*
X87224500Y-51600500D01*
X89413331Y-51600500D01*
X89413347Y-51600501D01*
X89420943Y-51600501D01*
X89579054Y-51600501D01*
X89579057Y-51600501D01*
X89731785Y-51559577D01*
X89803424Y-51518216D01*
X89868716Y-51480520D01*
X89980520Y-51368716D01*
X89980520Y-51368714D01*
X89990724Y-51358511D01*
X89990727Y-51358506D01*
X103662322Y-37686912D01*
X103723641Y-37653430D01*
X103793333Y-37658414D01*
G37*
%TD.AperFunction*%
%TA.AperFunction,NonConductor*%
G36*
X74464379Y-64599462D02*
G01*
X74490813Y-64602619D01*
X74500095Y-64608900D01*
X74506189Y-64610511D01*
X74512235Y-64617115D01*
X74529697Y-64628933D01*
X74631284Y-64730520D01*
X74718095Y-64780639D01*
X74718097Y-64780641D01*
X74751796Y-64800097D01*
X74768215Y-64809577D01*
X74920943Y-64850501D01*
X74920946Y-64850501D01*
X75079056Y-64850501D01*
X75079057Y-64850501D01*
X75079058Y-64850501D01*
X75231785Y-64809577D01*
X75368716Y-64730520D01*
X75437819Y-64661417D01*
X75499142Y-64627932D01*
X75568834Y-64632916D01*
X75624767Y-64674788D01*
X75649184Y-64740252D01*
X75649500Y-64749098D01*
X75649500Y-64833771D01*
X75682182Y-64998074D01*
X75682184Y-64998082D01*
X75746295Y-65152860D01*
X75839373Y-65292162D01*
X75957837Y-65410626D01*
X75966229Y-65416233D01*
X76097137Y-65503703D01*
X76251918Y-65567816D01*
X76416228Y-65600499D01*
X76416232Y-65600500D01*
X76416233Y-65600500D01*
X76449902Y-65600500D01*
X76516941Y-65620185D01*
X76537583Y-65636819D01*
X76631284Y-65730520D01*
X76631286Y-65730521D01*
X76631290Y-65730524D01*
X76671440Y-65753704D01*
X76768216Y-65809577D01*
X76920943Y-65850501D01*
X76920945Y-65850501D01*
X77086654Y-65850501D01*
X77086670Y-65850500D01*
X78525500Y-65850500D01*
X78592539Y-65870185D01*
X78638294Y-65922989D01*
X78649500Y-65974500D01*
X78649500Y-67406564D01*
X78629815Y-67473603D01*
X78577011Y-67519358D01*
X78507853Y-67529302D01*
X78444297Y-67500277D01*
X78422399Y-67475456D01*
X78410628Y-67457840D01*
X78410623Y-67457834D01*
X78292162Y-67339373D01*
X78152860Y-67246295D01*
X77998082Y-67182184D01*
X77998074Y-67182182D01*
X77833771Y-67149500D01*
X77833767Y-67149500D01*
X77666233Y-67149500D01*
X77666228Y-67149500D01*
X77501925Y-67182182D01*
X77501917Y-67182184D01*
X77347139Y-67246295D01*
X77207837Y-67339373D01*
X77089373Y-67457837D01*
X76996295Y-67597139D01*
X76932184Y-67751917D01*
X76932182Y-67751925D01*
X76899500Y-67916228D01*
X76899500Y-67949902D01*
X76879815Y-68016941D01*
X76863181Y-68037583D01*
X72269481Y-72631282D01*
X72269479Y-72631285D01*
X72219361Y-72718094D01*
X72219359Y-72718096D01*
X72190425Y-72768209D01*
X72190424Y-72768210D01*
X72190423Y-72768215D01*
X72149499Y-72920943D01*
X72149499Y-72920945D01*
X72149499Y-73089046D01*
X72149500Y-73089059D01*
X72149500Y-76025500D01*
X72129815Y-76092539D01*
X72077011Y-76138294D01*
X72025500Y-76149500D01*
X63724500Y-76149500D01*
X63657461Y-76129815D01*
X63611706Y-76077011D01*
X63600500Y-76025500D01*
X63600500Y-75916232D01*
X63600499Y-75916228D01*
X63567816Y-75751918D01*
X63545863Y-75698921D01*
X63538395Y-75629453D01*
X63569670Y-75566973D01*
X63617093Y-75535287D01*
X63677926Y-75512598D01*
X63677926Y-75512597D01*
X63677931Y-75512596D01*
X63793146Y-75426346D01*
X63879396Y-75311131D01*
X63928410Y-75179716D01*
X63970281Y-75123784D01*
X64035745Y-75099366D01*
X64104018Y-75114217D01*
X64132273Y-75135369D01*
X64245813Y-75248909D01*
X64417779Y-75373848D01*
X64417781Y-75373849D01*
X64417784Y-75373851D01*
X64607188Y-75470357D01*
X64809357Y-75536046D01*
X65019313Y-75569300D01*
X65019314Y-75569300D01*
X65231886Y-75569300D01*
X65231887Y-75569300D01*
X65441843Y-75536046D01*
X65644012Y-75470357D01*
X65833416Y-75373851D01*
X65919738Y-75311135D01*
X66005386Y-75248909D01*
X66005388Y-75248906D01*
X66005392Y-75248904D01*
X66155704Y-75098592D01*
X66155706Y-75098588D01*
X66155709Y-75098586D01*
X66280648Y-74926620D01*
X66280647Y-74926620D01*
X66280651Y-74926616D01*
X66285114Y-74917854D01*
X66333088Y-74867059D01*
X66400908Y-74850263D01*
X66467044Y-74872799D01*
X66506086Y-74917856D01*
X66510551Y-74926620D01*
X66635490Y-75098586D01*
X66785813Y-75248909D01*
X66957779Y-75373848D01*
X66957781Y-75373849D01*
X66957784Y-75373851D01*
X67147188Y-75470357D01*
X67349357Y-75536046D01*
X67559313Y-75569300D01*
X67559314Y-75569300D01*
X67771886Y-75569300D01*
X67771887Y-75569300D01*
X67981843Y-75536046D01*
X68184012Y-75470357D01*
X68373416Y-75373851D01*
X68459738Y-75311135D01*
X68545386Y-75248909D01*
X68545388Y-75248906D01*
X68545392Y-75248904D01*
X68695704Y-75098592D01*
X68695706Y-75098588D01*
X68695709Y-75098586D01*
X68820648Y-74926620D01*
X68820647Y-74926620D01*
X68820651Y-74926616D01*
X68825114Y-74917854D01*
X68873088Y-74867059D01*
X68940908Y-74850263D01*
X69007044Y-74872799D01*
X69046086Y-74917856D01*
X69050551Y-74926620D01*
X69175490Y-75098586D01*
X69325813Y-75248909D01*
X69497779Y-75373848D01*
X69497781Y-75373849D01*
X69497784Y-75373851D01*
X69687188Y-75470357D01*
X69889357Y-75536046D01*
X70099313Y-75569300D01*
X70099314Y-75569300D01*
X70311886Y-75569300D01*
X70311887Y-75569300D01*
X70521843Y-75536046D01*
X70724012Y-75470357D01*
X70913416Y-75373851D01*
X70999738Y-75311135D01*
X71085386Y-75248909D01*
X71085388Y-75248906D01*
X71085392Y-75248904D01*
X71235704Y-75098592D01*
X71235706Y-75098588D01*
X71235709Y-75098586D01*
X71360648Y-74926620D01*
X71360647Y-74926620D01*
X71360651Y-74926616D01*
X71457157Y-74737212D01*
X71522846Y-74535043D01*
X71556100Y-74325087D01*
X71556100Y-74112513D01*
X71522846Y-73902557D01*
X71457157Y-73700388D01*
X71360651Y-73510984D01*
X71360649Y-73510981D01*
X71360648Y-73510979D01*
X71235709Y-73339013D01*
X71085386Y-73188690D01*
X70913420Y-73063751D01*
X70724014Y-72967244D01*
X70724013Y-72967243D01*
X70724012Y-72967243D01*
X70521843Y-72901554D01*
X70521841Y-72901553D01*
X70521840Y-72901553D01*
X70360557Y-72876008D01*
X70311887Y-72868300D01*
X70099313Y-72868300D01*
X70050642Y-72876008D01*
X69889360Y-72901553D01*
X69788272Y-72934398D01*
X69758375Y-72944113D01*
X69687185Y-72967244D01*
X69497779Y-73063751D01*
X69325813Y-73188690D01*
X69175490Y-73339013D01*
X69050549Y-73510982D01*
X69046084Y-73519746D01*
X68998109Y-73570542D01*
X68930288Y-73587336D01*
X68864153Y-73564798D01*
X68825116Y-73519746D01*
X68820650Y-73510982D01*
X68695709Y-73339013D01*
X68545386Y-73188690D01*
X68373420Y-73063751D01*
X68184014Y-72967244D01*
X68184013Y-72967243D01*
X68184012Y-72967243D01*
X67981843Y-72901554D01*
X67981841Y-72901553D01*
X67981840Y-72901553D01*
X67820557Y-72876008D01*
X67771887Y-72868300D01*
X67559313Y-72868300D01*
X67510642Y-72876008D01*
X67349360Y-72901553D01*
X67248272Y-72934398D01*
X67218375Y-72944113D01*
X67147185Y-72967244D01*
X66957779Y-73063751D01*
X66785813Y-73188690D01*
X66635490Y-73339013D01*
X66510549Y-73510982D01*
X66506084Y-73519746D01*
X66458109Y-73570542D01*
X66390288Y-73587336D01*
X66324153Y-73564798D01*
X66285116Y-73519746D01*
X66280650Y-73510982D01*
X66155709Y-73339013D01*
X66005386Y-73188690D01*
X65833420Y-73063751D01*
X65644014Y-72967244D01*
X65644013Y-72967243D01*
X65644012Y-72967243D01*
X65441843Y-72901554D01*
X65441841Y-72901553D01*
X65441840Y-72901553D01*
X65280557Y-72876008D01*
X65231887Y-72868300D01*
X65019313Y-72868300D01*
X64970642Y-72876008D01*
X64809360Y-72901553D01*
X64708272Y-72934398D01*
X64678375Y-72944113D01*
X64607185Y-72967244D01*
X64417779Y-73063751D01*
X64245815Y-73188689D01*
X64132273Y-73302231D01*
X64070950Y-73335715D01*
X64001258Y-73330731D01*
X63945325Y-73288859D01*
X63928410Y-73257882D01*
X63879397Y-73126471D01*
X63879393Y-73126464D01*
X63793147Y-73011255D01*
X63793144Y-73011252D01*
X63677935Y-72925006D01*
X63677928Y-72925002D01*
X63543082Y-72874708D01*
X63543083Y-72874708D01*
X63483483Y-72868301D01*
X63483481Y-72868300D01*
X63483473Y-72868300D01*
X63483464Y-72868300D01*
X61687729Y-72868300D01*
X61687723Y-72868301D01*
X61628116Y-72874708D01*
X61493271Y-72925002D01*
X61493264Y-72925006D01*
X61378055Y-73011252D01*
X61378052Y-73011255D01*
X61291806Y-73126464D01*
X61291802Y-73126471D01*
X61241508Y-73261317D01*
X61235101Y-73320916D01*
X61235100Y-73320935D01*
X61235100Y-75116670D01*
X61235101Y-75116676D01*
X61241508Y-75176283D01*
X61291802Y-75311128D01*
X61291806Y-75311135D01*
X61378052Y-75426344D01*
X61378055Y-75426347D01*
X61493264Y-75512593D01*
X61493271Y-75512597D01*
X61493274Y-75512598D01*
X61628117Y-75562891D01*
X61687727Y-75569300D01*
X61822249Y-75569299D01*
X61889287Y-75588983D01*
X61935042Y-75641787D01*
X61944986Y-75710945D01*
X61936810Y-75740750D01*
X61932184Y-75751918D01*
X61932182Y-75751925D01*
X61899500Y-75916228D01*
X61899500Y-76083771D01*
X61932182Y-76248074D01*
X61932184Y-76248082D01*
X61996295Y-76402860D01*
X62089373Y-76542162D01*
X62089376Y-76542165D01*
X62134505Y-76587293D01*
X62142442Y-76600958D01*
X62152374Y-76609895D01*
X62166049Y-76641606D01*
X62166434Y-76642268D01*
X62166538Y-76642648D01*
X62190423Y-76731785D01*
X62191353Y-76733396D01*
X62193923Y-76742793D01*
X62193410Y-76770224D01*
X62196346Y-76797505D01*
X62192767Y-76804655D01*
X62192618Y-76812650D01*
X62177356Y-76835450D01*
X62165077Y-76859987D01*
X62158201Y-76864067D01*
X62153753Y-76870713D01*
X62128581Y-76881644D01*
X62104991Y-76895645D01*
X62092827Y-76897173D01*
X62089667Y-76898546D01*
X62086286Y-76897995D01*
X62074314Y-76899500D01*
X60938792Y-76899500D01*
X60871753Y-76879815D01*
X60825998Y-76827011D01*
X60816054Y-76757853D01*
X60817175Y-76751309D01*
X60845303Y-76609895D01*
X60850500Y-76583767D01*
X60850500Y-76416233D01*
X60817816Y-76251918D01*
X60753703Y-76097137D01*
X60722537Y-76050494D01*
X60660626Y-75957837D01*
X60542162Y-75839373D01*
X60402860Y-75746295D01*
X60248082Y-75682184D01*
X60248074Y-75682182D01*
X60083771Y-75649500D01*
X60083767Y-75649500D01*
X60050097Y-75649500D01*
X60020656Y-75640855D01*
X59990670Y-75634332D01*
X59985654Y-75630577D01*
X59983058Y-75629815D01*
X59962416Y-75613181D01*
X59886819Y-75537584D01*
X59853334Y-75476261D01*
X59850500Y-75449903D01*
X59850500Y-74839060D01*
X59850501Y-74839047D01*
X59850501Y-74670944D01*
X59835453Y-74614785D01*
X59809577Y-74518216D01*
X59755978Y-74425379D01*
X59730524Y-74381290D01*
X59730518Y-74381282D01*
X58886819Y-73537583D01*
X58853334Y-73476260D01*
X58850500Y-73449902D01*
X58850500Y-68070893D01*
X58853363Y-68061141D01*
X58852097Y-68051058D01*
X58863041Y-68028182D01*
X58870185Y-68003854D01*
X58877864Y-67997199D01*
X58882251Y-67988031D01*
X58903827Y-67974702D01*
X58922989Y-67958099D01*
X58933046Y-67956652D01*
X58941694Y-67951311D01*
X58967050Y-67951763D01*
X58992147Y-67948155D01*
X59003250Y-67952409D01*
X59011553Y-67952558D01*
X59043391Y-67967791D01*
X59093488Y-68001265D01*
X59094391Y-68001868D01*
X59139196Y-68055480D01*
X59149500Y-68104970D01*
X59149500Y-68670943D01*
X59149500Y-68829057D01*
X59185234Y-68962416D01*
X59190423Y-68981783D01*
X59190426Y-68981790D01*
X59269475Y-69118709D01*
X59269479Y-69118714D01*
X59269480Y-69118716D01*
X59381284Y-69230520D01*
X59381286Y-69230521D01*
X59381290Y-69230524D01*
X59480121Y-69287583D01*
X59518216Y-69309577D01*
X59670943Y-69350500D01*
X61199903Y-69350500D01*
X61266942Y-69370185D01*
X61287584Y-69386819D01*
X64265139Y-72364374D01*
X64265149Y-72364385D01*
X64269479Y-72368715D01*
X64269480Y-72368716D01*
X64381284Y-72480520D01*
X64421441Y-72503704D01*
X64468095Y-72530639D01*
X64468097Y-72530641D01*
X64506151Y-72552611D01*
X64518215Y-72559577D01*
X64670943Y-72600500D01*
X64829057Y-72600500D01*
X66163331Y-72600500D01*
X66163347Y-72600501D01*
X66170943Y-72600501D01*
X66329054Y-72600501D01*
X66329057Y-72600501D01*
X66481785Y-72559577D01*
X66531904Y-72530639D01*
X66618716Y-72480520D01*
X66730520Y-72368716D01*
X66730520Y-72368714D01*
X66740728Y-72358507D01*
X66740730Y-72358504D01*
X68619461Y-70479772D01*
X68680782Y-70446289D01*
X68750474Y-70451273D01*
X68806407Y-70493145D01*
X68810242Y-70498564D01*
X68839373Y-70542161D01*
X68839376Y-70542165D01*
X68957837Y-70660626D01*
X69006015Y-70692817D01*
X69097137Y-70753703D01*
X69097138Y-70753703D01*
X69097139Y-70753704D01*
X69132201Y-70768227D01*
X69251918Y-70817816D01*
X69416228Y-70850499D01*
X69416232Y-70850500D01*
X69416233Y-70850500D01*
X69583768Y-70850500D01*
X69583769Y-70850499D01*
X69748082Y-70817816D01*
X69902863Y-70753703D01*
X70042162Y-70660626D01*
X70160626Y-70542162D01*
X70253703Y-70402863D01*
X70317816Y-70248082D01*
X70350500Y-70083767D01*
X70350500Y-69916233D01*
X70317816Y-69751918D01*
X70256270Y-69603334D01*
X70253704Y-69597139D01*
X70160626Y-69457837D01*
X70042164Y-69339375D01*
X70026719Y-69329055D01*
X69998563Y-69310242D01*
X69953760Y-69256632D01*
X69945052Y-69187307D01*
X69975206Y-69124279D01*
X69979755Y-69119479D01*
X74230520Y-64868716D01*
X74280639Y-64781904D01*
X74309577Y-64731785D01*
X74320842Y-64689744D01*
X74324483Y-64676155D01*
X74327860Y-64668194D01*
X74344742Y-64647603D01*
X74358594Y-64624871D01*
X74366550Y-64621004D01*
X74372160Y-64614163D01*
X74397491Y-64605969D01*
X74421436Y-64594334D01*
X74430220Y-64595383D01*
X74438639Y-64592660D01*
X74464379Y-64599462D01*
G37*
%TD.AperFunction*%
%TA.AperFunction,NonConductor*%
G36*
X56546100Y-44120185D02*
G01*
X56591855Y-44172989D01*
X56601799Y-44242147D01*
X56579379Y-44297385D01*
X56502951Y-44402579D01*
X56406444Y-44591985D01*
X56340753Y-44794160D01*
X56307500Y-45004113D01*
X56307500Y-45216686D01*
X56340753Y-45426639D01*
X56340753Y-45426641D01*
X56340754Y-45426643D01*
X56392785Y-45586778D01*
X56406444Y-45628814D01*
X56502951Y-45818220D01*
X56627890Y-45990186D01*
X56778213Y-46140509D01*
X56950179Y-46265448D01*
X56950181Y-46265449D01*
X56950184Y-46265451D01*
X57139588Y-46361957D01*
X57341757Y-46427646D01*
X57551713Y-46460900D01*
X57551714Y-46460900D01*
X57764285Y-46460900D01*
X57764287Y-46460900D01*
X57856489Y-46446296D01*
X57925780Y-46455250D01*
X57979232Y-46500246D01*
X57999872Y-46566997D01*
X57993816Y-46607087D01*
X57944447Y-46759027D01*
X57944447Y-46759030D01*
X57907500Y-46992302D01*
X57907500Y-47228497D01*
X57944446Y-47461768D01*
X58017433Y-47686396D01*
X58085256Y-47819504D01*
X58124657Y-47896833D01*
X58263483Y-48087910D01*
X58430490Y-48254917D01*
X58621567Y-48393743D01*
X58646730Y-48406564D01*
X58663316Y-48415015D01*
X58714112Y-48462989D01*
X58730907Y-48530810D01*
X58708370Y-48596945D01*
X58653655Y-48640397D01*
X58607021Y-48649500D01*
X58086670Y-48649500D01*
X58086654Y-48649499D01*
X58079058Y-48649499D01*
X57920943Y-48649499D01*
X57844579Y-48669961D01*
X57768214Y-48690423D01*
X57768209Y-48690426D01*
X57631290Y-48769475D01*
X57631282Y-48769481D01*
X55462448Y-50938315D01*
X55422221Y-50965194D01*
X55347143Y-50996293D01*
X55347139Y-50996295D01*
X55207837Y-51089373D01*
X55089373Y-51207837D01*
X54996295Y-51347139D01*
X54932184Y-51501917D01*
X54932182Y-51501925D01*
X54899500Y-51666228D01*
X54899500Y-51833771D01*
X54932182Y-51998074D01*
X54932184Y-51998082D01*
X54996295Y-52152860D01*
X55089373Y-52292162D01*
X55207837Y-52410626D01*
X55216229Y-52416233D01*
X55347137Y-52503703D01*
X55501918Y-52567816D01*
X55666228Y-52600499D01*
X55666232Y-52600500D01*
X55666233Y-52600500D01*
X55833768Y-52600500D01*
X55833769Y-52600499D01*
X55998082Y-52567816D01*
X56152863Y-52503703D01*
X56292162Y-52410626D01*
X56410626Y-52292162D01*
X56503703Y-52152863D01*
X56567816Y-51998082D01*
X56600500Y-51833767D01*
X56600500Y-51666233D01*
X56599385Y-51660629D01*
X56591404Y-51620507D01*
X56585640Y-51591528D01*
X56591867Y-51521939D01*
X56619573Y-51479660D01*
X57277227Y-50822006D01*
X57338549Y-50788523D01*
X57408241Y-50793507D01*
X57464174Y-50835379D01*
X57479468Y-50862235D01*
X57496296Y-50902862D01*
X57589373Y-51042162D01*
X57707837Y-51160626D01*
X57726340Y-51172989D01*
X57847137Y-51253703D01*
X58001918Y-51317816D01*
X58090725Y-51335480D01*
X58152633Y-51367864D01*
X58187208Y-51428579D01*
X58183595Y-51495982D01*
X58183952Y-51496091D01*
X58183512Y-51497540D01*
X58183469Y-51498349D01*
X58182497Y-51500884D01*
X58182182Y-51501925D01*
X58149500Y-51666228D01*
X58149500Y-51833771D01*
X58182182Y-51998074D01*
X58182184Y-51998082D01*
X58246295Y-52152860D01*
X58339373Y-52292162D01*
X58457837Y-52410626D01*
X58466229Y-52416233D01*
X58597137Y-52503703D01*
X58751918Y-52567816D01*
X58916228Y-52600499D01*
X58916232Y-52600500D01*
X58916233Y-52600500D01*
X59083768Y-52600500D01*
X59083769Y-52600499D01*
X59248082Y-52567816D01*
X59402863Y-52503703D01*
X59542162Y-52410626D01*
X59549138Y-52403650D01*
X59565970Y-52386819D01*
X59627293Y-52353334D01*
X59653651Y-52350500D01*
X59913331Y-52350500D01*
X59913347Y-52350501D01*
X59920943Y-52350501D01*
X60079056Y-52350501D01*
X60079057Y-52350501D01*
X60145720Y-52332638D01*
X60215570Y-52334299D01*
X60265496Y-52364731D01*
X61613181Y-53712416D01*
X61646666Y-53773739D01*
X61649500Y-53800097D01*
X61649500Y-53833771D01*
X61682182Y-53998074D01*
X61682184Y-53998082D01*
X61746295Y-54152860D01*
X61839373Y-54292162D01*
X61957837Y-54410626D01*
X62039807Y-54465396D01*
X62097137Y-54503703D01*
X62097138Y-54503703D01*
X62097139Y-54503704D01*
X62100500Y-54505096D01*
X62251918Y-54567816D01*
X62416228Y-54600499D01*
X62416232Y-54600500D01*
X62416233Y-54600500D01*
X62583768Y-54600500D01*
X62583769Y-54600499D01*
X62748082Y-54567816D01*
X62902863Y-54503703D01*
X62956612Y-54467788D01*
X63023286Y-54446912D01*
X63090666Y-54465396D01*
X63137357Y-54517374D01*
X63149500Y-54570892D01*
X63149500Y-56096349D01*
X63129815Y-56163388D01*
X63113181Y-56184030D01*
X63089376Y-56207834D01*
X63089373Y-56207837D01*
X62996295Y-56347139D01*
X62932184Y-56501917D01*
X62932182Y-56501925D01*
X62899500Y-56666228D01*
X62899500Y-56833771D01*
X62932182Y-56998074D01*
X62932184Y-56998082D01*
X62996295Y-57152860D01*
X63089373Y-57292162D01*
X63207837Y-57410626D01*
X63278495Y-57457838D01*
X63347137Y-57503703D01*
X63501918Y-57567816D01*
X63626336Y-57592564D01*
X63666228Y-57600499D01*
X63666232Y-57600500D01*
X63666233Y-57600500D01*
X63833768Y-57600500D01*
X63833769Y-57600499D01*
X63998082Y-57567816D01*
X63998094Y-57567810D01*
X64003909Y-57566048D01*
X64004631Y-57568429D01*
X64063245Y-57562117D01*
X64125730Y-57593380D01*
X64161393Y-57653462D01*
X64158913Y-57723288D01*
X64128932Y-57771832D01*
X62037584Y-59863181D01*
X61976261Y-59896666D01*
X61949903Y-59899500D01*
X57903651Y-59899500D01*
X57836612Y-59879815D01*
X57815970Y-59863181D01*
X57792162Y-59839373D01*
X57652860Y-59746295D01*
X57498082Y-59682184D01*
X57498074Y-59682182D01*
X57333771Y-59649500D01*
X57333767Y-59649500D01*
X57166233Y-59649500D01*
X57166228Y-59649500D01*
X57001925Y-59682182D01*
X57001917Y-59682184D01*
X56847139Y-59746295D01*
X56707837Y-59839373D01*
X56589373Y-59957837D01*
X56496295Y-60097139D01*
X56432184Y-60251917D01*
X56432182Y-60251925D01*
X56399500Y-60416228D01*
X56399500Y-60583771D01*
X56432182Y-60748074D01*
X56432184Y-60748082D01*
X56496295Y-60902860D01*
X56589373Y-61042162D01*
X56707837Y-61160626D01*
X56726340Y-61172989D01*
X56847137Y-61253703D01*
X57001918Y-61317816D01*
X57166228Y-61350499D01*
X57166232Y-61350500D01*
X57166233Y-61350500D01*
X57333768Y-61350500D01*
X57333769Y-61350499D01*
X57498082Y-61317816D01*
X57652863Y-61253703D01*
X57792162Y-61160626D01*
X57803604Y-61149184D01*
X57815970Y-61136819D01*
X57877293Y-61103334D01*
X57903651Y-61100500D01*
X59750902Y-61100500D01*
X59817941Y-61120185D01*
X59863696Y-61172989D01*
X59873640Y-61242147D01*
X59844615Y-61305703D01*
X59838583Y-61312181D01*
X59769478Y-61381286D01*
X56787584Y-64363181D01*
X56726261Y-64396666D01*
X56699903Y-64399500D01*
X52300097Y-64399500D01*
X52233058Y-64379815D01*
X52212416Y-64363181D01*
X51886819Y-64037584D01*
X51853334Y-63976261D01*
X51850500Y-63949903D01*
X51850500Y-59974500D01*
X51870185Y-59907461D01*
X51922989Y-59861706D01*
X51974500Y-59850500D01*
X53913331Y-59850500D01*
X53913347Y-59850501D01*
X53920943Y-59850501D01*
X54079054Y-59850501D01*
X54079057Y-59850501D01*
X54231785Y-59809577D01*
X54281904Y-59780639D01*
X54368716Y-59730520D01*
X54480520Y-59618716D01*
X54480520Y-59618714D01*
X54490728Y-59608507D01*
X54490730Y-59608504D01*
X56478170Y-57621063D01*
X56539491Y-57587580D01*
X56609183Y-57592564D01*
X56665116Y-57634436D01*
X56689533Y-57699900D01*
X56682150Y-57745544D01*
X56683952Y-57746091D01*
X56682182Y-57751925D01*
X56649500Y-57916228D01*
X56649500Y-58083771D01*
X56682182Y-58248074D01*
X56682184Y-58248082D01*
X56746295Y-58402860D01*
X56839373Y-58542162D01*
X56957837Y-58660626D01*
X57039302Y-58715059D01*
X57097137Y-58753703D01*
X57251918Y-58817816D01*
X57416228Y-58850499D01*
X57416232Y-58850500D01*
X57416233Y-58850500D01*
X57583768Y-58850500D01*
X57583769Y-58850499D01*
X57748082Y-58817816D01*
X57902863Y-58753703D01*
X58042162Y-58660626D01*
X58160626Y-58542162D01*
X58253703Y-58402863D01*
X58317816Y-58248082D01*
X58350500Y-58083767D01*
X58350500Y-57916233D01*
X58317816Y-57751918D01*
X58284938Y-57672545D01*
X58277470Y-57603079D01*
X58308745Y-57540600D01*
X58311789Y-57537444D01*
X59730520Y-56118716D01*
X59809577Y-55981784D01*
X59833397Y-55892882D01*
X59865492Y-55837295D01*
X59869020Y-55833767D01*
X59910626Y-55792162D01*
X60003703Y-55652863D01*
X60067816Y-55498082D01*
X60100500Y-55333767D01*
X60100500Y-55166233D01*
X60067816Y-55001918D01*
X60003703Y-54847137D01*
X59910626Y-54707838D01*
X59910624Y-54707835D01*
X59907205Y-54703669D01*
X59879888Y-54639361D01*
X59891676Y-54570493D01*
X59907205Y-54546331D01*
X59910624Y-54542164D01*
X59910626Y-54542162D01*
X60003703Y-54402863D01*
X60067816Y-54248082D01*
X60100500Y-54083767D01*
X60100500Y-53916233D01*
X60067816Y-53751918D01*
X60003703Y-53597137D01*
X59951811Y-53519475D01*
X59910626Y-53457837D01*
X59792162Y-53339373D01*
X59652860Y-53246295D01*
X59498082Y-53182184D01*
X59498074Y-53182182D01*
X59333771Y-53149500D01*
X59333767Y-53149500D01*
X59166233Y-53149500D01*
X59166228Y-53149500D01*
X59001925Y-53182182D01*
X59001917Y-53182184D01*
X58847139Y-53246295D01*
X58707837Y-53339373D01*
X58589373Y-53457837D01*
X58496295Y-53597139D01*
X58432184Y-53751917D01*
X58432182Y-53751925D01*
X58399500Y-53916228D01*
X58399500Y-53949903D01*
X58379815Y-54016942D01*
X58363181Y-54037584D01*
X53787584Y-58613181D01*
X53726261Y-58646666D01*
X53699903Y-58649500D01*
X51170943Y-58649500D01*
X51018216Y-58690423D01*
X51018209Y-58690426D01*
X50881290Y-58769475D01*
X50881282Y-58769481D01*
X50769481Y-58881282D01*
X50769475Y-58881290D01*
X50690426Y-59018209D01*
X50690423Y-59018216D01*
X50649500Y-59170943D01*
X50649500Y-64163330D01*
X50649499Y-64163348D01*
X50649499Y-64329054D01*
X50649498Y-64329054D01*
X50690424Y-64481789D01*
X50690425Y-64481790D01*
X50712186Y-64519480D01*
X50712187Y-64519482D01*
X50769475Y-64618709D01*
X50769481Y-64618717D01*
X50888349Y-64737585D01*
X50888355Y-64737590D01*
X51515139Y-65364374D01*
X51515149Y-65364385D01*
X51519479Y-65368715D01*
X51519480Y-65368716D01*
X51631284Y-65480520D01*
X51696576Y-65518216D01*
X51768215Y-65559577D01*
X51920943Y-65600500D01*
X52079057Y-65600500D01*
X55775500Y-65600500D01*
X55842539Y-65620185D01*
X55888294Y-65672989D01*
X55899500Y-65724500D01*
X55899500Y-65833771D01*
X55932182Y-65998074D01*
X55932184Y-65998082D01*
X55996295Y-66152860D01*
X56089373Y-66292162D01*
X56207837Y-66410626D01*
X56300494Y-66472537D01*
X56347137Y-66503703D01*
X56501918Y-66567816D01*
X56666228Y-66600499D01*
X56666232Y-66600500D01*
X56666233Y-66600500D01*
X56699902Y-66600500D01*
X56766941Y-66620185D01*
X56787583Y-66636819D01*
X56881284Y-66730520D01*
X56881286Y-66730521D01*
X56881290Y-66730524D01*
X57018209Y-66809573D01*
X57018216Y-66809577D01*
X57170943Y-66850501D01*
X57170945Y-66850501D01*
X57336654Y-66850501D01*
X57336670Y-66850500D01*
X57525500Y-66850500D01*
X57592539Y-66870185D01*
X57638294Y-66922989D01*
X57649500Y-66974500D01*
X57649500Y-73663330D01*
X57649499Y-73663348D01*
X57649499Y-73829054D01*
X57649498Y-73829054D01*
X57690423Y-73981785D01*
X57719358Y-74031900D01*
X57719359Y-74031904D01*
X57719360Y-74031904D01*
X57760458Y-74103090D01*
X57769479Y-74118714D01*
X57769481Y-74118717D01*
X57888349Y-74237585D01*
X57888355Y-74237590D01*
X58613181Y-74962416D01*
X58646666Y-75023739D01*
X58649500Y-75050097D01*
X58649500Y-75663330D01*
X58649499Y-75663348D01*
X58649499Y-75829054D01*
X58649498Y-75829054D01*
X58660124Y-75868709D01*
X58690423Y-75981785D01*
X58690424Y-75981787D01*
X58690423Y-75981787D01*
X58708438Y-76012988D01*
X58708440Y-76012990D01*
X58708441Y-76012992D01*
X58745402Y-76077011D01*
X58769479Y-76118715D01*
X58888349Y-76237585D01*
X58888355Y-76237590D01*
X59113181Y-76462416D01*
X59146666Y-76523739D01*
X59147973Y-76530695D01*
X59149500Y-76540334D01*
X59149500Y-76583767D01*
X59182184Y-76748082D01*
X59182551Y-76748969D01*
X59183681Y-76756098D01*
X59179503Y-76788433D01*
X59176598Y-76820901D01*
X59175050Y-76822892D01*
X59174728Y-76825392D01*
X59153733Y-76850333D01*
X59133734Y-76876078D01*
X59131357Y-76876916D01*
X59129734Y-76878845D01*
X59098589Y-76888475D01*
X59067845Y-76899322D01*
X59063105Y-76899449D01*
X59062983Y-76899487D01*
X59062869Y-76899455D01*
X59061208Y-76899500D01*
X51300097Y-76899500D01*
X51233058Y-76879815D01*
X51212416Y-76863181D01*
X49636819Y-75287584D01*
X49603334Y-75226261D01*
X49600500Y-75199903D01*
X49600500Y-46992302D01*
X51907500Y-46992302D01*
X51907500Y-47228497D01*
X51944446Y-47461768D01*
X52017433Y-47686396D01*
X52085256Y-47819504D01*
X52124657Y-47896833D01*
X52263483Y-48087910D01*
X52430490Y-48254917D01*
X52621567Y-48393743D01*
X52646730Y-48406564D01*
X52832003Y-48500966D01*
X52832005Y-48500966D01*
X52832008Y-48500968D01*
X52918180Y-48528967D01*
X53056631Y-48573953D01*
X53289903Y-48610900D01*
X53289908Y-48610900D01*
X53526097Y-48610900D01*
X53759368Y-48573953D01*
X53983992Y-48500968D01*
X54194433Y-48393743D01*
X54385510Y-48254917D01*
X54552517Y-48087910D01*
X54691343Y-47896833D01*
X54798568Y-47686392D01*
X54871553Y-47461768D01*
X54879225Y-47413330D01*
X54908500Y-47228497D01*
X54908500Y-46992302D01*
X54871553Y-46759031D01*
X54820963Y-46603334D01*
X54798568Y-46534408D01*
X54798566Y-46534405D01*
X54798566Y-46534403D01*
X54742002Y-46423391D01*
X54691343Y-46323967D01*
X54552517Y-46132890D01*
X54385510Y-45965883D01*
X54194433Y-45827057D01*
X54177500Y-45818429D01*
X53983996Y-45719833D01*
X53759368Y-45646846D01*
X53526097Y-45609900D01*
X53526092Y-45609900D01*
X53289908Y-45609900D01*
X53289903Y-45609900D01*
X53056631Y-45646846D01*
X52832003Y-45719833D01*
X52621566Y-45827057D01*
X52516405Y-45903462D01*
X52430490Y-45965883D01*
X52430488Y-45965885D01*
X52430487Y-45965885D01*
X52263485Y-46132887D01*
X52263485Y-46132888D01*
X52263483Y-46132890D01*
X52242758Y-46161416D01*
X52124657Y-46323966D01*
X52017433Y-46534403D01*
X51944446Y-46759031D01*
X51907500Y-46992302D01*
X49600500Y-46992302D01*
X49600500Y-44224500D01*
X49620185Y-44157461D01*
X49672989Y-44111706D01*
X49724500Y-44100500D01*
X56479061Y-44100500D01*
X56546100Y-44120185D01*
G37*
%TD.AperFunction*%
%TA.AperFunction,NonConductor*%
G36*
X106876148Y-25623600D02*
G01*
X106922101Y-25676232D01*
X106933500Y-25728166D01*
X106933500Y-79021900D01*
X106913815Y-79088939D01*
X106861011Y-79134694D01*
X106809500Y-79145900D01*
X39088456Y-79145900D01*
X39021417Y-79126215D01*
X38975662Y-79073411D01*
X38964457Y-79021545D01*
X38975881Y-75026913D01*
X42185100Y-75026913D01*
X42185100Y-75239487D01*
X42192718Y-75287584D01*
X42214695Y-75426346D01*
X42218354Y-75449443D01*
X42278428Y-75634332D01*
X42284044Y-75651614D01*
X42380551Y-75841020D01*
X42505490Y-76012986D01*
X42655813Y-76163309D01*
X42827779Y-76288248D01*
X42827781Y-76288249D01*
X42827784Y-76288251D01*
X43017188Y-76384757D01*
X43219357Y-76450446D01*
X43429313Y-76483700D01*
X43429314Y-76483700D01*
X43641886Y-76483700D01*
X43641887Y-76483700D01*
X43851843Y-76450446D01*
X44054012Y-76384757D01*
X44243416Y-76288251D01*
X44293415Y-76251925D01*
X44415386Y-76163309D01*
X44415388Y-76163306D01*
X44415392Y-76163304D01*
X44565704Y-76012992D01*
X44565706Y-76012988D01*
X44565709Y-76012986D01*
X44690648Y-75841020D01*
X44690647Y-75841020D01*
X44690651Y-75841016D01*
X44787157Y-75651612D01*
X44852846Y-75449443D01*
X44886100Y-75239487D01*
X44886100Y-75026913D01*
X44852846Y-74816957D01*
X44787157Y-74614788D01*
X44690651Y-74425384D01*
X44690649Y-74425381D01*
X44690648Y-74425379D01*
X44565709Y-74253413D01*
X44415386Y-74103090D01*
X44243420Y-73978151D01*
X44054014Y-73881644D01*
X44054013Y-73881643D01*
X44054012Y-73881643D01*
X43851843Y-73815954D01*
X43851841Y-73815953D01*
X43851840Y-73815953D01*
X43690557Y-73790408D01*
X43641887Y-73782700D01*
X43429313Y-73782700D01*
X43380642Y-73790408D01*
X43219360Y-73815953D01*
X43017185Y-73881644D01*
X42827779Y-73978151D01*
X42655813Y-74103090D01*
X42505490Y-74253413D01*
X42380551Y-74425379D01*
X42284044Y-74614785D01*
X42218353Y-74816960D01*
X42200985Y-74926620D01*
X42185100Y-75026913D01*
X38975881Y-75026913D01*
X38975896Y-75021686D01*
X39048061Y-49787931D01*
X39090374Y-34992302D01*
X51907500Y-34992302D01*
X51907500Y-35228497D01*
X51944446Y-35461768D01*
X52017433Y-35686396D01*
X52105300Y-35858843D01*
X52124657Y-35896833D01*
X52263483Y-36087910D01*
X52430490Y-36254917D01*
X52621567Y-36393743D01*
X52720991Y-36444402D01*
X52832003Y-36500966D01*
X52832005Y-36500966D01*
X52832008Y-36500968D01*
X52881168Y-36516941D01*
X53056631Y-36573953D01*
X53289903Y-36610900D01*
X53289908Y-36610900D01*
X53526097Y-36610900D01*
X53759368Y-36573953D01*
X53983992Y-36500968D01*
X54194433Y-36393743D01*
X54385510Y-36254917D01*
X54552517Y-36087910D01*
X54691343Y-35896833D01*
X54798568Y-35686392D01*
X54871553Y-35461768D01*
X54881415Y-35399500D01*
X54908500Y-35228497D01*
X54908500Y-34992302D01*
X54871553Y-34759031D01*
X54798566Y-34534403D01*
X54691342Y-34323966D01*
X54552517Y-34132890D01*
X54385510Y-33965883D01*
X54194433Y-33827057D01*
X53983996Y-33719833D01*
X53759368Y-33646846D01*
X53526097Y-33609900D01*
X53526092Y-33609900D01*
X53289908Y-33609900D01*
X53289903Y-33609900D01*
X53056631Y-33646846D01*
X52832003Y-33719833D01*
X52621566Y-33827057D01*
X52512550Y-33906262D01*
X52430490Y-33965883D01*
X52430488Y-33965885D01*
X52430487Y-33965885D01*
X52263485Y-34132887D01*
X52263485Y-34132888D01*
X52263483Y-34132890D01*
X52203862Y-34214950D01*
X52124657Y-34323966D01*
X52017433Y-34534403D01*
X51944446Y-34759031D01*
X51907500Y-34992302D01*
X39090374Y-34992302D01*
X39104454Y-30068913D01*
X42185100Y-30068913D01*
X42185100Y-30281487D01*
X42218354Y-30491443D01*
X42268738Y-30646509D01*
X42284044Y-30693614D01*
X42380551Y-30883020D01*
X42505490Y-31054986D01*
X42655813Y-31205309D01*
X42827779Y-31330248D01*
X42827781Y-31330249D01*
X42827784Y-31330251D01*
X43017188Y-31426757D01*
X43219357Y-31492446D01*
X43429313Y-31525700D01*
X43429314Y-31525700D01*
X43641886Y-31525700D01*
X43641887Y-31525700D01*
X43851843Y-31492446D01*
X44054012Y-31426757D01*
X44243416Y-31330251D01*
X44265389Y-31314286D01*
X44415386Y-31205309D01*
X44415388Y-31205306D01*
X44415392Y-31205304D01*
X44565704Y-31054992D01*
X44565706Y-31054988D01*
X44565709Y-31054986D01*
X44690648Y-30883020D01*
X44690647Y-30883020D01*
X44690651Y-30883016D01*
X44787157Y-30693612D01*
X44852846Y-30491443D01*
X44886100Y-30281487D01*
X44886100Y-30068913D01*
X44852846Y-29858957D01*
X44787157Y-29656788D01*
X44690651Y-29467384D01*
X44690649Y-29467381D01*
X44690648Y-29467379D01*
X44565709Y-29295413D01*
X44415386Y-29145090D01*
X44243420Y-29020151D01*
X44054014Y-28923644D01*
X44054013Y-28923643D01*
X44054012Y-28923643D01*
X43851843Y-28857954D01*
X43851841Y-28857953D01*
X43851840Y-28857953D01*
X43690557Y-28832408D01*
X43641887Y-28824700D01*
X43429313Y-28824700D01*
X43380642Y-28832408D01*
X43219360Y-28857953D01*
X43017185Y-28923644D01*
X42827779Y-29020151D01*
X42655813Y-29145090D01*
X42505490Y-29295413D01*
X42380551Y-29467379D01*
X42284044Y-29656785D01*
X42218353Y-29858960D01*
X42190062Y-30037583D01*
X42185100Y-30068913D01*
X39104454Y-30068913D01*
X39116145Y-25980877D01*
X39136021Y-25913897D01*
X39188955Y-25868294D01*
X39239677Y-25857236D01*
X61326424Y-25774514D01*
X61393536Y-25793947D01*
X61439489Y-25846579D01*
X61449691Y-25915700D01*
X61420904Y-25979364D01*
X61414569Y-25986194D01*
X54631284Y-32769481D01*
X54519483Y-32881281D01*
X54519481Y-32881284D01*
X54440423Y-33018214D01*
X54440423Y-33018215D01*
X54399499Y-33170943D01*
X54399499Y-33170945D01*
X54399499Y-33329054D01*
X54399498Y-33329054D01*
X54440423Y-33481785D01*
X54519481Y-33618716D01*
X54519483Y-33618718D01*
X55613181Y-34712416D01*
X55646666Y-34773739D01*
X55649500Y-34800097D01*
X55649500Y-39420942D01*
X55649500Y-39420943D01*
X55649500Y-39579057D01*
X55663494Y-39631281D01*
X55690423Y-39731783D01*
X55690426Y-39731790D01*
X55769475Y-39868709D01*
X55769479Y-39868714D01*
X55769480Y-39868716D01*
X55881284Y-39980520D01*
X55881286Y-39980521D01*
X55881290Y-39980524D01*
X55960678Y-40026358D01*
X56018216Y-40059577D01*
X56170943Y-40100500D01*
X56479061Y-40100500D01*
X56546100Y-40120185D01*
X56591855Y-40172989D01*
X56601799Y-40242147D01*
X56579379Y-40297385D01*
X56502951Y-40402579D01*
X56406444Y-40591985D01*
X56340753Y-40794160D01*
X56307500Y-41004113D01*
X56307500Y-41216686D01*
X56340753Y-41426640D01*
X56398221Y-41603510D01*
X56398926Y-41628210D01*
X56403836Y-41652426D01*
X56399906Y-41662521D01*
X56400216Y-41673352D01*
X56387455Y-41694512D01*
X56378494Y-41717537D01*
X56367214Y-41728078D01*
X56364135Y-41733184D01*
X56353186Y-41742138D01*
X56347895Y-41745983D01*
X56347137Y-41746297D01*
X56207838Y-41839374D01*
X56177137Y-41870074D01*
X56169245Y-41875810D01*
X56145155Y-41884408D01*
X56122707Y-41896666D01*
X56105685Y-41898496D01*
X56103442Y-41899297D01*
X56101795Y-41898914D01*
X56096349Y-41899500D01*
X56050098Y-41899500D01*
X55983059Y-41879815D01*
X55962417Y-41863181D01*
X54487590Y-40388355D01*
X54487588Y-40388352D01*
X54368717Y-40269481D01*
X54368716Y-40269480D01*
X54261948Y-40207838D01*
X54261947Y-40207837D01*
X54231783Y-40190422D01*
X54166721Y-40172989D01*
X54079057Y-40149499D01*
X53920943Y-40149499D01*
X53913347Y-40149499D01*
X53913331Y-40149500D01*
X52903651Y-40149500D01*
X52836612Y-40129815D01*
X52815970Y-40113181D01*
X52792162Y-40089373D01*
X52652860Y-39996295D01*
X52498082Y-39932184D01*
X52498074Y-39932182D01*
X52333771Y-39899500D01*
X52333767Y-39899500D01*
X52166233Y-39899500D01*
X52166228Y-39899500D01*
X52001925Y-39932182D01*
X52001917Y-39932184D01*
X51847139Y-39996295D01*
X51707837Y-40089373D01*
X51589373Y-40207837D01*
X51496295Y-40347139D01*
X51432184Y-40501917D01*
X51432182Y-40501925D01*
X51399500Y-40666228D01*
X51399500Y-40833771D01*
X51432182Y-40998074D01*
X51432184Y-40998082D01*
X51496295Y-41152860D01*
X51589373Y-41292162D01*
X51707837Y-41410626D01*
X51800494Y-41472537D01*
X51847137Y-41503703D01*
X52001918Y-41567816D01*
X52166228Y-41600499D01*
X52166232Y-41600500D01*
X52166233Y-41600500D01*
X52333768Y-41600500D01*
X52333769Y-41600499D01*
X52498082Y-41567816D01*
X52652863Y-41503703D01*
X52792162Y-41410626D01*
X52792165Y-41410623D01*
X52815970Y-41386819D01*
X52877293Y-41353334D01*
X52903651Y-41350500D01*
X53699903Y-41350500D01*
X53766942Y-41370185D01*
X53787584Y-41386819D01*
X55088583Y-42687819D01*
X55122068Y-42749142D01*
X55117084Y-42818834D01*
X55075212Y-42874767D01*
X55009748Y-42899184D01*
X55000902Y-42899500D01*
X48920943Y-42899500D01*
X48768216Y-42940423D01*
X48768209Y-42940426D01*
X48631290Y-43019475D01*
X48631282Y-43019481D01*
X48519481Y-43131282D01*
X48519475Y-43131290D01*
X48440426Y-43268209D01*
X48440423Y-43268216D01*
X48399500Y-43420943D01*
X48399500Y-75413330D01*
X48399499Y-75413348D01*
X48399499Y-75579054D01*
X48399498Y-75579054D01*
X48440423Y-75731787D01*
X48448802Y-75746298D01*
X48448801Y-75746298D01*
X48448803Y-75746300D01*
X48519475Y-75868709D01*
X48519481Y-75868717D01*
X48638349Y-75987585D01*
X48638355Y-75987590D01*
X50515139Y-77864374D01*
X50515149Y-77864385D01*
X50519479Y-77868715D01*
X50519480Y-77868716D01*
X50631284Y-77980520D01*
X50718095Y-78030639D01*
X50718097Y-78030641D01*
X50756151Y-78052611D01*
X50768215Y-78059577D01*
X50920943Y-78100500D01*
X90163331Y-78100500D01*
X90163347Y-78100501D01*
X90170943Y-78100501D01*
X90329054Y-78100501D01*
X90329057Y-78100501D01*
X90481785Y-78059577D01*
X90531904Y-78030639D01*
X90618716Y-77980520D01*
X90730520Y-77868716D01*
X90730520Y-77868714D01*
X90740728Y-77858507D01*
X90740730Y-77858504D01*
X94608506Y-73990728D01*
X94608511Y-73990724D01*
X94618714Y-73980520D01*
X94618716Y-73980520D01*
X94730520Y-73868716D01*
X94802013Y-73744886D01*
X94809577Y-73731785D01*
X94850500Y-73579058D01*
X94850500Y-73420943D01*
X94850500Y-72944113D01*
X101468700Y-72944113D01*
X101468700Y-73156686D01*
X101494714Y-73320935D01*
X101501954Y-73366643D01*
X101551700Y-73519746D01*
X101567644Y-73568814D01*
X101664151Y-73758220D01*
X101789090Y-73930186D01*
X101939413Y-74080509D01*
X102111379Y-74205448D01*
X102111381Y-74205449D01*
X102111384Y-74205451D01*
X102300788Y-74301957D01*
X102502957Y-74367646D01*
X102712913Y-74400900D01*
X102712914Y-74400900D01*
X102925486Y-74400900D01*
X102925487Y-74400900D01*
X103135443Y-74367646D01*
X103337612Y-74301957D01*
X103527016Y-74205451D01*
X103548989Y-74189486D01*
X103698986Y-74080509D01*
X103698988Y-74080506D01*
X103698992Y-74080504D01*
X103849304Y-73930192D01*
X103849306Y-73930188D01*
X103849309Y-73930186D01*
X103974248Y-73758220D01*
X103974247Y-73758220D01*
X103974251Y-73758216D01*
X104070757Y-73568812D01*
X104136446Y-73366643D01*
X104169700Y-73156687D01*
X104169700Y-72944113D01*
X104136446Y-72734157D01*
X104070757Y-72531988D01*
X103974251Y-72342584D01*
X103974249Y-72342581D01*
X103974248Y-72342579D01*
X103849309Y-72170613D01*
X103698986Y-72020290D01*
X103527020Y-71895351D01*
X103337614Y-71798844D01*
X103337613Y-71798843D01*
X103337612Y-71798843D01*
X103135443Y-71733154D01*
X103135441Y-71733153D01*
X103135440Y-71733153D01*
X102974157Y-71707608D01*
X102925487Y-71699900D01*
X102712913Y-71699900D01*
X102664242Y-71707608D01*
X102502960Y-71733153D01*
X102300785Y-71798844D01*
X102111379Y-71895351D01*
X101939413Y-72020290D01*
X101789090Y-72170613D01*
X101664151Y-72342579D01*
X101567644Y-72531985D01*
X101501953Y-72734160D01*
X101468700Y-72944113D01*
X94850500Y-72944113D01*
X94850500Y-69050097D01*
X94870185Y-68983058D01*
X94886819Y-68962416D01*
X100118717Y-63730518D01*
X105480520Y-58368716D01*
X105559577Y-58231785D01*
X105600501Y-58079057D01*
X105600501Y-57920942D01*
X105600501Y-57913347D01*
X105600500Y-57913329D01*
X105600500Y-38089059D01*
X105600501Y-38089046D01*
X105600501Y-37920945D01*
X105600501Y-37920943D01*
X105559577Y-37768215D01*
X105529608Y-37716308D01*
X105480520Y-37631284D01*
X105368716Y-37519480D01*
X105368715Y-37519479D01*
X105364385Y-37515149D01*
X105364374Y-37515139D01*
X104118718Y-36269483D01*
X104118716Y-36269481D01*
X103981785Y-36190423D01*
X103829057Y-36149499D01*
X103670943Y-36149499D01*
X103542925Y-36183802D01*
X103542924Y-36183801D01*
X103518215Y-36190422D01*
X103381284Y-36269481D01*
X103381281Y-36269483D01*
X89287584Y-50363181D01*
X89226261Y-50396666D01*
X89199903Y-50399500D01*
X79586669Y-50399500D01*
X79586653Y-50399499D01*
X79579057Y-50399499D01*
X79420943Y-50399499D01*
X79341010Y-50420917D01*
X79268216Y-50440422D01*
X79238050Y-50457839D01*
X79238049Y-50457838D01*
X79131287Y-50519477D01*
X79131282Y-50519481D01*
X79019481Y-50631282D01*
X79019479Y-50631285D01*
X78969361Y-50718094D01*
X78969359Y-50718096D01*
X78940425Y-50768209D01*
X78940424Y-50768210D01*
X78940423Y-50768215D01*
X78899499Y-50920943D01*
X78899499Y-50920945D01*
X78899499Y-51079054D01*
X78899498Y-51079054D01*
X78940423Y-51231785D01*
X78969358Y-51281900D01*
X78969359Y-51281904D01*
X78969360Y-51281904D01*
X79013582Y-51358501D01*
X79019479Y-51368714D01*
X79019481Y-51368717D01*
X79113181Y-51462417D01*
X79146666Y-51523740D01*
X79149500Y-51550098D01*
X79149500Y-51846349D01*
X79129815Y-51913388D01*
X79113181Y-51934030D01*
X79089376Y-51957834D01*
X79089373Y-51957837D01*
X78996295Y-52097139D01*
X78932184Y-52251917D01*
X78932182Y-52251925D01*
X78899500Y-52416228D01*
X78899500Y-52583771D01*
X78932182Y-52748074D01*
X78932184Y-52748082D01*
X78996295Y-52902860D01*
X79089373Y-53042162D01*
X79207837Y-53160626D01*
X79278494Y-53207837D01*
X79347137Y-53253703D01*
X79501918Y-53317816D01*
X79649326Y-53347137D01*
X79666228Y-53350499D01*
X79666232Y-53350500D01*
X79666233Y-53350500D01*
X79833768Y-53350500D01*
X79833769Y-53350499D01*
X79998082Y-53317816D01*
X80152863Y-53253703D01*
X80292162Y-53160626D01*
X80410626Y-53042162D01*
X80503703Y-52902863D01*
X80567816Y-52748082D01*
X80600500Y-52583767D01*
X80600500Y-52416233D01*
X80567816Y-52251918D01*
X80503703Y-52097137D01*
X80440084Y-52001925D01*
X80410626Y-51957837D01*
X80386819Y-51934030D01*
X80372115Y-51907102D01*
X80355523Y-51881284D01*
X80354631Y-51875083D01*
X80353334Y-51872707D01*
X80350500Y-51846349D01*
X80350500Y-51724500D01*
X80370185Y-51657461D01*
X80422989Y-51611706D01*
X80474500Y-51600500D01*
X85275500Y-51600500D01*
X85342539Y-51620185D01*
X85388294Y-51672989D01*
X85399500Y-51724500D01*
X85399500Y-51833771D01*
X85432182Y-51998074D01*
X85432184Y-51998082D01*
X85496295Y-52152860D01*
X85589372Y-52292160D01*
X85589373Y-52292161D01*
X85589374Y-52292162D01*
X85613181Y-52315969D01*
X85646666Y-52377290D01*
X85649500Y-52403650D01*
X85649500Y-56949902D01*
X85629815Y-57016941D01*
X85613181Y-57037583D01*
X83962584Y-58688179D01*
X83901261Y-58721664D01*
X83831569Y-58716680D01*
X83827451Y-58715059D01*
X83748086Y-58682185D01*
X83748074Y-58682182D01*
X83583771Y-58649500D01*
X83583767Y-58649500D01*
X83416233Y-58649500D01*
X83416228Y-58649500D01*
X83251925Y-58682182D01*
X83251917Y-58682184D01*
X83097139Y-58746295D01*
X82957837Y-58839373D01*
X82839373Y-58957837D01*
X82746295Y-59097139D01*
X82682184Y-59251917D01*
X82682182Y-59251925D01*
X82649500Y-59416228D01*
X82649500Y-59583771D01*
X82682825Y-59751309D01*
X82680947Y-59772292D01*
X82683946Y-59793147D01*
X82677896Y-59806394D01*
X82676598Y-59820901D01*
X82663672Y-59837538D01*
X82654921Y-59856703D01*
X82642668Y-59864577D01*
X82633734Y-59876078D01*
X82613866Y-59883086D01*
X82596143Y-59894477D01*
X82571559Y-59898011D01*
X82567845Y-59899322D01*
X82561208Y-59899500D01*
X82550097Y-59899500D01*
X82483058Y-59879815D01*
X82462416Y-59863181D01*
X82386819Y-59787584D01*
X82353334Y-59726261D01*
X82350500Y-59699903D01*
X82350500Y-59666232D01*
X82350499Y-59666228D01*
X82334097Y-59583771D01*
X82317816Y-59501918D01*
X82253703Y-59347137D01*
X82190084Y-59251925D01*
X82160626Y-59207837D01*
X82042162Y-59089373D01*
X81902860Y-58996295D01*
X81748082Y-58932184D01*
X81748074Y-58932182D01*
X81583771Y-58899500D01*
X81583767Y-58899500D01*
X81416233Y-58899500D01*
X81416228Y-58899500D01*
X81251925Y-58932182D01*
X81251917Y-58932184D01*
X81097139Y-58996295D01*
X80957837Y-59089373D01*
X80839373Y-59207837D01*
X80746295Y-59347139D01*
X80682184Y-59501917D01*
X80682182Y-59501925D01*
X80649500Y-59666228D01*
X80649500Y-59833771D01*
X80682182Y-59998074D01*
X80682184Y-59998082D01*
X80746295Y-60152860D01*
X80839373Y-60292162D01*
X80957837Y-60410626D01*
X81050494Y-60472537D01*
X81097137Y-60503703D01*
X81251918Y-60567816D01*
X81416228Y-60600499D01*
X81416232Y-60600500D01*
X81416233Y-60600500D01*
X81449903Y-60600500D01*
X81516942Y-60620185D01*
X81537584Y-60636819D01*
X81765139Y-60864374D01*
X81765149Y-60864385D01*
X81769479Y-60868715D01*
X81769480Y-60868716D01*
X81881284Y-60980520D01*
X81951720Y-61021185D01*
X81968095Y-61030639D01*
X81968097Y-61030641D01*
X82006151Y-61052611D01*
X82018215Y-61059577D01*
X82170943Y-61100500D01*
X82329057Y-61100500D01*
X87413331Y-61100500D01*
X87413347Y-61100501D01*
X87420943Y-61100501D01*
X87579054Y-61100501D01*
X87579057Y-61100501D01*
X87731785Y-61059577D01*
X87781904Y-61030639D01*
X87868716Y-60980520D01*
X87980520Y-60868716D01*
X87980520Y-60868714D01*
X87990728Y-60858507D01*
X87990731Y-60858503D01*
X88187820Y-60661414D01*
X88249142Y-60627930D01*
X88318834Y-60632914D01*
X88374767Y-60674786D01*
X88399184Y-60740250D01*
X88399500Y-60749096D01*
X88399500Y-62525500D01*
X88379815Y-62592539D01*
X88327011Y-62638294D01*
X88275500Y-62649500D01*
X75300097Y-62649500D01*
X75233058Y-62629815D01*
X75212416Y-62613181D01*
X68636819Y-56037584D01*
X68603334Y-55976261D01*
X68600500Y-55949903D01*
X68600500Y-55916232D01*
X68600499Y-55916228D01*
X68584097Y-55833771D01*
X68567816Y-55751918D01*
X68503703Y-55597137D01*
X68498306Y-55589060D01*
X68477429Y-55522385D01*
X68495913Y-55455005D01*
X68532521Y-55417067D01*
X68542162Y-55410626D01*
X68660626Y-55292162D01*
X68753703Y-55152863D01*
X68817816Y-54998082D01*
X68850500Y-54833767D01*
X68850500Y-54666233D01*
X68817816Y-54501918D01*
X68753703Y-54347137D01*
X68716970Y-54292162D01*
X68660626Y-54207837D01*
X68613693Y-54160904D01*
X68580208Y-54099581D01*
X68585192Y-54029889D01*
X68613690Y-53985545D01*
X68730520Y-53868716D01*
X68809577Y-53731784D01*
X68850501Y-53579057D01*
X68850501Y-53420942D01*
X68850501Y-53413347D01*
X68850500Y-53413329D01*
X68850500Y-53403650D01*
X68870185Y-53336611D01*
X68886815Y-53315972D01*
X68910626Y-53292162D01*
X69003703Y-53152863D01*
X69067816Y-52998082D01*
X69100500Y-52833767D01*
X69100500Y-52666233D01*
X69067816Y-52501918D01*
X69005837Y-52352288D01*
X69003704Y-52347139D01*
X68996669Y-52336611D01*
X68940084Y-52251925D01*
X68910626Y-52207837D01*
X68792162Y-52089373D01*
X68652860Y-51996295D01*
X68498082Y-51932184D01*
X68498076Y-51932182D01*
X68449501Y-51922520D01*
X68387590Y-51890135D01*
X68353016Y-51829419D01*
X68356757Y-51759649D01*
X68386010Y-51713224D01*
X71480520Y-48618716D01*
X71559577Y-48481784D01*
X71600501Y-48329057D01*
X71600501Y-48170942D01*
X71600501Y-48163347D01*
X71600500Y-48163329D01*
X71600500Y-41920945D01*
X71600500Y-41920943D01*
X71578644Y-41839374D01*
X71559577Y-41768215D01*
X71529608Y-41716308D01*
X71480520Y-41631284D01*
X71368716Y-41519480D01*
X71368715Y-41519479D01*
X71364385Y-41515149D01*
X71364374Y-41515139D01*
X71061915Y-41212680D01*
X71028430Y-41151357D01*
X71033414Y-41081665D01*
X71061911Y-41037323D01*
X79858506Y-32240727D01*
X79858511Y-32240724D01*
X79868714Y-32230520D01*
X79868716Y-32230520D01*
X79980520Y-32118716D01*
X80059577Y-31981784D01*
X80089873Y-31868716D01*
X80100500Y-31829058D01*
X80100500Y-31791003D01*
X80101827Y-31782006D01*
X80112801Y-31758203D01*
X80120185Y-31733059D01*
X80130025Y-31720847D01*
X80131082Y-31718556D01*
X80132706Y-31717520D01*
X80136819Y-31712417D01*
X80230520Y-31618716D01*
X80293432Y-31509748D01*
X80309576Y-31481786D01*
X80309578Y-31481780D01*
X80324321Y-31426757D01*
X80333396Y-31392886D01*
X80365491Y-31337296D01*
X80372539Y-31330248D01*
X80410626Y-31292162D01*
X80503703Y-31152863D01*
X80567816Y-30998082D01*
X80567818Y-30998068D01*
X80569584Y-30992252D01*
X80571256Y-30992759D01*
X80599782Y-30938198D01*
X80660490Y-30903611D01*
X80727348Y-30906349D01*
X80811357Y-30933646D01*
X81021313Y-30966900D01*
X81021314Y-30966900D01*
X81233886Y-30966900D01*
X81233887Y-30966900D01*
X81443843Y-30933646D01*
X81646012Y-30867957D01*
X81835416Y-30771451D01*
X81921738Y-30708735D01*
X82007386Y-30646509D01*
X82007388Y-30646506D01*
X82007392Y-30646504D01*
X82157704Y-30496192D01*
X82157706Y-30496188D01*
X82157709Y-30496186D01*
X82282648Y-30324220D01*
X82282647Y-30324220D01*
X82282651Y-30324216D01*
X82287114Y-30315454D01*
X82335088Y-30264659D01*
X82402908Y-30247863D01*
X82469044Y-30270399D01*
X82508084Y-30315454D01*
X82511012Y-30321199D01*
X82512551Y-30324220D01*
X82637490Y-30496186D01*
X82787813Y-30646509D01*
X82959779Y-30771448D01*
X82959781Y-30771449D01*
X82959784Y-30771451D01*
X83149188Y-30867957D01*
X83351357Y-30933646D01*
X83561313Y-30966900D01*
X83561314Y-30966900D01*
X83773886Y-30966900D01*
X83773887Y-30966900D01*
X83983843Y-30933646D01*
X84186012Y-30867957D01*
X84375416Y-30771451D01*
X84461738Y-30708735D01*
X84547386Y-30646509D01*
X84547388Y-30646506D01*
X84547392Y-30646504D01*
X84697704Y-30496192D01*
X84697706Y-30496188D01*
X84697709Y-30496186D01*
X84822648Y-30324220D01*
X84822647Y-30324220D01*
X84822651Y-30324216D01*
X84919157Y-30134812D01*
X84984846Y-29932643D01*
X85018100Y-29722687D01*
X85018100Y-29510113D01*
X84984846Y-29300157D01*
X84919157Y-29097988D01*
X84822651Y-28908584D01*
X84822649Y-28908581D01*
X84822648Y-28908579D01*
X84697709Y-28736613D01*
X84547386Y-28586290D01*
X84375420Y-28461351D01*
X84186014Y-28364844D01*
X84186013Y-28364843D01*
X84186012Y-28364843D01*
X83983843Y-28299154D01*
X83983841Y-28299153D01*
X83983840Y-28299153D01*
X83822557Y-28273608D01*
X83773887Y-28265900D01*
X83561313Y-28265900D01*
X83512642Y-28273608D01*
X83351360Y-28299153D01*
X83277631Y-28323109D01*
X83195015Y-28349953D01*
X83149185Y-28364844D01*
X82959779Y-28461351D01*
X82787813Y-28586290D01*
X82637490Y-28736613D01*
X82512549Y-28908582D01*
X82508084Y-28917346D01*
X82460109Y-28968142D01*
X82392288Y-28984936D01*
X82326153Y-28962398D01*
X82287116Y-28917346D01*
X82282650Y-28908582D01*
X82157709Y-28736613D01*
X82007386Y-28586290D01*
X81835420Y-28461351D01*
X81646014Y-28364844D01*
X81646013Y-28364843D01*
X81646012Y-28364843D01*
X81443843Y-28299154D01*
X81443841Y-28299153D01*
X81443840Y-28299153D01*
X81282557Y-28273608D01*
X81233887Y-28265900D01*
X81021313Y-28265900D01*
X80972642Y-28273608D01*
X80811360Y-28299153D01*
X80737631Y-28323109D01*
X80655015Y-28349953D01*
X80609185Y-28364844D01*
X80419779Y-28461351D01*
X80247813Y-28586290D01*
X80097490Y-28736613D01*
X79972549Y-28908582D01*
X79968084Y-28917346D01*
X79920109Y-28968142D01*
X79852288Y-28984936D01*
X79786153Y-28962398D01*
X79747116Y-28917346D01*
X79742650Y-28908582D01*
X79617709Y-28736613D01*
X79467386Y-28586290D01*
X79295420Y-28461351D01*
X79106014Y-28364844D01*
X79106013Y-28364843D01*
X79106012Y-28364843D01*
X78903843Y-28299154D01*
X78903841Y-28299153D01*
X78903840Y-28299153D01*
X78742557Y-28273608D01*
X78693887Y-28265900D01*
X78481313Y-28265900D01*
X78432642Y-28273608D01*
X78271360Y-28299153D01*
X78197631Y-28323109D01*
X78115015Y-28349953D01*
X78069185Y-28364844D01*
X77879779Y-28461351D01*
X77707815Y-28586289D01*
X77594273Y-28699831D01*
X77532950Y-28733315D01*
X77463258Y-28728331D01*
X77407325Y-28686459D01*
X77390410Y-28655482D01*
X77341397Y-28524071D01*
X77341393Y-28524064D01*
X77255147Y-28408855D01*
X77255144Y-28408852D01*
X77139935Y-28322606D01*
X77139928Y-28322602D01*
X77005082Y-28272308D01*
X77005083Y-28272308D01*
X76945483Y-28265901D01*
X76945481Y-28265900D01*
X76945473Y-28265900D01*
X76945464Y-28265900D01*
X75149729Y-28265900D01*
X75149723Y-28265901D01*
X75090116Y-28272308D01*
X74955271Y-28322602D01*
X74955264Y-28322606D01*
X74840055Y-28408852D01*
X74840052Y-28408855D01*
X74753806Y-28524064D01*
X74753802Y-28524071D01*
X74703508Y-28658917D01*
X74697101Y-28718516D01*
X74697100Y-28718535D01*
X74697100Y-30514270D01*
X74697101Y-30514276D01*
X74703508Y-30573883D01*
X74753802Y-30708728D01*
X74753806Y-30708735D01*
X74840052Y-30823944D01*
X74840055Y-30823947D01*
X74955264Y-30910193D01*
X74955271Y-30910197D01*
X75090117Y-30960491D01*
X75090116Y-30960491D01*
X75094786Y-30960993D01*
X75149727Y-30966900D01*
X76864663Y-30966899D01*
X76931702Y-30986584D01*
X76977457Y-31039387D01*
X76987401Y-31108546D01*
X76979224Y-31138351D01*
X76932185Y-31251913D01*
X76932182Y-31251925D01*
X76899500Y-31416228D01*
X76899500Y-31449902D01*
X76879815Y-31516941D01*
X76863181Y-31537583D01*
X71234627Y-37166136D01*
X71173304Y-37199621D01*
X71103612Y-37194637D01*
X71047679Y-37152765D01*
X71023262Y-37087301D01*
X71038114Y-37019028D01*
X71039530Y-37016505D01*
X71046014Y-37005276D01*
X71046686Y-37004113D01*
X71047617Y-37002498D01*
X71059577Y-36981785D01*
X71100501Y-36829057D01*
X71100501Y-36670943D01*
X71100501Y-36663348D01*
X71100500Y-36663330D01*
X71100500Y-30050097D01*
X71120185Y-29983058D01*
X71136819Y-29962416D01*
X72962416Y-28136819D01*
X73023739Y-28103334D01*
X73050097Y-28100500D01*
X73083768Y-28100500D01*
X73083769Y-28100499D01*
X73248082Y-28067816D01*
X73402863Y-28003703D01*
X73542162Y-27910626D01*
X73660626Y-27792162D01*
X73753703Y-27652863D01*
X73817816Y-27498082D01*
X73850500Y-27333767D01*
X73850500Y-27166233D01*
X73817816Y-27001918D01*
X73753703Y-26847137D01*
X73753701Y-26847134D01*
X73717791Y-26793390D01*
X73696913Y-26726713D01*
X73715398Y-26659333D01*
X73767377Y-26612643D01*
X73820893Y-26600500D01*
X83949903Y-26600500D01*
X84016942Y-26620185D01*
X84037584Y-26636819D01*
X86113181Y-28712416D01*
X86146666Y-28773739D01*
X86149500Y-28800097D01*
X86149500Y-29949902D01*
X86129815Y-30016941D01*
X86113181Y-30037583D01*
X78769481Y-37381282D01*
X78769479Y-37381285D01*
X78719361Y-37468094D01*
X78719359Y-37468096D01*
X78690425Y-37518209D01*
X78690424Y-37518210D01*
X78690084Y-37519480D01*
X78649499Y-37670943D01*
X78649499Y-37670945D01*
X78649499Y-37839046D01*
X78649500Y-37839059D01*
X78649500Y-44346349D01*
X78629815Y-44413388D01*
X78613181Y-44434030D01*
X78589376Y-44457834D01*
X78589373Y-44457837D01*
X78496295Y-44597139D01*
X78432184Y-44751917D01*
X78432182Y-44751925D01*
X78399500Y-44916228D01*
X78399500Y-45083771D01*
X78432182Y-45248074D01*
X78432186Y-45248090D01*
X78433406Y-45251034D01*
X78433584Y-45252699D01*
X78433952Y-45253909D01*
X78433722Y-45253978D01*
X78440873Y-45320503D01*
X78409596Y-45382981D01*
X78350939Y-45418257D01*
X78268215Y-45440423D01*
X78238050Y-45457839D01*
X78238049Y-45457838D01*
X78131287Y-45519477D01*
X78131282Y-45519481D01*
X78019478Y-45631286D01*
X75462448Y-48188315D01*
X75422221Y-48215194D01*
X75347143Y-48246293D01*
X75347139Y-48246295D01*
X75207838Y-48339373D01*
X75203663Y-48342800D01*
X75139353Y-48370112D01*
X75070485Y-48358319D01*
X75046337Y-48342800D01*
X75042161Y-48339373D01*
X74902860Y-48246295D01*
X74748082Y-48182184D01*
X74748074Y-48182182D01*
X74583771Y-48149500D01*
X74583767Y-48149500D01*
X74416233Y-48149500D01*
X74416228Y-48149500D01*
X74251925Y-48182182D01*
X74251917Y-48182184D01*
X74097139Y-48246295D01*
X73957837Y-48339373D01*
X73839376Y-48457834D01*
X73839371Y-48457840D01*
X73827601Y-48475456D01*
X73773989Y-48520260D01*
X73704664Y-48528967D01*
X73641636Y-48498812D01*
X73604918Y-48439368D01*
X73600500Y-48406564D01*
X73600500Y-47653650D01*
X73620185Y-47586611D01*
X73636815Y-47565972D01*
X73660626Y-47542162D01*
X73753703Y-47402863D01*
X73817816Y-47248082D01*
X73850500Y-47083767D01*
X73850500Y-46916233D01*
X73817816Y-46751918D01*
X73763250Y-46620185D01*
X73753704Y-46597139D01*
X73660626Y-46457837D01*
X73542162Y-46339373D01*
X73402860Y-46246295D01*
X73248082Y-46182184D01*
X73248074Y-46182182D01*
X73083771Y-46149500D01*
X73083767Y-46149500D01*
X72916233Y-46149500D01*
X72916228Y-46149500D01*
X72751925Y-46182182D01*
X72751917Y-46182184D01*
X72597139Y-46246295D01*
X72457837Y-46339373D01*
X72339373Y-46457837D01*
X72246295Y-46597139D01*
X72182184Y-46751917D01*
X72182182Y-46751925D01*
X72149500Y-46916228D01*
X72149500Y-47083771D01*
X72182182Y-47248074D01*
X72182184Y-47248082D01*
X72246295Y-47402860D01*
X72339372Y-47542160D01*
X72339373Y-47542161D01*
X72339374Y-47542162D01*
X72363181Y-47565969D01*
X72396666Y-47627290D01*
X72399500Y-47653650D01*
X72399500Y-49750903D01*
X72379815Y-49817942D01*
X72327011Y-49863697D01*
X72257853Y-49873641D01*
X72194297Y-49844616D01*
X72187819Y-49838584D01*
X71868718Y-49519483D01*
X71868716Y-49519481D01*
X71731785Y-49440423D01*
X71579057Y-49399499D01*
X71420943Y-49399499D01*
X71306397Y-49430192D01*
X71268214Y-49440423D01*
X71131284Y-49519481D01*
X71131281Y-49519483D01*
X71019483Y-49631281D01*
X71019481Y-49631284D01*
X70940423Y-49768214D01*
X70940423Y-49768215D01*
X70899499Y-49920943D01*
X70899499Y-49920945D01*
X70899499Y-50079054D01*
X70899498Y-50079054D01*
X70940424Y-50231789D01*
X70943535Y-50239299D01*
X70941406Y-50240180D01*
X70955074Y-50296547D01*
X70932214Y-50362571D01*
X70918897Y-50378314D01*
X70839373Y-50457838D01*
X70746295Y-50597139D01*
X70682184Y-50751917D01*
X70682182Y-50751925D01*
X70672681Y-50799691D01*
X70640297Y-50861602D01*
X70579581Y-50896176D01*
X70551064Y-50899500D01*
X70416228Y-50899500D01*
X70251925Y-50932182D01*
X70251917Y-50932184D01*
X70097139Y-50996295D01*
X69957837Y-51089373D01*
X69839373Y-51207837D01*
X69746295Y-51347139D01*
X69682184Y-51501917D01*
X69682182Y-51501923D01*
X69661436Y-51606221D01*
X69629051Y-51668132D01*
X69627502Y-51669708D01*
X69589376Y-51707835D01*
X69589371Y-51707841D01*
X69496295Y-51847139D01*
X69432184Y-52001917D01*
X69432182Y-52001925D01*
X69399500Y-52166228D01*
X69399500Y-52333771D01*
X69432182Y-52498074D01*
X69432184Y-52498082D01*
X69496295Y-52652860D01*
X69589373Y-52792162D01*
X69707837Y-52910626D01*
X69791121Y-52966274D01*
X69847137Y-53003703D01*
X70001918Y-53067816D01*
X70166228Y-53100499D01*
X70166232Y-53100500D01*
X70166233Y-53100500D01*
X70333768Y-53100500D01*
X70333769Y-53100499D01*
X70498082Y-53067816D01*
X70652863Y-53003703D01*
X70792162Y-52910626D01*
X70910626Y-52792162D01*
X71003703Y-52652863D01*
X71067816Y-52498082D01*
X71088563Y-52393777D01*
X71120945Y-52331869D01*
X71122499Y-52330288D01*
X71160626Y-52292162D01*
X71253703Y-52152863D01*
X71317816Y-51998082D01*
X71325822Y-51957834D01*
X71327319Y-51950309D01*
X71359703Y-51888398D01*
X71420419Y-51853824D01*
X71448936Y-51850500D01*
X71583768Y-51850500D01*
X71583769Y-51850499D01*
X71748082Y-51817816D01*
X71902863Y-51753703D01*
X72042162Y-51660626D01*
X72066551Y-51636236D01*
X72093737Y-51621390D01*
X72119868Y-51604775D01*
X72125032Y-51604302D01*
X72127871Y-51602752D01*
X72154826Y-51599919D01*
X72163522Y-51599960D01*
X72166233Y-51600500D01*
X72275887Y-51600500D01*
X72276095Y-51600501D01*
X72309426Y-51610461D01*
X72342539Y-51620185D01*
X72342740Y-51620417D01*
X72343039Y-51620507D01*
X72365697Y-51646911D01*
X72388294Y-51672989D01*
X72388368Y-51673329D01*
X72388540Y-51673530D01*
X72388766Y-51675161D01*
X72399500Y-51724500D01*
X72399500Y-55156564D01*
X72379815Y-55223603D01*
X72327011Y-55269358D01*
X72257853Y-55279302D01*
X72194297Y-55250277D01*
X72172399Y-55225456D01*
X72160628Y-55207840D01*
X72160623Y-55207834D01*
X72042162Y-55089373D01*
X71902860Y-54996295D01*
X71748082Y-54932184D01*
X71748074Y-54932182D01*
X71583771Y-54899500D01*
X71583767Y-54899500D01*
X71416233Y-54899500D01*
X71416228Y-54899500D01*
X71251925Y-54932182D01*
X71251917Y-54932184D01*
X71097139Y-54996295D01*
X70957837Y-55089373D01*
X70839373Y-55207837D01*
X70746295Y-55347139D01*
X70682184Y-55501917D01*
X70682182Y-55501925D01*
X70649500Y-55666228D01*
X70649500Y-55833771D01*
X70682182Y-55998074D01*
X70682184Y-55998082D01*
X70746295Y-56152860D01*
X70839373Y-56292162D01*
X70957837Y-56410626D01*
X70966229Y-56416233D01*
X71097137Y-56503703D01*
X71251918Y-56567816D01*
X71416228Y-56600499D01*
X71416232Y-56600500D01*
X71416233Y-56600500D01*
X71449902Y-56600500D01*
X71516941Y-56620185D01*
X71537583Y-56636819D01*
X71631284Y-56730520D01*
X71631286Y-56730521D01*
X71631290Y-56730524D01*
X71671440Y-56753704D01*
X71768216Y-56809577D01*
X71920943Y-56850501D01*
X71920945Y-56850501D01*
X72086654Y-56850501D01*
X72086670Y-56850500D01*
X72163331Y-56850500D01*
X72163347Y-56850501D01*
X72170943Y-56850501D01*
X72336653Y-56850501D01*
X72336669Y-56850500D01*
X75596349Y-56850500D01*
X75663388Y-56870185D01*
X75684030Y-56886819D01*
X75707837Y-56910626D01*
X75766618Y-56949902D01*
X75847137Y-57003703D01*
X75847138Y-57003703D01*
X75847139Y-57003704D01*
X75879096Y-57016941D01*
X76001918Y-57067816D01*
X76166228Y-57100499D01*
X76166232Y-57100500D01*
X76166233Y-57100500D01*
X76333768Y-57100500D01*
X76333769Y-57100499D01*
X76498082Y-57067816D01*
X76652863Y-57003703D01*
X76792162Y-56910626D01*
X76910626Y-56792162D01*
X77003703Y-56652863D01*
X77067816Y-56498082D01*
X77100500Y-56333767D01*
X77100500Y-56166233D01*
X77067816Y-56001918D01*
X77003703Y-55847137D01*
X76940084Y-55751925D01*
X76910626Y-55707837D01*
X76792162Y-55589373D01*
X76652860Y-55496295D01*
X76498082Y-55432184D01*
X76498074Y-55432182D01*
X76333771Y-55399500D01*
X76333767Y-55399500D01*
X76166233Y-55399500D01*
X76166228Y-55399500D01*
X76001925Y-55432182D01*
X76001917Y-55432184D01*
X75847139Y-55496295D01*
X75707837Y-55589373D01*
X75707834Y-55589376D01*
X75684030Y-55613181D01*
X75622707Y-55646666D01*
X75596349Y-55649500D01*
X73724500Y-55649500D01*
X73657461Y-55629815D01*
X73611706Y-55577011D01*
X73600500Y-55525500D01*
X73600500Y-53688791D01*
X73607125Y-53666228D01*
X76399500Y-53666228D01*
X76399500Y-53833771D01*
X76432182Y-53998074D01*
X76432184Y-53998082D01*
X76496295Y-54152860D01*
X76589373Y-54292162D01*
X76707837Y-54410626D01*
X76789807Y-54465396D01*
X76847137Y-54503703D01*
X76847138Y-54503703D01*
X76847139Y-54503704D01*
X76850500Y-54505096D01*
X77001918Y-54567816D01*
X77166228Y-54600499D01*
X77166232Y-54600500D01*
X77166233Y-54600500D01*
X77333768Y-54600500D01*
X77333768Y-54600499D01*
X77498082Y-54567816D01*
X77498082Y-54567815D01*
X77501309Y-54567174D01*
X77570900Y-54573401D01*
X77626078Y-54616264D01*
X77649322Y-54682154D01*
X77649500Y-54688791D01*
X77649500Y-55846349D01*
X77629815Y-55913388D01*
X77613181Y-55934030D01*
X77589376Y-55957834D01*
X77589373Y-55957837D01*
X77496295Y-56097139D01*
X77432184Y-56251917D01*
X77432182Y-56251925D01*
X77399500Y-56416228D01*
X77399500Y-56583771D01*
X77432182Y-56748074D01*
X77432184Y-56748082D01*
X77496295Y-56902860D01*
X77589373Y-57042162D01*
X77707837Y-57160626D01*
X77793846Y-57218095D01*
X77847137Y-57253703D01*
X78001918Y-57317816D01*
X78166228Y-57350499D01*
X78166232Y-57350500D01*
X78166233Y-57350500D01*
X78333768Y-57350500D01*
X78333769Y-57350499D01*
X78498082Y-57317816D01*
X78652863Y-57253703D01*
X78792162Y-57160626D01*
X78910626Y-57042162D01*
X79003703Y-56902863D01*
X79067816Y-56748082D01*
X79100500Y-56583767D01*
X79100500Y-56416233D01*
X79067816Y-56251918D01*
X79003703Y-56097137D01*
X78940084Y-56001925D01*
X78910626Y-55957837D01*
X78886819Y-55934030D01*
X78853334Y-55872707D01*
X78850500Y-55846349D01*
X78850500Y-53670945D01*
X78850500Y-53670943D01*
X78809577Y-53518216D01*
X78801198Y-53503703D01*
X78730524Y-53381290D01*
X78730518Y-53381282D01*
X78618717Y-53269481D01*
X78618709Y-53269475D01*
X78481790Y-53190426D01*
X78481786Y-53190424D01*
X78481784Y-53190423D01*
X78329057Y-53149500D01*
X78329056Y-53149500D01*
X77903651Y-53149500D01*
X77836612Y-53129815D01*
X77815970Y-53113181D01*
X77792162Y-53089373D01*
X77652860Y-52996295D01*
X77498082Y-52932184D01*
X77498074Y-52932182D01*
X77333771Y-52899500D01*
X77333767Y-52899500D01*
X77166233Y-52899500D01*
X77166228Y-52899500D01*
X77001925Y-52932182D01*
X77001917Y-52932184D01*
X76847139Y-52996295D01*
X76707837Y-53089373D01*
X76589373Y-53207837D01*
X76496295Y-53347139D01*
X76432184Y-53501917D01*
X76432182Y-53501925D01*
X76399500Y-53666228D01*
X73607125Y-53666228D01*
X73620185Y-53621752D01*
X73672989Y-53575997D01*
X73742147Y-53566053D01*
X73748691Y-53567174D01*
X73751917Y-53567815D01*
X73751918Y-53567816D01*
X73916230Y-53600499D01*
X73916232Y-53600500D01*
X73916233Y-53600500D01*
X74083768Y-53600500D01*
X74083769Y-53600499D01*
X74248082Y-53567816D01*
X74402863Y-53503703D01*
X74542162Y-53410626D01*
X74660626Y-53292162D01*
X74753703Y-53152863D01*
X74817816Y-52998082D01*
X74850500Y-52833767D01*
X74850500Y-52666233D01*
X74817816Y-52501918D01*
X74772622Y-52392812D01*
X74765154Y-52323348D01*
X74770628Y-52303045D01*
X74774345Y-52292806D01*
X74809577Y-52231784D01*
X74845022Y-52099500D01*
X74850500Y-52079058D01*
X74850500Y-51920943D01*
X74850500Y-49854970D01*
X74852627Y-49847726D01*
X74851373Y-49840280D01*
X74862336Y-49814659D01*
X74870185Y-49787931D01*
X74876575Y-49781384D01*
X74878861Y-49776044D01*
X74903746Y-49753551D01*
X74904971Y-49752297D01*
X74905251Y-49752106D01*
X75042162Y-49660626D01*
X75045979Y-49656808D01*
X75055471Y-49650381D01*
X75083526Y-49641404D01*
X75110639Y-49629888D01*
X75116427Y-49630878D01*
X75122018Y-49629090D01*
X75150466Y-49636705D01*
X75179507Y-49641676D01*
X75186980Y-49646479D01*
X75189512Y-49647157D01*
X75191590Y-49649441D01*
X75203669Y-49657205D01*
X75207835Y-49660624D01*
X75207838Y-49660626D01*
X75347137Y-49753703D01*
X75501918Y-49817816D01*
X75636652Y-49844616D01*
X75666228Y-49850499D01*
X75666232Y-49850500D01*
X75666233Y-49850500D01*
X75833768Y-49850500D01*
X75833769Y-49850499D01*
X75998082Y-49817816D01*
X76152863Y-49753703D01*
X76292162Y-49660626D01*
X76410626Y-49542162D01*
X76503703Y-49402863D01*
X76567816Y-49248082D01*
X76600500Y-49083767D01*
X76600500Y-48916233D01*
X76585640Y-48841528D01*
X76591867Y-48771939D01*
X76619574Y-48729659D01*
X78712416Y-46636819D01*
X78739343Y-46622115D01*
X78765162Y-46605523D01*
X78771362Y-46604631D01*
X78773739Y-46603334D01*
X78800097Y-46600500D01*
X78846349Y-46600500D01*
X78913388Y-46620185D01*
X78934030Y-46636819D01*
X78957837Y-46660626D01*
X79050494Y-46722537D01*
X79097137Y-46753703D01*
X79251918Y-46817816D01*
X79416228Y-46850499D01*
X79416232Y-46850500D01*
X79416233Y-46850500D01*
X79583768Y-46850500D01*
X79583769Y-46850499D01*
X79748082Y-46817816D01*
X79902863Y-46753703D01*
X80042162Y-46660626D01*
X80160626Y-46542162D01*
X80253703Y-46402863D01*
X80317816Y-46248082D01*
X80350500Y-46083767D01*
X80350500Y-45916233D01*
X80317816Y-45751918D01*
X80253703Y-45597137D01*
X80201812Y-45519477D01*
X80160626Y-45457837D01*
X80092150Y-45389361D01*
X80058665Y-45328038D01*
X80063649Y-45258346D01*
X80065273Y-45254220D01*
X80067816Y-45248082D01*
X80100500Y-45083767D01*
X80100500Y-44916233D01*
X80067816Y-44751918D01*
X80003703Y-44597137D01*
X79956990Y-44527226D01*
X79910626Y-44457837D01*
X79886819Y-44434030D01*
X79853334Y-44372707D01*
X79850500Y-44346349D01*
X79850500Y-38050097D01*
X79870185Y-37983058D01*
X79886819Y-37962416D01*
X83525269Y-34323966D01*
X87230520Y-30618716D01*
X87309577Y-30481784D01*
X87350501Y-30329057D01*
X87350501Y-30170942D01*
X87350501Y-30163347D01*
X87350500Y-30163329D01*
X87350500Y-29510113D01*
X101722700Y-29510113D01*
X101722700Y-29722686D01*
X101744283Y-29858960D01*
X101755954Y-29932643D01*
X101794117Y-30050097D01*
X101821644Y-30134814D01*
X101918151Y-30324220D01*
X102043090Y-30496186D01*
X102193413Y-30646509D01*
X102365379Y-30771448D01*
X102365381Y-30771449D01*
X102365384Y-30771451D01*
X102554788Y-30867957D01*
X102756957Y-30933646D01*
X102966913Y-30966900D01*
X102966914Y-30966900D01*
X103179486Y-30966900D01*
X103179487Y-30966900D01*
X103389443Y-30933646D01*
X103591612Y-30867957D01*
X103781016Y-30771451D01*
X103867338Y-30708735D01*
X103952986Y-30646509D01*
X103952988Y-30646506D01*
X103952992Y-30646504D01*
X104103304Y-30496192D01*
X104103306Y-30496188D01*
X104103309Y-30496186D01*
X104228248Y-30324220D01*
X104228247Y-30324220D01*
X104228251Y-30324216D01*
X104324757Y-30134812D01*
X104390446Y-29932643D01*
X104423700Y-29722687D01*
X104423700Y-29510113D01*
X104390446Y-29300157D01*
X104324757Y-29097988D01*
X104228251Y-28908584D01*
X104228249Y-28908581D01*
X104228248Y-28908579D01*
X104103309Y-28736613D01*
X103952986Y-28586290D01*
X103781020Y-28461351D01*
X103591614Y-28364844D01*
X103591613Y-28364843D01*
X103591612Y-28364843D01*
X103389443Y-28299154D01*
X103389441Y-28299153D01*
X103389440Y-28299153D01*
X103228157Y-28273608D01*
X103179487Y-28265900D01*
X102966913Y-28265900D01*
X102918242Y-28273608D01*
X102756960Y-28299153D01*
X102683231Y-28323109D01*
X102600615Y-28349953D01*
X102554785Y-28364844D01*
X102365379Y-28461351D01*
X102193413Y-28586290D01*
X102043090Y-28736613D01*
X101918151Y-28908579D01*
X101821644Y-29097985D01*
X101755953Y-29300160D01*
X101722700Y-29510113D01*
X87350500Y-29510113D01*
X87350500Y-28589059D01*
X87350501Y-28589046D01*
X87350501Y-28420945D01*
X87350501Y-28420943D01*
X87309577Y-28268215D01*
X87280639Y-28218095D01*
X87230520Y-28131284D01*
X87118716Y-28019480D01*
X87118715Y-28019479D01*
X87114385Y-28015149D01*
X87114374Y-28015139D01*
X84996450Y-25897215D01*
X84962965Y-25835892D01*
X84967949Y-25766200D01*
X85009821Y-25710267D01*
X85075285Y-25685850D01*
X85083645Y-25685535D01*
X106809036Y-25604167D01*
X106876148Y-25623600D01*
G37*
%TD.AperFunction*%
M02*
