M48
; DRILL file KiCad 10.0.1 date 2026-05-04T13:20:29
; FORMAT={-:-/ absolute / metric / decimal}
; #@! TF.CreationDate,2026-05-04T13:20:29-06:00
; #@! TF.GenerationSoftware,Kicad,Pcbnew,10.0.1
; #@! TF.FileFunction,Plated,1,2,PTH
FMAT,2
METRIC
; #@! TA.AperFunction,Plated,PTH,ComponentDrill
T1C0.600
; #@! TA.AperFunction,Plated,PTH,ComponentDrill
T2C0.950
; #@! TA.AperFunction,Plated,PTH,ComponentDrill
T3C1.000
%
G90
G05
T2
X109.271Y-102.267
X111.771Y-102.267
X113.337Y-65.425
X114.271Y-102.267
X115.837Y-65.425
X116.771Y-102.267
X118.337Y-65.425
X120.837Y-65.425
X123.337Y-65.425
T3
X103.397Y-98.781
X103.397Y-101.321
X103.397Y-103.861
X103.397Y-106.401
X105.404Y-69.215
X105.404Y-71.755
X105.404Y-74.295
X105.404Y-76.835
X107.944Y-69.215
X107.944Y-71.755
X107.944Y-74.295
X107.944Y-76.835
X134.512Y-107.366
X137.052Y-107.366
X139.592Y-107.366
X142.132Y-107.366
X144.672Y-107.366
X147.212Y-107.366
X147.999Y-61.443
X149.752Y-107.366
X150.499Y-61.443
X152.292Y-107.366
X158.794Y-60.731
X158.916Y-104.961
X161.294Y-60.731
X161.416Y-104.961
T1
G00X102.996Y-85.664
M15
G01X102.396Y-85.664
M16
G05
G00X102.996Y-94.304
M15
G01X102.396Y-94.304
M16
G05
G00X107.426Y-85.664
M15
G01X106.326Y-85.664
M16
G05
G00X107.426Y-94.304
M15
G01X106.326Y-94.304
M16
G05
M30
