%TF.GenerationSoftware,KiCad,Pcbnew,10.0.1*%
%TF.CreationDate,2026-05-05T23:44:24-06:00*%
%TF.ProjectId,2026_12_2Wheel_Balance_Robot_v1,32303236-5f31-4325-9f32-576865656c5f,rev?*%
%TF.SameCoordinates,Original*%
%TF.FileFunction,Profile,NP*%
%FSLAX46Y46*%
G04 Gerber Fmt 4.6, Leading zero omitted, Abs format (unit mm)*
G04 Created by KiCad (PCBNEW 10.0.1) date 2026-05-05 23:44:24*
%MOMM*%
%LPD*%
G01*
G04 APERTURE LIST*
G04 Aperture macros list*
%AMRoundRect*
0 Rectangle with rounded corners*
0 $1 Rounding radius*
0 $2 $3 $4 $5 $6 $7 $8 $9 X,Y pos of 4 corners*
0 Add a 4 corners polygon primitive as box body*
4,1,4,$2,$3,$4,$5,$6,$7,$8,$9,$2,$3,0*
0 Add four circle primitives for the rounded corners*
1,1,$1+$1,$2,$3*
1,1,$1+$1,$4,$5*
1,1,$1+$1,$6,$7*
1,1,$1+$1,$8,$9*
0 Add four rect primitives between the rounded corners*
20,1,$1+$1,$2,$3,$4,$5,0*
20,1,$1+$1,$4,$5,$6,$7,0*
20,1,$1+$1,$6,$7,$8,$9,0*
20,1,$1+$1,$8,$9,$2,$3,0*%
G04 Aperture macros list end*
%TA.AperFunction,Profile*%
%ADD10C,0.100000*%
%TD*%
%TA.AperFunction,ComponentPad*%
%ADD11R,1.700000X1.700000*%
%TD*%
%TA.AperFunction,ComponentPad*%
%ADD12C,1.700000*%
%TD*%
%TA.AperFunction,ComponentPad*%
%ADD13RoundRect,0.250000X-0.600000X-0.750000X0.600000X-0.750000X0.600000X0.750000X-0.600000X0.750000X0*%
%TD*%
%TA.AperFunction,ComponentPad*%
%ADD14O,1.700000X2.000000*%
%TD*%
%TA.AperFunction,ComponentPad*%
%ADD15RoundRect,0.250000X0.600000X0.750000X-0.600000X0.750000X-0.600000X-0.750000X0.600000X-0.750000X0*%
%TD*%
%TA.AperFunction,ComponentPad*%
%ADD16RoundRect,0.250000X-0.600000X-0.725000X0.600000X-0.725000X0.600000X0.725000X-0.600000X0.725000X0*%
%TD*%
%TA.AperFunction,ComponentPad*%
%ADD17O,1.700000X1.950000*%
%TD*%
%TA.AperFunction,ComponentPad*%
%ADD18O,2.100000X1.000000*%
%TD*%
%TA.AperFunction,ComponentPad*%
%ADD19O,1.600000X1.000000*%
%TD*%
%TA.AperFunction,ComponentPad*%
%ADD20RoundRect,0.250000X0.600000X0.725000X-0.600000X0.725000X-0.600000X-0.725000X0.600000X-0.725000X0*%
%TD*%
%ADD21C,0.900000*%
%ADD22R,1.700000X1.700000*%
%ADD23C,1.700000*%
%ADD24RoundRect,0.250000X-0.600000X-0.750000X0.600000X-0.750000X0.600000X0.750000X-0.600000X0.750000X0*%
%ADD25O,1.700000X2.000000*%
%ADD26RoundRect,0.250000X0.600000X0.750000X-0.600000X0.750000X-0.600000X-0.750000X0.600000X-0.750000X0*%
%ADD27RoundRect,0.250000X-0.600000X-0.725000X0.600000X-0.725000X0.600000X0.725000X-0.600000X0.725000X0*%
%ADD28O,1.700000X1.950000*%
%ADD29C,0.650000*%
%ADD30O,2.100000X1.000000*%
%ADD31O,1.600000X1.000000*%
%ADD32RoundRect,0.250000X0.600000X0.725000X-0.600000X0.725000X-0.600000X-0.725000X0.600000X-0.725000X0*%
%ADD33C,0.100000*%
%TA.AperFunction,SMDPad,CuDef*%
%ADD34RoundRect,0.250000X0.475000X-0.337500X0.475000X0.337500X-0.475000X0.337500X-0.475000X-0.337500X0*%
%TD*%
%TA.AperFunction,SMDPad,CuDef*%
%ADD35RoundRect,0.250000X-0.337500X-0.475000X0.337500X-0.475000X0.337500X0.475000X-0.337500X0.475000X0*%
%TD*%
%TA.AperFunction,SMDPad,CuDef*%
%ADD36RoundRect,0.250000X0.337500X0.475000X-0.337500X0.475000X-0.337500X-0.475000X0.337500X-0.475000X0*%
%TD*%
%TA.AperFunction,SMDPad,CuDef*%
%ADD37RoundRect,0.250000X-0.312500X-1.450000X0.312500X-1.450000X0.312500X1.450000X-0.312500X1.450000X0*%
%TD*%
%TA.AperFunction,SMDPad,CuDef*%
%ADD38RoundRect,0.250000X-0.450000X0.350000X-0.450000X-0.350000X0.450000X-0.350000X0.450000X0.350000X0*%
%TD*%
%TA.AperFunction,SMDPad,CuDef*%
%ADD39RoundRect,0.150000X-0.512500X-0.150000X0.512500X-0.150000X0.512500X0.150000X-0.512500X0.150000X0*%
%TD*%
%TA.AperFunction,SMDPad,CuDef*%
%ADD40RoundRect,0.375000X0.625000X0.375000X-0.625000X0.375000X-0.625000X-0.375000X0.625000X-0.375000X0*%
%TD*%
%TA.AperFunction,SMDPad,CuDef*%
%ADD41RoundRect,0.500000X0.500000X1.400000X-0.500000X1.400000X-0.500000X-1.400000X0.500000X-1.400000X0*%
%TD*%
%TA.AperFunction,SMDPad,CuDef*%
%ADD42R,0.900000X1.250000*%
%TD*%
%TA.AperFunction,SMDPad,CuDef*%
%ADD43R,0.800000X0.900000*%
%TD*%
%TA.AperFunction,SMDPad,CuDef*%
%ADD44RoundRect,0.250000X-0.350000X-0.450000X0.350000X-0.450000X0.350000X0.450000X-0.350000X0.450000X0*%
%TD*%
%TA.AperFunction,SMDPad,CuDef*%
%ADD45RoundRect,0.237500X-0.250000X-0.237500X0.250000X-0.237500X0.250000X0.237500X-0.250000X0.237500X0*%
%TD*%
%TA.AperFunction,SMDPad,CuDef*%
%ADD46RoundRect,0.100000X0.850000X0.100000X-0.850000X0.100000X-0.850000X-0.100000X0.850000X-0.100000X0*%
%TD*%
%TA.AperFunction,SMDPad,CuDef*%
%ADD47RoundRect,0.090000X0.360000X-0.660000X0.360000X0.660000X-0.360000X0.660000X-0.360000X-0.660000X0*%
%TD*%
%TA.AperFunction,SMDPad,CuDef*%
%ADD48R,2.300000X1.500000*%
%TD*%
%TA.AperFunction,SMDPad,CuDef*%
%ADD49RoundRect,0.075000X0.700000X0.075000X-0.700000X0.075000X-0.700000X-0.075000X0.700000X-0.075000X0*%
%TD*%
%TA.AperFunction,SMDPad,CuDef*%
%ADD50RoundRect,0.075000X0.075000X0.700000X-0.075000X0.700000X-0.075000X-0.700000X0.075000X-0.700000X0*%
%TD*%
%TA.AperFunction,SMDPad,CuDef*%
%ADD51RoundRect,0.250000X0.450000X-0.325000X0.450000X0.325000X-0.450000X0.325000X-0.450000X-0.325000X0*%
%TD*%
%TA.AperFunction,SMDPad,CuDef*%
%ADD52RoundRect,0.250000X0.350000X-0.450000X0.350000X0.450000X-0.350000X0.450000X-0.350000X-0.450000X0*%
%TD*%
%TA.AperFunction,SMDPad,CuDef*%
%ADD53RoundRect,0.250000X-0.475000X0.337500X-0.475000X-0.337500X0.475000X-0.337500X0.475000X0.337500X0*%
%TD*%
%TA.AperFunction,SMDPad,CuDef*%
%ADD54RoundRect,0.250000X-0.325000X-0.450000X0.325000X-0.450000X0.325000X0.450000X-0.325000X0.450000X0*%
%TD*%
%TA.AperFunction,SMDPad,CuDef*%
%ADD55RoundRect,0.150000X-0.500000X0.150000X-0.500000X-0.150000X0.500000X-0.150000X0.500000X0.150000X0*%
%TD*%
%TA.AperFunction,SMDPad,CuDef*%
%ADD56RoundRect,0.075000X-0.575000X0.075000X-0.575000X-0.075000X0.575000X-0.075000X0.575000X0.075000X0*%
%TD*%
%TA.AperFunction,SMDPad,CuDef*%
%ADD57RoundRect,0.250001X-0.872499X-0.944999X0.872499X-0.944999X0.872499X0.944999X-0.872499X0.944999X0*%
%TD*%
%TA.AperFunction,SMDPad,CuDef*%
%ADD58RoundRect,0.237500X0.250000X0.237500X-0.250000X0.237500X-0.250000X-0.237500X0.250000X-0.237500X0*%
%TD*%
%TA.AperFunction,SMDPad,CuDef*%
%ADD59RoundRect,0.250000X0.350000X0.450000X-0.350000X0.450000X-0.350000X-0.450000X0.350000X-0.450000X0*%
%TD*%
%TA.AperFunction,Conductor*%
%ADD60C,0.254000*%
%TD*%
%TA.AperFunction,Conductor*%
%ADD61C,0.203200*%
%TD*%
%TA.AperFunction,Conductor*%
%ADD62C,0.381000*%
%TD*%
%ADD63RoundRect,0.250000X0.475000X-0.337500X0.475000X0.337500X-0.475000X0.337500X-0.475000X-0.337500X0*%
%ADD64RoundRect,0.250000X-0.337500X-0.475000X0.337500X-0.475000X0.337500X0.475000X-0.337500X0.475000X0*%
%ADD65RoundRect,0.250000X0.337500X0.475000X-0.337500X0.475000X-0.337500X-0.475000X0.337500X-0.475000X0*%
%ADD66RoundRect,0.250000X-0.312500X-1.450000X0.312500X-1.450000X0.312500X1.450000X-0.312500X1.450000X0*%
%ADD67RoundRect,0.250000X-0.450000X0.350000X-0.450000X-0.350000X0.450000X-0.350000X0.450000X0.350000X0*%
%ADD68RoundRect,0.150000X-0.512500X-0.150000X0.512500X-0.150000X0.512500X0.150000X-0.512500X0.150000X0*%
%ADD69RoundRect,0.375000X0.625000X0.375000X-0.625000X0.375000X-0.625000X-0.375000X0.625000X-0.375000X0*%
%ADD70RoundRect,0.500000X0.500000X1.400000X-0.500000X1.400000X-0.500000X-1.400000X0.500000X-1.400000X0*%
%ADD71RoundRect,0.102000X-0.450000X-0.625000X0.450000X-0.625000X0.450000X0.625000X-0.450000X0.625000X0*%
%ADD72RoundRect,0.102000X-0.400000X-0.450000X0.400000X-0.450000X0.400000X0.450000X-0.400000X0.450000X0*%
%ADD73RoundRect,0.250000X-0.350000X-0.450000X0.350000X-0.450000X0.350000X0.450000X-0.350000X0.450000X0*%
%ADD74RoundRect,0.237500X-0.250000X-0.237500X0.250000X-0.237500X0.250000X0.237500X-0.250000X0.237500X0*%
%ADD75RoundRect,0.100000X0.850000X0.100000X-0.850000X0.100000X-0.850000X-0.100000X0.850000X-0.100000X0*%
%ADD76RoundRect,0.090000X0.360000X-0.660000X0.360000X0.660000X-0.360000X0.660000X-0.360000X-0.660000X0*%
%ADD77R,2.300000X1.500000*%
%ADD78RoundRect,0.075000X0.700000X0.075000X-0.700000X0.075000X-0.700000X-0.075000X0.700000X-0.075000X0*%
%ADD79RoundRect,0.075000X0.075000X0.700000X-0.075000X0.700000X-0.075000X-0.700000X0.075000X-0.700000X0*%
%ADD80RoundRect,0.250000X0.450000X-0.325000X0.450000X0.325000X-0.450000X0.325000X-0.450000X-0.325000X0*%
%ADD81RoundRect,0.250000X0.350000X-0.450000X0.350000X0.450000X-0.350000X0.450000X-0.350000X-0.450000X0*%
%ADD82RoundRect,0.250000X-0.475000X0.337500X-0.475000X-0.337500X0.475000X-0.337500X0.475000X0.337500X0*%
%ADD83RoundRect,0.250000X-0.325000X-0.450000X0.325000X-0.450000X0.325000X0.450000X-0.325000X0.450000X0*%
%ADD84RoundRect,0.150000X-0.500000X0.150000X-0.500000X-0.150000X0.500000X-0.150000X0.500000X0.150000X0*%
%ADD85RoundRect,0.075000X-0.575000X0.075000X-0.575000X-0.075000X0.575000X-0.075000X0.575000X0.075000X0*%
%ADD86RoundRect,0.250001X-0.872499X-0.944999X0.872499X-0.944999X0.872499X0.944999X-0.872499X0.944999X0*%
%ADD87RoundRect,0.237500X0.250000X0.237500X-0.250000X0.237500X-0.250000X-0.237500X0.250000X-0.237500X0*%
%ADD88RoundRect,0.250000X0.350000X0.450000X-0.350000X0.450000X-0.350000X-0.450000X0.350000X-0.450000X0*%
%ADD89R,0.900000X1.250000*%
%ADD90R,0.800000X0.900000*%
%ADD91C,0.125000*%
%ADD92C,0.150000*%
%ADD93C,0.254000*%
%ADD94C,0.120000*%
%ADD95C,0.127000*%
%ADD96C,0.200000*%
%ADD97C,0.000000*%
G04 APERTURE END LIST*
D10*
X100745900Y-110791800D02*
X100745900Y-57413327D01*
X116303400Y-108251800D02*
G75*
G02*
X113128400Y-108251800I-1587500J0D01*
G01*
X113128400Y-108251800D02*
G75*
G02*
X116303400Y-108251800I1587500J0D01*
G01*
X117603400Y-59991800D02*
G75*
G02*
X114428400Y-59991800I-1587500J0D01*
G01*
X114428400Y-59991800D02*
G75*
G02*
X117603400Y-59991800I1587500J0D01*
G01*
X165251108Y-57413327D02*
X100745900Y-57413327D01*
X166815900Y-58978119D02*
X165251108Y-57413327D01*
X166815900Y-58978119D02*
X166815900Y-70405800D01*
X166815900Y-70405800D02*
X169295900Y-72945800D01*
X168403400Y-75231800D02*
G75*
G02*
X165228400Y-75231800I-1587500J0D01*
G01*
X165228400Y-75231800D02*
G75*
G02*
X168403400Y-75231800I1587500J0D01*
G01*
X168403400Y-103171800D02*
G75*
G02*
X165228400Y-103171800I-1587500J0D01*
G01*
X165228400Y-103171800D02*
G75*
G02*
X168403400Y-103171800I1587500J0D01*
G01*
X166815900Y-110791800D02*
X100745900Y-110791800D01*
X166815900Y-110791800D02*
X166815900Y-108251800D01*
X169295900Y-72945800D02*
X169295900Y-105711800D01*
X169295900Y-105711800D02*
X166815900Y-108251800D01*
D11*
%TO.P,J4,1,Pin_1_1*%
%TO.N,GND*%
X105403700Y-76835000D03*
D12*
%TO.P,J4,2,Pin_2_2*%
%TO.N,/ESP_TX*%
X107943700Y-76835000D03*
%TO.P,J4,3,Pin_3_3*%
%TO.N,unconnected-(J4-Pin_3-Pad3)*%
X105403700Y-74295000D03*
%TO.P,J4,4,Pin_4_4*%
%TO.N,+3.3V*%
X107943700Y-74295000D03*
%TO.P,J4,5,Pin_5_5*%
%TO.N,Net-(J4-Pin_5)*%
X105403700Y-71755000D03*
%TO.P,J4,6,Pin_6_6*%
%TO.N,+3.3V*%
X107943700Y-71755000D03*
%TO.P,J4,7,Pin_7_7*%
%TO.N,/ESP_RX*%
X105403700Y-69215000D03*
%TO.P,J4,8,Pin_8_8*%
%TO.N,+3.3V*%
X107943700Y-69215000D03*
%TD*%
D13*
%TO.P,J7,1,Pin_1_1*%
%TO.N,/MD_BO1*%
X158794500Y-60731400D03*
D14*
%TO.P,J7,2,Pin_2_2*%
%TO.N,/MD_BO2*%
X161294500Y-60731400D03*
%TD*%
D11*
%TO.P,J1,1,Pin_1_1*%
%TO.N,+3.3V*%
X103397100Y-106400600D03*
D12*
%TO.P,J1,2,Pin_2_2*%
%TO.N,/SWCLK*%
X103397100Y-103860600D03*
%TO.P,J1,3,Pin_3_3*%
%TO.N,GND*%
X103397100Y-101320600D03*
%TO.P,J1,4,Pin_4_4*%
%TO.N,/SWDIO*%
X103397100Y-98780600D03*
%TD*%
D15*
%TO.P,J5,1,Pin_1_1*%
%TO.N,VM*%
X150499500Y-61442600D03*
D14*
%TO.P,J5,2,Pin_2_2*%
%TO.N,GND*%
X147999500Y-61442600D03*
%TD*%
D13*
%TO.P,J6,1,Pin_1_1*%
%TO.N,/MD_AO1*%
X158916100Y-104961200D03*
D14*
%TO.P,J6,2,Pin_2_2*%
%TO.N,/MD_AO2*%
X161416100Y-104961200D03*
%TD*%
D16*
%TO.P,J9,1,Pin_1_1*%
%TO.N,+3.3V*%
X113337043Y-65425082D03*
D17*
%TO.P,J9,2,Pin_2_2*%
%TO.N,GND*%
X115837043Y-65425082D03*
%TO.P,J9,3,Pin_3_3*%
%TO.N,/MT_PWM*%
X118337043Y-65425082D03*
%TO.P,J9,4,Pin_4_4*%
%TO.N,/MT_SCL*%
X120837043Y-65425082D03*
%TO.P,J9,5,Pin_5_5*%
%TO.N,/MT_SDA*%
X123337043Y-65425082D03*
%TD*%
D18*
%TO.P,J3,SH,SHIELD_SH*%
%TO.N,GND*%
X106875900Y-85664400D03*
D19*
X102695900Y-85664400D03*
D18*
X106875900Y-94304400D03*
D19*
X102695900Y-94304400D03*
%TD*%
D11*
%TO.P,J2,1,Pin_1_1*%
%TO.N,+5V*%
X134512100Y-107365800D03*
D12*
%TO.P,J2,2,Pin_2_2*%
%TO.N,GND*%
X137052100Y-107365800D03*
%TO.P,J2,3,Pin_3_3*%
%TO.N,/IMU_SCL*%
X139592100Y-107365800D03*
%TO.P,J2,4,Pin_4_4*%
%TO.N,/IMU_SDA*%
X142132100Y-107365800D03*
%TO.P,J2,5,Pin_5_5*%
%TO.N,unconnected-(J2-Pin_5-Pad5)*%
X144672100Y-107365800D03*
%TO.P,J2,6,Pin_6_6*%
%TO.N,unconnected-(J2-Pin_6-Pad6)*%
X147212100Y-107365800D03*
%TO.P,J2,7,Pin_7_7*%
%TO.N,unconnected-(J2-Pin_7-Pad7)*%
X149752100Y-107365800D03*
%TO.P,J2,8,Pin_8_8*%
%TO.N,/IMU_INT*%
X152292100Y-107365800D03*
%TD*%
D20*
%TO.P,J8,1,Pin_1_1*%
%TO.N,+3.3V*%
X116770900Y-102266800D03*
D17*
%TO.P,J8,2,Pin_2_2*%
%TO.N,/ENC_A*%
X114270900Y-102266800D03*
%TO.P,J8,3,Pin_3_3*%
%TO.N,/ENC_B*%
X111770900Y-102266800D03*
%TO.P,J8,4,Pin_4_4*%
%TO.N,GND*%
X109270900Y-102266800D03*
%TD*%
D21*
%TO.C,S4*%
X123905500Y-106469000D03*
X126905500Y-106469000D03*
%TD*%
D22*
%TO.C,J4*%
X105403700Y-76835000D03*
D23*
X107943700Y-76835000D03*
X105403700Y-74295000D03*
X107943700Y-74295000D03*
X105403700Y-71755000D03*
X107943700Y-71755000D03*
X105403700Y-69215000D03*
X107943700Y-69215000D03*
%TD*%
D24*
%TO.C,J7*%
X158794500Y-60731400D03*
D25*
X161294500Y-60731400D03*
%TD*%
D22*
%TO.C,J1*%
X103397100Y-106400600D03*
D23*
X103397100Y-103860600D03*
X103397100Y-101320600D03*
X103397100Y-98780600D03*
%TD*%
D21*
%TO.C,S3*%
X147886034Y-69460209D03*
X150886034Y-69460209D03*
%TD*%
D26*
%TO.C,J5*%
X150499500Y-61442600D03*
D25*
X147999500Y-61442600D03*
%TD*%
D24*
%TO.C,J6*%
X158916100Y-104961200D03*
D25*
X161416100Y-104961200D03*
%TD*%
D27*
%TO.C,J9*%
X113337043Y-65425082D03*
D28*
X115837043Y-65425082D03*
X118337043Y-65425082D03*
X120837043Y-65425082D03*
X123337043Y-65425082D03*
%TD*%
D29*
%TO.C,J3*%
X106375900Y-87094400D03*
X106375900Y-92874400D03*
D30*
X106875900Y-85664400D03*
D31*
X102695900Y-85664400D03*
D30*
X106875900Y-94304400D03*
D31*
X102695900Y-94304400D03*
%TD*%
D22*
%TO.C,J2*%
X134512100Y-107365800D03*
D23*
X137052100Y-107365800D03*
X139592100Y-107365800D03*
X142132100Y-107365800D03*
X144672100Y-107365800D03*
X147212100Y-107365800D03*
X149752100Y-107365800D03*
X152292100Y-107365800D03*
%TD*%
D32*
%TO.C,J8*%
X116770900Y-102266800D03*
D28*
X114270900Y-102266800D03*
X111770900Y-102266800D03*
X109270900Y-102266800D03*
%TD*%
D33*
X153156927Y-94519331D02*
X153728355Y-94519331D01*
X153442641Y-95519331D02*
X153442641Y-94519331D01*
X154442641Y-95471712D02*
X154347403Y-95519331D01*
X154347403Y-95519331D02*
X154156927Y-95519331D01*
X154156927Y-95519331D02*
X154061689Y-95471712D01*
X154061689Y-95471712D02*
X154014070Y-95376473D01*
X154014070Y-95376473D02*
X154014070Y-94995521D01*
X154014070Y-94995521D02*
X154061689Y-94900283D01*
X154061689Y-94900283D02*
X154156927Y-94852664D01*
X154156927Y-94852664D02*
X154347403Y-94852664D01*
X154347403Y-94852664D02*
X154442641Y-94900283D01*
X154442641Y-94900283D02*
X154490260Y-94995521D01*
X154490260Y-94995521D02*
X154490260Y-95090759D01*
X154490260Y-95090759D02*
X154014070Y-95185997D01*
X155299784Y-95471712D02*
X155204546Y-95519331D01*
X155204546Y-95519331D02*
X155014070Y-95519331D01*
X155014070Y-95519331D02*
X154918832Y-95471712D01*
X154918832Y-95471712D02*
X154871213Y-95376473D01*
X154871213Y-95376473D02*
X154871213Y-94995521D01*
X154871213Y-94995521D02*
X154918832Y-94900283D01*
X154918832Y-94900283D02*
X155014070Y-94852664D01*
X155014070Y-94852664D02*
X155204546Y-94852664D01*
X155204546Y-94852664D02*
X155299784Y-94900283D01*
X155299784Y-94900283D02*
X155347403Y-94995521D01*
X155347403Y-94995521D02*
X155347403Y-95090759D01*
X155347403Y-95090759D02*
X154871213Y-95185997D01*
X155775975Y-95519331D02*
X155775975Y-94519331D01*
X155775975Y-94900283D02*
X155871213Y-94852664D01*
X155871213Y-94852664D02*
X156061689Y-94852664D01*
X156061689Y-94852664D02*
X156156927Y-94900283D01*
X156156927Y-94900283D02*
X156204546Y-94947902D01*
X156204546Y-94947902D02*
X156252165Y-95043140D01*
X156252165Y-95043140D02*
X156252165Y-95328854D01*
X156252165Y-95328854D02*
X156204546Y-95424092D01*
X156204546Y-95424092D02*
X156156927Y-95471712D01*
X156156927Y-95471712D02*
X156061689Y-95519331D01*
X156061689Y-95519331D02*
X155871213Y-95519331D01*
X155871213Y-95519331D02*
X155775975Y-95471712D01*
X157395023Y-95233616D02*
X157871213Y-95233616D01*
X157299785Y-95519331D02*
X157633118Y-94519331D01*
X157633118Y-94519331D02*
X157966451Y-95519331D01*
X158442642Y-95519331D02*
X158347404Y-95471712D01*
X158347404Y-95471712D02*
X158299785Y-95376473D01*
X158299785Y-95376473D02*
X158299785Y-94519331D01*
X158823595Y-95519331D02*
X158823595Y-94852664D01*
X158823595Y-95043140D02*
X158871214Y-94947902D01*
X158871214Y-94947902D02*
X158918833Y-94900283D01*
X158918833Y-94900283D02*
X159014071Y-94852664D01*
X159014071Y-94852664D02*
X159109309Y-94852664D01*
X159585500Y-95519331D02*
X159490262Y-95471712D01*
X159490262Y-95471712D02*
X159442643Y-95424092D01*
X159442643Y-95424092D02*
X159395024Y-95328854D01*
X159395024Y-95328854D02*
X159395024Y-95043140D01*
X159395024Y-95043140D02*
X159442643Y-94947902D01*
X159442643Y-94947902D02*
X159490262Y-94900283D01*
X159490262Y-94900283D02*
X159585500Y-94852664D01*
X159585500Y-94852664D02*
X159728357Y-94852664D01*
X159728357Y-94852664D02*
X159823595Y-94900283D01*
X159823595Y-94900283D02*
X159871214Y-94947902D01*
X159871214Y-94947902D02*
X159918833Y-95043140D01*
X159918833Y-95043140D02*
X159918833Y-95328854D01*
X159918833Y-95328854D02*
X159871214Y-95424092D01*
X159871214Y-95424092D02*
X159823595Y-95471712D01*
X159823595Y-95471712D02*
X159728357Y-95519331D01*
X159728357Y-95519331D02*
X159585500Y-95519331D01*
X160299786Y-95471712D02*
X160395024Y-95519331D01*
X160395024Y-95519331D02*
X160585500Y-95519331D01*
X160585500Y-95519331D02*
X160680738Y-95471712D01*
X160680738Y-95471712D02*
X160728357Y-95376473D01*
X160728357Y-95376473D02*
X160728357Y-95328854D01*
X160728357Y-95328854D02*
X160680738Y-95233616D01*
X160680738Y-95233616D02*
X160585500Y-95185997D01*
X160585500Y-95185997D02*
X160442643Y-95185997D01*
X160442643Y-95185997D02*
X160347405Y-95138378D01*
X160347405Y-95138378D02*
X160299786Y-95043140D01*
X160299786Y-95043140D02*
X160299786Y-94995521D01*
X160299786Y-94995521D02*
X160347405Y-94900283D01*
X160347405Y-94900283D02*
X160442643Y-94852664D01*
X160442643Y-94852664D02*
X160585500Y-94852664D01*
X160585500Y-94852664D02*
X160680738Y-94900283D01*
X161156929Y-95519331D02*
X161156929Y-94519331D01*
X161585500Y-95519331D02*
X161585500Y-94995521D01*
X161585500Y-94995521D02*
X161537881Y-94900283D01*
X161537881Y-94900283D02*
X161442643Y-94852664D01*
X161442643Y-94852664D02*
X161299786Y-94852664D01*
X161299786Y-94852664D02*
X161204548Y-94900283D01*
X161204548Y-94900283D02*
X161156929Y-94947902D01*
X162204548Y-95519331D02*
X162109310Y-95471712D01*
X162109310Y-95471712D02*
X162061691Y-95424092D01*
X162061691Y-95424092D02*
X162014072Y-95328854D01*
X162014072Y-95328854D02*
X162014072Y-95043140D01*
X162014072Y-95043140D02*
X162061691Y-94947902D01*
X162061691Y-94947902D02*
X162109310Y-94900283D01*
X162109310Y-94900283D02*
X162204548Y-94852664D01*
X162204548Y-94852664D02*
X162347405Y-94852664D01*
X162347405Y-94852664D02*
X162442643Y-94900283D01*
X162442643Y-94900283D02*
X162490262Y-94947902D01*
X162490262Y-94947902D02*
X162537881Y-95043140D01*
X162537881Y-95043140D02*
X162537881Y-95328854D01*
X162537881Y-95328854D02*
X162490262Y-95424092D01*
X162490262Y-95424092D02*
X162442643Y-95471712D01*
X162442643Y-95471712D02*
X162347405Y-95519331D01*
X162347405Y-95519331D02*
X162204548Y-95519331D01*
X163109310Y-95519331D02*
X163014072Y-95471712D01*
X163014072Y-95471712D02*
X162966453Y-95424092D01*
X162966453Y-95424092D02*
X162918834Y-95328854D01*
X162918834Y-95328854D02*
X162918834Y-95043140D01*
X162918834Y-95043140D02*
X162966453Y-94947902D01*
X162966453Y-94947902D02*
X163014072Y-94900283D01*
X163014072Y-94900283D02*
X163109310Y-94852664D01*
X163109310Y-94852664D02*
X163252167Y-94852664D01*
X163252167Y-94852664D02*
X163347405Y-94900283D01*
X163347405Y-94900283D02*
X163395024Y-94947902D01*
X163395024Y-94947902D02*
X163442643Y-95043140D01*
X163442643Y-95043140D02*
X163442643Y-95328854D01*
X163442643Y-95328854D02*
X163395024Y-95424092D01*
X163395024Y-95424092D02*
X163347405Y-95471712D01*
X163347405Y-95471712D02*
X163252167Y-95519331D01*
X163252167Y-95519331D02*
X163109310Y-95519331D01*
X164299786Y-95519331D02*
X164299786Y-94519331D01*
X164299786Y-95471712D02*
X164204548Y-95519331D01*
X164204548Y-95519331D02*
X164014072Y-95519331D01*
X164014072Y-95519331D02*
X163918834Y-95471712D01*
X163918834Y-95471712D02*
X163871215Y-95424092D01*
X163871215Y-95424092D02*
X163823596Y-95328854D01*
X163823596Y-95328854D02*
X163823596Y-95043140D01*
X163823596Y-95043140D02*
X163871215Y-94947902D01*
X163871215Y-94947902D02*
X163918834Y-94900283D01*
X163918834Y-94900283D02*
X164014072Y-94852664D01*
X164014072Y-94852664D02*
X164204548Y-94852664D01*
X164204548Y-94852664D02*
X164299786Y-94900283D01*
X153299784Y-96605465D02*
X153633117Y-96605465D01*
X153775974Y-97129275D02*
X153299784Y-97129275D01*
X153299784Y-97129275D02*
X153299784Y-96129275D01*
X153299784Y-96129275D02*
X153775974Y-96129275D01*
X154204546Y-97129275D02*
X154204546Y-96129275D01*
X154204546Y-96129275D02*
X154775974Y-97129275D01*
X154775974Y-97129275D02*
X154775974Y-96129275D01*
X155823593Y-97034036D02*
X155775974Y-97081656D01*
X155775974Y-97081656D02*
X155633117Y-97129275D01*
X155633117Y-97129275D02*
X155537879Y-97129275D01*
X155537879Y-97129275D02*
X155395022Y-97081656D01*
X155395022Y-97081656D02*
X155299784Y-96986417D01*
X155299784Y-96986417D02*
X155252165Y-96891179D01*
X155252165Y-96891179D02*
X155204546Y-96700703D01*
X155204546Y-96700703D02*
X155204546Y-96557846D01*
X155204546Y-96557846D02*
X155252165Y-96367370D01*
X155252165Y-96367370D02*
X155299784Y-96272132D01*
X155299784Y-96272132D02*
X155395022Y-96176894D01*
X155395022Y-96176894D02*
X155537879Y-96129275D01*
X155537879Y-96129275D02*
X155633117Y-96129275D01*
X155633117Y-96129275D02*
X155775974Y-96176894D01*
X155775974Y-96176894D02*
X155823593Y-96224513D01*
X156252165Y-96605465D02*
X156585498Y-96605465D01*
X156728355Y-97129275D02*
X156252165Y-97129275D01*
X156252165Y-97129275D02*
X156252165Y-96129275D01*
X156252165Y-96129275D02*
X156728355Y-96129275D01*
X157156927Y-96748322D02*
X157918832Y-96748322D01*
X158299784Y-96129275D02*
X158918831Y-96129275D01*
X158918831Y-96129275D02*
X158585498Y-96510227D01*
X158585498Y-96510227D02*
X158728355Y-96510227D01*
X158728355Y-96510227D02*
X158823593Y-96557846D01*
X158823593Y-96557846D02*
X158871212Y-96605465D01*
X158871212Y-96605465D02*
X158918831Y-96700703D01*
X158918831Y-96700703D02*
X158918831Y-96938798D01*
X158918831Y-96938798D02*
X158871212Y-97034036D01*
X158871212Y-97034036D02*
X158823593Y-97081656D01*
X158823593Y-97081656D02*
X158728355Y-97129275D01*
X158728355Y-97129275D02*
X158442641Y-97129275D01*
X158442641Y-97129275D02*
X158347403Y-97081656D01*
X158347403Y-97081656D02*
X158299784Y-97034036D01*
X159299784Y-96224513D02*
X159347403Y-96176894D01*
X159347403Y-96176894D02*
X159442641Y-96129275D01*
X159442641Y-96129275D02*
X159680736Y-96129275D01*
X159680736Y-96129275D02*
X159775974Y-96176894D01*
X159775974Y-96176894D02*
X159823593Y-96224513D01*
X159823593Y-96224513D02*
X159871212Y-96319751D01*
X159871212Y-96319751D02*
X159871212Y-96414989D01*
X159871212Y-96414989D02*
X159823593Y-96557846D01*
X159823593Y-96557846D02*
X159252165Y-97129275D01*
X159252165Y-97129275D02*
X159871212Y-97129275D01*
X160204546Y-96129275D02*
X160823593Y-96129275D01*
X160823593Y-96129275D02*
X160490260Y-96510227D01*
X160490260Y-96510227D02*
X160633117Y-96510227D01*
X160633117Y-96510227D02*
X160728355Y-96557846D01*
X160728355Y-96557846D02*
X160775974Y-96605465D01*
X160775974Y-96605465D02*
X160823593Y-96700703D01*
X160823593Y-96700703D02*
X160823593Y-96938798D01*
X160823593Y-96938798D02*
X160775974Y-97034036D01*
X160775974Y-97034036D02*
X160728355Y-97081656D01*
X160728355Y-97081656D02*
X160633117Y-97129275D01*
X160633117Y-97129275D02*
X160347403Y-97129275D01*
X160347403Y-97129275D02*
X160252165Y-97081656D01*
X160252165Y-97081656D02*
X160204546Y-97034036D01*
X161775974Y-97129275D02*
X161204546Y-97129275D01*
X161490260Y-97129275D02*
X161490260Y-96129275D01*
X161490260Y-96129275D02*
X161395022Y-96272132D01*
X161395022Y-96272132D02*
X161299784Y-96367370D01*
X161299784Y-96367370D02*
X161204546Y-96414989D01*
X153252165Y-97834457D02*
X153299784Y-97786838D01*
X153299784Y-97786838D02*
X153395022Y-97739219D01*
X153395022Y-97739219D02*
X153633117Y-97739219D01*
X153633117Y-97739219D02*
X153728355Y-97786838D01*
X153728355Y-97786838D02*
X153775974Y-97834457D01*
X153775974Y-97834457D02*
X153823593Y-97929695D01*
X153823593Y-97929695D02*
X153823593Y-98024933D01*
X153823593Y-98024933D02*
X153775974Y-98167790D01*
X153775974Y-98167790D02*
X153204546Y-98739219D01*
X153204546Y-98739219D02*
X153823593Y-98739219D01*
X154014070Y-98834457D02*
X154775974Y-98834457D01*
X154918832Y-98072552D02*
X155109308Y-98739219D01*
X155109308Y-98739219D02*
X155299784Y-98263028D01*
X155299784Y-98263028D02*
X155490260Y-98739219D01*
X155490260Y-98739219D02*
X155680736Y-98072552D01*
X156061689Y-98739219D02*
X156061689Y-97739219D01*
X156490260Y-98739219D02*
X156490260Y-98215409D01*
X156490260Y-98215409D02*
X156442641Y-98120171D01*
X156442641Y-98120171D02*
X156347403Y-98072552D01*
X156347403Y-98072552D02*
X156204546Y-98072552D01*
X156204546Y-98072552D02*
X156109308Y-98120171D01*
X156109308Y-98120171D02*
X156061689Y-98167790D01*
X157347403Y-98691600D02*
X157252165Y-98739219D01*
X157252165Y-98739219D02*
X157061689Y-98739219D01*
X157061689Y-98739219D02*
X156966451Y-98691600D01*
X156966451Y-98691600D02*
X156918832Y-98596361D01*
X156918832Y-98596361D02*
X156918832Y-98215409D01*
X156918832Y-98215409D02*
X156966451Y-98120171D01*
X156966451Y-98120171D02*
X157061689Y-98072552D01*
X157061689Y-98072552D02*
X157252165Y-98072552D01*
X157252165Y-98072552D02*
X157347403Y-98120171D01*
X157347403Y-98120171D02*
X157395022Y-98215409D01*
X157395022Y-98215409D02*
X157395022Y-98310647D01*
X157395022Y-98310647D02*
X156918832Y-98405885D01*
X158204546Y-98691600D02*
X158109308Y-98739219D01*
X158109308Y-98739219D02*
X157918832Y-98739219D01*
X157918832Y-98739219D02*
X157823594Y-98691600D01*
X157823594Y-98691600D02*
X157775975Y-98596361D01*
X157775975Y-98596361D02*
X157775975Y-98215409D01*
X157775975Y-98215409D02*
X157823594Y-98120171D01*
X157823594Y-98120171D02*
X157918832Y-98072552D01*
X157918832Y-98072552D02*
X158109308Y-98072552D01*
X158109308Y-98072552D02*
X158204546Y-98120171D01*
X158204546Y-98120171D02*
X158252165Y-98215409D01*
X158252165Y-98215409D02*
X158252165Y-98310647D01*
X158252165Y-98310647D02*
X157775975Y-98405885D01*
X158823594Y-98739219D02*
X158728356Y-98691600D01*
X158728356Y-98691600D02*
X158680737Y-98596361D01*
X158680737Y-98596361D02*
X158680737Y-97739219D01*
X158966452Y-98834457D02*
X159728356Y-98834457D01*
X159966452Y-98739219D02*
X159966452Y-97739219D01*
X159966452Y-98120171D02*
X160061690Y-98072552D01*
X160061690Y-98072552D02*
X160252166Y-98072552D01*
X160252166Y-98072552D02*
X160347404Y-98120171D01*
X160347404Y-98120171D02*
X160395023Y-98167790D01*
X160395023Y-98167790D02*
X160442642Y-98263028D01*
X160442642Y-98263028D02*
X160442642Y-98548742D01*
X160442642Y-98548742D02*
X160395023Y-98643980D01*
X160395023Y-98643980D02*
X160347404Y-98691600D01*
X160347404Y-98691600D02*
X160252166Y-98739219D01*
X160252166Y-98739219D02*
X160061690Y-98739219D01*
X160061690Y-98739219D02*
X159966452Y-98691600D01*
X161299785Y-98739219D02*
X161299785Y-98215409D01*
X161299785Y-98215409D02*
X161252166Y-98120171D01*
X161252166Y-98120171D02*
X161156928Y-98072552D01*
X161156928Y-98072552D02*
X160966452Y-98072552D01*
X160966452Y-98072552D02*
X160871214Y-98120171D01*
X161299785Y-98691600D02*
X161204547Y-98739219D01*
X161204547Y-98739219D02*
X160966452Y-98739219D01*
X160966452Y-98739219D02*
X160871214Y-98691600D01*
X160871214Y-98691600D02*
X160823595Y-98596361D01*
X160823595Y-98596361D02*
X160823595Y-98501123D01*
X160823595Y-98501123D02*
X160871214Y-98405885D01*
X160871214Y-98405885D02*
X160966452Y-98358266D01*
X160966452Y-98358266D02*
X161204547Y-98358266D01*
X161204547Y-98358266D02*
X161299785Y-98310647D01*
X161918833Y-98739219D02*
X161823595Y-98691600D01*
X161823595Y-98691600D02*
X161775976Y-98596361D01*
X161775976Y-98596361D02*
X161775976Y-97739219D01*
X162728357Y-98739219D02*
X162728357Y-98215409D01*
X162728357Y-98215409D02*
X162680738Y-98120171D01*
X162680738Y-98120171D02*
X162585500Y-98072552D01*
X162585500Y-98072552D02*
X162395024Y-98072552D01*
X162395024Y-98072552D02*
X162299786Y-98120171D01*
X162728357Y-98691600D02*
X162633119Y-98739219D01*
X162633119Y-98739219D02*
X162395024Y-98739219D01*
X162395024Y-98739219D02*
X162299786Y-98691600D01*
X162299786Y-98691600D02*
X162252167Y-98596361D01*
X162252167Y-98596361D02*
X162252167Y-98501123D01*
X162252167Y-98501123D02*
X162299786Y-98405885D01*
X162299786Y-98405885D02*
X162395024Y-98358266D01*
X162395024Y-98358266D02*
X162633119Y-98358266D01*
X162633119Y-98358266D02*
X162728357Y-98310647D01*
X163204548Y-98072552D02*
X163204548Y-98739219D01*
X163204548Y-98167790D02*
X163252167Y-98120171D01*
X163252167Y-98120171D02*
X163347405Y-98072552D01*
X163347405Y-98072552D02*
X163490262Y-98072552D01*
X163490262Y-98072552D02*
X163585500Y-98120171D01*
X163585500Y-98120171D02*
X163633119Y-98215409D01*
X163633119Y-98215409D02*
X163633119Y-98739219D01*
X164537881Y-98691600D02*
X164442643Y-98739219D01*
X164442643Y-98739219D02*
X164252167Y-98739219D01*
X164252167Y-98739219D02*
X164156929Y-98691600D01*
X164156929Y-98691600D02*
X164109310Y-98643980D01*
X164109310Y-98643980D02*
X164061691Y-98548742D01*
X164061691Y-98548742D02*
X164061691Y-98263028D01*
X164061691Y-98263028D02*
X164109310Y-98167790D01*
X164109310Y-98167790D02*
X164156929Y-98120171D01*
X164156929Y-98120171D02*
X164252167Y-98072552D01*
X164252167Y-98072552D02*
X164442643Y-98072552D01*
X164442643Y-98072552D02*
X164537881Y-98120171D01*
X165347405Y-98691600D02*
X165252167Y-98739219D01*
X165252167Y-98739219D02*
X165061691Y-98739219D01*
X165061691Y-98739219D02*
X164966453Y-98691600D01*
X164966453Y-98691600D02*
X164918834Y-98596361D01*
X164918834Y-98596361D02*
X164918834Y-98215409D01*
X164918834Y-98215409D02*
X164966453Y-98120171D01*
X164966453Y-98120171D02*
X165061691Y-98072552D01*
X165061691Y-98072552D02*
X165252167Y-98072552D01*
X165252167Y-98072552D02*
X165347405Y-98120171D01*
X165347405Y-98120171D02*
X165395024Y-98215409D01*
X165395024Y-98215409D02*
X165395024Y-98310647D01*
X165395024Y-98310647D02*
X164918834Y-98405885D01*
X165585501Y-98834457D02*
X166347405Y-98834457D01*
X166585501Y-98739219D02*
X166585501Y-98072552D01*
X166585501Y-98263028D02*
X166633120Y-98167790D01*
X166633120Y-98167790D02*
X166680739Y-98120171D01*
X166680739Y-98120171D02*
X166775977Y-98072552D01*
X166775977Y-98072552D02*
X166871215Y-98072552D01*
X167347406Y-98739219D02*
X167252168Y-98691600D01*
X167252168Y-98691600D02*
X167204549Y-98643980D01*
X167204549Y-98643980D02*
X167156930Y-98548742D01*
X167156930Y-98548742D02*
X167156930Y-98263028D01*
X167156930Y-98263028D02*
X167204549Y-98167790D01*
X167204549Y-98167790D02*
X167252168Y-98120171D01*
X167252168Y-98120171D02*
X167347406Y-98072552D01*
X167347406Y-98072552D02*
X167490263Y-98072552D01*
X167490263Y-98072552D02*
X167585501Y-98120171D01*
X167585501Y-98120171D02*
X167633120Y-98167790D01*
X167633120Y-98167790D02*
X167680739Y-98263028D01*
X167680739Y-98263028D02*
X167680739Y-98548742D01*
X167680739Y-98548742D02*
X167633120Y-98643980D01*
X167633120Y-98643980D02*
X167585501Y-98691600D01*
X167585501Y-98691600D02*
X167490263Y-98739219D01*
X167490263Y-98739219D02*
X167347406Y-98739219D01*
X168109311Y-98739219D02*
X168109311Y-97739219D01*
X168109311Y-98120171D02*
X168204549Y-98072552D01*
X168204549Y-98072552D02*
X168395025Y-98072552D01*
X168395025Y-98072552D02*
X168490263Y-98120171D01*
X168490263Y-98120171D02*
X168537882Y-98167790D01*
X168537882Y-98167790D02*
X168585501Y-98263028D01*
X168585501Y-98263028D02*
X168585501Y-98548742D01*
X168585501Y-98548742D02*
X168537882Y-98643980D01*
X168537882Y-98643980D02*
X168490263Y-98691600D01*
X168490263Y-98691600D02*
X168395025Y-98739219D01*
X168395025Y-98739219D02*
X168204549Y-98739219D01*
X168204549Y-98739219D02*
X168109311Y-98691600D01*
X169156930Y-98739219D02*
X169061692Y-98691600D01*
X169061692Y-98691600D02*
X169014073Y-98643980D01*
X169014073Y-98643980D02*
X168966454Y-98548742D01*
X168966454Y-98548742D02*
X168966454Y-98263028D01*
X168966454Y-98263028D02*
X169014073Y-98167790D01*
X169014073Y-98167790D02*
X169061692Y-98120171D01*
X169061692Y-98120171D02*
X169156930Y-98072552D01*
X169156930Y-98072552D02*
X169299787Y-98072552D01*
X169299787Y-98072552D02*
X169395025Y-98120171D01*
X169395025Y-98120171D02*
X169442644Y-98167790D01*
X169442644Y-98167790D02*
X169490263Y-98263028D01*
X169490263Y-98263028D02*
X169490263Y-98548742D01*
X169490263Y-98548742D02*
X169442644Y-98643980D01*
X169442644Y-98643980D02*
X169395025Y-98691600D01*
X169395025Y-98691600D02*
X169299787Y-98739219D01*
X169299787Y-98739219D02*
X169156930Y-98739219D01*
X169775978Y-98072552D02*
X170156930Y-98072552D01*
X169918835Y-97739219D02*
X169918835Y-98596361D01*
X169918835Y-98596361D02*
X169966454Y-98691600D01*
X169966454Y-98691600D02*
X170061692Y-98739219D01*
X170061692Y-98739219D02*
X170156930Y-98739219D01*
D34*
%TO.P,C7,1,~_1*%
%TO.N,Net-(U1-VCAP1)*%
X126257100Y-79802900D03*
%TO.P,C7,2,~_2*%
%TO.N,GND*%
X126257100Y-77727900D03*
%TD*%
D35*
%TO.P,C8,1,~_1*%
%TO.N,+3.3V*%
X159683500Y-83732800D03*
%TO.P,C8,2,~_2*%
%TO.N,GND*%
X161758500Y-83732800D03*
%TD*%
D36*
%TO.P,C2,1,~_1*%
%TO.N,+3.3V*%
X123789400Y-78917800D03*
%TO.P,C2,2,~_2*%
%TO.N,GND*%
X121714400Y-78917800D03*
%TD*%
D37*
%TO.P,F1,1,~_1*%
%TO.N,Net-(F1-~-Pad1)*%
X104714000Y-82169000D03*
%TO.P,F1,2,~_2*%
%TO.N,Vusb*%
X108989000Y-82169000D03*
%TD*%
D38*
%TO.P,R1,1,~_1*%
%TO.N,Net-(D2-A)*%
X111118700Y-80153000D03*
%TO.P,R1,2,~_2*%
%TO.N,Vusb*%
X111118700Y-82153000D03*
%TD*%
D39*
%TO.P,U5,1,I/O1_1*%
%TO.N,/USB_D-*%
X111048000Y-89042200D03*
%TO.P,U5,2,GND_2*%
%TO.N,GND*%
X111048000Y-89992200D03*
%TO.P,U5,3,I/O2_3*%
%TO.N,/USB_D+*%
X111048000Y-90942200D03*
%TO.P,U5,4,I/O2_4*%
%TO.N,/CONN_D+*%
X113323000Y-90942200D03*
%TO.P,U5,5,VBUS_5*%
%TO.N,Vusb*%
X113323000Y-89992200D03*
%TO.P,U5,6,I/O1_6*%
%TO.N,/CONN_D-*%
X113323000Y-89042200D03*
%TD*%
D40*
%TO.P,U3,1,GND_1*%
%TO.N,GND*%
X136163500Y-65215800D03*
%TO.P,U3,2,VO_2*%
%TO.N,5V_REG*%
X136163500Y-62915800D03*
D41*
X129863500Y-62915800D03*
D40*
%TO.P,U3,3,VI_3*%
%TO.N,VM*%
X136163500Y-60615800D03*
%TD*%
D42*
%TO.P,S4,1*%
%TO.N,GND*%
X123155500Y-104394000D03*
%TO.P,S4,2*%
%TO.N,Net-(R2-~-Pad1)*%
X126155500Y-104394000D03*
%TO.P,S4,3*%
%TO.N,+3.3V*%
X127655500Y-104394000D03*
D43*
%TO.P,S4,SH1*%
%TO.N,N/C*%
X121605500Y-105419000D03*
%TO.P,S4,SH2*%
X129205500Y-105419000D03*
%TO.P,S4,SH3*%
X121605500Y-107519000D03*
%TO.P,S4,SH4*%
X129205500Y-107519000D03*
%TD*%
D40*
%TO.P,U6,1,GND_1*%
%TO.N,GND*%
X136188900Y-74055000D03*
%TO.P,U6,2,VO_2*%
%TO.N,+3.3V*%
X136188900Y-71755000D03*
D41*
X129888900Y-71755000D03*
D40*
%TO.P,U6,3,VI_3*%
%TO.N,+5V*%
X136188900Y-69455000D03*
%TD*%
D44*
%TO.P,R9,1,~_1*%
%TO.N,Net-(D4-A)*%
X125409500Y-75209400D03*
%TO.P,R9,2,~_2*%
%TO.N,/USER_LED*%
X127409500Y-75209400D03*
%TD*%
D11*
%TO.P,J4,1,Pin_1_1*%
%TO.N,GND*%
X105403700Y-76835000D03*
D12*
%TO.P,J4,2,Pin_2_2*%
%TO.N,/ESP_TX*%
X107943700Y-76835000D03*
%TO.P,J4,3,Pin_3_3*%
%TO.N,unconnected-(J4-Pin_3-Pad3)*%
X105403700Y-74295000D03*
%TO.P,J4,4,Pin_4_4*%
%TO.N,+3.3V*%
X107943700Y-74295000D03*
%TO.P,J4,5,Pin_5_5*%
%TO.N,Net-(J4-Pin_5)*%
X105403700Y-71755000D03*
%TO.P,J4,6,Pin_6_6*%
%TO.N,+3.3V*%
X107943700Y-71755000D03*
%TO.P,J4,7,Pin_7_7*%
%TO.N,/ESP_RX*%
X105403700Y-69215000D03*
%TO.P,J4,8,Pin_8_8*%
%TO.N,+3.3V*%
X107943700Y-69215000D03*
%TD*%
D45*
%TO.P,R8,1,~_1*%
%TO.N,Net-(J3-CC2)*%
X110866600Y-93014800D03*
%TO.P,R8,2,~_2*%
%TO.N,GND*%
X112691600Y-93014800D03*
%TD*%
D46*
%TO.P,U2,1,AO1_1*%
%TO.N,/MD_AO1*%
X161837300Y-81557100D03*
%TO.P,U2,2,AO1_2*%
X161837300Y-80907100D03*
%TO.P,U2,3,PGND1_3*%
%TO.N,GND*%
X161837300Y-80257100D03*
%TO.P,U2,4,PGND1_4*%
X161837300Y-79607100D03*
%TO.P,U2,5,AO2_5*%
%TO.N,/MD_AO2*%
X161837300Y-78957100D03*
%TO.P,U2,6,AO2_6*%
X161837300Y-78307100D03*
%TO.P,U2,7,BO2_7*%
%TO.N,/MD_BO2*%
X161837300Y-77657100D03*
%TO.P,U2,8,BO2_8*%
X161837300Y-77007100D03*
%TO.P,U2,9,PGND2_9*%
%TO.N,GND*%
X161837300Y-76357100D03*
%TO.P,U2,10,PGND2_10*%
X161837300Y-75707100D03*
%TO.P,U2,11,BO1_11*%
%TO.N,/MD_BO1*%
X161837300Y-75057100D03*
%TO.P,U2,12,BO1_12*%
X161837300Y-74407100D03*
%TO.P,U2,13,VM2_13*%
%TO.N,VM*%
X154837300Y-74407100D03*
%TO.P,U2,14,VM3_14*%
X154837300Y-75057100D03*
%TO.P,U2,15,PWMB_15*%
%TO.N,/MD_PWMB*%
X154837300Y-75707100D03*
%TO.P,U2,16,BIN2_16*%
%TO.N,/MD_BIN2*%
X154837300Y-76357100D03*
%TO.P,U2,17,BIN1_17*%
%TO.N,/MD_BIN1*%
X154837300Y-77007100D03*
%TO.P,U2,18,GND_18*%
%TO.N,GND*%
X154837300Y-77657100D03*
%TO.P,U2,19,STBY_19*%
%TO.N,/MD_STBY*%
X154837300Y-78307100D03*
%TO.P,U2,20,VCC_20*%
%TO.N,+3.3V*%
X154837300Y-78957100D03*
%TO.P,U2,21,AIN1_21*%
%TO.N,/MD_AIN1*%
X154837300Y-79607100D03*
%TO.P,U2,22,AIN2_22*%
%TO.N,/MD_AIN2*%
X154837300Y-80257100D03*
%TO.P,U2,23,PWMA_23*%
%TO.N,/MD_PWMA*%
X154837300Y-80907100D03*
%TO.P,U2,24,VM1_24*%
%TO.N,VM*%
X154837300Y-81557100D03*
%TD*%
D47*
%TO.P,D1,1,VDD_1*%
%TO.N,+5V*%
X147644900Y-90207000D03*
%TO.P,D1,2,DOUT_2*%
%TO.N,unconnected-(D1-DOUT-Pad2)*%
X150944900Y-90207000D03*
%TO.P,D1,3,VSS_3*%
%TO.N,GND*%
X150944900Y-85307000D03*
%TO.P,D1,4,DIN_4*%
%TO.N,/WS_DIN*%
X147644900Y-85307000D03*
%TD*%
D34*
%TO.P,C13,1,~_1*%
%TO.N,+5V*%
X138855500Y-69515900D03*
%TO.P,C13,2,~_2*%
%TO.N,GND*%
X138855500Y-67440900D03*
%TD*%
D48*
%TO.P,SW2,1,A_1*%
%TO.N,GND*%
X146294900Y-96672400D03*
%TO.P,SW2,2,B_2*%
%TO.N,/RESET*%
X139594900Y-96672400D03*
%TD*%
D49*
%TO.P,U1,1,VBAT_1*%
%TO.N,unconnected-(U1-VBAT-Pad1)*%
X135096300Y-91584400D03*
%TO.P,U1,2,PC13_2*%
%TO.N,/IMU_INT*%
X135096300Y-91084400D03*
%TO.P,U1,3,PC14_3*%
%TO.N,unconnected-(U1-PC14-Pad3)*%
X135096300Y-90584400D03*
%TO.P,U1,4,PC15_4*%
%TO.N,unconnected-(U1-PC15-Pad4)*%
X135096300Y-90084400D03*
%TO.P,U1,5,RCC_OSC_IN_5*%
%TO.N,/OSCIN*%
X135096300Y-89584400D03*
%TO.P,U1,6,RCC_OSC_OUT_6*%
%TO.N,/OSCOUT*%
X135096300Y-89084400D03*
%TO.P,U1,7,NRST_7*%
%TO.N,/RESET*%
X135096300Y-88584400D03*
%TO.P,U1,8,PC0_8*%
%TO.N,unconnected-(U1-PC0-Pad8)*%
X135096300Y-88084400D03*
%TO.P,U1,9,PC1_9*%
%TO.N,unconnected-(U1-PC1-Pad9)*%
X135096300Y-87584400D03*
%TO.P,U1,10,PC2_10*%
%TO.N,unconnected-(U1-PC2-Pad10)*%
X135096300Y-87084400D03*
%TO.P,U1,11,PC3_11*%
%TO.N,unconnected-(U1-PC3-Pad11)*%
X135096300Y-86584400D03*
%TO.P,U1,12,VSSA_12*%
%TO.N,GND*%
X135096300Y-86084400D03*
%TO.P,U1,13,VREF+_13*%
%TO.N,+3.3V*%
X135096300Y-85584400D03*
%TO.P,U1,14,TIM5_CH1_14*%
%TO.N,/WS_DIN*%
X135096300Y-85084400D03*
%TO.P,U1,15,TIM2_CH2_15*%
%TO.N,/MD_PWMA*%
X135096300Y-84584400D03*
%TO.P,U1,16,PA2_16*%
%TO.N,/MD_AIN2*%
X135096300Y-84084400D03*
D50*
%TO.P,U1,17,PA3_17*%
%TO.N,/MD_AIN1*%
X133171300Y-82159400D03*
%TO.P,U1,18,VSS_18*%
%TO.N,GND*%
X132671300Y-82159400D03*
%TO.P,U1,19,VDD_19*%
%TO.N,+3.3V*%
X132171300Y-82159400D03*
%TO.P,U1,20,PA4_20*%
%TO.N,/MD_STBY*%
X131671300Y-82159400D03*
%TO.P,U1,21,TIM2_CH1_21*%
%TO.N,/MD_PWMB*%
X131171300Y-82159400D03*
%TO.P,U1,22,PA6_22*%
%TO.N,/MD_BIN1*%
X130671300Y-82159400D03*
%TO.P,U1,23,PA7_23*%
%TO.N,/MD_BIN2*%
X130171300Y-82159400D03*
%TO.P,U1,24,PC4_24*%
%TO.N,unconnected-(U1-PC4-Pad24)*%
X129671300Y-82159400D03*
%TO.P,U1,25,PC5_25*%
%TO.N,unconnected-(U1-PC5-Pad25)*%
X129171300Y-82159400D03*
%TO.P,U1,26,PB0_26*%
%TO.N,unconnected-(U1-PB0-Pad26)*%
X128671300Y-82159400D03*
%TO.P,U1,27,PB1_27*%
%TO.N,/USER_LED*%
X128171300Y-82159400D03*
%TO.P,U1,28,PB2_28*%
%TO.N,GND*%
X127671300Y-82159400D03*
%TO.P,U1,29,PB10_29*%
%TO.N,unconnected-(U1-PB10-Pad29)*%
X127171300Y-82159400D03*
%TO.P,U1,30,VCAP1_30*%
%TO.N,Net-(U1-VCAP1)*%
X126671300Y-82159400D03*
%TO.P,U1,31,VSS_31*%
%TO.N,GND*%
X126171300Y-82159400D03*
%TO.P,U1,32,VDD_32*%
%TO.N,+3.3V*%
X125671300Y-82159400D03*
D49*
%TO.P,U1,33,PB12_33*%
%TO.N,unconnected-(U1-PB12-Pad33)*%
X123746300Y-84084400D03*
%TO.P,U1,34,PB13_34*%
%TO.N,unconnected-(U1-PB13-Pad34)*%
X123746300Y-84584400D03*
%TO.P,U1,35,PB14_35*%
%TO.N,unconnected-(U1-PB14-Pad35)*%
X123746300Y-85084400D03*
%TO.P,U1,36,PB15_36*%
%TO.N,unconnected-(U1-PB15-Pad36)*%
X123746300Y-85584400D03*
%TO.P,U1,37,PC6_37*%
%TO.N,/MT_PWM*%
X123746300Y-86084400D03*
%TO.P,U1,38,PC7_38*%
%TO.N,unconnected-(U1-PC7-Pad38)*%
X123746300Y-86584400D03*
%TO.P,U1,39,PC8_39*%
%TO.N,unconnected-(U1-PC8-Pad39)*%
X123746300Y-87084400D03*
%TO.P,U1,40,I2C3_SDA_40*%
%TO.N,/MT_SDA*%
X123746300Y-87584400D03*
%TO.P,U1,41,I2C3_SCL_41*%
%TO.N,/MT_SCL*%
X123746300Y-88084400D03*
%TO.P,U1,42,USART1_TX_42*%
%TO.N,/ESP_RX*%
X123746300Y-88584400D03*
%TO.P,U1,43,USART1_RX_43*%
%TO.N,/ESP_TX*%
X123746300Y-89084400D03*
%TO.P,U1,44,USB_OTG_FS_DM_44*%
%TO.N,/ESD_D-*%
X123746300Y-89584400D03*
%TO.P,U1,45,USB_OTG_FS_DP_45*%
%TO.N,/ESD_D+*%
X123746300Y-90084400D03*
%TO.P,U1,46,SYS_JTMS-SWDIO_46*%
%TO.N,/SWDIO*%
X123746300Y-90584400D03*
%TO.P,U1,47,VSS_47*%
%TO.N,GND*%
X123746300Y-91084400D03*
%TO.P,U1,48,VDD_48*%
%TO.N,+3.3V*%
X123746300Y-91584400D03*
D50*
%TO.P,U1,49,SYS_JTCK-SWCLK_49*%
%TO.N,/SWCLK*%
X125671300Y-93509400D03*
%TO.P,U1,50,PA15_50*%
%TO.N,unconnected-(U1-PA15-Pad50)*%
X126171300Y-93509400D03*
%TO.P,U1,51,PC10_51*%
%TO.N,unconnected-(U1-PC10-Pad51)*%
X126671300Y-93509400D03*
%TO.P,U1,52,PC11_52*%
%TO.N,unconnected-(U1-PC11-Pad52)*%
X127171300Y-93509400D03*
%TO.P,U1,53,PC12_53*%
%TO.N,unconnected-(U1-PC12-Pad53)*%
X127671300Y-93509400D03*
%TO.P,U1,54,PD2_54*%
%TO.N,unconnected-(U1-PD2-Pad54)*%
X128171300Y-93509400D03*
%TO.P,U1,55,PB3_55*%
%TO.N,unconnected-(U1-PB3-Pad55)*%
X128671300Y-93509400D03*
%TO.P,U1,56,PB4_56*%
%TO.N,unconnected-(U1-PB4-Pad56)*%
X129171300Y-93509400D03*
%TO.P,U1,57,PB5_57*%
%TO.N,unconnected-(U1-PB5-Pad57)*%
X129671300Y-93509400D03*
%TO.P,U1,58,PB6_58*%
%TO.N,/ENC_B*%
X130171300Y-93509400D03*
%TO.P,U1,59,PB7_59*%
%TO.N,/ENC_A*%
X130671300Y-93509400D03*
%TO.P,U1,60,BOOT0_60*%
%TO.N,/BOOT0*%
X131171300Y-93509400D03*
%TO.P,U1,61,I2C1_SCL_61*%
%TO.N,/IMU_SCL*%
X131671300Y-93509400D03*
%TO.P,U1,62,I2C1_SDA_62*%
%TO.N,/IMU_SDA*%
X132171300Y-93509400D03*
%TO.P,U1,63,VSS_63*%
%TO.N,GND*%
X132671300Y-93509400D03*
%TO.P,U1,64,VDD_64*%
%TO.N,+3.3V*%
X133171300Y-93509400D03*
%TD*%
D35*
%TO.P,C3,1,~_1*%
%TO.N,+3.3V*%
X132915800Y-79883000D03*
%TO.P,C3,2,~_2*%
%TO.N,GND*%
X134990800Y-79883000D03*
%TD*%
D51*
%TO.P,D3,1,K_1*%
%TO.N,GND*%
X125114100Y-72678400D03*
%TO.P,D3,2,A_2*%
%TO.N,Net-(D3-A)*%
X125114100Y-70628400D03*
%TD*%
D52*
%TO.P,Y3,1,1_1*%
%TO.N,/OSCIN*%
X144493400Y-90839500D03*
%TO.P,Y3,2,2_2*%
%TO.N,GND*%
X144493400Y-88639500D03*
%TO.P,Y3,3,3_3*%
%TO.N,/OSCOUT*%
X142793400Y-88639500D03*
%TO.P,Y3,4,4_4*%
%TO.N,GND*%
X142793400Y-90839500D03*
%TD*%
D53*
%TO.P,C22,1,~_1*%
%TO.N,5V_REG*%
X141217700Y-63203000D03*
%TO.P,C22,2,~_2*%
%TO.N,GND*%
X141217700Y-65278000D03*
%TD*%
D13*
%TO.P,J7,1,Pin_1_1*%
%TO.N,/MD_BO1*%
X158794500Y-60731400D03*
D14*
%TO.P,J7,2,Pin_2_2*%
%TO.N,/MD_BO2*%
X161294500Y-60731400D03*
%TD*%
D54*
%TO.P,D5,1,K_1*%
%TO.N,GND*%
X125536900Y-59969400D03*
%TO.P,D5,2,A_2*%
%TO.N,Net-(D5-A)*%
X127586900Y-59969400D03*
%TD*%
D44*
%TO.P,R2,1,~_1*%
%TO.N,Net-(R2-~-Pad1)*%
X126146100Y-102184200D03*
%TO.P,R2,2,~_2*%
%TO.N,/BOOT0*%
X128146100Y-102184200D03*
%TD*%
D11*
%TO.P,J1,1,Pin_1_1*%
%TO.N,+3.3V*%
X103397100Y-106400600D03*
D12*
%TO.P,J1,2,Pin_2_2*%
%TO.N,/SWCLK*%
X103397100Y-103860600D03*
%TO.P,J1,3,Pin_3_3*%
%TO.N,GND*%
X103397100Y-101320600D03*
%TO.P,J1,4,Pin_4_4*%
%TO.N,/SWDIO*%
X103397100Y-98780600D03*
%TD*%
D38*
%TO.P,R10,1,~_1*%
%TO.N,Net-(D5-A)*%
X127450900Y-62195200D03*
%TO.P,R10,2,~_2*%
%TO.N,5V_REG*%
X127450900Y-64195200D03*
%TD*%
%TO.P,R6,1,~_1*%
%TO.N,Net-(D3-A)*%
X127374700Y-70628000D03*
%TO.P,R6,2,~_2*%
%TO.N,+3.3V*%
X127374700Y-72628000D03*
%TD*%
D54*
%TO.P,D4,1,K_1*%
%TO.N,GND*%
X121396700Y-75184000D03*
%TO.P,D4,2,A_2*%
%TO.N,Net-(D4-A)*%
X123446700Y-75184000D03*
%TD*%
D42*
%TO.P,S3,1*%
%TO.N,5V_REG*%
X147136034Y-67385209D03*
%TO.P,S3,2*%
%TO.N,+5V*%
X150136034Y-67385209D03*
%TO.P,S3,3*%
%TO.N,Vusb*%
X151636034Y-67385209D03*
D43*
%TO.P,S3,SH1*%
%TO.N,N/C*%
X145586034Y-68410209D03*
%TO.P,S3,SH2*%
X153186034Y-68410209D03*
%TO.P,S3,SH3*%
X145586034Y-70510209D03*
%TO.P,S3,SH4*%
X153186034Y-70510209D03*
%TD*%
D51*
%TO.P,D2,1,K_1*%
%TO.N,GND*%
X113328500Y-82178000D03*
%TO.P,D2,2,A_2*%
%TO.N,Net-(D2-A)*%
X113328500Y-80128000D03*
%TD*%
D53*
%TO.P,C14,1,~_1*%
%TO.N,+3.3V*%
X138906300Y-71885900D03*
%TO.P,C14,2,~_2*%
%TO.N,GND*%
X138906300Y-73960900D03*
%TD*%
D44*
%TO.P,R3,1,~_1*%
%TO.N,/CONN_D-*%
X118018100Y-88976200D03*
%TO.P,R3,2,~_2*%
%TO.N,/ESD_D-*%
X120018100Y-88976200D03*
%TD*%
D36*
%TO.P,C25,1,~_1*%
%TO.N,+3.3V*%
X123789400Y-81127600D03*
%TO.P,C25,2,~_2*%
%TO.N,GND*%
X121714400Y-81127600D03*
%TD*%
D34*
%TO.P,C17,1,~_1*%
%TO.N,VM*%
X141243100Y-60067100D03*
%TO.P,C17,2,~_2*%
%TO.N,GND*%
X141243100Y-57992100D03*
%TD*%
D36*
%TO.P,C26,1,~_1*%
%TO.N,GND*%
X150256200Y-92532200D03*
%TO.P,C26,2,~_2*%
%TO.N,+5V*%
X148181200Y-92532200D03*
%TD*%
D15*
%TO.P,J5,1,Pin_1_1*%
%TO.N,VM*%
X150499500Y-61442600D03*
D14*
%TO.P,J5,2,Pin_2_2*%
%TO.N,GND*%
X147999500Y-61442600D03*
%TD*%
D34*
%TO.P,C18,1,~_1*%
%TO.N,VM*%
X138804700Y-60041700D03*
%TO.P,C18,2,~_2*%
%TO.N,GND*%
X138804700Y-57966700D03*
%TD*%
D53*
%TO.P,C20,1,~_1*%
%TO.N,GND*%
X140372700Y-86392600D03*
%TO.P,C20,2,~_2*%
%TO.N,/OSCOUT*%
X140372700Y-88467600D03*
%TD*%
D35*
%TO.P,C6,1,~_1*%
%TO.N,VM*%
X155445600Y-83718400D03*
%TO.P,C6,2,~_2*%
%TO.N,GND*%
X157520600Y-83718400D03*
%TD*%
D13*
%TO.P,J6,1,Pin_1_1*%
%TO.N,/MD_AO1*%
X158916100Y-104961200D03*
D14*
%TO.P,J6,2,Pin_2_2*%
%TO.N,/MD_AO2*%
X161416100Y-104961200D03*
%TD*%
D53*
%TO.P,C23,1,~_1*%
%TO.N,5V_REG*%
X138855500Y-63275300D03*
%TO.P,C23,2,~_2*%
%TO.N,GND*%
X138855500Y-65350300D03*
%TD*%
D16*
%TO.P,J9,1,Pin_1_1*%
%TO.N,+3.3V*%
X113337043Y-65425082D03*
D17*
%TO.P,J9,2,Pin_2_2*%
%TO.N,GND*%
X115837043Y-65425082D03*
%TO.P,J9,3,Pin_3_3*%
%TO.N,/MT_PWM*%
X118337043Y-65425082D03*
%TO.P,J9,4,Pin_4_4*%
%TO.N,/MT_SCL*%
X120837043Y-65425082D03*
%TO.P,J9,5,Pin_5_5*%
%TO.N,/MT_SDA*%
X123337043Y-65425082D03*
%TD*%
D55*
%TO.P,J3,A1,GND_A1*%
%TO.N,GND*%
X107515900Y-86784400D03*
%TO.P,J3,A4,VBUS_A4*%
%TO.N,Net-(F1-~-Pad1)*%
X107515900Y-87584400D03*
D56*
%TO.P,J3,A5,CC1_A5*%
%TO.N,Net-(J3-CC1)*%
X107515900Y-88734400D03*
%TO.P,J3,A6,D+_A6*%
%TO.N,/USB_D+*%
X107515900Y-89734400D03*
%TO.P,J3,A7,D-_A7*%
%TO.N,/USB_D-*%
X107515900Y-90234400D03*
%TO.P,J3,A8*%
%TO.N,N/C*%
X107515900Y-91234400D03*
D55*
%TO.P,J3,A9,VBUS_A9*%
%TO.N,Net-(F1-~-Pad1)*%
X107515900Y-92384400D03*
%TO.P,J3,A12,GND_A12*%
%TO.N,GND*%
X107515900Y-93184400D03*
%TO.P,J3,B1,GND_B1*%
X107515900Y-93184400D03*
%TO.P,J3,B4,VBUS_B4*%
%TO.N,Net-(F1-~-Pad1)*%
X107515900Y-92384400D03*
D56*
%TO.P,J3,B5,CC2_B5*%
%TO.N,Net-(J3-CC2)*%
X107515900Y-91734400D03*
%TO.P,J3,B6,D+_B6*%
%TO.N,/USB_D+*%
X107515900Y-90734400D03*
%TO.P,J3,B7,D-_B7*%
%TO.N,/USB_D-*%
X107515900Y-89234400D03*
%TO.P,J3,B8*%
%TO.N,N/C*%
X107515900Y-88234400D03*
D55*
%TO.P,J3,B9,VBUS_B9*%
%TO.N,Net-(F1-~-Pad1)*%
X107515900Y-87584400D03*
%TO.P,J3,B12,GND_B12*%
%TO.N,GND*%
X107515900Y-86784400D03*
D18*
%TO.P,J3,SH,SHIELD_SH*%
X106875900Y-85664400D03*
D19*
X102695900Y-85664400D03*
D18*
X106875900Y-94304400D03*
D19*
X102695900Y-94304400D03*
%TD*%
D34*
%TO.P,C19,1,~_1*%
%TO.N,GND*%
X140372700Y-92404600D03*
%TO.P,C19,2,~_2*%
%TO.N,/OSCIN*%
X140372700Y-90329600D03*
%TD*%
D11*
%TO.P,J2,1,Pin_1_1*%
%TO.N,+5V*%
X134512100Y-107365800D03*
D12*
%TO.P,J2,2,Pin_2_2*%
%TO.N,GND*%
X137052100Y-107365800D03*
%TO.P,J2,3,Pin_3_3*%
%TO.N,/IMU_SCL*%
X139592100Y-107365800D03*
%TO.P,J2,4,Pin_4_4*%
%TO.N,/IMU_SDA*%
X142132100Y-107365800D03*
%TO.P,J2,5,Pin_5_5*%
%TO.N,unconnected-(J2-Pin_5-Pad5)*%
X144672100Y-107365800D03*
%TO.P,J2,6,Pin_6_6*%
%TO.N,unconnected-(J2-Pin_6-Pad6)*%
X147212100Y-107365800D03*
%TO.P,J2,7,Pin_7_7*%
%TO.N,unconnected-(J2-Pin_7-Pad7)*%
X149752100Y-107365800D03*
%TO.P,J2,8,Pin_8_8*%
%TO.N,/IMU_INT*%
X152292100Y-107365800D03*
%TD*%
D35*
%TO.P,C4,1,~_1*%
%TO.N,+3.3V*%
X133398400Y-95885000D03*
%TO.P,C4,2,~_2*%
%TO.N,GND*%
X135473400Y-95885000D03*
%TD*%
D53*
%TO.P,C1,1,~_1*%
%TO.N,+3.3V*%
X122456900Y-93127500D03*
%TO.P,C1,2,~_2*%
%TO.N,GND*%
X122456900Y-95202500D03*
%TD*%
D57*
%TO.P,C9,1*%
%TO.N,VM*%
X155977800Y-87079300D03*
%TO.P,C9,2*%
%TO.N,GND*%
X161092800Y-87079300D03*
%TD*%
D44*
%TO.P,R4,1,~_1*%
%TO.N,/CONN_D+*%
X118018100Y-91033600D03*
%TO.P,R4,2,~_2*%
%TO.N,/ESD_D+*%
X120018100Y-91033600D03*
%TD*%
D53*
%TO.P,C24,1,~_1*%
%TO.N,+3.3V*%
X137483900Y-85932100D03*
%TO.P,C24,2,~_2*%
%TO.N,GND*%
X137483900Y-88007100D03*
%TD*%
D58*
%TO.P,R7,1,~_1*%
%TO.N,GND*%
X112691600Y-87045800D03*
%TO.P,R7,2,~_2*%
%TO.N,Net-(J3-CC1)*%
X110866600Y-87045800D03*
%TD*%
D34*
%TO.P,C15,1,~_1*%
%TO.N,+5V*%
X141116100Y-69490500D03*
%TO.P,C15,2,~_2*%
%TO.N,GND*%
X141116100Y-67415500D03*
%TD*%
D20*
%TO.P,J8,1,Pin_1_1*%
%TO.N,+3.3V*%
X116770900Y-102266800D03*
D17*
%TO.P,J8,2,Pin_2_2*%
%TO.N,/ENC_A*%
X114270900Y-102266800D03*
%TO.P,J8,3,Pin_3_3*%
%TO.N,/ENC_B*%
X111770900Y-102266800D03*
%TO.P,J8,4,Pin_4_4*%
%TO.N,GND*%
X109270900Y-102266800D03*
%TD*%
D53*
%TO.P,C16,1,~_1*%
%TO.N,+3.3V*%
X141145900Y-72079300D03*
%TO.P,C16,2,~_2*%
%TO.N,GND*%
X141145900Y-74154300D03*
%TD*%
D59*
%TO.P,R17,1,~_1*%
%TO.N,+3.3V*%
X106505300Y-65659000D03*
%TO.P,R17,2,~_2*%
%TO.N,Net-(J4-Pin_5)*%
X104505300Y-65659000D03*
%TD*%
D35*
%TO.P,C21,1,~_1*%
%TO.N,/RESET*%
X139545200Y-99923600D03*
%TO.P,C21,2,~_2*%
%TO.N,GND*%
X141620200Y-99923600D03*
%TD*%
%TO.N,*%
D60*
X145586034Y-70510209D02*
X145586034Y-68410209D01*
D61*
X129205500Y-105419000D02*
X129205500Y-107519000D01*
D60*
X153186034Y-70510209D02*
X153186034Y-68410209D01*
D61*
X121605500Y-107519000D02*
X121605500Y-105419000D01*
%TO.N,GND*%
X156492100Y-77185559D02*
X158913641Y-79607100D01*
X138203700Y-106214200D02*
X152769109Y-106214200D01*
X124597500Y-92703318D02*
X131168018Y-86132800D01*
D60*
X132694300Y-94915200D02*
X132713536Y-94934436D01*
X135473400Y-95885000D02*
X135473400Y-94465908D01*
X102220100Y-100143600D02*
X103397100Y-101320600D01*
D61*
X135954372Y-86132800D02*
X136655972Y-86834400D01*
X145395000Y-96148800D02*
X141620200Y-99923600D01*
D60*
X107515900Y-86784400D02*
X107070900Y-86339400D01*
X141090700Y-67440900D02*
X141116100Y-67415500D01*
X123155500Y-104394000D02*
X123155500Y-95901100D01*
X158587000Y-84784800D02*
X157520600Y-83718400D01*
X161758500Y-83732800D02*
X161758500Y-86413600D01*
X161595900Y-80015700D02*
X161595900Y-79484100D01*
X149204200Y-91480200D02*
X145475628Y-91480200D01*
D61*
X147999500Y-61442600D02*
X156492100Y-69935200D01*
D60*
X136188900Y-74055000D02*
X136188900Y-78684900D01*
X141228300Y-92404600D02*
X142793400Y-90839500D01*
X113328500Y-82178000D02*
X120664000Y-82178000D01*
D62*
X106395900Y-85664400D02*
X107515900Y-86784400D01*
D61*
X158913641Y-79607100D02*
X161837300Y-79607100D01*
D60*
X160598000Y-84453728D02*
X160266928Y-84784800D01*
X126171300Y-82159400D02*
X126171300Y-89504992D01*
X135096300Y-86084400D02*
X134250708Y-86084400D01*
X139098400Y-86392600D02*
X137483900Y-88007100D01*
X132927708Y-92407400D02*
X132694300Y-92640808D01*
X145420400Y-89566500D02*
X144493400Y-88639500D01*
D61*
X136655972Y-86834400D02*
X142688500Y-86834400D01*
D60*
X145420400Y-91535428D02*
X145420400Y-89566500D01*
X126171300Y-89504992D02*
X124591892Y-91084400D01*
D61*
X131168018Y-86132800D02*
X135954372Y-86132800D01*
D60*
X150944900Y-85307000D02*
X150167900Y-86084000D01*
X138804700Y-57966700D02*
X141217700Y-57966700D01*
X133414892Y-92407400D02*
X132927708Y-92407400D01*
X142793400Y-90839500D02*
X143820400Y-91866500D01*
X102220100Y-94780200D02*
X102220100Y-100143600D01*
X123902300Y-72678400D02*
X125114100Y-72678400D01*
D61*
X153443700Y-106888791D02*
X153443700Y-107842809D01*
D60*
X109253700Y-102412800D02*
X104489300Y-102412800D01*
X104489300Y-102412800D02*
X103397100Y-101320600D01*
X121292725Y-59969400D02*
X125536900Y-59969400D01*
X105403700Y-76835000D02*
X106875900Y-78307200D01*
X150167900Y-86084000D02*
X150167900Y-92443900D01*
X107070900Y-86339400D02*
X107070900Y-85066800D01*
X140372700Y-86392600D02*
X139098400Y-86392600D01*
D61*
X127653255Y-108920600D02*
X124597500Y-105864844D01*
D60*
X136188900Y-78684900D02*
X134990800Y-79883000D01*
X132671300Y-84504992D02*
X132671300Y-82159400D01*
X121714400Y-75501700D02*
X121396700Y-75184000D01*
X160598000Y-82467801D02*
X160598000Y-84453728D01*
X143820400Y-91866500D02*
X145089328Y-91866500D01*
D61*
X152769109Y-106214200D02*
X153443700Y-106888791D01*
D60*
X136188900Y-74055000D02*
X141046600Y-74055000D01*
X115837043Y-65425082D02*
X121292725Y-59969400D01*
D61*
X124597500Y-105864844D02*
X124597500Y-92703318D01*
D60*
X102695900Y-94304400D02*
X102220100Y-94780200D01*
X155787299Y-77657100D02*
X160598000Y-82467801D01*
X106875900Y-78307200D02*
X106875900Y-85664400D01*
D61*
X137052100Y-107365800D02*
X138203700Y-106214200D01*
D60*
X107515900Y-93184400D02*
X107515900Y-93664400D01*
X141795800Y-57966700D02*
X142020900Y-58191800D01*
X161837300Y-75707100D02*
X161837300Y-76357100D01*
X145089328Y-91866500D02*
X145420400Y-91535428D01*
X107515900Y-93664400D02*
X106875900Y-94304400D01*
X142341100Y-91291800D02*
X141995900Y-91291800D01*
D61*
X142688500Y-86834400D02*
X145395000Y-89540900D01*
D60*
X161758500Y-86413600D02*
X161092800Y-87079300D01*
X134250708Y-86084400D02*
X132671300Y-84504992D01*
X150256200Y-92532200D02*
X149204200Y-91480200D01*
X123155500Y-95901100D02*
X122456900Y-95202500D01*
X121396700Y-75184000D02*
X123902300Y-72678400D01*
X154837300Y-77657100D02*
X155787299Y-77657100D01*
X160266928Y-84784800D02*
X158587000Y-84784800D01*
X132694300Y-92640808D02*
X132694300Y-94915200D01*
X135473400Y-94465908D02*
X133414892Y-92407400D01*
D62*
X102695900Y-85664400D02*
X106395900Y-85664400D01*
D60*
X141046600Y-74055000D02*
X141145900Y-74154300D01*
X145475628Y-91480200D02*
X145242464Y-91713364D01*
D61*
X152365909Y-108920600D02*
X127653255Y-108920600D01*
D60*
X140372700Y-92404600D02*
X141228300Y-92404600D01*
X124591892Y-91084400D02*
X123746300Y-91084400D01*
X120664000Y-82178000D02*
X121714400Y-81127600D01*
X102695900Y-94304400D02*
X106875900Y-94304400D01*
X138855500Y-67440900D02*
X141090700Y-67440900D01*
D61*
X153443700Y-107842809D02*
X152365909Y-108920600D01*
D60*
X141217700Y-57966700D02*
X141243100Y-57992100D01*
D61*
X156492100Y-69935200D02*
X156492100Y-77185559D01*
D60*
X121714400Y-78917800D02*
X121714400Y-75501700D01*
X150167900Y-92443900D02*
X150256200Y-92532200D01*
D61*
X145395000Y-89540900D02*
X145395000Y-96148800D01*
%TO.N,+3.3V*%
D60*
X154837300Y-78957100D02*
X149061200Y-78957100D01*
X132171300Y-80627500D02*
X132171300Y-82159400D01*
X159683500Y-82896660D02*
X155866940Y-79080100D01*
X124821200Y-82159400D02*
X123789400Y-81127600D01*
X126277100Y-71530400D02*
X119442361Y-71530400D01*
X106505300Y-67776600D02*
X107943700Y-69215000D01*
X107943700Y-74295000D02*
X107943700Y-69215000D01*
X141220900Y-71616800D02*
X131295900Y-71616800D01*
X141470900Y-71366800D02*
X141220900Y-71616800D01*
X123746300Y-91838100D02*
X122456900Y-93127500D01*
X116753700Y-98830700D02*
X122456900Y-93127500D01*
X159683500Y-83732800D02*
X159683500Y-82896660D01*
X125671300Y-82159400D02*
X124821200Y-82159400D01*
X133171300Y-93509400D02*
X133171300Y-95657900D01*
X132915800Y-79883000D02*
X132171300Y-80627500D01*
X112765900Y-106400600D02*
X116753700Y-102412800D01*
D61*
X137136200Y-85584400D02*
X137483900Y-85932100D01*
D60*
X149061200Y-78957100D02*
X141470900Y-71366800D01*
X107943700Y-69215000D02*
X111733618Y-65425082D01*
X119442361Y-71530400D02*
X113337043Y-65425082D01*
X133171300Y-95657900D02*
X133398400Y-95885000D01*
X123789400Y-78917800D02*
X123789400Y-81127600D01*
X127655500Y-104394000D02*
X133398400Y-98651100D01*
X155866940Y-79080100D02*
X154670900Y-79080100D01*
X103397100Y-106400600D02*
X112765900Y-106400600D01*
X127374700Y-72628000D02*
X126277100Y-71530400D01*
X123746300Y-91584400D02*
X123746300Y-91838100D01*
X111733618Y-65425082D02*
X113337043Y-65425082D01*
X106505300Y-65659000D02*
X106505300Y-67776600D01*
X116753700Y-102412800D02*
X116753700Y-98830700D01*
X116770900Y-102266800D02*
X113020900Y-106016800D01*
X133398400Y-98651100D02*
X133398400Y-95885000D01*
X113020900Y-106016800D02*
X101620900Y-106016800D01*
D61*
X135096300Y-85584400D02*
X137136200Y-85584400D01*
%TO.N,Net-(F1-~-Pad1)*%
D60*
X106538900Y-91977992D02*
X106538900Y-87990808D01*
X107515900Y-92384400D02*
X106945308Y-92384400D01*
X106945308Y-87584400D02*
X107515900Y-87584400D01*
X106538900Y-87990808D02*
X106945308Y-87584400D01*
X106945308Y-92384400D02*
X106538900Y-91977992D01*
%TO.N,/USB_D+*%
X110840200Y-90734400D02*
X111048000Y-90942200D01*
X108236492Y-89734400D02*
X109444292Y-90942200D01*
X107515900Y-90734400D02*
X110840200Y-90734400D01*
X107515900Y-89734400D02*
X108236492Y-89734400D01*
X109444292Y-90942200D02*
X111048000Y-90942200D01*
%TO.N,/CONN_D+*%
X113845900Y-90619200D02*
X113646000Y-90619200D01*
X118018100Y-91033600D02*
X114260300Y-91033600D01*
X114260300Y-91033600D02*
X113845900Y-90619200D01*
X113646000Y-90619200D02*
X113323000Y-90942200D01*
%TO.N,/CONN_D-*%
X113389000Y-88976200D02*
X113323000Y-89042200D01*
X118018100Y-88976200D02*
X113389000Y-88976200D01*
%TO.N,5V_REG*%
X128443100Y-63203000D02*
X141217700Y-63203000D01*
X127450900Y-64195200D02*
X128443100Y-63203000D01*
%TO.N,VM*%
D61*
X155445600Y-82165400D02*
X154837300Y-81557100D01*
X155445600Y-83718400D02*
X155445600Y-82165400D01*
X154837300Y-75057100D02*
X154837300Y-74407100D01*
D62*
X149109000Y-60052100D02*
X136727200Y-60052100D01*
X136727200Y-60052100D02*
X136163500Y-60615800D01*
X150499500Y-61442600D02*
X149109000Y-60052100D01*
%TO.N,+5V*%
D61*
X151469600Y-84255400D02*
X150272800Y-84255400D01*
X150829108Y-93558800D02*
X151696500Y-92691408D01*
X147644900Y-86883300D02*
X147644900Y-90207000D01*
X151696500Y-92691408D02*
X151696500Y-84482300D01*
X148181200Y-92532200D02*
X149207800Y-93558800D01*
X151696500Y-84482300D02*
X151469600Y-84255400D01*
X150272800Y-84255400D02*
X147644900Y-86883300D01*
X149207800Y-93558800D02*
X150829108Y-93558800D01*
%TO.N,Net-(J4-Pin_5)*%
D60*
X104226700Y-65937600D02*
X104226700Y-70578000D01*
X104505300Y-65659000D02*
X104226700Y-65937600D01*
X104226700Y-70578000D02*
X105403700Y-71755000D01*
%TO.N,Net-(J3-CC2)*%
X108194636Y-91734400D02*
X109475036Y-93014800D01*
X109475036Y-93014800D02*
X110866600Y-93014800D01*
X107515900Y-91734400D02*
X108194636Y-91734400D01*
%TO.N,/MD_AO1*%
D61*
X158916100Y-104961200D02*
X163050800Y-100826500D01*
X163050800Y-82120600D02*
X161837300Y-80907100D01*
X163050800Y-100826500D02*
X163050800Y-82120600D01*
%TO.N,/MD_AO2*%
X161416100Y-104961200D02*
X163454000Y-102923300D01*
X163454000Y-78774900D02*
X162986200Y-78307100D01*
X162986200Y-78307100D02*
X161837300Y-78307100D01*
X163454000Y-102923300D02*
X163454000Y-78774900D01*
%TO.N,/MD_BO2*%
D60*
X162052600Y-77441800D02*
X161837300Y-77657100D01*
X163114300Y-76698400D02*
X162370900Y-77441800D01*
X161294500Y-60731400D02*
X163114300Y-62551200D01*
X163114300Y-62551200D02*
X163114300Y-76698400D01*
X162370900Y-77441800D02*
X162052600Y-77441800D01*
%TO.N,/MD_BO1*%
X161837300Y-75057100D02*
X161837300Y-74407100D01*
X158794500Y-60731400D02*
X158794500Y-71364300D01*
X158794500Y-71364300D02*
X161837300Y-74407100D01*
%TO.N,/WS_DIN*%
X147194900Y-84857000D02*
X136544700Y-84857000D01*
X147644900Y-85307000D02*
X147194900Y-84857000D01*
X136544700Y-84857000D02*
X136317300Y-85084400D01*
X136317300Y-85084400D02*
X135096300Y-85084400D01*
%TO.N,/IMU_INT*%
D61*
X125000700Y-105697834D02*
X125000700Y-92870328D01*
X151140500Y-108517400D02*
X127820266Y-108517400D01*
X127820266Y-108517400D02*
X125000700Y-105697834D01*
X125000700Y-92870328D02*
X126738228Y-91132800D01*
X152292100Y-107365800D02*
X151140500Y-108517400D01*
X126738228Y-91132800D02*
X135395900Y-91132800D01*
%TO.N,/OSCIN*%
X135096300Y-89584400D02*
X138138500Y-89584400D01*
X138138500Y-89584400D02*
X138883700Y-90329600D01*
X138883700Y-90329600D02*
X140372700Y-90329600D01*
X144493400Y-90514300D02*
X143720900Y-89741800D01*
X140960500Y-89741800D02*
X140372700Y-90329600D01*
X143720900Y-89741800D02*
X140960500Y-89741800D01*
X144493400Y-90839500D02*
X144493400Y-90514300D01*
%TO.N,/OSCOUT*%
X139320100Y-88467600D02*
X140372700Y-88467600D01*
X142621500Y-88467600D02*
X142793400Y-88639500D01*
X135096300Y-89084400D02*
X138703300Y-89084400D01*
X140372700Y-88467600D02*
X142621500Y-88467600D01*
X138703300Y-89084400D02*
X139320100Y-88467600D01*
%TO.N,/MT_PWM*%
D60*
X111512100Y-75658000D02*
X112301500Y-76447400D01*
X107642170Y-75658000D02*
X111512100Y-75658000D01*
X123098300Y-86084400D02*
X123098300Y-86061400D01*
X112301500Y-76447400D02*
X112301500Y-82748928D01*
X106766700Y-68680053D02*
X106766700Y-74782530D01*
X114514043Y-65960030D02*
X114514043Y-64454154D01*
X123746300Y-86084400D02*
X123098300Y-86084400D01*
X105578300Y-64963072D02*
X105578300Y-67491653D01*
X112301500Y-82748928D02*
X115636972Y-86084400D01*
X105578300Y-67491653D02*
X106766700Y-68680053D01*
X115636972Y-86084400D02*
X122190300Y-86084400D01*
X118337043Y-69783030D02*
X114514043Y-65960030D01*
X114514043Y-64454154D02*
X114182971Y-64123082D01*
X118337043Y-65425082D02*
X118337043Y-69783030D01*
X106766700Y-74782530D02*
X107642170Y-75658000D01*
X106418290Y-64123082D02*
X105578300Y-64963072D01*
X114182971Y-64123082D02*
X106418290Y-64123082D01*
%TO.N,/MT_SCL*%
X127443228Y-74182400D02*
X124813572Y-74182400D01*
X120837043Y-65425082D02*
X125112961Y-69701000D01*
X128401700Y-70032072D02*
X128401700Y-73223928D01*
X122644300Y-87840200D02*
X122911500Y-88107400D01*
X124482500Y-74513472D02*
X124482500Y-76589272D01*
X122644300Y-78427472D02*
X122644300Y-87840200D01*
X125112961Y-69701000D02*
X128070628Y-69701000D01*
X124813572Y-74182400D02*
X124482500Y-74513472D01*
X122911500Y-88107400D02*
X123570900Y-88107400D01*
X128070628Y-69701000D02*
X128401700Y-70032072D01*
X124482500Y-76589272D02*
X122644300Y-78427472D01*
X128401700Y-73223928D02*
X127443228Y-74182400D01*
%TO.N,/ESD_D-*%
X120649300Y-89607400D02*
X123261500Y-89607400D01*
X120018100Y-88976200D02*
X120649300Y-89607400D01*
%TO.N,/ESD_D+*%
X120990300Y-90061400D02*
X123376300Y-90061400D01*
X120018100Y-91033600D02*
X120990300Y-90061400D01*
%TO.N,/SWCLK*%
D61*
X101572500Y-65621873D02*
X105738473Y-61455900D01*
X125403900Y-105320600D02*
X125403900Y-103467400D01*
X156088900Y-77352569D02*
X161442531Y-82706200D01*
X127244500Y-102869608D02*
X127244500Y-95892272D01*
X105738473Y-61455900D02*
X117147655Y-61455900D01*
X119722355Y-58881200D02*
X132275242Y-58881200D01*
X153484986Y-71534068D02*
X156088900Y-74137982D01*
X117147655Y-61455900D02*
X119722355Y-58881200D01*
X126646708Y-103467400D02*
X127244500Y-102869608D01*
X162647600Y-88129008D02*
X146528076Y-104248532D01*
X125719700Y-94367472D02*
X125719700Y-93557800D01*
D60*
X103397100Y-103860600D02*
X104202100Y-103860600D01*
D61*
X156088900Y-74137982D02*
X156088900Y-77352569D01*
D60*
X104202100Y-103860600D02*
X104595900Y-103466800D01*
D61*
X135258242Y-61864200D02*
X141478408Y-61864200D01*
X101572500Y-102036000D02*
X101572500Y-65621873D01*
X127244500Y-95892272D02*
X125719700Y-94367472D01*
X125719700Y-93557800D02*
X125671300Y-93509400D01*
X142244300Y-62630092D02*
X142244300Y-71534068D01*
X132275242Y-58881200D02*
X135258242Y-61864200D01*
X128407100Y-105320600D02*
X125403900Y-105320600D01*
X128407100Y-104248532D02*
X128407100Y-105320600D01*
X142244300Y-71534068D02*
X153484986Y-71534068D01*
X162647600Y-83022392D02*
X162647600Y-88129008D01*
X161442531Y-82706200D02*
X162331408Y-82706200D01*
X162331408Y-82706200D02*
X162647600Y-83022392D01*
X141478408Y-61864200D02*
X142244300Y-62630092D01*
X146528076Y-104248532D02*
X128407100Y-104248532D01*
X103397100Y-103860600D02*
X101572500Y-102036000D01*
X125403900Y-103467400D02*
X126646708Y-103467400D01*
%TO.N,Net-(D5-A)*%
D60*
X127586900Y-59969400D02*
X127586900Y-62059200D01*
X127586900Y-62059200D02*
X127450900Y-62195200D01*
%TD*%
%TA.AperFunction,Conductor*%
%TO.N,VM*%
G36*
X152717739Y-58407485D02*
G01*
X152763494Y-58460289D01*
X152774700Y-58511800D01*
X152774700Y-62766400D01*
X152755015Y-62833439D01*
X152702211Y-62879194D01*
X152650700Y-62890400D01*
X150350160Y-62890400D01*
X150283121Y-62870715D01*
X150262479Y-62854081D01*
X149500666Y-62092268D01*
X149467181Y-62030945D01*
X149464354Y-62005769D01*
X149447300Y-60198000D01*
X149142500Y-59969400D01*
X149142501Y-59969400D01*
X148207032Y-59956842D01*
X148189300Y-59955326D01*
X148105792Y-59942100D01*
X148105787Y-59942100D01*
X147893213Y-59942100D01*
X147879332Y-59944298D01*
X147842385Y-59950150D01*
X147821324Y-59951665D01*
X145357900Y-59918599D01*
X142363284Y-61554314D01*
X142348661Y-61558020D01*
X142338363Y-61564588D01*
X142303411Y-61569489D01*
X142085369Y-61568731D01*
X142018398Y-61548814D01*
X141998119Y-61532413D01*
X141848105Y-61382399D01*
X141831592Y-61372866D01*
X141815080Y-61363332D01*
X141710816Y-61303135D01*
X141710811Y-61303133D01*
X141659765Y-61289455D01*
X141557676Y-61262100D01*
X141557674Y-61262100D01*
X135559002Y-61262100D01*
X135491963Y-61242415D01*
X135471321Y-61225781D01*
X135046768Y-60801228D01*
X135013283Y-60739905D01*
X135010458Y-60714998D01*
X134996159Y-59485242D01*
X135015063Y-59417978D01*
X135067332Y-59371612D01*
X135120151Y-59359800D01*
X142462300Y-59359800D01*
X144187663Y-58403349D01*
X144247783Y-58387800D01*
X152650700Y-58387800D01*
X152717739Y-58407485D01*
G37*
%TD.AperFunction*%
%TD*%
%TA.AperFunction,Conductor*%
%TO.N,GND*%
G36*
X142334008Y-73121454D02*
G01*
X142354982Y-73138301D01*
X142479892Y-73263211D01*
X142513377Y-73324534D01*
X142516201Y-73349342D01*
X142536915Y-75006463D01*
X142518070Y-75073743D01*
X142465842Y-75120155D01*
X142411759Y-75132008D01*
X134558734Y-75058155D01*
X134491883Y-75037840D01*
X134446626Y-74984608D01*
X134435900Y-74934160D01*
X134435900Y-73279562D01*
X134444544Y-73250122D01*
X134451067Y-73220137D01*
X134454822Y-73215119D01*
X134455585Y-73212523D01*
X134472212Y-73191887D01*
X134501346Y-73162753D01*
X134562665Y-73129270D01*
X134588628Y-73126437D01*
X140350694Y-73108086D01*
X140390087Y-73114378D01*
X140518103Y-73156799D01*
X140620891Y-73167300D01*
X141670908Y-73167299D01*
X141670916Y-73167298D01*
X141670919Y-73167298D01*
X141727202Y-73161548D01*
X141773697Y-73156799D01*
X141917143Y-73109265D01*
X141955737Y-73102975D01*
X142266909Y-73101984D01*
X142334008Y-73121454D01*
G37*
%TD.AperFunction*%
%TD*%
%TA.AperFunction,Conductor*%
%TO.N,5V_REG*%
G36*
X131399821Y-60810263D02*
G01*
X131424559Y-60815474D01*
X131449021Y-60823348D01*
X133775498Y-61849000D01*
X133782109Y-61849040D01*
X133782113Y-61849042D01*
X133782114Y-61849041D01*
X134326658Y-61852423D01*
X134361559Y-61857663D01*
X134386881Y-61865269D01*
X134438890Y-61896346D01*
X134776442Y-62233898D01*
X134888544Y-62346000D01*
X135025840Y-62425267D01*
X135178974Y-62466300D01*
X135178976Y-62466300D01*
X137713253Y-62466300D01*
X137748188Y-62471323D01*
X137763186Y-62475727D01*
X137821919Y-62513451D01*
X137821962Y-62513500D01*
X137821964Y-62513502D01*
X137821964Y-62513503D01*
X137822809Y-62514477D01*
X137850483Y-62570200D01*
X137852236Y-62578532D01*
X137854881Y-62605761D01*
X137841408Y-63589252D01*
X137835908Y-63624115D01*
X137831299Y-63639052D01*
X137792730Y-63697301D01*
X137790839Y-63698895D01*
X137736831Y-63725348D01*
X137730382Y-63726726D01*
X137705266Y-63729460D01*
X133877570Y-63753996D01*
X133877104Y-63753997D01*
X133877099Y-63753999D01*
X132019027Y-65091811D01*
X131987745Y-65108146D01*
X131958146Y-65118565D01*
X131916974Y-65125600D01*
X128735003Y-65125600D01*
X128700062Y-65120575D01*
X128685063Y-65116170D01*
X128626303Y-65078411D01*
X128624989Y-65076895D01*
X128597604Y-65022403D01*
X128596009Y-65015176D01*
X128593097Y-64989186D01*
X128592387Y-64868428D01*
X128580867Y-62910190D01*
X128582391Y-62890074D01*
X128585514Y-62870351D01*
X128590277Y-62850759D01*
X128640899Y-62697997D01*
X128651400Y-62595209D01*
X128651399Y-61795192D01*
X128640899Y-61692403D01*
X128585714Y-61525866D01*
X128585711Y-61525862D01*
X128584905Y-61523429D01*
X128581636Y-61511642D01*
X128575335Y-61483612D01*
X128572320Y-61457155D01*
X128569338Y-60950149D01*
X128574154Y-60915200D01*
X128578472Y-60900166D01*
X128615894Y-60841174D01*
X128617128Y-60840092D01*
X128672161Y-60812248D01*
X128680054Y-60810507D01*
X128706745Y-60807600D01*
X131374262Y-60807600D01*
X131399821Y-60810263D01*
G37*
%TD.AperFunction*%
%TD*%
%TA.AperFunction,Conductor*%
%TO.N,+3.3V*%
G36*
X130970888Y-69470703D02*
G01*
X130990975Y-69474069D01*
X131010893Y-69479134D01*
X134638314Y-70729970D01*
X134684101Y-70745829D01*
X134696248Y-70754483D01*
X134710556Y-70758685D01*
X134723787Y-70768487D01*
X134760370Y-70799557D01*
X134780331Y-70816510D01*
X134911794Y-70874982D01*
X134979025Y-70894002D01*
X134979026Y-70894002D01*
X134979053Y-70894005D01*
X134986625Y-70895056D01*
X134987201Y-70895095D01*
X134995147Y-70896157D01*
X135121638Y-70913067D01*
X137561875Y-70888905D01*
X137629103Y-70907925D01*
X137675379Y-70960273D01*
X137687100Y-71012899D01*
X137687100Y-72487460D01*
X137667415Y-72554499D01*
X137614611Y-72600254D01*
X137563495Y-72611459D01*
X134587036Y-72620939D01*
X134586986Y-72620941D01*
X134533798Y-72623919D01*
X134533786Y-72623920D01*
X134507863Y-72626749D01*
X134507847Y-72626751D01*
X134507840Y-72626752D01*
X134507832Y-72626753D01*
X134477514Y-72631690D01*
X134455209Y-72635323D01*
X134320403Y-72685604D01*
X134320402Y-72685604D01*
X134259081Y-72719088D01*
X134259070Y-72719096D01*
X134143914Y-72805302D01*
X134143893Y-72805320D01*
X134114777Y-72834436D01*
X134078589Y-72874726D01*
X134078570Y-72874748D01*
X134061960Y-72895363D01*
X134030403Y-72939117D01*
X134029394Y-72941326D01*
X134029152Y-72941852D01*
X134025560Y-72949612D01*
X134007402Y-72977874D01*
X133986305Y-73034433D01*
X133984309Y-73038747D01*
X133964292Y-73061613D01*
X133946082Y-73085937D01*
X133939713Y-73089691D01*
X133938288Y-73091320D01*
X133935673Y-73092073D01*
X133922661Y-73099745D01*
X132261750Y-73847156D01*
X132237317Y-73855224D01*
X132212581Y-73860625D01*
X132187008Y-73863476D01*
X128944515Y-73886473D01*
X128930047Y-73882336D01*
X128919605Y-73882010D01*
X128919463Y-73883103D01*
X128914561Y-73882465D01*
X128913067Y-73881806D01*
X128909544Y-73881697D01*
X128901375Y-73879361D01*
X128902062Y-73876957D01*
X128885096Y-73869482D01*
X128877338Y-73867264D01*
X128872478Y-73863922D01*
X128850623Y-73854293D01*
X128812066Y-73796025D01*
X128811131Y-73726162D01*
X128824818Y-73696681D01*
X128824190Y-73696333D01*
X128825030Y-73694817D01*
X128826734Y-73692554D01*
X128828022Y-73689782D01*
X128830110Y-73686711D01*
X128830789Y-73687172D01*
X128845521Y-73667619D01*
X128845635Y-73667411D01*
X128845709Y-73667369D01*
X128845813Y-73667233D01*
X128889111Y-73623936D01*
X128922884Y-73573391D01*
X128957783Y-73521161D01*
X129005085Y-73406963D01*
X129029200Y-73285731D01*
X129029200Y-69970269D01*
X129024947Y-69948889D01*
X129005086Y-69849038D01*
X128957957Y-69735261D01*
X128957870Y-69734980D01*
X128957852Y-69734941D01*
X128957851Y-69734939D01*
X128918942Y-69676708D01*
X128903712Y-69644872D01*
X128899643Y-69631875D01*
X128898399Y-69562016D01*
X128935121Y-69502575D01*
X128990549Y-69473899D01*
X128994093Y-69473095D01*
X128998606Y-69472072D01*
X129026034Y-69469000D01*
X130950407Y-69469000D01*
X130970888Y-69470703D01*
G37*
%TD.AperFunction*%
%TD*%
%TA.AperFunction,Conductor*%
%TO.N,+5V*%
G36*
X140485449Y-68492053D02*
G01*
X140488303Y-68492999D01*
X140591091Y-68503500D01*
X141518200Y-68503499D01*
X141585239Y-68523183D01*
X141630994Y-68575987D01*
X141642200Y-68627499D01*
X141642200Y-70220204D01*
X141622515Y-70287243D01*
X141569711Y-70332998D01*
X141519428Y-70344198D01*
X135116633Y-70407592D01*
X135049402Y-70388572D01*
X135003126Y-70336224D01*
X134991449Y-70286904D01*
X134947283Y-68630685D01*
X134965174Y-68563147D01*
X135016739Y-68516001D01*
X135070828Y-68503383D01*
X138131690Y-68493348D01*
X138171090Y-68499639D01*
X138227703Y-68518399D01*
X138330491Y-68528900D01*
X139380508Y-68528899D01*
X139380516Y-68528898D01*
X139380519Y-68528898D01*
X139404396Y-68526458D01*
X139483297Y-68518399D01*
X139554365Y-68494849D01*
X139592956Y-68488557D01*
X140446042Y-68485760D01*
X140485449Y-68492053D01*
G37*
%TD.AperFunction*%
%TD*%
%TA.AperFunction,Conductor*%
%TO.N,GND*%
G36*
X140286649Y-64157705D02*
G01*
X140319135Y-64166747D01*
X140350981Y-64180667D01*
X140423359Y-64225310D01*
X140423360Y-64225310D01*
X140423366Y-64225314D01*
X140589903Y-64280499D01*
X140692691Y-64291000D01*
X141500374Y-64290999D01*
X141535306Y-64296021D01*
X141550303Y-64300425D01*
X141609055Y-64338170D01*
X141610242Y-64339539D01*
X141637719Y-64394403D01*
X141639364Y-64401962D01*
X141642200Y-64428330D01*
X141642200Y-67873999D01*
X141622515Y-67941038D01*
X141569711Y-67986793D01*
X141518200Y-67997999D01*
X140623166Y-67997999D01*
X140610565Y-67997357D01*
X140596654Y-67995936D01*
X140565901Y-67992794D01*
X140558953Y-67991885D01*
X140525764Y-67986585D01*
X140525753Y-67986584D01*
X140444404Y-67980263D01*
X140444366Y-67980262D01*
X139591315Y-67983059D01*
X139591301Y-67983059D01*
X139591299Y-67983060D01*
X139591287Y-67983061D01*
X139511619Y-67989644D01*
X139511609Y-67989645D01*
X139473024Y-67995936D01*
X139473011Y-67995939D01*
X139395365Y-68015006D01*
X139389723Y-68016875D01*
X139363396Y-68022514D01*
X139361076Y-68022752D01*
X139348422Y-68023399D01*
X138362564Y-68023399D01*
X138349964Y-68022757D01*
X138345147Y-68022265D01*
X138328374Y-68019378D01*
X138250790Y-68000461D01*
X138250782Y-68000459D01*
X138211393Y-67994170D01*
X138130034Y-67987851D01*
X138130013Y-67987850D01*
X135069174Y-67997885D01*
X135069164Y-67997886D01*
X134955996Y-68011099D01*
X134955987Y-68011101D01*
X134907064Y-68022514D01*
X134901894Y-68023720D01*
X134862206Y-68037854D01*
X134821003Y-68045039D01*
X134475707Y-68046144D01*
X134475707Y-68046145D01*
X134475706Y-68046144D01*
X134475704Y-68046145D01*
X134440756Y-68041235D01*
X134425742Y-68036879D01*
X134366850Y-67999303D01*
X134365586Y-67997854D01*
X134337995Y-67943298D01*
X134336356Y-67935939D01*
X134333393Y-67909803D01*
X134333325Y-67899574D01*
X134310022Y-64380759D01*
X134329262Y-64313593D01*
X134381762Y-64267489D01*
X134433220Y-64255943D01*
X137708506Y-64234950D01*
X137759969Y-64231991D01*
X137785085Y-64229257D01*
X137836011Y-64221067D01*
X137842460Y-64219689D01*
X137846053Y-64218445D01*
X137915844Y-64215129D01*
X137951691Y-64230089D01*
X138061166Y-64297614D01*
X138227703Y-64352799D01*
X138330491Y-64363300D01*
X139380508Y-64363299D01*
X139380516Y-64363298D01*
X139380519Y-64363298D01*
X139380527Y-64363297D01*
X139380817Y-64363279D01*
X139381833Y-64363163D01*
X139426959Y-64358553D01*
X139436803Y-64357548D01*
X139436803Y-64357547D01*
X139483297Y-64352799D01*
X139649834Y-64297614D01*
X139799156Y-64205512D01*
X139799161Y-64205506D01*
X139804819Y-64201034D01*
X139804942Y-64201189D01*
X139827369Y-64184399D01*
X139834203Y-64180667D01*
X139850643Y-64171688D01*
X139908862Y-64156523D01*
X140252193Y-64153171D01*
X140286649Y-64157705D01*
G37*
%TD.AperFunction*%
%TD*%
D63*
%TO.C,C7*%
X126257100Y-79802900D03*
X126257100Y-77727900D03*
%TD*%
D64*
%TO.C,C8*%
X159683500Y-83732800D03*
X161758500Y-83732800D03*
%TD*%
D65*
%TO.C,C2*%
X123789400Y-78917800D03*
X121714400Y-78917800D03*
%TD*%
D66*
%TO.C,F1*%
X104714000Y-82169000D03*
X108989000Y-82169000D03*
%TD*%
D67*
%TO.C,R1*%
X111118700Y-80153000D03*
X111118700Y-82153000D03*
%TD*%
D68*
%TO.C,U5*%
X111048000Y-89042200D03*
X111048000Y-89992200D03*
X111048000Y-90942200D03*
X113323000Y-90942200D03*
X113323000Y-89992200D03*
X113323000Y-89042200D03*
%TD*%
D69*
%TO.C,U3*%
X136163500Y-65215800D03*
X136163500Y-62915800D03*
D70*
X129863500Y-62915800D03*
D69*
X136163500Y-60615800D03*
%TD*%
D21*
%TO.C,S4*%
X123905500Y-106469000D03*
X126905500Y-106469000D03*
D71*
X123155500Y-104394000D03*
X126155500Y-104394000D03*
X127655500Y-104394000D03*
D72*
X121605500Y-105419000D03*
X129205500Y-105419000D03*
X121605500Y-107519000D03*
X129205500Y-107519000D03*
%TD*%
D69*
%TO.C,U6*%
X136188900Y-74055000D03*
X136188900Y-71755000D03*
D70*
X129888900Y-71755000D03*
D69*
X136188900Y-69455000D03*
%TD*%
D73*
%TO.C,R9*%
X125409500Y-75209400D03*
X127409500Y-75209400D03*
%TD*%
D22*
%TO.C,J4*%
X105403700Y-76835000D03*
D23*
X107943700Y-76835000D03*
X105403700Y-74295000D03*
X107943700Y-74295000D03*
X105403700Y-71755000D03*
X107943700Y-71755000D03*
X105403700Y-69215000D03*
X107943700Y-69215000D03*
%TD*%
D74*
%TO.C,R8*%
X110866600Y-93014800D03*
X112691600Y-93014800D03*
%TD*%
D75*
%TO.C,U2*%
X161837300Y-81557100D03*
X161837300Y-80907100D03*
X161837300Y-80257100D03*
X161837300Y-79607100D03*
X161837300Y-78957100D03*
X161837300Y-78307100D03*
X161837300Y-77657100D03*
X161837300Y-77007100D03*
X161837300Y-76357100D03*
X161837300Y-75707100D03*
X161837300Y-75057100D03*
X161837300Y-74407100D03*
X154837300Y-74407100D03*
X154837300Y-75057100D03*
X154837300Y-75707100D03*
X154837300Y-76357100D03*
X154837300Y-77007100D03*
X154837300Y-77657100D03*
X154837300Y-78307100D03*
X154837300Y-78957100D03*
X154837300Y-79607100D03*
X154837300Y-80257100D03*
X154837300Y-80907100D03*
X154837300Y-81557100D03*
%TD*%
D76*
%TO.C,D1*%
X147644900Y-90207000D03*
X150944900Y-90207000D03*
X150944900Y-85307000D03*
X147644900Y-85307000D03*
%TD*%
D63*
%TO.C,C13*%
X138855500Y-69515900D03*
X138855500Y-67440900D03*
%TD*%
D77*
%TO.C,SW2*%
X146294900Y-96672400D03*
X139594900Y-96672400D03*
%TD*%
D78*
%TO.C,U1*%
X135096300Y-91584400D03*
X135096300Y-91084400D03*
X135096300Y-90584400D03*
X135096300Y-90084400D03*
X135096300Y-89584400D03*
X135096300Y-89084400D03*
X135096300Y-88584400D03*
X135096300Y-88084400D03*
X135096300Y-87584400D03*
X135096300Y-87084400D03*
X135096300Y-86584400D03*
X135096300Y-86084400D03*
X135096300Y-85584400D03*
X135096300Y-85084400D03*
X135096300Y-84584400D03*
X135096300Y-84084400D03*
D79*
X133171300Y-82159400D03*
X132671300Y-82159400D03*
X132171300Y-82159400D03*
X131671300Y-82159400D03*
X131171300Y-82159400D03*
X130671300Y-82159400D03*
X130171300Y-82159400D03*
X129671300Y-82159400D03*
X129171300Y-82159400D03*
X128671300Y-82159400D03*
X128171300Y-82159400D03*
X127671300Y-82159400D03*
X127171300Y-82159400D03*
X126671300Y-82159400D03*
X126171300Y-82159400D03*
X125671300Y-82159400D03*
D78*
X123746300Y-84084400D03*
X123746300Y-84584400D03*
X123746300Y-85084400D03*
X123746300Y-85584400D03*
X123746300Y-86084400D03*
X123746300Y-86584400D03*
X123746300Y-87084400D03*
X123746300Y-87584400D03*
X123746300Y-88084400D03*
X123746300Y-88584400D03*
X123746300Y-89084400D03*
X123746300Y-89584400D03*
X123746300Y-90084400D03*
X123746300Y-90584400D03*
X123746300Y-91084400D03*
X123746300Y-91584400D03*
D79*
X125671300Y-93509400D03*
X126171300Y-93509400D03*
X126671300Y-93509400D03*
X127171300Y-93509400D03*
X127671300Y-93509400D03*
X128171300Y-93509400D03*
X128671300Y-93509400D03*
X129171300Y-93509400D03*
X129671300Y-93509400D03*
X130171300Y-93509400D03*
X130671300Y-93509400D03*
X131171300Y-93509400D03*
X131671300Y-93509400D03*
X132171300Y-93509400D03*
X132671300Y-93509400D03*
X133171300Y-93509400D03*
%TD*%
D64*
%TO.C,C3*%
X132915800Y-79883000D03*
X134990800Y-79883000D03*
%TD*%
D80*
%TO.C,D3*%
X125114100Y-72678400D03*
X125114100Y-70628400D03*
%TD*%
D81*
%TO.C,Y3*%
X144493400Y-90839500D03*
X144493400Y-88639500D03*
X142793400Y-88639500D03*
X142793400Y-90839500D03*
%TD*%
D82*
%TO.C,C22*%
X141217700Y-63203000D03*
X141217700Y-65278000D03*
%TD*%
D24*
%TO.C,J7*%
X158794500Y-60731400D03*
D25*
X161294500Y-60731400D03*
%TD*%
D83*
%TO.C,D5*%
X125536900Y-59969400D03*
X127586900Y-59969400D03*
%TD*%
D73*
%TO.C,R2*%
X126146100Y-102184200D03*
X128146100Y-102184200D03*
%TD*%
D22*
%TO.C,J1*%
X103397100Y-106400600D03*
D23*
X103397100Y-103860600D03*
X103397100Y-101320600D03*
X103397100Y-98780600D03*
%TD*%
D67*
%TO.C,R10*%
X127450900Y-62195200D03*
X127450900Y-64195200D03*
%TD*%
%TO.C,R6*%
X127374700Y-70628000D03*
X127374700Y-72628000D03*
%TD*%
D83*
%TO.C,D4*%
X121396700Y-75184000D03*
X123446700Y-75184000D03*
%TD*%
D21*
%TO.C,S3*%
X147886034Y-69460209D03*
X150886034Y-69460209D03*
D71*
X147136034Y-67385209D03*
X150136034Y-67385209D03*
X151636034Y-67385209D03*
D72*
X145586034Y-68410209D03*
X153186034Y-68410209D03*
X145586034Y-70510209D03*
X153186034Y-70510209D03*
%TD*%
D80*
%TO.C,D2*%
X113328500Y-82178000D03*
X113328500Y-80128000D03*
%TD*%
D82*
%TO.C,C14*%
X138906300Y-71885900D03*
X138906300Y-73960900D03*
%TD*%
D73*
%TO.C,R3*%
X118018100Y-88976200D03*
X120018100Y-88976200D03*
%TD*%
D65*
%TO.C,C25*%
X123789400Y-81127600D03*
X121714400Y-81127600D03*
%TD*%
D63*
%TO.C,C17*%
X141243100Y-60067100D03*
X141243100Y-57992100D03*
%TD*%
D65*
%TO.C,C26*%
X150256200Y-92532200D03*
X148181200Y-92532200D03*
%TD*%
D26*
%TO.C,J5*%
X150499500Y-61442600D03*
D25*
X147999500Y-61442600D03*
%TD*%
D63*
%TO.C,C18*%
X138804700Y-60041700D03*
X138804700Y-57966700D03*
%TD*%
D82*
%TO.C,C20*%
X140372700Y-86392600D03*
X140372700Y-88467600D03*
%TD*%
D64*
%TO.C,C6*%
X155445600Y-83718400D03*
X157520600Y-83718400D03*
%TD*%
D24*
%TO.C,J6*%
X158916100Y-104961200D03*
D25*
X161416100Y-104961200D03*
%TD*%
D82*
%TO.C,C23*%
X138855500Y-63275300D03*
X138855500Y-65350300D03*
%TD*%
D27*
%TO.C,J9*%
X113337043Y-65425082D03*
D28*
X115837043Y-65425082D03*
X118337043Y-65425082D03*
X120837043Y-65425082D03*
X123337043Y-65425082D03*
%TD*%
D29*
%TO.C,J3*%
X106375900Y-87094400D03*
X106375900Y-92874400D03*
D84*
X107515900Y-86784400D03*
X107515900Y-87584400D03*
D85*
X107515900Y-88734400D03*
X107515900Y-89734400D03*
X107515900Y-90234400D03*
X107515900Y-91234400D03*
D84*
X107515900Y-92384400D03*
X107515900Y-93184400D03*
X107515900Y-93184400D03*
X107515900Y-92384400D03*
D85*
X107515900Y-91734400D03*
X107515900Y-90734400D03*
X107515900Y-89234400D03*
X107515900Y-88234400D03*
D84*
X107515900Y-87584400D03*
X107515900Y-86784400D03*
D30*
X106875900Y-85664400D03*
D31*
X102695900Y-85664400D03*
D30*
X106875900Y-94304400D03*
D31*
X102695900Y-94304400D03*
%TD*%
D63*
%TO.C,C19*%
X140372700Y-92404600D03*
X140372700Y-90329600D03*
%TD*%
D22*
%TO.C,J2*%
X134512100Y-107365800D03*
D23*
X137052100Y-107365800D03*
X139592100Y-107365800D03*
X142132100Y-107365800D03*
X144672100Y-107365800D03*
X147212100Y-107365800D03*
X149752100Y-107365800D03*
X152292100Y-107365800D03*
%TD*%
D64*
%TO.C,C4*%
X133398400Y-95885000D03*
X135473400Y-95885000D03*
%TD*%
D82*
%TO.C,C1*%
X122456900Y-93127500D03*
X122456900Y-95202500D03*
%TD*%
D86*
%TO.C,C9*%
X155977800Y-87079300D03*
X161092800Y-87079300D03*
%TD*%
D73*
%TO.C,R4*%
X118018100Y-91033600D03*
X120018100Y-91033600D03*
%TD*%
D82*
%TO.C,C24*%
X137483900Y-85932100D03*
X137483900Y-88007100D03*
%TD*%
D87*
%TO.C,R7*%
X112691600Y-87045800D03*
X110866600Y-87045800D03*
%TD*%
D63*
%TO.C,C15*%
X141116100Y-69490500D03*
X141116100Y-67415500D03*
%TD*%
D32*
%TO.C,J8*%
X116770900Y-102266800D03*
D28*
X114270900Y-102266800D03*
X111770900Y-102266800D03*
X109270900Y-102266800D03*
%TD*%
D82*
%TO.C,C16*%
X141145900Y-72079300D03*
X141145900Y-74154300D03*
%TD*%
D88*
%TO.C,R17*%
X106505300Y-65659000D03*
X104505300Y-65659000D03*
%TD*%
D64*
%TO.C,C21*%
X139545200Y-99923600D03*
X141620200Y-99923600D03*
%TD*%
D63*
%TO.C,C7*%
X126257100Y-79802900D03*
X126257100Y-77727900D03*
%TD*%
D64*
%TO.C,C8*%
X159683500Y-83732800D03*
X161758500Y-83732800D03*
%TD*%
D65*
%TO.C,C2*%
X123789400Y-78917800D03*
X121714400Y-78917800D03*
%TD*%
D66*
%TO.C,F1*%
X104714000Y-82169000D03*
X108989000Y-82169000D03*
%TD*%
D67*
%TO.C,R1*%
X111118700Y-80153000D03*
X111118700Y-82153000D03*
%TD*%
D68*
%TO.C,U5*%
X111048000Y-89042200D03*
X111048000Y-89992200D03*
X111048000Y-90942200D03*
X113323000Y-90942200D03*
X113323000Y-89992200D03*
X113323000Y-89042200D03*
%TD*%
D69*
%TO.C,U3*%
X136163500Y-65215800D03*
X136163500Y-62915800D03*
D70*
X129863500Y-62915800D03*
D69*
X136163500Y-60615800D03*
%TD*%
D89*
%TO.C,S4*%
X123155500Y-104394000D03*
X126155500Y-104394000D03*
X127655500Y-104394000D03*
D90*
X121605500Y-105419000D03*
X129205500Y-105419000D03*
X121605500Y-107519000D03*
X129205500Y-107519000D03*
%TD*%
D69*
%TO.C,U6*%
X136188900Y-74055000D03*
X136188900Y-71755000D03*
D70*
X129888900Y-71755000D03*
D69*
X136188900Y-69455000D03*
%TD*%
D73*
%TO.C,R9*%
X125409500Y-75209400D03*
X127409500Y-75209400D03*
%TD*%
D74*
%TO.C,R8*%
X110866600Y-93014800D03*
X112691600Y-93014800D03*
%TD*%
D75*
%TO.C,U2*%
X161837300Y-81557100D03*
X161837300Y-80907100D03*
X161837300Y-80257100D03*
X161837300Y-79607100D03*
X161837300Y-78957100D03*
X161837300Y-78307100D03*
X161837300Y-77657100D03*
X161837300Y-77007100D03*
X161837300Y-76357100D03*
X161837300Y-75707100D03*
X161837300Y-75057100D03*
X161837300Y-74407100D03*
X154837300Y-74407100D03*
X154837300Y-75057100D03*
X154837300Y-75707100D03*
X154837300Y-76357100D03*
X154837300Y-77007100D03*
X154837300Y-77657100D03*
X154837300Y-78307100D03*
X154837300Y-78957100D03*
X154837300Y-79607100D03*
X154837300Y-80257100D03*
X154837300Y-80907100D03*
X154837300Y-81557100D03*
%TD*%
D76*
%TO.C,D1*%
X147644900Y-90207000D03*
X150944900Y-90207000D03*
X150944900Y-85307000D03*
X147644900Y-85307000D03*
%TD*%
D63*
%TO.C,C13*%
X138855500Y-69515900D03*
X138855500Y-67440900D03*
%TD*%
D77*
%TO.C,SW2*%
X146294900Y-96672400D03*
X139594900Y-96672400D03*
%TD*%
D78*
%TO.C,U1*%
X135096300Y-91584400D03*
X135096300Y-91084400D03*
X135096300Y-90584400D03*
X135096300Y-90084400D03*
X135096300Y-89584400D03*
X135096300Y-89084400D03*
X135096300Y-88584400D03*
X135096300Y-88084400D03*
X135096300Y-87584400D03*
X135096300Y-87084400D03*
X135096300Y-86584400D03*
X135096300Y-86084400D03*
X135096300Y-85584400D03*
X135096300Y-85084400D03*
X135096300Y-84584400D03*
X135096300Y-84084400D03*
D79*
X133171300Y-82159400D03*
X132671300Y-82159400D03*
X132171300Y-82159400D03*
X131671300Y-82159400D03*
X131171300Y-82159400D03*
X130671300Y-82159400D03*
X130171300Y-82159400D03*
X129671300Y-82159400D03*
X129171300Y-82159400D03*
X128671300Y-82159400D03*
X128171300Y-82159400D03*
X127671300Y-82159400D03*
X127171300Y-82159400D03*
X126671300Y-82159400D03*
X126171300Y-82159400D03*
X125671300Y-82159400D03*
D78*
X123746300Y-84084400D03*
X123746300Y-84584400D03*
X123746300Y-85084400D03*
X123746300Y-85584400D03*
X123746300Y-86084400D03*
X123746300Y-86584400D03*
X123746300Y-87084400D03*
X123746300Y-87584400D03*
X123746300Y-88084400D03*
X123746300Y-88584400D03*
X123746300Y-89084400D03*
X123746300Y-89584400D03*
X123746300Y-90084400D03*
X123746300Y-90584400D03*
X123746300Y-91084400D03*
X123746300Y-91584400D03*
D79*
X125671300Y-93509400D03*
X126171300Y-93509400D03*
X126671300Y-93509400D03*
X127171300Y-93509400D03*
X127671300Y-93509400D03*
X128171300Y-93509400D03*
X128671300Y-93509400D03*
X129171300Y-93509400D03*
X129671300Y-93509400D03*
X130171300Y-93509400D03*
X130671300Y-93509400D03*
X131171300Y-93509400D03*
X131671300Y-93509400D03*
X132171300Y-93509400D03*
X132671300Y-93509400D03*
X133171300Y-93509400D03*
%TD*%
D64*
%TO.C,C3*%
X132915800Y-79883000D03*
X134990800Y-79883000D03*
%TD*%
D80*
%TO.C,D3*%
X125114100Y-72678400D03*
X125114100Y-70628400D03*
%TD*%
D81*
%TO.C,Y3*%
X144493400Y-90839500D03*
X144493400Y-88639500D03*
X142793400Y-88639500D03*
X142793400Y-90839500D03*
%TD*%
D82*
%TO.C,C22*%
X141217700Y-63203000D03*
X141217700Y-65278000D03*
%TD*%
D83*
%TO.C,D5*%
X125536900Y-59969400D03*
X127586900Y-59969400D03*
%TD*%
D73*
%TO.C,R2*%
X126146100Y-102184200D03*
X128146100Y-102184200D03*
%TD*%
D67*
%TO.C,R10*%
X127450900Y-62195200D03*
X127450900Y-64195200D03*
%TD*%
%TO.C,R6*%
X127374700Y-70628000D03*
X127374700Y-72628000D03*
%TD*%
D83*
%TO.C,D4*%
X121396700Y-75184000D03*
X123446700Y-75184000D03*
%TD*%
D89*
%TO.C,S3*%
X147136034Y-67385209D03*
X150136034Y-67385209D03*
X151636034Y-67385209D03*
D90*
X145586034Y-68410209D03*
X153186034Y-68410209D03*
X145586034Y-70510209D03*
X153186034Y-70510209D03*
%TD*%
D80*
%TO.C,D2*%
X113328500Y-82178000D03*
X113328500Y-80128000D03*
%TD*%
D82*
%TO.C,C14*%
X138906300Y-71885900D03*
X138906300Y-73960900D03*
%TD*%
D73*
%TO.C,R3*%
X118018100Y-88976200D03*
X120018100Y-88976200D03*
%TD*%
D65*
%TO.C,C25*%
X123789400Y-81127600D03*
X121714400Y-81127600D03*
%TD*%
D63*
%TO.C,C17*%
X141243100Y-60067100D03*
X141243100Y-57992100D03*
%TD*%
D65*
%TO.C,C26*%
X150256200Y-92532200D03*
X148181200Y-92532200D03*
%TD*%
D63*
%TO.C,C18*%
X138804700Y-60041700D03*
X138804700Y-57966700D03*
%TD*%
D82*
%TO.C,C20*%
X140372700Y-86392600D03*
X140372700Y-88467600D03*
%TD*%
D64*
%TO.C,C6*%
X155445600Y-83718400D03*
X157520600Y-83718400D03*
%TD*%
D82*
%TO.C,C23*%
X138855500Y-63275300D03*
X138855500Y-65350300D03*
%TD*%
D84*
%TO.C,J3*%
X107515900Y-86784400D03*
X107515900Y-87584400D03*
D85*
X107515900Y-88734400D03*
X107515900Y-89734400D03*
X107515900Y-90234400D03*
X107515900Y-91234400D03*
D84*
X107515900Y-92384400D03*
X107515900Y-93184400D03*
X107515900Y-93184400D03*
X107515900Y-92384400D03*
D85*
X107515900Y-91734400D03*
X107515900Y-90734400D03*
X107515900Y-89234400D03*
X107515900Y-88234400D03*
D84*
X107515900Y-87584400D03*
X107515900Y-86784400D03*
%TD*%
D63*
%TO.C,C19*%
X140372700Y-92404600D03*
X140372700Y-90329600D03*
%TD*%
D64*
%TO.C,C4*%
X133398400Y-95885000D03*
X135473400Y-95885000D03*
%TD*%
D82*
%TO.C,C1*%
X122456900Y-93127500D03*
X122456900Y-95202500D03*
%TD*%
D86*
%TO.C,C9*%
X155977800Y-87079300D03*
X161092800Y-87079300D03*
%TD*%
D73*
%TO.C,R4*%
X118018100Y-91033600D03*
X120018100Y-91033600D03*
%TD*%
D82*
%TO.C,C24*%
X137483900Y-85932100D03*
X137483900Y-88007100D03*
%TD*%
D87*
%TO.C,R7*%
X112691600Y-87045800D03*
X110866600Y-87045800D03*
%TD*%
D63*
%TO.C,C15*%
X141116100Y-69490500D03*
X141116100Y-67415500D03*
%TD*%
D82*
%TO.C,C16*%
X141145900Y-72079300D03*
X141145900Y-74154300D03*
%TD*%
D88*
%TO.C,R17*%
X106505300Y-65659000D03*
X104505300Y-65659000D03*
%TD*%
D64*
%TO.C,C21*%
X139545200Y-99923600D03*
X141620200Y-99923600D03*
%TD*%
D91*
X113542421Y-101012395D02*
X114037659Y-101012395D01*
X114037659Y-101012395D02*
X113770993Y-101317157D01*
X113770993Y-101317157D02*
X113885278Y-101317157D01*
X113885278Y-101317157D02*
X113961469Y-101355252D01*
X113961469Y-101355252D02*
X113999564Y-101393347D01*
X113999564Y-101393347D02*
X114037659Y-101469538D01*
X114037659Y-101469538D02*
X114037659Y-101660014D01*
X114037659Y-101660014D02*
X113999564Y-101736204D01*
X113999564Y-101736204D02*
X113961469Y-101774300D01*
X113961469Y-101774300D02*
X113885278Y-101812395D01*
X113885278Y-101812395D02*
X113656707Y-101812395D01*
X113656707Y-101812395D02*
X113580516Y-101774300D01*
X113580516Y-101774300D02*
X113542421Y-101736204D01*
X114266231Y-101012395D02*
X114532898Y-101812395D01*
X114532898Y-101812395D02*
X114799564Y-101012395D01*
X114990040Y-101012395D02*
X115485278Y-101012395D01*
X115485278Y-101012395D02*
X115218612Y-101317157D01*
X115218612Y-101317157D02*
X115332897Y-101317157D01*
X115332897Y-101317157D02*
X115409088Y-101355252D01*
X115409088Y-101355252D02*
X115447183Y-101393347D01*
X115447183Y-101393347D02*
X115485278Y-101469538D01*
X115485278Y-101469538D02*
X115485278Y-101660014D01*
X115485278Y-101660014D02*
X115447183Y-101736204D01*
X115447183Y-101736204D02*
X115409088Y-101774300D01*
X115409088Y-101774300D02*
X115332897Y-101812395D01*
X115332897Y-101812395D02*
X115104326Y-101812395D01*
X115104326Y-101812395D02*
X115028135Y-101774300D01*
X115028135Y-101774300D02*
X114990040Y-101736204D01*
D92*
X128521680Y-78957466D02*
X128569300Y-79005085D01*
X128569300Y-79005085D02*
X128616919Y-79147942D01*
X128616919Y-79147942D02*
X128616919Y-79243180D01*
X128616919Y-79243180D02*
X128569300Y-79386037D01*
X128569300Y-79386037D02*
X128474061Y-79481275D01*
X128474061Y-79481275D02*
X128378823Y-79528894D01*
X128378823Y-79528894D02*
X128188347Y-79576513D01*
X128188347Y-79576513D02*
X128045490Y-79576513D01*
X128045490Y-79576513D02*
X127855014Y-79528894D01*
X127855014Y-79528894D02*
X127759776Y-79481275D01*
X127759776Y-79481275D02*
X127664538Y-79386037D01*
X127664538Y-79386037D02*
X127616919Y-79243180D01*
X127616919Y-79243180D02*
X127616919Y-79147942D01*
X127616919Y-79147942D02*
X127664538Y-79005085D01*
X127664538Y-79005085D02*
X127712157Y-78957466D01*
X127616919Y-78624132D02*
X127616919Y-77957466D01*
X127616919Y-77957466D02*
X128616919Y-78386037D01*
X163602333Y-84128780D02*
X163554714Y-84176400D01*
X163554714Y-84176400D02*
X163411857Y-84224019D01*
X163411857Y-84224019D02*
X163316619Y-84224019D01*
X163316619Y-84224019D02*
X163173762Y-84176400D01*
X163173762Y-84176400D02*
X163078524Y-84081161D01*
X163078524Y-84081161D02*
X163030905Y-83985923D01*
X163030905Y-83985923D02*
X162983286Y-83795447D01*
X162983286Y-83795447D02*
X162983286Y-83652590D01*
X162983286Y-83652590D02*
X163030905Y-83462114D01*
X163030905Y-83462114D02*
X163078524Y-83366876D01*
X163078524Y-83366876D02*
X163173762Y-83271638D01*
X163173762Y-83271638D02*
X163316619Y-83224019D01*
X163316619Y-83224019D02*
X163411857Y-83224019D01*
X163411857Y-83224019D02*
X163554714Y-83271638D01*
X163554714Y-83271638D02*
X163602333Y-83319257D01*
X164173762Y-83652590D02*
X164078524Y-83604971D01*
X164078524Y-83604971D02*
X164030905Y-83557352D01*
X164030905Y-83557352D02*
X163983286Y-83462114D01*
X163983286Y-83462114D02*
X163983286Y-83414495D01*
X163983286Y-83414495D02*
X164030905Y-83319257D01*
X164030905Y-83319257D02*
X164078524Y-83271638D01*
X164078524Y-83271638D02*
X164173762Y-83224019D01*
X164173762Y-83224019D02*
X164364238Y-83224019D01*
X164364238Y-83224019D02*
X164459476Y-83271638D01*
X164459476Y-83271638D02*
X164507095Y-83319257D01*
X164507095Y-83319257D02*
X164554714Y-83414495D01*
X164554714Y-83414495D02*
X164554714Y-83462114D01*
X164554714Y-83462114D02*
X164507095Y-83557352D01*
X164507095Y-83557352D02*
X164459476Y-83604971D01*
X164459476Y-83604971D02*
X164364238Y-83652590D01*
X164364238Y-83652590D02*
X164173762Y-83652590D01*
X164173762Y-83652590D02*
X164078524Y-83700209D01*
X164078524Y-83700209D02*
X164030905Y-83747828D01*
X164030905Y-83747828D02*
X163983286Y-83843066D01*
X163983286Y-83843066D02*
X163983286Y-84033542D01*
X163983286Y-84033542D02*
X164030905Y-84128780D01*
X164030905Y-84128780D02*
X164078524Y-84176400D01*
X164078524Y-84176400D02*
X164173762Y-84224019D01*
X164173762Y-84224019D02*
X164364238Y-84224019D01*
X164364238Y-84224019D02*
X164459476Y-84176400D01*
X164459476Y-84176400D02*
X164507095Y-84128780D01*
X164507095Y-84128780D02*
X164554714Y-84033542D01*
X164554714Y-84033542D02*
X164554714Y-83843066D01*
X164554714Y-83843066D02*
X164507095Y-83747828D01*
X164507095Y-83747828D02*
X164459476Y-83700209D01*
X164459476Y-83700209D02*
X164364238Y-83652590D01*
X119638833Y-79378980D02*
X119591214Y-79426600D01*
X119591214Y-79426600D02*
X119448357Y-79474219D01*
X119448357Y-79474219D02*
X119353119Y-79474219D01*
X119353119Y-79474219D02*
X119210262Y-79426600D01*
X119210262Y-79426600D02*
X119115024Y-79331361D01*
X119115024Y-79331361D02*
X119067405Y-79236123D01*
X119067405Y-79236123D02*
X119019786Y-79045647D01*
X119019786Y-79045647D02*
X119019786Y-78902790D01*
X119019786Y-78902790D02*
X119067405Y-78712314D01*
X119067405Y-78712314D02*
X119115024Y-78617076D01*
X119115024Y-78617076D02*
X119210262Y-78521838D01*
X119210262Y-78521838D02*
X119353119Y-78474219D01*
X119353119Y-78474219D02*
X119448357Y-78474219D01*
X119448357Y-78474219D02*
X119591214Y-78521838D01*
X119591214Y-78521838D02*
X119638833Y-78569457D01*
X120019786Y-78569457D02*
X120067405Y-78521838D01*
X120067405Y-78521838D02*
X120162643Y-78474219D01*
X120162643Y-78474219D02*
X120400738Y-78474219D01*
X120400738Y-78474219D02*
X120495976Y-78521838D01*
X120495976Y-78521838D02*
X120543595Y-78569457D01*
X120543595Y-78569457D02*
X120591214Y-78664695D01*
X120591214Y-78664695D02*
X120591214Y-78759933D01*
X120591214Y-78759933D02*
X120543595Y-78902790D01*
X120543595Y-78902790D02*
X119972167Y-79474219D01*
X119972167Y-79474219D02*
X120591214Y-79474219D01*
X106518166Y-82100009D02*
X106184833Y-82100009D01*
X106184833Y-82623819D02*
X106184833Y-81623819D01*
X106184833Y-81623819D02*
X106661023Y-81623819D01*
X107565785Y-82623819D02*
X106994357Y-82623819D01*
X107280071Y-82623819D02*
X107280071Y-81623819D01*
X107280071Y-81623819D02*
X107184833Y-81766676D01*
X107184833Y-81766676D02*
X107089595Y-81861914D01*
X107089595Y-81861914D02*
X106994357Y-81909533D01*
X110875833Y-84249419D02*
X110542500Y-83773228D01*
X110304405Y-84249419D02*
X110304405Y-83249419D01*
X110304405Y-83249419D02*
X110685357Y-83249419D01*
X110685357Y-83249419D02*
X110780595Y-83297038D01*
X110780595Y-83297038D02*
X110828214Y-83344657D01*
X110828214Y-83344657D02*
X110875833Y-83439895D01*
X110875833Y-83439895D02*
X110875833Y-83582752D01*
X110875833Y-83582752D02*
X110828214Y-83677990D01*
X110828214Y-83677990D02*
X110780595Y-83725609D01*
X110780595Y-83725609D02*
X110685357Y-83773228D01*
X110685357Y-83773228D02*
X110304405Y-83773228D01*
X111828214Y-84249419D02*
X111256786Y-84249419D01*
X111542500Y-84249419D02*
X111542500Y-83249419D01*
X111542500Y-83249419D02*
X111447262Y-83392276D01*
X111447262Y-83392276D02*
X111352024Y-83487514D01*
X111352024Y-83487514D02*
X111256786Y-83535133D01*
X114928795Y-90996419D02*
X114928795Y-91805942D01*
X114928795Y-91805942D02*
X114976414Y-91901180D01*
X114976414Y-91901180D02*
X115024033Y-91948800D01*
X115024033Y-91948800D02*
X115119271Y-91996419D01*
X115119271Y-91996419D02*
X115309747Y-91996419D01*
X115309747Y-91996419D02*
X115404985Y-91948800D01*
X115404985Y-91948800D02*
X115452604Y-91901180D01*
X115452604Y-91901180D02*
X115500223Y-91805942D01*
X115500223Y-91805942D02*
X115500223Y-90996419D01*
X116452604Y-90996419D02*
X115976414Y-90996419D01*
X115976414Y-90996419D02*
X115928795Y-91472609D01*
X115928795Y-91472609D02*
X115976414Y-91424990D01*
X115976414Y-91424990D02*
X116071652Y-91377371D01*
X116071652Y-91377371D02*
X116309747Y-91377371D01*
X116309747Y-91377371D02*
X116404985Y-91424990D01*
X116404985Y-91424990D02*
X116452604Y-91472609D01*
X116452604Y-91472609D02*
X116500223Y-91567847D01*
X116500223Y-91567847D02*
X116500223Y-91805942D01*
X116500223Y-91805942D02*
X116452604Y-91901180D01*
X116452604Y-91901180D02*
X116404985Y-91948800D01*
X116404985Y-91948800D02*
X116309747Y-91996419D01*
X116309747Y-91996419D02*
X116071652Y-91996419D01*
X116071652Y-91996419D02*
X115976414Y-91948800D01*
X115976414Y-91948800D02*
X115928795Y-91901180D01*
X132251595Y-62408119D02*
X132251595Y-63217642D01*
X132251595Y-63217642D02*
X132299214Y-63312880D01*
X132299214Y-63312880D02*
X132346833Y-63360500D01*
X132346833Y-63360500D02*
X132442071Y-63408119D01*
X132442071Y-63408119D02*
X132632547Y-63408119D01*
X132632547Y-63408119D02*
X132727785Y-63360500D01*
X132727785Y-63360500D02*
X132775404Y-63312880D01*
X132775404Y-63312880D02*
X132823023Y-63217642D01*
X132823023Y-63217642D02*
X132823023Y-62408119D01*
X133203976Y-62408119D02*
X133823023Y-62408119D01*
X133823023Y-62408119D02*
X133489690Y-62789071D01*
X133489690Y-62789071D02*
X133632547Y-62789071D01*
X133632547Y-62789071D02*
X133727785Y-62836690D01*
X133727785Y-62836690D02*
X133775404Y-62884309D01*
X133775404Y-62884309D02*
X133823023Y-62979547D01*
X133823023Y-62979547D02*
X133823023Y-63217642D01*
X133823023Y-63217642D02*
X133775404Y-63312880D01*
X133775404Y-63312880D02*
X133727785Y-63360500D01*
X133727785Y-63360500D02*
X133632547Y-63408119D01*
X133632547Y-63408119D02*
X133346833Y-63408119D01*
X133346833Y-63408119D02*
X133251595Y-63360500D01*
X133251595Y-63360500D02*
X133203976Y-63312880D01*
X124783995Y-109170000D02*
X124926852Y-109217619D01*
X124926852Y-109217619D02*
X125164947Y-109217619D01*
X125164947Y-109217619D02*
X125260185Y-109170000D01*
X125260185Y-109170000D02*
X125307804Y-109122380D01*
X125307804Y-109122380D02*
X125355423Y-109027142D01*
X125355423Y-109027142D02*
X125355423Y-108931904D01*
X125355423Y-108931904D02*
X125307804Y-108836666D01*
X125307804Y-108836666D02*
X125260185Y-108789047D01*
X125260185Y-108789047D02*
X125164947Y-108741428D01*
X125164947Y-108741428D02*
X124974471Y-108693809D01*
X124974471Y-108693809D02*
X124879233Y-108646190D01*
X124879233Y-108646190D02*
X124831614Y-108598571D01*
X124831614Y-108598571D02*
X124783995Y-108503333D01*
X124783995Y-108503333D02*
X124783995Y-108408095D01*
X124783995Y-108408095D02*
X124831614Y-108312857D01*
X124831614Y-108312857D02*
X124879233Y-108265238D01*
X124879233Y-108265238D02*
X124974471Y-108217619D01*
X124974471Y-108217619D02*
X125212566Y-108217619D01*
X125212566Y-108217619D02*
X125355423Y-108265238D01*
X126212566Y-108550952D02*
X126212566Y-109217619D01*
X125974471Y-108170000D02*
X125736376Y-108884285D01*
X125736376Y-108884285D02*
X126355423Y-108884285D01*
X132276995Y-71247319D02*
X132276995Y-72056842D01*
X132276995Y-72056842D02*
X132324614Y-72152080D01*
X132324614Y-72152080D02*
X132372233Y-72199700D01*
X132372233Y-72199700D02*
X132467471Y-72247319D01*
X132467471Y-72247319D02*
X132657947Y-72247319D01*
X132657947Y-72247319D02*
X132753185Y-72199700D01*
X132753185Y-72199700D02*
X132800804Y-72152080D01*
X132800804Y-72152080D02*
X132848423Y-72056842D01*
X132848423Y-72056842D02*
X132848423Y-71247319D01*
X133753185Y-71247319D02*
X133562709Y-71247319D01*
X133562709Y-71247319D02*
X133467471Y-71294938D01*
X133467471Y-71294938D02*
X133419852Y-71342557D01*
X133419852Y-71342557D02*
X133324614Y-71485414D01*
X133324614Y-71485414D02*
X133276995Y-71675890D01*
X133276995Y-71675890D02*
X133276995Y-72056842D01*
X133276995Y-72056842D02*
X133324614Y-72152080D01*
X133324614Y-72152080D02*
X133372233Y-72199700D01*
X133372233Y-72199700D02*
X133467471Y-72247319D01*
X133467471Y-72247319D02*
X133657947Y-72247319D01*
X133657947Y-72247319D02*
X133753185Y-72199700D01*
X133753185Y-72199700D02*
X133800804Y-72152080D01*
X133800804Y-72152080D02*
X133848423Y-72056842D01*
X133848423Y-72056842D02*
X133848423Y-71818747D01*
X133848423Y-71818747D02*
X133800804Y-71723509D01*
X133800804Y-71723509D02*
X133753185Y-71675890D01*
X133753185Y-71675890D02*
X133657947Y-71628271D01*
X133657947Y-71628271D02*
X133467471Y-71628271D01*
X133467471Y-71628271D02*
X133372233Y-71675890D01*
X133372233Y-71675890D02*
X133324614Y-71723509D01*
X133324614Y-71723509D02*
X133276995Y-71818747D01*
X129265433Y-76832619D02*
X128932100Y-76356428D01*
X128694005Y-76832619D02*
X128694005Y-75832619D01*
X128694005Y-75832619D02*
X129074957Y-75832619D01*
X129074957Y-75832619D02*
X129170195Y-75880238D01*
X129170195Y-75880238D02*
X129217814Y-75927857D01*
X129217814Y-75927857D02*
X129265433Y-76023095D01*
X129265433Y-76023095D02*
X129265433Y-76165952D01*
X129265433Y-76165952D02*
X129217814Y-76261190D01*
X129217814Y-76261190D02*
X129170195Y-76308809D01*
X129170195Y-76308809D02*
X129074957Y-76356428D01*
X129074957Y-76356428D02*
X128694005Y-76356428D01*
X129741624Y-76832619D02*
X129932100Y-76832619D01*
X129932100Y-76832619D02*
X130027338Y-76785000D01*
X130027338Y-76785000D02*
X130074957Y-76737380D01*
X130074957Y-76737380D02*
X130170195Y-76594523D01*
X130170195Y-76594523D02*
X130217814Y-76404047D01*
X130217814Y-76404047D02*
X130217814Y-76023095D01*
X130217814Y-76023095D02*
X130170195Y-75927857D01*
X130170195Y-75927857D02*
X130122576Y-75880238D01*
X130122576Y-75880238D02*
X130027338Y-75832619D01*
X130027338Y-75832619D02*
X129836862Y-75832619D01*
X129836862Y-75832619D02*
X129741624Y-75880238D01*
X129741624Y-75880238D02*
X129694005Y-75927857D01*
X129694005Y-75927857D02*
X129646386Y-76023095D01*
X129646386Y-76023095D02*
X129646386Y-76261190D01*
X129646386Y-76261190D02*
X129694005Y-76356428D01*
X129694005Y-76356428D02*
X129741624Y-76404047D01*
X129741624Y-76404047D02*
X129836862Y-76451666D01*
X129836862Y-76451666D02*
X130027338Y-76451666D01*
X130027338Y-76451666D02*
X130122576Y-76404047D01*
X130122576Y-76404047D02*
X130170195Y-76356428D01*
X130170195Y-76356428D02*
X130217814Y-76261190D01*
X107997666Y-66409219D02*
X107997666Y-67123504D01*
X107997666Y-67123504D02*
X107950047Y-67266361D01*
X107950047Y-67266361D02*
X107854809Y-67361600D01*
X107854809Y-67361600D02*
X107711952Y-67409219D01*
X107711952Y-67409219D02*
X107616714Y-67409219D01*
X108902428Y-66742552D02*
X108902428Y-67409219D01*
X108664333Y-66361600D02*
X108426238Y-67075885D01*
X108426238Y-67075885D02*
X109045285Y-67075885D01*
X114431833Y-93571219D02*
X114098500Y-93095028D01*
X113860405Y-93571219D02*
X113860405Y-92571219D01*
X113860405Y-92571219D02*
X114241357Y-92571219D01*
X114241357Y-92571219D02*
X114336595Y-92618838D01*
X114336595Y-92618838D02*
X114384214Y-92666457D01*
X114384214Y-92666457D02*
X114431833Y-92761695D01*
X114431833Y-92761695D02*
X114431833Y-92904552D01*
X114431833Y-92904552D02*
X114384214Y-92999790D01*
X114384214Y-92999790D02*
X114336595Y-93047409D01*
X114336595Y-93047409D02*
X114241357Y-93095028D01*
X114241357Y-93095028D02*
X113860405Y-93095028D01*
X115003262Y-92999790D02*
X114908024Y-92952171D01*
X114908024Y-92952171D02*
X114860405Y-92904552D01*
X114860405Y-92904552D02*
X114812786Y-92809314D01*
X114812786Y-92809314D02*
X114812786Y-92761695D01*
X114812786Y-92761695D02*
X114860405Y-92666457D01*
X114860405Y-92666457D02*
X114908024Y-92618838D01*
X114908024Y-92618838D02*
X115003262Y-92571219D01*
X115003262Y-92571219D02*
X115193738Y-92571219D01*
X115193738Y-92571219D02*
X115288976Y-92618838D01*
X115288976Y-92618838D02*
X115336595Y-92666457D01*
X115336595Y-92666457D02*
X115384214Y-92761695D01*
X115384214Y-92761695D02*
X115384214Y-92809314D01*
X115384214Y-92809314D02*
X115336595Y-92904552D01*
X115336595Y-92904552D02*
X115288976Y-92952171D01*
X115288976Y-92952171D02*
X115193738Y-92999790D01*
X115193738Y-92999790D02*
X115003262Y-92999790D01*
X115003262Y-92999790D02*
X114908024Y-93047409D01*
X114908024Y-93047409D02*
X114860405Y-93095028D01*
X114860405Y-93095028D02*
X114812786Y-93190266D01*
X114812786Y-93190266D02*
X114812786Y-93380742D01*
X114812786Y-93380742D02*
X114860405Y-93475980D01*
X114860405Y-93475980D02*
X114908024Y-93523600D01*
X114908024Y-93523600D02*
X115003262Y-93571219D01*
X115003262Y-93571219D02*
X115193738Y-93571219D01*
X115193738Y-93571219D02*
X115288976Y-93523600D01*
X115288976Y-93523600D02*
X115336595Y-93475980D01*
X115336595Y-93475980D02*
X115384214Y-93380742D01*
X115384214Y-93380742D02*
X115384214Y-93190266D01*
X115384214Y-93190266D02*
X115336595Y-93095028D01*
X115336595Y-93095028D02*
X115288976Y-93047409D01*
X115288976Y-93047409D02*
X115193738Y-92999790D01*
X157575395Y-77436919D02*
X157575395Y-78246442D01*
X157575395Y-78246442D02*
X157623014Y-78341680D01*
X157623014Y-78341680D02*
X157670633Y-78389300D01*
X157670633Y-78389300D02*
X157765871Y-78436919D01*
X157765871Y-78436919D02*
X157956347Y-78436919D01*
X157956347Y-78436919D02*
X158051585Y-78389300D01*
X158051585Y-78389300D02*
X158099204Y-78341680D01*
X158099204Y-78341680D02*
X158146823Y-78246442D01*
X158146823Y-78246442D02*
X158146823Y-77436919D01*
X158575395Y-77532157D02*
X158623014Y-77484538D01*
X158623014Y-77484538D02*
X158718252Y-77436919D01*
X158718252Y-77436919D02*
X158956347Y-77436919D01*
X158956347Y-77436919D02*
X159051585Y-77484538D01*
X159051585Y-77484538D02*
X159099204Y-77532157D01*
X159099204Y-77532157D02*
X159146823Y-77627395D01*
X159146823Y-77627395D02*
X159146823Y-77722633D01*
X159146823Y-77722633D02*
X159099204Y-77865490D01*
X159099204Y-77865490D02*
X158527776Y-78436919D01*
X158527776Y-78436919D02*
X159146823Y-78436919D01*
X151222919Y-88469694D02*
X150222919Y-88469694D01*
X150222919Y-88469694D02*
X150222919Y-88231599D01*
X150222919Y-88231599D02*
X150270538Y-88088742D01*
X150270538Y-88088742D02*
X150365776Y-87993504D01*
X150365776Y-87993504D02*
X150461014Y-87945885D01*
X150461014Y-87945885D02*
X150651490Y-87898266D01*
X150651490Y-87898266D02*
X150794347Y-87898266D01*
X150794347Y-87898266D02*
X150984823Y-87945885D01*
X150984823Y-87945885D02*
X151080061Y-87993504D01*
X151080061Y-87993504D02*
X151175300Y-88088742D01*
X151175300Y-88088742D02*
X151222919Y-88231599D01*
X151222919Y-88231599D02*
X151222919Y-88469694D01*
X151222919Y-86945885D02*
X151222919Y-87517313D01*
X151222919Y-87231599D02*
X150222919Y-87231599D01*
X150222919Y-87231599D02*
X150365776Y-87326837D01*
X150365776Y-87326837D02*
X150461014Y-87422075D01*
X150461014Y-87422075D02*
X150508633Y-87517313D01*
X147955395Y-88366628D02*
X147955395Y-88823771D01*
X147955395Y-88595199D02*
X147155395Y-88595199D01*
X147155395Y-88595199D02*
X147269680Y-88671390D01*
X147269680Y-88671390D02*
X147345871Y-88747580D01*
X147345871Y-88747580D02*
X147383966Y-88823771D01*
X135621842Y-67821980D02*
X135574223Y-67869600D01*
X135574223Y-67869600D02*
X135431366Y-67917219D01*
X135431366Y-67917219D02*
X135336128Y-67917219D01*
X135336128Y-67917219D02*
X135193271Y-67869600D01*
X135193271Y-67869600D02*
X135098033Y-67774361D01*
X135098033Y-67774361D02*
X135050414Y-67679123D01*
X135050414Y-67679123D02*
X135002795Y-67488647D01*
X135002795Y-67488647D02*
X135002795Y-67345790D01*
X135002795Y-67345790D02*
X135050414Y-67155314D01*
X135050414Y-67155314D02*
X135098033Y-67060076D01*
X135098033Y-67060076D02*
X135193271Y-66964838D01*
X135193271Y-66964838D02*
X135336128Y-66917219D01*
X135336128Y-66917219D02*
X135431366Y-66917219D01*
X135431366Y-66917219D02*
X135574223Y-66964838D01*
X135574223Y-66964838D02*
X135621842Y-67012457D01*
X136574223Y-67917219D02*
X136002795Y-67917219D01*
X136288509Y-67917219D02*
X136288509Y-66917219D01*
X136288509Y-66917219D02*
X136193271Y-67060076D01*
X136193271Y-67060076D02*
X136098033Y-67155314D01*
X136098033Y-67155314D02*
X136002795Y-67202933D01*
X136907557Y-66917219D02*
X137526604Y-66917219D01*
X137526604Y-66917219D02*
X137193271Y-67298171D01*
X137193271Y-67298171D02*
X137336128Y-67298171D01*
X137336128Y-67298171D02*
X137431366Y-67345790D01*
X137431366Y-67345790D02*
X137478985Y-67393409D01*
X137478985Y-67393409D02*
X137526604Y-67488647D01*
X137526604Y-67488647D02*
X137526604Y-67726742D01*
X137526604Y-67726742D02*
X137478985Y-67821980D01*
X137478985Y-67821980D02*
X137431366Y-67869600D01*
X137431366Y-67869600D02*
X137336128Y-67917219D01*
X137336128Y-67917219D02*
X137050414Y-67917219D01*
X137050414Y-67917219D02*
X136955176Y-67869600D01*
X136955176Y-67869600D02*
X136907557Y-67821980D01*
D93*
X141501566Y-97186242D02*
X141682995Y-97246718D01*
X141682995Y-97246718D02*
X141985376Y-97246718D01*
X141985376Y-97246718D02*
X142106328Y-97186242D01*
X142106328Y-97186242D02*
X142166804Y-97125765D01*
X142166804Y-97125765D02*
X142227281Y-97004813D01*
X142227281Y-97004813D02*
X142227281Y-96883861D01*
X142227281Y-96883861D02*
X142166804Y-96762908D01*
X142166804Y-96762908D02*
X142106328Y-96702432D01*
X142106328Y-96702432D02*
X141985376Y-96641956D01*
X141985376Y-96641956D02*
X141743471Y-96581480D01*
X141743471Y-96581480D02*
X141622519Y-96521003D01*
X141622519Y-96521003D02*
X141562042Y-96460527D01*
X141562042Y-96460527D02*
X141501566Y-96339575D01*
X141501566Y-96339575D02*
X141501566Y-96218622D01*
X141501566Y-96218622D02*
X141562042Y-96097670D01*
X141562042Y-96097670D02*
X141622519Y-96037194D01*
X141622519Y-96037194D02*
X141743471Y-95976718D01*
X141743471Y-95976718D02*
X142045852Y-95976718D01*
X142045852Y-95976718D02*
X142227281Y-96037194D01*
X142650614Y-95976718D02*
X142952995Y-97246718D01*
X142952995Y-97246718D02*
X143194900Y-96339575D01*
X143194900Y-96339575D02*
X143436805Y-97246718D01*
X143436805Y-97246718D02*
X143739186Y-95976718D01*
X144162519Y-96097670D02*
X144222995Y-96037194D01*
X144222995Y-96037194D02*
X144343948Y-95976718D01*
X144343948Y-95976718D02*
X144646329Y-95976718D01*
X144646329Y-95976718D02*
X144767281Y-96037194D01*
X144767281Y-96037194D02*
X144827757Y-96097670D01*
X144827757Y-96097670D02*
X144888234Y-96218622D01*
X144888234Y-96218622D02*
X144888234Y-96339575D01*
X144888234Y-96339575D02*
X144827757Y-96521003D01*
X144827757Y-96521003D02*
X144102043Y-97246718D01*
X144102043Y-97246718D02*
X144888234Y-97246718D01*
D92*
X128659395Y-87289219D02*
X128659395Y-88098742D01*
X128659395Y-88098742D02*
X128707014Y-88193980D01*
X128707014Y-88193980D02*
X128754633Y-88241600D01*
X128754633Y-88241600D02*
X128849871Y-88289219D01*
X128849871Y-88289219D02*
X129040347Y-88289219D01*
X129040347Y-88289219D02*
X129135585Y-88241600D01*
X129135585Y-88241600D02*
X129183204Y-88193980D01*
X129183204Y-88193980D02*
X129230823Y-88098742D01*
X129230823Y-88098742D02*
X129230823Y-87289219D01*
X130230823Y-88289219D02*
X129659395Y-88289219D01*
X129945109Y-88289219D02*
X129945109Y-87289219D01*
X129945109Y-87289219D02*
X129849871Y-87432076D01*
X129849871Y-87432076D02*
X129754633Y-87527314D01*
X129754633Y-87527314D02*
X129659395Y-87574933D01*
X134751833Y-82122180D02*
X134704214Y-82169800D01*
X134704214Y-82169800D02*
X134561357Y-82217419D01*
X134561357Y-82217419D02*
X134466119Y-82217419D01*
X134466119Y-82217419D02*
X134323262Y-82169800D01*
X134323262Y-82169800D02*
X134228024Y-82074561D01*
X134228024Y-82074561D02*
X134180405Y-81979323D01*
X134180405Y-81979323D02*
X134132786Y-81788847D01*
X134132786Y-81788847D02*
X134132786Y-81645990D01*
X134132786Y-81645990D02*
X134180405Y-81455514D01*
X134180405Y-81455514D02*
X134228024Y-81360276D01*
X134228024Y-81360276D02*
X134323262Y-81265038D01*
X134323262Y-81265038D02*
X134466119Y-81217419D01*
X134466119Y-81217419D02*
X134561357Y-81217419D01*
X134561357Y-81217419D02*
X134704214Y-81265038D01*
X134704214Y-81265038D02*
X134751833Y-81312657D01*
X135085167Y-81217419D02*
X135704214Y-81217419D01*
X135704214Y-81217419D02*
X135370881Y-81598371D01*
X135370881Y-81598371D02*
X135513738Y-81598371D01*
X135513738Y-81598371D02*
X135608976Y-81645990D01*
X135608976Y-81645990D02*
X135656595Y-81693609D01*
X135656595Y-81693609D02*
X135704214Y-81788847D01*
X135704214Y-81788847D02*
X135704214Y-82026942D01*
X135704214Y-82026942D02*
X135656595Y-82122180D01*
X135656595Y-82122180D02*
X135608976Y-82169800D01*
X135608976Y-82169800D02*
X135513738Y-82217419D01*
X135513738Y-82217419D02*
X135228024Y-82217419D01*
X135228024Y-82217419D02*
X135132786Y-82169800D01*
X135132786Y-82169800D02*
X135085167Y-82122180D01*
X123740119Y-71858094D02*
X122740119Y-71858094D01*
X122740119Y-71858094D02*
X122740119Y-71619999D01*
X122740119Y-71619999D02*
X122787738Y-71477142D01*
X122787738Y-71477142D02*
X122882976Y-71381904D01*
X122882976Y-71381904D02*
X122978214Y-71334285D01*
X122978214Y-71334285D02*
X123168690Y-71286666D01*
X123168690Y-71286666D02*
X123311547Y-71286666D01*
X123311547Y-71286666D02*
X123502023Y-71334285D01*
X123502023Y-71334285D02*
X123597261Y-71381904D01*
X123597261Y-71381904D02*
X123692500Y-71477142D01*
X123692500Y-71477142D02*
X123740119Y-71619999D01*
X123740119Y-71619999D02*
X123740119Y-71858094D01*
X122740119Y-70953332D02*
X122740119Y-70334285D01*
X122740119Y-70334285D02*
X123121071Y-70667618D01*
X123121071Y-70667618D02*
X123121071Y-70524761D01*
X123121071Y-70524761D02*
X123168690Y-70429523D01*
X123168690Y-70429523D02*
X123216309Y-70381904D01*
X123216309Y-70381904D02*
X123311547Y-70334285D01*
X123311547Y-70334285D02*
X123549642Y-70334285D01*
X123549642Y-70334285D02*
X123644880Y-70381904D01*
X123644880Y-70381904D02*
X123692500Y-70429523D01*
X123692500Y-70429523D02*
X123740119Y-70524761D01*
X123740119Y-70524761D02*
X123740119Y-70810475D01*
X123740119Y-70810475D02*
X123692500Y-70905713D01*
X123692500Y-70905713D02*
X123644880Y-70953332D01*
X145895328Y-93363990D02*
X146371519Y-93363990D01*
X145371519Y-93697323D02*
X145895328Y-93363990D01*
X145895328Y-93363990D02*
X145371519Y-93030657D01*
X145371519Y-92792561D02*
X145371519Y-92173514D01*
X145371519Y-92173514D02*
X145752471Y-92506847D01*
X145752471Y-92506847D02*
X145752471Y-92363990D01*
X145752471Y-92363990D02*
X145800090Y-92268752D01*
X145800090Y-92268752D02*
X145847709Y-92221133D01*
X145847709Y-92221133D02*
X145942947Y-92173514D01*
X145942947Y-92173514D02*
X146181042Y-92173514D01*
X146181042Y-92173514D02*
X146276280Y-92221133D01*
X146276280Y-92221133D02*
X146323900Y-92268752D01*
X146323900Y-92268752D02*
X146371519Y-92363990D01*
X146371519Y-92363990D02*
X146371519Y-92649704D01*
X146371519Y-92649704D02*
X146323900Y-92744942D01*
X146323900Y-92744942D02*
X146276280Y-92792561D01*
X143406080Y-64883357D02*
X143453700Y-64930976D01*
X143453700Y-64930976D02*
X143501319Y-65073833D01*
X143501319Y-65073833D02*
X143501319Y-65169071D01*
X143501319Y-65169071D02*
X143453700Y-65311928D01*
X143453700Y-65311928D02*
X143358461Y-65407166D01*
X143358461Y-65407166D02*
X143263223Y-65454785D01*
X143263223Y-65454785D02*
X143072747Y-65502404D01*
X143072747Y-65502404D02*
X142929890Y-65502404D01*
X142929890Y-65502404D02*
X142739414Y-65454785D01*
X142739414Y-65454785D02*
X142644176Y-65407166D01*
X142644176Y-65407166D02*
X142548938Y-65311928D01*
X142548938Y-65311928D02*
X142501319Y-65169071D01*
X142501319Y-65169071D02*
X142501319Y-65073833D01*
X142501319Y-65073833D02*
X142548938Y-64930976D01*
X142548938Y-64930976D02*
X142596557Y-64883357D01*
X142596557Y-64502404D02*
X142548938Y-64454785D01*
X142548938Y-64454785D02*
X142501319Y-64359547D01*
X142501319Y-64359547D02*
X142501319Y-64121452D01*
X142501319Y-64121452D02*
X142548938Y-64026214D01*
X142548938Y-64026214D02*
X142596557Y-63978595D01*
X142596557Y-63978595D02*
X142691795Y-63930976D01*
X142691795Y-63930976D02*
X142787033Y-63930976D01*
X142787033Y-63930976D02*
X142929890Y-63978595D01*
X142929890Y-63978595D02*
X143501319Y-64550023D01*
X143501319Y-64550023D02*
X143501319Y-63930976D01*
X142596557Y-63550023D02*
X142548938Y-63502404D01*
X142548938Y-63502404D02*
X142501319Y-63407166D01*
X142501319Y-63407166D02*
X142501319Y-63169071D01*
X142501319Y-63169071D02*
X142548938Y-63073833D01*
X142548938Y-63073833D02*
X142596557Y-63026214D01*
X142596557Y-63026214D02*
X142691795Y-62978595D01*
X142691795Y-62978595D02*
X142787033Y-62978595D01*
X142787033Y-62978595D02*
X142929890Y-63026214D01*
X142929890Y-63026214D02*
X143501319Y-63597642D01*
X143501319Y-63597642D02*
X143501319Y-62978595D01*
X159701166Y-62026219D02*
X159701166Y-62740504D01*
X159701166Y-62740504D02*
X159653547Y-62883361D01*
X159653547Y-62883361D02*
X159558309Y-62978600D01*
X159558309Y-62978600D02*
X159415452Y-63026219D01*
X159415452Y-63026219D02*
X159320214Y-63026219D01*
X160082119Y-62026219D02*
X160748785Y-62026219D01*
X160748785Y-62026219D02*
X160320214Y-63026219D01*
X125671405Y-58671619D02*
X125671405Y-57671619D01*
X125671405Y-57671619D02*
X125909500Y-57671619D01*
X125909500Y-57671619D02*
X126052357Y-57719238D01*
X126052357Y-57719238D02*
X126147595Y-57814476D01*
X126147595Y-57814476D02*
X126195214Y-57909714D01*
X126195214Y-57909714D02*
X126242833Y-58100190D01*
X126242833Y-58100190D02*
X126242833Y-58243047D01*
X126242833Y-58243047D02*
X126195214Y-58433523D01*
X126195214Y-58433523D02*
X126147595Y-58528761D01*
X126147595Y-58528761D02*
X126052357Y-58624000D01*
X126052357Y-58624000D02*
X125909500Y-58671619D01*
X125909500Y-58671619D02*
X125671405Y-58671619D01*
X127147595Y-57671619D02*
X126671405Y-57671619D01*
X126671405Y-57671619D02*
X126623786Y-58147809D01*
X126623786Y-58147809D02*
X126671405Y-58100190D01*
X126671405Y-58100190D02*
X126766643Y-58052571D01*
X126766643Y-58052571D02*
X127004738Y-58052571D01*
X127004738Y-58052571D02*
X127099976Y-58100190D01*
X127099976Y-58100190D02*
X127147595Y-58147809D01*
X127147595Y-58147809D02*
X127195214Y-58243047D01*
X127195214Y-58243047D02*
X127195214Y-58481142D01*
X127195214Y-58481142D02*
X127147595Y-58576380D01*
X127147595Y-58576380D02*
X127099976Y-58624000D01*
X127099976Y-58624000D02*
X127004738Y-58671619D01*
X127004738Y-58671619D02*
X126766643Y-58671619D01*
X126766643Y-58671619D02*
X126671405Y-58624000D01*
X126671405Y-58624000D02*
X126623786Y-58576380D01*
X126039633Y-100759419D02*
X125706300Y-100283228D01*
X125468205Y-100759419D02*
X125468205Y-99759419D01*
X125468205Y-99759419D02*
X125849157Y-99759419D01*
X125849157Y-99759419D02*
X125944395Y-99807038D01*
X125944395Y-99807038D02*
X125992014Y-99854657D01*
X125992014Y-99854657D02*
X126039633Y-99949895D01*
X126039633Y-99949895D02*
X126039633Y-100092752D01*
X126039633Y-100092752D02*
X125992014Y-100187990D01*
X125992014Y-100187990D02*
X125944395Y-100235609D01*
X125944395Y-100235609D02*
X125849157Y-100283228D01*
X125849157Y-100283228D02*
X125468205Y-100283228D01*
X126420586Y-99854657D02*
X126468205Y-99807038D01*
X126468205Y-99807038D02*
X126563443Y-99759419D01*
X126563443Y-99759419D02*
X126801538Y-99759419D01*
X126801538Y-99759419D02*
X126896776Y-99807038D01*
X126896776Y-99807038D02*
X126944395Y-99854657D01*
X126944395Y-99854657D02*
X126992014Y-99949895D01*
X126992014Y-99949895D02*
X126992014Y-100045133D01*
X126992014Y-100045133D02*
X126944395Y-100187990D01*
X126944395Y-100187990D02*
X126372967Y-100759419D01*
X126372967Y-100759419D02*
X126992014Y-100759419D01*
X105914866Y-106287219D02*
X105914866Y-107001504D01*
X105914866Y-107001504D02*
X105867247Y-107144361D01*
X105867247Y-107144361D02*
X105772009Y-107239600D01*
X105772009Y-107239600D02*
X105629152Y-107287219D01*
X105629152Y-107287219D02*
X105533914Y-107287219D01*
X106914866Y-107287219D02*
X106343438Y-107287219D01*
X106629152Y-107287219D02*
X106629152Y-106287219D01*
X106629152Y-106287219D02*
X106533914Y-106430076D01*
X106533914Y-106430076D02*
X106438676Y-106525314D01*
X106438676Y-106525314D02*
X106343438Y-106572933D01*
X127931119Y-67216257D02*
X127454928Y-67549590D01*
X127931119Y-67787685D02*
X126931119Y-67787685D01*
X126931119Y-67787685D02*
X126931119Y-67406733D01*
X126931119Y-67406733D02*
X126978738Y-67311495D01*
X126978738Y-67311495D02*
X127026357Y-67263876D01*
X127026357Y-67263876D02*
X127121595Y-67216257D01*
X127121595Y-67216257D02*
X127264452Y-67216257D01*
X127264452Y-67216257D02*
X127359690Y-67263876D01*
X127359690Y-67263876D02*
X127407309Y-67311495D01*
X127407309Y-67311495D02*
X127454928Y-67406733D01*
X127454928Y-67406733D02*
X127454928Y-67787685D01*
X127931119Y-66263876D02*
X127931119Y-66835304D01*
X127931119Y-66549590D02*
X126931119Y-66549590D01*
X126931119Y-66549590D02*
X127073976Y-66644828D01*
X127073976Y-66644828D02*
X127169214Y-66740066D01*
X127169214Y-66740066D02*
X127216833Y-66835304D01*
X126931119Y-65644828D02*
X126931119Y-65549590D01*
X126931119Y-65549590D02*
X126978738Y-65454352D01*
X126978738Y-65454352D02*
X127026357Y-65406733D01*
X127026357Y-65406733D02*
X127121595Y-65359114D01*
X127121595Y-65359114D02*
X127312071Y-65311495D01*
X127312071Y-65311495D02*
X127550166Y-65311495D01*
X127550166Y-65311495D02*
X127740642Y-65359114D01*
X127740642Y-65359114D02*
X127835880Y-65406733D01*
X127835880Y-65406733D02*
X127883500Y-65454352D01*
X127883500Y-65454352D02*
X127931119Y-65549590D01*
X127931119Y-65549590D02*
X127931119Y-65644828D01*
X127931119Y-65644828D02*
X127883500Y-65740066D01*
X127883500Y-65740066D02*
X127835880Y-65787685D01*
X127835880Y-65787685D02*
X127740642Y-65835304D01*
X127740642Y-65835304D02*
X127550166Y-65882923D01*
X127550166Y-65882923D02*
X127312071Y-65882923D01*
X127312071Y-65882923D02*
X127121595Y-65835304D01*
X127121595Y-65835304D02*
X127026357Y-65787685D01*
X127026357Y-65787685D02*
X126978738Y-65740066D01*
X126978738Y-65740066D02*
X126931119Y-65644828D01*
X127011133Y-69492019D02*
X126677800Y-69015828D01*
X126439705Y-69492019D02*
X126439705Y-68492019D01*
X126439705Y-68492019D02*
X126820657Y-68492019D01*
X126820657Y-68492019D02*
X126915895Y-68539638D01*
X126915895Y-68539638D02*
X126963514Y-68587257D01*
X126963514Y-68587257D02*
X127011133Y-68682495D01*
X127011133Y-68682495D02*
X127011133Y-68825352D01*
X127011133Y-68825352D02*
X126963514Y-68920590D01*
X126963514Y-68920590D02*
X126915895Y-68968209D01*
X126915895Y-68968209D02*
X126820657Y-69015828D01*
X126820657Y-69015828D02*
X126439705Y-69015828D01*
X127868276Y-68492019D02*
X127677800Y-68492019D01*
X127677800Y-68492019D02*
X127582562Y-68539638D01*
X127582562Y-68539638D02*
X127534943Y-68587257D01*
X127534943Y-68587257D02*
X127439705Y-68730114D01*
X127439705Y-68730114D02*
X127392086Y-68920590D01*
X127392086Y-68920590D02*
X127392086Y-69301542D01*
X127392086Y-69301542D02*
X127439705Y-69396780D01*
X127439705Y-69396780D02*
X127487324Y-69444400D01*
X127487324Y-69444400D02*
X127582562Y-69492019D01*
X127582562Y-69492019D02*
X127773038Y-69492019D01*
X127773038Y-69492019D02*
X127868276Y-69444400D01*
X127868276Y-69444400D02*
X127915895Y-69396780D01*
X127915895Y-69396780D02*
X127963514Y-69301542D01*
X127963514Y-69301542D02*
X127963514Y-69063447D01*
X127963514Y-69063447D02*
X127915895Y-68968209D01*
X127915895Y-68968209D02*
X127868276Y-68920590D01*
X127868276Y-68920590D02*
X127773038Y-68872971D01*
X127773038Y-68872971D02*
X127582562Y-68872971D01*
X127582562Y-68872971D02*
X127487324Y-68920590D01*
X127487324Y-68920590D02*
X127439705Y-68968209D01*
X127439705Y-68968209D02*
X127392086Y-69063447D01*
X120718405Y-73835419D02*
X120718405Y-72835419D01*
X120718405Y-72835419D02*
X120956500Y-72835419D01*
X120956500Y-72835419D02*
X121099357Y-72883038D01*
X121099357Y-72883038D02*
X121194595Y-72978276D01*
X121194595Y-72978276D02*
X121242214Y-73073514D01*
X121242214Y-73073514D02*
X121289833Y-73263990D01*
X121289833Y-73263990D02*
X121289833Y-73406847D01*
X121289833Y-73406847D02*
X121242214Y-73597323D01*
X121242214Y-73597323D02*
X121194595Y-73692561D01*
X121194595Y-73692561D02*
X121099357Y-73787800D01*
X121099357Y-73787800D02*
X120956500Y-73835419D01*
X120956500Y-73835419D02*
X120718405Y-73835419D01*
X122146976Y-73168752D02*
X122146976Y-73835419D01*
X121908881Y-72787800D02*
X121670786Y-73502085D01*
X121670786Y-73502085D02*
X122289833Y-73502085D01*
X148574729Y-72178809D02*
X148717586Y-72226428D01*
X148717586Y-72226428D02*
X148955681Y-72226428D01*
X148955681Y-72226428D02*
X149050919Y-72178809D01*
X149050919Y-72178809D02*
X149098538Y-72131189D01*
X149098538Y-72131189D02*
X149146157Y-72035951D01*
X149146157Y-72035951D02*
X149146157Y-71940713D01*
X149146157Y-71940713D02*
X149098538Y-71845475D01*
X149098538Y-71845475D02*
X149050919Y-71797856D01*
X149050919Y-71797856D02*
X148955681Y-71750237D01*
X148955681Y-71750237D02*
X148765205Y-71702618D01*
X148765205Y-71702618D02*
X148669967Y-71654999D01*
X148669967Y-71654999D02*
X148622348Y-71607380D01*
X148622348Y-71607380D02*
X148574729Y-71512142D01*
X148574729Y-71512142D02*
X148574729Y-71416904D01*
X148574729Y-71416904D02*
X148622348Y-71321666D01*
X148622348Y-71321666D02*
X148669967Y-71274047D01*
X148669967Y-71274047D02*
X148765205Y-71226428D01*
X148765205Y-71226428D02*
X149003300Y-71226428D01*
X149003300Y-71226428D02*
X149146157Y-71274047D01*
X149479491Y-71226428D02*
X150098538Y-71226428D01*
X150098538Y-71226428D02*
X149765205Y-71607380D01*
X149765205Y-71607380D02*
X149908062Y-71607380D01*
X149908062Y-71607380D02*
X150003300Y-71654999D01*
X150003300Y-71654999D02*
X150050919Y-71702618D01*
X150050919Y-71702618D02*
X150098538Y-71797856D01*
X150098538Y-71797856D02*
X150098538Y-72035951D01*
X150098538Y-72035951D02*
X150050919Y-72131189D01*
X150050919Y-72131189D02*
X150003300Y-72178809D01*
X150003300Y-72178809D02*
X149908062Y-72226428D01*
X149908062Y-72226428D02*
X149622348Y-72226428D01*
X149622348Y-72226428D02*
X149527110Y-72178809D01*
X149527110Y-72178809D02*
X149479491Y-72131189D01*
X112590405Y-84392819D02*
X112590405Y-83392819D01*
X112590405Y-83392819D02*
X112828500Y-83392819D01*
X112828500Y-83392819D02*
X112971357Y-83440438D01*
X112971357Y-83440438D02*
X113066595Y-83535676D01*
X113066595Y-83535676D02*
X113114214Y-83630914D01*
X113114214Y-83630914D02*
X113161833Y-83821390D01*
X113161833Y-83821390D02*
X113161833Y-83964247D01*
X113161833Y-83964247D02*
X113114214Y-84154723D01*
X113114214Y-84154723D02*
X113066595Y-84249961D01*
X113066595Y-84249961D02*
X112971357Y-84345200D01*
X112971357Y-84345200D02*
X112828500Y-84392819D01*
X112828500Y-84392819D02*
X112590405Y-84392819D01*
X113542786Y-83488057D02*
X113590405Y-83440438D01*
X113590405Y-83440438D02*
X113685643Y-83392819D01*
X113685643Y-83392819D02*
X113923738Y-83392819D01*
X113923738Y-83392819D02*
X114018976Y-83440438D01*
X114018976Y-83440438D02*
X114066595Y-83488057D01*
X114066595Y-83488057D02*
X114114214Y-83583295D01*
X114114214Y-83583295D02*
X114114214Y-83678533D01*
X114114214Y-83678533D02*
X114066595Y-83821390D01*
X114066595Y-83821390D02*
X113495167Y-84392819D01*
X113495167Y-84392819D02*
X114114214Y-84392819D01*
X138415842Y-76051580D02*
X138368223Y-76099200D01*
X138368223Y-76099200D02*
X138225366Y-76146819D01*
X138225366Y-76146819D02*
X138130128Y-76146819D01*
X138130128Y-76146819D02*
X137987271Y-76099200D01*
X137987271Y-76099200D02*
X137892033Y-76003961D01*
X137892033Y-76003961D02*
X137844414Y-75908723D01*
X137844414Y-75908723D02*
X137796795Y-75718247D01*
X137796795Y-75718247D02*
X137796795Y-75575390D01*
X137796795Y-75575390D02*
X137844414Y-75384914D01*
X137844414Y-75384914D02*
X137892033Y-75289676D01*
X137892033Y-75289676D02*
X137987271Y-75194438D01*
X137987271Y-75194438D02*
X138130128Y-75146819D01*
X138130128Y-75146819D02*
X138225366Y-75146819D01*
X138225366Y-75146819D02*
X138368223Y-75194438D01*
X138368223Y-75194438D02*
X138415842Y-75242057D01*
X139368223Y-76146819D02*
X138796795Y-76146819D01*
X139082509Y-76146819D02*
X139082509Y-75146819D01*
X139082509Y-75146819D02*
X138987271Y-75289676D01*
X138987271Y-75289676D02*
X138892033Y-75384914D01*
X138892033Y-75384914D02*
X138796795Y-75432533D01*
X140225366Y-75480152D02*
X140225366Y-76146819D01*
X139987271Y-75099200D02*
X139749176Y-75813485D01*
X139749176Y-75813485D02*
X140368223Y-75813485D01*
X118851433Y-87781019D02*
X118518100Y-87304828D01*
X118280005Y-87781019D02*
X118280005Y-86781019D01*
X118280005Y-86781019D02*
X118660957Y-86781019D01*
X118660957Y-86781019D02*
X118756195Y-86828638D01*
X118756195Y-86828638D02*
X118803814Y-86876257D01*
X118803814Y-86876257D02*
X118851433Y-86971495D01*
X118851433Y-86971495D02*
X118851433Y-87114352D01*
X118851433Y-87114352D02*
X118803814Y-87209590D01*
X118803814Y-87209590D02*
X118756195Y-87257209D01*
X118756195Y-87257209D02*
X118660957Y-87304828D01*
X118660957Y-87304828D02*
X118280005Y-87304828D01*
X119184767Y-86781019D02*
X119803814Y-86781019D01*
X119803814Y-86781019D02*
X119470481Y-87161971D01*
X119470481Y-87161971D02*
X119613338Y-87161971D01*
X119613338Y-87161971D02*
X119708576Y-87209590D01*
X119708576Y-87209590D02*
X119756195Y-87257209D01*
X119756195Y-87257209D02*
X119803814Y-87352447D01*
X119803814Y-87352447D02*
X119803814Y-87590542D01*
X119803814Y-87590542D02*
X119756195Y-87685780D01*
X119756195Y-87685780D02*
X119708576Y-87733400D01*
X119708576Y-87733400D02*
X119613338Y-87781019D01*
X119613338Y-87781019D02*
X119327624Y-87781019D01*
X119327624Y-87781019D02*
X119232386Y-87733400D01*
X119232386Y-87733400D02*
X119184767Y-87685780D01*
X121524842Y-83239780D02*
X121477223Y-83287400D01*
X121477223Y-83287400D02*
X121334366Y-83335019D01*
X121334366Y-83335019D02*
X121239128Y-83335019D01*
X121239128Y-83335019D02*
X121096271Y-83287400D01*
X121096271Y-83287400D02*
X121001033Y-83192161D01*
X121001033Y-83192161D02*
X120953414Y-83096923D01*
X120953414Y-83096923D02*
X120905795Y-82906447D01*
X120905795Y-82906447D02*
X120905795Y-82763590D01*
X120905795Y-82763590D02*
X120953414Y-82573114D01*
X120953414Y-82573114D02*
X121001033Y-82477876D01*
X121001033Y-82477876D02*
X121096271Y-82382638D01*
X121096271Y-82382638D02*
X121239128Y-82335019D01*
X121239128Y-82335019D02*
X121334366Y-82335019D01*
X121334366Y-82335019D02*
X121477223Y-82382638D01*
X121477223Y-82382638D02*
X121524842Y-82430257D01*
X121905795Y-82430257D02*
X121953414Y-82382638D01*
X121953414Y-82382638D02*
X122048652Y-82335019D01*
X122048652Y-82335019D02*
X122286747Y-82335019D01*
X122286747Y-82335019D02*
X122381985Y-82382638D01*
X122381985Y-82382638D02*
X122429604Y-82430257D01*
X122429604Y-82430257D02*
X122477223Y-82525495D01*
X122477223Y-82525495D02*
X122477223Y-82620733D01*
X122477223Y-82620733D02*
X122429604Y-82763590D01*
X122429604Y-82763590D02*
X121858176Y-83335019D01*
X121858176Y-83335019D02*
X122477223Y-83335019D01*
X123381985Y-82335019D02*
X122905795Y-82335019D01*
X122905795Y-82335019D02*
X122858176Y-82811209D01*
X122858176Y-82811209D02*
X122905795Y-82763590D01*
X122905795Y-82763590D02*
X123001033Y-82715971D01*
X123001033Y-82715971D02*
X123239128Y-82715971D01*
X123239128Y-82715971D02*
X123334366Y-82763590D01*
X123334366Y-82763590D02*
X123381985Y-82811209D01*
X123381985Y-82811209D02*
X123429604Y-82906447D01*
X123429604Y-82906447D02*
X123429604Y-83144542D01*
X123429604Y-83144542D02*
X123381985Y-83239780D01*
X123381985Y-83239780D02*
X123334366Y-83287400D01*
X123334366Y-83287400D02*
X123239128Y-83335019D01*
X123239128Y-83335019D02*
X123001033Y-83335019D01*
X123001033Y-83335019D02*
X122905795Y-83287400D01*
X122905795Y-83287400D02*
X122858176Y-83239780D01*
X143609280Y-59774057D02*
X143656900Y-59821676D01*
X143656900Y-59821676D02*
X143704519Y-59964533D01*
X143704519Y-59964533D02*
X143704519Y-60059771D01*
X143704519Y-60059771D02*
X143656900Y-60202628D01*
X143656900Y-60202628D02*
X143561661Y-60297866D01*
X143561661Y-60297866D02*
X143466423Y-60345485D01*
X143466423Y-60345485D02*
X143275947Y-60393104D01*
X143275947Y-60393104D02*
X143133090Y-60393104D01*
X143133090Y-60393104D02*
X142942614Y-60345485D01*
X142942614Y-60345485D02*
X142847376Y-60297866D01*
X142847376Y-60297866D02*
X142752138Y-60202628D01*
X142752138Y-60202628D02*
X142704519Y-60059771D01*
X142704519Y-60059771D02*
X142704519Y-59964533D01*
X142704519Y-59964533D02*
X142752138Y-59821676D01*
X142752138Y-59821676D02*
X142799757Y-59774057D01*
X143704519Y-58821676D02*
X143704519Y-59393104D01*
X143704519Y-59107390D02*
X142704519Y-59107390D01*
X142704519Y-59107390D02*
X142847376Y-59202628D01*
X142847376Y-59202628D02*
X142942614Y-59297866D01*
X142942614Y-59297866D02*
X142990233Y-59393104D01*
X142704519Y-58488342D02*
X142704519Y-57821676D01*
X142704519Y-57821676D02*
X143704519Y-58250247D01*
X152055642Y-93018780D02*
X152008023Y-93066400D01*
X152008023Y-93066400D02*
X151865166Y-93114019D01*
X151865166Y-93114019D02*
X151769928Y-93114019D01*
X151769928Y-93114019D02*
X151627071Y-93066400D01*
X151627071Y-93066400D02*
X151531833Y-92971161D01*
X151531833Y-92971161D02*
X151484214Y-92875923D01*
X151484214Y-92875923D02*
X151436595Y-92685447D01*
X151436595Y-92685447D02*
X151436595Y-92542590D01*
X151436595Y-92542590D02*
X151484214Y-92352114D01*
X151484214Y-92352114D02*
X151531833Y-92256876D01*
X151531833Y-92256876D02*
X151627071Y-92161638D01*
X151627071Y-92161638D02*
X151769928Y-92114019D01*
X151769928Y-92114019D02*
X151865166Y-92114019D01*
X151865166Y-92114019D02*
X152008023Y-92161638D01*
X152008023Y-92161638D02*
X152055642Y-92209257D01*
X152436595Y-92209257D02*
X152484214Y-92161638D01*
X152484214Y-92161638D02*
X152579452Y-92114019D01*
X152579452Y-92114019D02*
X152817547Y-92114019D01*
X152817547Y-92114019D02*
X152912785Y-92161638D01*
X152912785Y-92161638D02*
X152960404Y-92209257D01*
X152960404Y-92209257D02*
X153008023Y-92304495D01*
X153008023Y-92304495D02*
X153008023Y-92399733D01*
X153008023Y-92399733D02*
X152960404Y-92542590D01*
X152960404Y-92542590D02*
X152388976Y-93114019D01*
X152388976Y-93114019D02*
X153008023Y-93114019D01*
X153865166Y-92114019D02*
X153674690Y-92114019D01*
X153674690Y-92114019D02*
X153579452Y-92161638D01*
X153579452Y-92161638D02*
X153531833Y-92209257D01*
X153531833Y-92209257D02*
X153436595Y-92352114D01*
X153436595Y-92352114D02*
X153388976Y-92542590D01*
X153388976Y-92542590D02*
X153388976Y-92923542D01*
X153388976Y-92923542D02*
X153436595Y-93018780D01*
X153436595Y-93018780D02*
X153484214Y-93066400D01*
X153484214Y-93066400D02*
X153579452Y-93114019D01*
X153579452Y-93114019D02*
X153769928Y-93114019D01*
X153769928Y-93114019D02*
X153865166Y-93066400D01*
X153865166Y-93066400D02*
X153912785Y-93018780D01*
X153912785Y-93018780D02*
X153960404Y-92923542D01*
X153960404Y-92923542D02*
X153960404Y-92685447D01*
X153960404Y-92685447D02*
X153912785Y-92590209D01*
X153912785Y-92590209D02*
X153865166Y-92542590D01*
X153865166Y-92542590D02*
X153769928Y-92494971D01*
X153769928Y-92494971D02*
X153579452Y-92494971D01*
X153579452Y-92494971D02*
X153484214Y-92542590D01*
X153484214Y-92542590D02*
X153436595Y-92590209D01*
X153436595Y-92590209D02*
X153388976Y-92685447D01*
X148926166Y-58912419D02*
X148926166Y-59626704D01*
X148926166Y-59626704D02*
X148878547Y-59769561D01*
X148878547Y-59769561D02*
X148783309Y-59864800D01*
X148783309Y-59864800D02*
X148640452Y-59912419D01*
X148640452Y-59912419D02*
X148545214Y-59912419D01*
X149878547Y-58912419D02*
X149402357Y-58912419D01*
X149402357Y-58912419D02*
X149354738Y-59388609D01*
X149354738Y-59388609D02*
X149402357Y-59340990D01*
X149402357Y-59340990D02*
X149497595Y-59293371D01*
X149497595Y-59293371D02*
X149735690Y-59293371D01*
X149735690Y-59293371D02*
X149830928Y-59340990D01*
X149830928Y-59340990D02*
X149878547Y-59388609D01*
X149878547Y-59388609D02*
X149926166Y-59483847D01*
X149926166Y-59483847D02*
X149926166Y-59721942D01*
X149926166Y-59721942D02*
X149878547Y-59817180D01*
X149878547Y-59817180D02*
X149830928Y-59864800D01*
X149830928Y-59864800D02*
X149735690Y-59912419D01*
X149735690Y-59912419D02*
X149497595Y-59912419D01*
X149497595Y-59912419D02*
X149402357Y-59864800D01*
X149402357Y-59864800D02*
X149354738Y-59817180D01*
X135520242Y-58246180D02*
X135472623Y-58293800D01*
X135472623Y-58293800D02*
X135329766Y-58341419D01*
X135329766Y-58341419D02*
X135234528Y-58341419D01*
X135234528Y-58341419D02*
X135091671Y-58293800D01*
X135091671Y-58293800D02*
X134996433Y-58198561D01*
X134996433Y-58198561D02*
X134948814Y-58103323D01*
X134948814Y-58103323D02*
X134901195Y-57912847D01*
X134901195Y-57912847D02*
X134901195Y-57769990D01*
X134901195Y-57769990D02*
X134948814Y-57579514D01*
X134948814Y-57579514D02*
X134996433Y-57484276D01*
X134996433Y-57484276D02*
X135091671Y-57389038D01*
X135091671Y-57389038D02*
X135234528Y-57341419D01*
X135234528Y-57341419D02*
X135329766Y-57341419D01*
X135329766Y-57341419D02*
X135472623Y-57389038D01*
X135472623Y-57389038D02*
X135520242Y-57436657D01*
X136472623Y-58341419D02*
X135901195Y-58341419D01*
X136186909Y-58341419D02*
X136186909Y-57341419D01*
X136186909Y-57341419D02*
X136091671Y-57484276D01*
X136091671Y-57484276D02*
X135996433Y-57579514D01*
X135996433Y-57579514D02*
X135901195Y-57627133D01*
X137044052Y-57769990D02*
X136948814Y-57722371D01*
X136948814Y-57722371D02*
X136901195Y-57674752D01*
X136901195Y-57674752D02*
X136853576Y-57579514D01*
X136853576Y-57579514D02*
X136853576Y-57531895D01*
X136853576Y-57531895D02*
X136901195Y-57436657D01*
X136901195Y-57436657D02*
X136948814Y-57389038D01*
X136948814Y-57389038D02*
X137044052Y-57341419D01*
X137044052Y-57341419D02*
X137234528Y-57341419D01*
X137234528Y-57341419D02*
X137329766Y-57389038D01*
X137329766Y-57389038D02*
X137377385Y-57436657D01*
X137377385Y-57436657D02*
X137425004Y-57531895D01*
X137425004Y-57531895D02*
X137425004Y-57579514D01*
X137425004Y-57579514D02*
X137377385Y-57674752D01*
X137377385Y-57674752D02*
X137329766Y-57722371D01*
X137329766Y-57722371D02*
X137234528Y-57769990D01*
X137234528Y-57769990D02*
X137044052Y-57769990D01*
X137044052Y-57769990D02*
X136948814Y-57817609D01*
X136948814Y-57817609D02*
X136901195Y-57865228D01*
X136901195Y-57865228D02*
X136853576Y-57960466D01*
X136853576Y-57960466D02*
X136853576Y-58150942D01*
X136853576Y-58150942D02*
X136901195Y-58246180D01*
X136901195Y-58246180D02*
X136948814Y-58293800D01*
X136948814Y-58293800D02*
X137044052Y-58341419D01*
X137044052Y-58341419D02*
X137234528Y-58341419D01*
X137234528Y-58341419D02*
X137329766Y-58293800D01*
X137329766Y-58293800D02*
X137377385Y-58246180D01*
X137377385Y-58246180D02*
X137425004Y-58150942D01*
X137425004Y-58150942D02*
X137425004Y-57960466D01*
X137425004Y-57960466D02*
X137377385Y-57865228D01*
X137377385Y-57865228D02*
X137329766Y-57817609D01*
X137329766Y-57817609D02*
X137234528Y-57769990D01*
X142346042Y-86926080D02*
X142298423Y-86973700D01*
X142298423Y-86973700D02*
X142155566Y-87021319D01*
X142155566Y-87021319D02*
X142060328Y-87021319D01*
X142060328Y-87021319D02*
X141917471Y-86973700D01*
X141917471Y-86973700D02*
X141822233Y-86878461D01*
X141822233Y-86878461D02*
X141774614Y-86783223D01*
X141774614Y-86783223D02*
X141726995Y-86592747D01*
X141726995Y-86592747D02*
X141726995Y-86449890D01*
X141726995Y-86449890D02*
X141774614Y-86259414D01*
X141774614Y-86259414D02*
X141822233Y-86164176D01*
X141822233Y-86164176D02*
X141917471Y-86068938D01*
X141917471Y-86068938D02*
X142060328Y-86021319D01*
X142060328Y-86021319D02*
X142155566Y-86021319D01*
X142155566Y-86021319D02*
X142298423Y-86068938D01*
X142298423Y-86068938D02*
X142346042Y-86116557D01*
X142726995Y-86116557D02*
X142774614Y-86068938D01*
X142774614Y-86068938D02*
X142869852Y-86021319D01*
X142869852Y-86021319D02*
X143107947Y-86021319D01*
X143107947Y-86021319D02*
X143203185Y-86068938D01*
X143203185Y-86068938D02*
X143250804Y-86116557D01*
X143250804Y-86116557D02*
X143298423Y-86211795D01*
X143298423Y-86211795D02*
X143298423Y-86307033D01*
X143298423Y-86307033D02*
X143250804Y-86449890D01*
X143250804Y-86449890D02*
X142679376Y-87021319D01*
X142679376Y-87021319D02*
X143298423Y-87021319D01*
X143917471Y-86021319D02*
X144012709Y-86021319D01*
X144012709Y-86021319D02*
X144107947Y-86068938D01*
X144107947Y-86068938D02*
X144155566Y-86116557D01*
X144155566Y-86116557D02*
X144203185Y-86211795D01*
X144203185Y-86211795D02*
X144250804Y-86402271D01*
X144250804Y-86402271D02*
X144250804Y-86640366D01*
X144250804Y-86640366D02*
X144203185Y-86830842D01*
X144203185Y-86830842D02*
X144155566Y-86926080D01*
X144155566Y-86926080D02*
X144107947Y-86973700D01*
X144107947Y-86973700D02*
X144012709Y-87021319D01*
X144012709Y-87021319D02*
X143917471Y-87021319D01*
X143917471Y-87021319D02*
X143822233Y-86973700D01*
X143822233Y-86973700D02*
X143774614Y-86926080D01*
X143774614Y-86926080D02*
X143726995Y-86830842D01*
X143726995Y-86830842D02*
X143679376Y-86640366D01*
X143679376Y-86640366D02*
X143679376Y-86402271D01*
X143679376Y-86402271D02*
X143726995Y-86211795D01*
X143726995Y-86211795D02*
X143774614Y-86116557D01*
X143774614Y-86116557D02*
X143822233Y-86068938D01*
X143822233Y-86068938D02*
X143917471Y-86021319D01*
X153141433Y-84077980D02*
X153093814Y-84125600D01*
X153093814Y-84125600D02*
X152950957Y-84173219D01*
X152950957Y-84173219D02*
X152855719Y-84173219D01*
X152855719Y-84173219D02*
X152712862Y-84125600D01*
X152712862Y-84125600D02*
X152617624Y-84030361D01*
X152617624Y-84030361D02*
X152570005Y-83935123D01*
X152570005Y-83935123D02*
X152522386Y-83744647D01*
X152522386Y-83744647D02*
X152522386Y-83601790D01*
X152522386Y-83601790D02*
X152570005Y-83411314D01*
X152570005Y-83411314D02*
X152617624Y-83316076D01*
X152617624Y-83316076D02*
X152712862Y-83220838D01*
X152712862Y-83220838D02*
X152855719Y-83173219D01*
X152855719Y-83173219D02*
X152950957Y-83173219D01*
X152950957Y-83173219D02*
X153093814Y-83220838D01*
X153093814Y-83220838D02*
X153141433Y-83268457D01*
X153998576Y-83173219D02*
X153808100Y-83173219D01*
X153808100Y-83173219D02*
X153712862Y-83220838D01*
X153712862Y-83220838D02*
X153665243Y-83268457D01*
X153665243Y-83268457D02*
X153570005Y-83411314D01*
X153570005Y-83411314D02*
X153522386Y-83601790D01*
X153522386Y-83601790D02*
X153522386Y-83982742D01*
X153522386Y-83982742D02*
X153570005Y-84077980D01*
X153570005Y-84077980D02*
X153617624Y-84125600D01*
X153617624Y-84125600D02*
X153712862Y-84173219D01*
X153712862Y-84173219D02*
X153903338Y-84173219D01*
X153903338Y-84173219D02*
X153998576Y-84125600D01*
X153998576Y-84125600D02*
X154046195Y-84077980D01*
X154046195Y-84077980D02*
X154093814Y-83982742D01*
X154093814Y-83982742D02*
X154093814Y-83744647D01*
X154093814Y-83744647D02*
X154046195Y-83649409D01*
X154046195Y-83649409D02*
X153998576Y-83601790D01*
X153998576Y-83601790D02*
X153903338Y-83554171D01*
X153903338Y-83554171D02*
X153712862Y-83554171D01*
X153712862Y-83554171D02*
X153617624Y-83601790D01*
X153617624Y-83601790D02*
X153570005Y-83649409D01*
X153570005Y-83649409D02*
X153522386Y-83744647D01*
X159882766Y-106351019D02*
X159882766Y-107065304D01*
X159882766Y-107065304D02*
X159835147Y-107208161D01*
X159835147Y-107208161D02*
X159739909Y-107303400D01*
X159739909Y-107303400D02*
X159597052Y-107351019D01*
X159597052Y-107351019D02*
X159501814Y-107351019D01*
X160787528Y-106351019D02*
X160597052Y-106351019D01*
X160597052Y-106351019D02*
X160501814Y-106398638D01*
X160501814Y-106398638D02*
X160454195Y-106446257D01*
X160454195Y-106446257D02*
X160358957Y-106589114D01*
X160358957Y-106589114D02*
X160311338Y-106779590D01*
X160311338Y-106779590D02*
X160311338Y-107160542D01*
X160311338Y-107160542D02*
X160358957Y-107255780D01*
X160358957Y-107255780D02*
X160406576Y-107303400D01*
X160406576Y-107303400D02*
X160501814Y-107351019D01*
X160501814Y-107351019D02*
X160692290Y-107351019D01*
X160692290Y-107351019D02*
X160787528Y-107303400D01*
X160787528Y-107303400D02*
X160835147Y-107255780D01*
X160835147Y-107255780D02*
X160882766Y-107160542D01*
X160882766Y-107160542D02*
X160882766Y-106922447D01*
X160882766Y-106922447D02*
X160835147Y-106827209D01*
X160835147Y-106827209D02*
X160787528Y-106779590D01*
X160787528Y-106779590D02*
X160692290Y-106731971D01*
X160692290Y-106731971D02*
X160501814Y-106731971D01*
X160501814Y-106731971D02*
X160406576Y-106779590D01*
X160406576Y-106779590D02*
X160358957Y-106827209D01*
X160358957Y-106827209D02*
X160311338Y-106922447D01*
X138314242Y-62056180D02*
X138266623Y-62103800D01*
X138266623Y-62103800D02*
X138123766Y-62151419D01*
X138123766Y-62151419D02*
X138028528Y-62151419D01*
X138028528Y-62151419D02*
X137885671Y-62103800D01*
X137885671Y-62103800D02*
X137790433Y-62008561D01*
X137790433Y-62008561D02*
X137742814Y-61913323D01*
X137742814Y-61913323D02*
X137695195Y-61722847D01*
X137695195Y-61722847D02*
X137695195Y-61579990D01*
X137695195Y-61579990D02*
X137742814Y-61389514D01*
X137742814Y-61389514D02*
X137790433Y-61294276D01*
X137790433Y-61294276D02*
X137885671Y-61199038D01*
X137885671Y-61199038D02*
X138028528Y-61151419D01*
X138028528Y-61151419D02*
X138123766Y-61151419D01*
X138123766Y-61151419D02*
X138266623Y-61199038D01*
X138266623Y-61199038D02*
X138314242Y-61246657D01*
X138695195Y-61246657D02*
X138742814Y-61199038D01*
X138742814Y-61199038D02*
X138838052Y-61151419D01*
X138838052Y-61151419D02*
X139076147Y-61151419D01*
X139076147Y-61151419D02*
X139171385Y-61199038D01*
X139171385Y-61199038D02*
X139219004Y-61246657D01*
X139219004Y-61246657D02*
X139266623Y-61341895D01*
X139266623Y-61341895D02*
X139266623Y-61437133D01*
X139266623Y-61437133D02*
X139219004Y-61579990D01*
X139219004Y-61579990D02*
X138647576Y-62151419D01*
X138647576Y-62151419D02*
X139266623Y-62151419D01*
X139599957Y-61151419D02*
X140219004Y-61151419D01*
X140219004Y-61151419D02*
X139885671Y-61532371D01*
X139885671Y-61532371D02*
X140028528Y-61532371D01*
X140028528Y-61532371D02*
X140123766Y-61579990D01*
X140123766Y-61579990D02*
X140171385Y-61627609D01*
X140171385Y-61627609D02*
X140219004Y-61722847D01*
X140219004Y-61722847D02*
X140219004Y-61960942D01*
X140219004Y-61960942D02*
X140171385Y-62056180D01*
X140171385Y-62056180D02*
X140123766Y-62103800D01*
X140123766Y-62103800D02*
X140028528Y-62151419D01*
X140028528Y-62151419D02*
X139742814Y-62151419D01*
X139742814Y-62151419D02*
X139647576Y-62103800D01*
X139647576Y-62103800D02*
X139599957Y-62056180D01*
X118073709Y-66859901D02*
X118073709Y-67574186D01*
X118073709Y-67574186D02*
X118026090Y-67717043D01*
X118026090Y-67717043D02*
X117930852Y-67812282D01*
X117930852Y-67812282D02*
X117787995Y-67859901D01*
X117787995Y-67859901D02*
X117692757Y-67859901D01*
X118597519Y-67859901D02*
X118787995Y-67859901D01*
X118787995Y-67859901D02*
X118883233Y-67812282D01*
X118883233Y-67812282D02*
X118930852Y-67764662D01*
X118930852Y-67764662D02*
X119026090Y-67621805D01*
X119026090Y-67621805D02*
X119073709Y-67431329D01*
X119073709Y-67431329D02*
X119073709Y-67050377D01*
X119073709Y-67050377D02*
X119026090Y-66955139D01*
X119026090Y-66955139D02*
X118978471Y-66907520D01*
X118978471Y-66907520D02*
X118883233Y-66859901D01*
X118883233Y-66859901D02*
X118692757Y-66859901D01*
X118692757Y-66859901D02*
X118597519Y-66907520D01*
X118597519Y-66907520D02*
X118549900Y-66955139D01*
X118549900Y-66955139D02*
X118502281Y-67050377D01*
X118502281Y-67050377D02*
X118502281Y-67288472D01*
X118502281Y-67288472D02*
X118549900Y-67383710D01*
X118549900Y-67383710D02*
X118597519Y-67431329D01*
X118597519Y-67431329D02*
X118692757Y-67478948D01*
X118692757Y-67478948D02*
X118883233Y-67478948D01*
X118883233Y-67478948D02*
X118978471Y-67431329D01*
X118978471Y-67431329D02*
X119026090Y-67383710D01*
X119026090Y-67383710D02*
X119073709Y-67288472D01*
X103585719Y-90317733D02*
X104300004Y-90317733D01*
X104300004Y-90317733D02*
X104442861Y-90365352D01*
X104442861Y-90365352D02*
X104538100Y-90460590D01*
X104538100Y-90460590D02*
X104585719Y-90603447D01*
X104585719Y-90603447D02*
X104585719Y-90698685D01*
X103585719Y-89936780D02*
X103585719Y-89317733D01*
X103585719Y-89317733D02*
X103966671Y-89651066D01*
X103966671Y-89651066D02*
X103966671Y-89508209D01*
X103966671Y-89508209D02*
X104014290Y-89412971D01*
X104014290Y-89412971D02*
X104061909Y-89365352D01*
X104061909Y-89365352D02*
X104157147Y-89317733D01*
X104157147Y-89317733D02*
X104395242Y-89317733D01*
X104395242Y-89317733D02*
X104490480Y-89365352D01*
X104490480Y-89365352D02*
X104538100Y-89412971D01*
X104538100Y-89412971D02*
X104585719Y-89508209D01*
X104585719Y-89508209D02*
X104585719Y-89793923D01*
X104585719Y-89793923D02*
X104538100Y-89889161D01*
X104538100Y-89889161D02*
X104490480Y-89936780D01*
X142473042Y-93301480D02*
X142425423Y-93349100D01*
X142425423Y-93349100D02*
X142282566Y-93396719D01*
X142282566Y-93396719D02*
X142187328Y-93396719D01*
X142187328Y-93396719D02*
X142044471Y-93349100D01*
X142044471Y-93349100D02*
X141949233Y-93253861D01*
X141949233Y-93253861D02*
X141901614Y-93158623D01*
X141901614Y-93158623D02*
X141853995Y-92968147D01*
X141853995Y-92968147D02*
X141853995Y-92825290D01*
X141853995Y-92825290D02*
X141901614Y-92634814D01*
X141901614Y-92634814D02*
X141949233Y-92539576D01*
X141949233Y-92539576D02*
X142044471Y-92444338D01*
X142044471Y-92444338D02*
X142187328Y-92396719D01*
X142187328Y-92396719D02*
X142282566Y-92396719D01*
X142282566Y-92396719D02*
X142425423Y-92444338D01*
X142425423Y-92444338D02*
X142473042Y-92491957D01*
X143425423Y-93396719D02*
X142853995Y-93396719D01*
X143139709Y-93396719D02*
X143139709Y-92396719D01*
X143139709Y-92396719D02*
X143044471Y-92539576D01*
X143044471Y-92539576D02*
X142949233Y-92634814D01*
X142949233Y-92634814D02*
X142853995Y-92682433D01*
X143901614Y-93396719D02*
X144092090Y-93396719D01*
X144092090Y-93396719D02*
X144187328Y-93349100D01*
X144187328Y-93349100D02*
X144234947Y-93301480D01*
X144234947Y-93301480D02*
X144330185Y-93158623D01*
X144330185Y-93158623D02*
X144377804Y-92968147D01*
X144377804Y-92968147D02*
X144377804Y-92587195D01*
X144377804Y-92587195D02*
X144330185Y-92491957D01*
X144330185Y-92491957D02*
X144282566Y-92444338D01*
X144282566Y-92444338D02*
X144187328Y-92396719D01*
X144187328Y-92396719D02*
X143996852Y-92396719D01*
X143996852Y-92396719D02*
X143901614Y-92444338D01*
X143901614Y-92444338D02*
X143853995Y-92491957D01*
X143853995Y-92491957D02*
X143806376Y-92587195D01*
X143806376Y-92587195D02*
X143806376Y-92825290D01*
X143806376Y-92825290D02*
X143853995Y-92920528D01*
X143853995Y-92920528D02*
X143901614Y-92968147D01*
X143901614Y-92968147D02*
X143996852Y-93015766D01*
X143996852Y-93015766D02*
X144187328Y-93015766D01*
X144187328Y-93015766D02*
X144282566Y-92968147D01*
X144282566Y-92968147D02*
X144330185Y-92920528D01*
X144330185Y-92920528D02*
X144377804Y-92825290D01*
X154301866Y-106642819D02*
X154301866Y-107357104D01*
X154301866Y-107357104D02*
X154254247Y-107499961D01*
X154254247Y-107499961D02*
X154159009Y-107595200D01*
X154159009Y-107595200D02*
X154016152Y-107642819D01*
X154016152Y-107642819D02*
X153920914Y-107642819D01*
X154730438Y-106738057D02*
X154778057Y-106690438D01*
X154778057Y-106690438D02*
X154873295Y-106642819D01*
X154873295Y-106642819D02*
X155111390Y-106642819D01*
X155111390Y-106642819D02*
X155206628Y-106690438D01*
X155206628Y-106690438D02*
X155254247Y-106738057D01*
X155254247Y-106738057D02*
X155301866Y-106833295D01*
X155301866Y-106833295D02*
X155301866Y-106928533D01*
X155301866Y-106928533D02*
X155254247Y-107071390D01*
X155254247Y-107071390D02*
X154682819Y-107642819D01*
X154682819Y-107642819D02*
X155301866Y-107642819D01*
X134269233Y-98098780D02*
X134221614Y-98146400D01*
X134221614Y-98146400D02*
X134078757Y-98194019D01*
X134078757Y-98194019D02*
X133983519Y-98194019D01*
X133983519Y-98194019D02*
X133840662Y-98146400D01*
X133840662Y-98146400D02*
X133745424Y-98051161D01*
X133745424Y-98051161D02*
X133697805Y-97955923D01*
X133697805Y-97955923D02*
X133650186Y-97765447D01*
X133650186Y-97765447D02*
X133650186Y-97622590D01*
X133650186Y-97622590D02*
X133697805Y-97432114D01*
X133697805Y-97432114D02*
X133745424Y-97336876D01*
X133745424Y-97336876D02*
X133840662Y-97241638D01*
X133840662Y-97241638D02*
X133983519Y-97194019D01*
X133983519Y-97194019D02*
X134078757Y-97194019D01*
X134078757Y-97194019D02*
X134221614Y-97241638D01*
X134221614Y-97241638D02*
X134269233Y-97289257D01*
X135126376Y-97527352D02*
X135126376Y-98194019D01*
X134888281Y-97146400D02*
X134650186Y-97860685D01*
X134650186Y-97860685D02*
X135269233Y-97860685D01*
X124496480Y-94306266D02*
X124544100Y-94353885D01*
X124544100Y-94353885D02*
X124591719Y-94496742D01*
X124591719Y-94496742D02*
X124591719Y-94591980D01*
X124591719Y-94591980D02*
X124544100Y-94734837D01*
X124544100Y-94734837D02*
X124448861Y-94830075D01*
X124448861Y-94830075D02*
X124353623Y-94877694D01*
X124353623Y-94877694D02*
X124163147Y-94925313D01*
X124163147Y-94925313D02*
X124020290Y-94925313D01*
X124020290Y-94925313D02*
X123829814Y-94877694D01*
X123829814Y-94877694D02*
X123734576Y-94830075D01*
X123734576Y-94830075D02*
X123639338Y-94734837D01*
X123639338Y-94734837D02*
X123591719Y-94591980D01*
X123591719Y-94591980D02*
X123591719Y-94496742D01*
X123591719Y-94496742D02*
X123639338Y-94353885D01*
X123639338Y-94353885D02*
X123686957Y-94306266D01*
X124591719Y-93353885D02*
X124591719Y-93925313D01*
X124591719Y-93639599D02*
X123591719Y-93639599D01*
X123591719Y-93639599D02*
X123734576Y-93734837D01*
X123734576Y-93734837D02*
X123829814Y-93830075D01*
X123829814Y-93830075D02*
X123877433Y-93925313D01*
X158368633Y-87438880D02*
X158321014Y-87486500D01*
X158321014Y-87486500D02*
X158178157Y-87534119D01*
X158178157Y-87534119D02*
X158082919Y-87534119D01*
X158082919Y-87534119D02*
X157940062Y-87486500D01*
X157940062Y-87486500D02*
X157844824Y-87391261D01*
X157844824Y-87391261D02*
X157797205Y-87296023D01*
X157797205Y-87296023D02*
X157749586Y-87105547D01*
X157749586Y-87105547D02*
X157749586Y-86962690D01*
X157749586Y-86962690D02*
X157797205Y-86772214D01*
X157797205Y-86772214D02*
X157844824Y-86676976D01*
X157844824Y-86676976D02*
X157940062Y-86581738D01*
X157940062Y-86581738D02*
X158082919Y-86534119D01*
X158082919Y-86534119D02*
X158178157Y-86534119D01*
X158178157Y-86534119D02*
X158321014Y-86581738D01*
X158321014Y-86581738D02*
X158368633Y-86629357D01*
X158844824Y-87534119D02*
X159035300Y-87534119D01*
X159035300Y-87534119D02*
X159130538Y-87486500D01*
X159130538Y-87486500D02*
X159178157Y-87438880D01*
X159178157Y-87438880D02*
X159273395Y-87296023D01*
X159273395Y-87296023D02*
X159321014Y-87105547D01*
X159321014Y-87105547D02*
X159321014Y-86724595D01*
X159321014Y-86724595D02*
X159273395Y-86629357D01*
X159273395Y-86629357D02*
X159225776Y-86581738D01*
X159225776Y-86581738D02*
X159130538Y-86534119D01*
X159130538Y-86534119D02*
X158940062Y-86534119D01*
X158940062Y-86534119D02*
X158844824Y-86581738D01*
X158844824Y-86581738D02*
X158797205Y-86629357D01*
X158797205Y-86629357D02*
X158749586Y-86724595D01*
X158749586Y-86724595D02*
X158749586Y-86962690D01*
X158749586Y-86962690D02*
X158797205Y-87057928D01*
X158797205Y-87057928D02*
X158844824Y-87105547D01*
X158844824Y-87105547D02*
X158940062Y-87153166D01*
X158940062Y-87153166D02*
X159130538Y-87153166D01*
X159130538Y-87153166D02*
X159225776Y-87105547D01*
X159225776Y-87105547D02*
X159273395Y-87057928D01*
X159273395Y-87057928D02*
X159321014Y-86962690D01*
X118826033Y-93313619D02*
X118492700Y-92837428D01*
X118254605Y-93313619D02*
X118254605Y-92313619D01*
X118254605Y-92313619D02*
X118635557Y-92313619D01*
X118635557Y-92313619D02*
X118730795Y-92361238D01*
X118730795Y-92361238D02*
X118778414Y-92408857D01*
X118778414Y-92408857D02*
X118826033Y-92504095D01*
X118826033Y-92504095D02*
X118826033Y-92646952D01*
X118826033Y-92646952D02*
X118778414Y-92742190D01*
X118778414Y-92742190D02*
X118730795Y-92789809D01*
X118730795Y-92789809D02*
X118635557Y-92837428D01*
X118635557Y-92837428D02*
X118254605Y-92837428D01*
X119683176Y-92646952D02*
X119683176Y-93313619D01*
X119445081Y-92266000D02*
X119206986Y-92980285D01*
X119206986Y-92980285D02*
X119826033Y-92980285D01*
X137075942Y-90072380D02*
X137028323Y-90120000D01*
X137028323Y-90120000D02*
X136885466Y-90167619D01*
X136885466Y-90167619D02*
X136790228Y-90167619D01*
X136790228Y-90167619D02*
X136647371Y-90120000D01*
X136647371Y-90120000D02*
X136552133Y-90024761D01*
X136552133Y-90024761D02*
X136504514Y-89929523D01*
X136504514Y-89929523D02*
X136456895Y-89739047D01*
X136456895Y-89739047D02*
X136456895Y-89596190D01*
X136456895Y-89596190D02*
X136504514Y-89405714D01*
X136504514Y-89405714D02*
X136552133Y-89310476D01*
X136552133Y-89310476D02*
X136647371Y-89215238D01*
X136647371Y-89215238D02*
X136790228Y-89167619D01*
X136790228Y-89167619D02*
X136885466Y-89167619D01*
X136885466Y-89167619D02*
X137028323Y-89215238D01*
X137028323Y-89215238D02*
X137075942Y-89262857D01*
X137456895Y-89262857D02*
X137504514Y-89215238D01*
X137504514Y-89215238D02*
X137599752Y-89167619D01*
X137599752Y-89167619D02*
X137837847Y-89167619D01*
X137837847Y-89167619D02*
X137933085Y-89215238D01*
X137933085Y-89215238D02*
X137980704Y-89262857D01*
X137980704Y-89262857D02*
X138028323Y-89358095D01*
X138028323Y-89358095D02*
X138028323Y-89453333D01*
X138028323Y-89453333D02*
X137980704Y-89596190D01*
X137980704Y-89596190D02*
X137409276Y-90167619D01*
X137409276Y-90167619D02*
X138028323Y-90167619D01*
X138885466Y-89500952D02*
X138885466Y-90167619D01*
X138647371Y-89120000D02*
X138409276Y-89834285D01*
X138409276Y-89834285D02*
X139028323Y-89834285D01*
X114381033Y-87576819D02*
X114047700Y-87100628D01*
X113809605Y-87576819D02*
X113809605Y-86576819D01*
X113809605Y-86576819D02*
X114190557Y-86576819D01*
X114190557Y-86576819D02*
X114285795Y-86624438D01*
X114285795Y-86624438D02*
X114333414Y-86672057D01*
X114333414Y-86672057D02*
X114381033Y-86767295D01*
X114381033Y-86767295D02*
X114381033Y-86910152D01*
X114381033Y-86910152D02*
X114333414Y-87005390D01*
X114333414Y-87005390D02*
X114285795Y-87053009D01*
X114285795Y-87053009D02*
X114190557Y-87100628D01*
X114190557Y-87100628D02*
X113809605Y-87100628D01*
X114714367Y-86576819D02*
X115381033Y-86576819D01*
X115381033Y-86576819D02*
X114952462Y-87576819D01*
X143380680Y-68410057D02*
X143428300Y-68457676D01*
X143428300Y-68457676D02*
X143475919Y-68600533D01*
X143475919Y-68600533D02*
X143475919Y-68695771D01*
X143475919Y-68695771D02*
X143428300Y-68838628D01*
X143428300Y-68838628D02*
X143333061Y-68933866D01*
X143333061Y-68933866D02*
X143237823Y-68981485D01*
X143237823Y-68981485D02*
X143047347Y-69029104D01*
X143047347Y-69029104D02*
X142904490Y-69029104D01*
X142904490Y-69029104D02*
X142714014Y-68981485D01*
X142714014Y-68981485D02*
X142618776Y-68933866D01*
X142618776Y-68933866D02*
X142523538Y-68838628D01*
X142523538Y-68838628D02*
X142475919Y-68695771D01*
X142475919Y-68695771D02*
X142475919Y-68600533D01*
X142475919Y-68600533D02*
X142523538Y-68457676D01*
X142523538Y-68457676D02*
X142571157Y-68410057D01*
X143475919Y-67457676D02*
X143475919Y-68029104D01*
X143475919Y-67743390D02*
X142475919Y-67743390D01*
X142475919Y-67743390D02*
X142618776Y-67838628D01*
X142618776Y-67838628D02*
X142714014Y-67933866D01*
X142714014Y-67933866D02*
X142761633Y-68029104D01*
X142475919Y-66552914D02*
X142475919Y-67029104D01*
X142475919Y-67029104D02*
X142952109Y-67076723D01*
X142952109Y-67076723D02*
X142904490Y-67029104D01*
X142904490Y-67029104D02*
X142856871Y-66933866D01*
X142856871Y-66933866D02*
X142856871Y-66695771D01*
X142856871Y-66695771D02*
X142904490Y-66600533D01*
X142904490Y-66600533D02*
X142952109Y-66552914D01*
X142952109Y-66552914D02*
X143047347Y-66505295D01*
X143047347Y-66505295D02*
X143285442Y-66505295D01*
X143285442Y-66505295D02*
X143380680Y-66552914D01*
X143380680Y-66552914D02*
X143428300Y-66600533D01*
X143428300Y-66600533D02*
X143475919Y-66695771D01*
X143475919Y-66695771D02*
X143475919Y-66933866D01*
X143475919Y-66933866D02*
X143428300Y-67029104D01*
X143428300Y-67029104D02*
X143380680Y-67076723D01*
X112652966Y-99892819D02*
X112652966Y-100607104D01*
X112652966Y-100607104D02*
X112605347Y-100749961D01*
X112605347Y-100749961D02*
X112510109Y-100845200D01*
X112510109Y-100845200D02*
X112367252Y-100892819D01*
X112367252Y-100892819D02*
X112272014Y-100892819D01*
X113272014Y-100321390D02*
X113176776Y-100273771D01*
X113176776Y-100273771D02*
X113129157Y-100226152D01*
X113129157Y-100226152D02*
X113081538Y-100130914D01*
X113081538Y-100130914D02*
X113081538Y-100083295D01*
X113081538Y-100083295D02*
X113129157Y-99988057D01*
X113129157Y-99988057D02*
X113176776Y-99940438D01*
X113176776Y-99940438D02*
X113272014Y-99892819D01*
X113272014Y-99892819D02*
X113462490Y-99892819D01*
X113462490Y-99892819D02*
X113557728Y-99940438D01*
X113557728Y-99940438D02*
X113605347Y-99988057D01*
X113605347Y-99988057D02*
X113652966Y-100083295D01*
X113652966Y-100083295D02*
X113652966Y-100130914D01*
X113652966Y-100130914D02*
X113605347Y-100226152D01*
X113605347Y-100226152D02*
X113557728Y-100273771D01*
X113557728Y-100273771D02*
X113462490Y-100321390D01*
X113462490Y-100321390D02*
X113272014Y-100321390D01*
X113272014Y-100321390D02*
X113176776Y-100369009D01*
X113176776Y-100369009D02*
X113129157Y-100416628D01*
X113129157Y-100416628D02*
X113081538Y-100511866D01*
X113081538Y-100511866D02*
X113081538Y-100702342D01*
X113081538Y-100702342D02*
X113129157Y-100797580D01*
X113129157Y-100797580D02*
X113176776Y-100845200D01*
X113176776Y-100845200D02*
X113272014Y-100892819D01*
X113272014Y-100892819D02*
X113462490Y-100892819D01*
X113462490Y-100892819D02*
X113557728Y-100845200D01*
X113557728Y-100845200D02*
X113605347Y-100797580D01*
X113605347Y-100797580D02*
X113652966Y-100702342D01*
X113652966Y-100702342D02*
X113652966Y-100511866D01*
X113652966Y-100511866D02*
X113605347Y-100416628D01*
X113605347Y-100416628D02*
X113557728Y-100369009D01*
X113557728Y-100369009D02*
X113462490Y-100321390D01*
X143185480Y-73759657D02*
X143233100Y-73807276D01*
X143233100Y-73807276D02*
X143280719Y-73950133D01*
X143280719Y-73950133D02*
X143280719Y-74045371D01*
X143280719Y-74045371D02*
X143233100Y-74188228D01*
X143233100Y-74188228D02*
X143137861Y-74283466D01*
X143137861Y-74283466D02*
X143042623Y-74331085D01*
X143042623Y-74331085D02*
X142852147Y-74378704D01*
X142852147Y-74378704D02*
X142709290Y-74378704D01*
X142709290Y-74378704D02*
X142518814Y-74331085D01*
X142518814Y-74331085D02*
X142423576Y-74283466D01*
X142423576Y-74283466D02*
X142328338Y-74188228D01*
X142328338Y-74188228D02*
X142280719Y-74045371D01*
X142280719Y-74045371D02*
X142280719Y-73950133D01*
X142280719Y-73950133D02*
X142328338Y-73807276D01*
X142328338Y-73807276D02*
X142375957Y-73759657D01*
X143280719Y-72807276D02*
X143280719Y-73378704D01*
X143280719Y-73092990D02*
X142280719Y-73092990D01*
X142280719Y-73092990D02*
X142423576Y-73188228D01*
X142423576Y-73188228D02*
X142518814Y-73283466D01*
X142518814Y-73283466D02*
X142566433Y-73378704D01*
X142280719Y-71950133D02*
X142280719Y-72140609D01*
X142280719Y-72140609D02*
X142328338Y-72235847D01*
X142328338Y-72235847D02*
X142375957Y-72283466D01*
X142375957Y-72283466D02*
X142518814Y-72378704D01*
X142518814Y-72378704D02*
X142709290Y-72426323D01*
X142709290Y-72426323D02*
X143090242Y-72426323D01*
X143090242Y-72426323D02*
X143185480Y-72378704D01*
X143185480Y-72378704D02*
X143233100Y-72331085D01*
X143233100Y-72331085D02*
X143280719Y-72235847D01*
X143280719Y-72235847D02*
X143280719Y-72045371D01*
X143280719Y-72045371D02*
X143233100Y-71950133D01*
X143233100Y-71950133D02*
X143185480Y-71902514D01*
X143185480Y-71902514D02*
X143090242Y-71854895D01*
X143090242Y-71854895D02*
X142852147Y-71854895D01*
X142852147Y-71854895D02*
X142756909Y-71902514D01*
X142756909Y-71902514D02*
X142709290Y-71950133D01*
X142709290Y-71950133D02*
X142661671Y-72045371D01*
X142661671Y-72045371D02*
X142661671Y-72235847D01*
X142661671Y-72235847D02*
X142709290Y-72331085D01*
X142709290Y-72331085D02*
X142756909Y-72378704D01*
X142756909Y-72378704D02*
X142852147Y-72426323D01*
X104862442Y-64310419D02*
X104529109Y-63834228D01*
X104291014Y-64310419D02*
X104291014Y-63310419D01*
X104291014Y-63310419D02*
X104671966Y-63310419D01*
X104671966Y-63310419D02*
X104767204Y-63358038D01*
X104767204Y-63358038D02*
X104814823Y-63405657D01*
X104814823Y-63405657D02*
X104862442Y-63500895D01*
X104862442Y-63500895D02*
X104862442Y-63643752D01*
X104862442Y-63643752D02*
X104814823Y-63738990D01*
X104814823Y-63738990D02*
X104767204Y-63786609D01*
X104767204Y-63786609D02*
X104671966Y-63834228D01*
X104671966Y-63834228D02*
X104291014Y-63834228D01*
X105814823Y-64310419D02*
X105243395Y-64310419D01*
X105529109Y-64310419D02*
X105529109Y-63310419D01*
X105529109Y-63310419D02*
X105433871Y-63453276D01*
X105433871Y-63453276D02*
X105338633Y-63548514D01*
X105338633Y-63548514D02*
X105243395Y-63596133D01*
X106148157Y-63310419D02*
X106814823Y-63310419D01*
X106814823Y-63310419D02*
X106386252Y-64310419D01*
X143394242Y-100537180D02*
X143346623Y-100584800D01*
X143346623Y-100584800D02*
X143203766Y-100632419D01*
X143203766Y-100632419D02*
X143108528Y-100632419D01*
X143108528Y-100632419D02*
X142965671Y-100584800D01*
X142965671Y-100584800D02*
X142870433Y-100489561D01*
X142870433Y-100489561D02*
X142822814Y-100394323D01*
X142822814Y-100394323D02*
X142775195Y-100203847D01*
X142775195Y-100203847D02*
X142775195Y-100060990D01*
X142775195Y-100060990D02*
X142822814Y-99870514D01*
X142822814Y-99870514D02*
X142870433Y-99775276D01*
X142870433Y-99775276D02*
X142965671Y-99680038D01*
X142965671Y-99680038D02*
X143108528Y-99632419D01*
X143108528Y-99632419D02*
X143203766Y-99632419D01*
X143203766Y-99632419D02*
X143346623Y-99680038D01*
X143346623Y-99680038D02*
X143394242Y-99727657D01*
X143775195Y-99727657D02*
X143822814Y-99680038D01*
X143822814Y-99680038D02*
X143918052Y-99632419D01*
X143918052Y-99632419D02*
X144156147Y-99632419D01*
X144156147Y-99632419D02*
X144251385Y-99680038D01*
X144251385Y-99680038D02*
X144299004Y-99727657D01*
X144299004Y-99727657D02*
X144346623Y-99822895D01*
X144346623Y-99822895D02*
X144346623Y-99918133D01*
X144346623Y-99918133D02*
X144299004Y-100060990D01*
X144299004Y-100060990D02*
X143727576Y-100632419D01*
X143727576Y-100632419D02*
X144346623Y-100632419D01*
X145299004Y-100632419D02*
X144727576Y-100632419D01*
X145013290Y-100632419D02*
X145013290Y-99632419D01*
X145013290Y-99632419D02*
X144918052Y-99775276D01*
X144918052Y-99775276D02*
X144822814Y-99870514D01*
X144822814Y-99870514D02*
X144727576Y-99918133D01*
%TO.C,C7*%
D94*
X125522100Y-79026652D02*
X125522100Y-78504148D01*
X126992100Y-79026652D02*
X126992100Y-78504148D01*
%TO.C,C8*%
X160459748Y-82997800D02*
X160982252Y-82997800D01*
X160459748Y-84467800D02*
X160982252Y-84467800D01*
%TO.C,C2*%
X123013152Y-78182800D02*
X122490648Y-78182800D01*
X123013152Y-79652800D02*
X122490648Y-79652800D01*
%TO.C,F1*%
X105465248Y-80459000D02*
X108237752Y-80459000D01*
X105465248Y-83879000D02*
X108237752Y-83879000D01*
%TO.C,R1*%
X110383700Y-80925936D02*
X110383700Y-81380064D01*
X111853700Y-80925936D02*
X111853700Y-81380064D01*
%TO.C,U5*%
X111275500Y-88432200D02*
X113095500Y-88432200D01*
X111275500Y-88482200D02*
X111275500Y-88432200D01*
X111275500Y-91552200D02*
X111275500Y-91502200D01*
X113095500Y-88432200D02*
X113095500Y-88482200D01*
X113095500Y-91502200D02*
X113095500Y-91552200D01*
X113095500Y-91552200D02*
X111275500Y-91552200D01*
X110735500Y-88482200D02*
X110495500Y-88152200D01*
X110975500Y-88152200D01*
X110735500Y-88482200D01*
G36*
X110735500Y-88482200D02*
G01*
X110495500Y-88152200D01*
X110975500Y-88152200D01*
X110735500Y-88482200D01*
G37*
%TO.C,U3*%
X131103500Y-59505800D02*
X131103500Y-60765800D01*
X131103500Y-66325800D02*
X131103500Y-65065800D01*
X134863500Y-59505800D02*
X131103500Y-59505800D01*
X134863500Y-66325800D02*
X131103500Y-66325800D01*
X136383500Y-66555800D02*
X135903500Y-66555800D01*
X136143500Y-66225800D01*
X136383500Y-66555800D01*
G36*
X136383500Y-66555800D02*
G01*
X135903500Y-66555800D01*
X136143500Y-66225800D01*
X136383500Y-66555800D01*
G37*
%TO.C,S4*%
D95*
X122080500Y-106219000D02*
X122080500Y-106719000D01*
X122405500Y-107844000D02*
X128405500Y-107844000D01*
X124155500Y-105094000D02*
X125205500Y-105094000D01*
X128730500Y-106219000D02*
X128730500Y-106719000D01*
D96*
X123205500Y-103069000D02*
G75*
G02*
X123005500Y-103069000I-100000J0D01*
G01*
X123005500Y-103069000D02*
G75*
G02*
X123205500Y-103069000I100000J0D01*
G01*
%TO.C,U6*%
D94*
X131128900Y-68345000D02*
X131128900Y-69605000D01*
X131128900Y-75165000D02*
X131128900Y-73905000D01*
X134888900Y-68345000D02*
X131128900Y-68345000D01*
X134888900Y-75165000D02*
X131128900Y-75165000D01*
X136408900Y-75395000D02*
X135928900Y-75395000D01*
X136168900Y-75065000D01*
X136408900Y-75395000D01*
G36*
X136408900Y-75395000D02*
G01*
X135928900Y-75395000D01*
X136168900Y-75065000D01*
X136408900Y-75395000D01*
G37*
%TO.C,R9*%
X126182436Y-74474400D02*
X126636564Y-74474400D01*
X126182436Y-75944400D02*
X126636564Y-75944400D01*
%TO.C,J4*%
X104073700Y-75565000D02*
X104073700Y-67885000D01*
X104073700Y-78165000D02*
X104073700Y-76835000D01*
X105403700Y-78165000D02*
X104073700Y-78165000D01*
X106673700Y-75565000D02*
X104073700Y-75565000D01*
X106673700Y-78165000D02*
X106673700Y-75565000D01*
X109273700Y-67885000D02*
X104073700Y-67885000D01*
X109273700Y-78165000D02*
X106673700Y-78165000D01*
X109273700Y-78165000D02*
X109273700Y-67885000D01*
%TO.C,R8*%
X111524376Y-92492300D02*
X112033824Y-92492300D01*
X111524376Y-93537300D02*
X112033824Y-93537300D01*
%TO.C,U2*%
X155577300Y-73772100D02*
X161097300Y-73772100D01*
X155577300Y-73947100D02*
X155577300Y-73772100D01*
X155577300Y-82192100D02*
X155577300Y-82017100D01*
X161097300Y-73772100D02*
X161097300Y-73947100D01*
X161097300Y-82017100D02*
X161097300Y-82192100D01*
X161097300Y-82192100D02*
X155577300Y-82192100D01*
X162177300Y-82492100D02*
X161497300Y-82492100D01*
X161837300Y-82022100D01*
X162177300Y-82492100D01*
G36*
X162177300Y-82492100D02*
G01*
X161497300Y-82492100D01*
X161837300Y-82022100D01*
X162177300Y-82492100D01*
G37*
%TO.C,D1*%
X146544900Y-91257000D02*
X146544900Y-84257000D01*
X146544900Y-91257000D02*
X152044900Y-91257000D01*
X150194900Y-85057000D02*
X148394900Y-85057000D01*
X150194900Y-90457000D02*
X148394900Y-90457000D01*
X151594900Y-84257000D02*
X146544900Y-84257000D01*
X152044900Y-84707000D02*
X151594900Y-84257000D01*
X152044900Y-91257000D02*
X152044900Y-84707000D01*
%TO.C,C13*%
X138120500Y-68739652D02*
X138120500Y-68217148D01*
X139590500Y-68739652D02*
X139590500Y-68217148D01*
%TO.C,SW2*%
D33*
X139944900Y-94922400D02*
X139944900Y-95672400D01*
X139944900Y-98422400D02*
X139944900Y-97672400D01*
X145944900Y-94922400D02*
X139944900Y-94922400D01*
X145944900Y-95672400D02*
X145944900Y-94922400D01*
X145944900Y-97672400D02*
X145944900Y-98422400D01*
X145944900Y-98422400D02*
X139944900Y-98422400D01*
D96*
D97*
X147844900Y-96572400D02*
X147844899Y-96572400D01*
X147844899Y-96572400D01*
X147844899Y-96572400D01*
X147844899Y-96572400D01*
X147844899Y-96572400D01*
X147844899Y-96572400D01*
X147844899Y-96572400D01*
X147844899Y-96572399D01*
X147844899Y-96572399D01*
X147844899Y-96572399D01*
X147844899Y-96572399D01*
X147844899Y-96572399D01*
X147844900Y-96572399D01*
X147844900Y-96572399D01*
X147844900Y-96572399D01*
X147844900Y-96572399D01*
X147844900Y-96572399D01*
X147844900Y-96572399D01*
X147844900Y-96572399D01*
X147844900Y-96572399D01*
X147844900Y-96572399D01*
X147844900Y-96572399D01*
X147844900Y-96572399D01*
X147844900Y-96572399D01*
X147844901Y-96572399D01*
X147844901Y-96572399D01*
X147844901Y-96572399D01*
X147844901Y-96572399D01*
X147844901Y-96572399D01*
X147844901Y-96572399D01*
X147844901Y-96572400D01*
X147844901Y-96572400D01*
X147844901Y-96572400D01*
X147844901Y-96572400D01*
X147844901Y-96572400D01*
X147844901Y-96572400D01*
X147844901Y-96572400D01*
X147844900Y-96572400D01*
X147844900Y-96572400D02*
X147844901Y-96572400D01*
X147844901Y-96572400D01*
X147844901Y-96572400D01*
X147844901Y-96572400D01*
X147844901Y-96572400D01*
X147844901Y-96572400D01*
X147844901Y-96572401D01*
X147844901Y-96572401D01*
X147844901Y-96572401D01*
X147844901Y-96572401D01*
X147844901Y-96572401D01*
X147844901Y-96572401D01*
X147844901Y-96572401D01*
X147844900Y-96572401D01*
X147844900Y-96572401D01*
X147844900Y-96572401D01*
X147844900Y-96572401D01*
X147844900Y-96572401D01*
X147844900Y-96572401D01*
X147844900Y-96572401D01*
X147844900Y-96572401D01*
X147844900Y-96572401D01*
X147844900Y-96572401D01*
X147844900Y-96572401D01*
X147844900Y-96572401D01*
X147844899Y-96572401D01*
X147844899Y-96572401D01*
X147844899Y-96572401D01*
X147844899Y-96572401D01*
X147844899Y-96572401D01*
X147844899Y-96572401D01*
X147844899Y-96572400D01*
X147844899Y-96572400D01*
X147844899Y-96572400D01*
X147844899Y-96572400D01*
X147844899Y-96572400D01*
X147844899Y-96572400D01*
X147844900Y-96572400D01*
D96*
D97*
X147844900Y-96772400D02*
X147844899Y-96772400D01*
X147844899Y-96772400D01*
X147844899Y-96772400D01*
X147844899Y-96772400D01*
X147844899Y-96772400D01*
X147844899Y-96772400D01*
X147844899Y-96772400D01*
X147844899Y-96772399D01*
X147844899Y-96772399D01*
X147844899Y-96772399D01*
X147844899Y-96772399D01*
X147844899Y-96772399D01*
X147844900Y-96772399D01*
X147844900Y-96772399D01*
X147844900Y-96772399D01*
X147844900Y-96772399D01*
X147844900Y-96772399D01*
X147844900Y-96772399D01*
X147844900Y-96772399D01*
X147844900Y-96772399D01*
X147844900Y-96772399D01*
X147844900Y-96772399D01*
X147844900Y-96772399D01*
X147844900Y-96772399D01*
X147844901Y-96772399D01*
X147844901Y-96772399D01*
X147844901Y-96772399D01*
X147844901Y-96772399D01*
X147844901Y-96772399D01*
X147844901Y-96772399D01*
X147844901Y-96772400D01*
X147844901Y-96772400D01*
X147844901Y-96772400D01*
X147844901Y-96772400D01*
X147844901Y-96772400D01*
X147844901Y-96772400D01*
X147844901Y-96772400D01*
X147844900Y-96772400D01*
X147844900Y-96772400D02*
X147844901Y-96772400D01*
X147844901Y-96772400D01*
X147844901Y-96772400D01*
X147844901Y-96772400D01*
X147844901Y-96772400D01*
X147844901Y-96772400D01*
X147844901Y-96772401D01*
X147844901Y-96772401D01*
X147844901Y-96772401D01*
X147844901Y-96772401D01*
X147844901Y-96772401D01*
X147844901Y-96772401D01*
X147844901Y-96772401D01*
X147844900Y-96772401D01*
X147844900Y-96772401D01*
X147844900Y-96772401D01*
X147844900Y-96772401D01*
X147844900Y-96772401D01*
X147844900Y-96772401D01*
X147844900Y-96772401D01*
X147844900Y-96772401D01*
X147844900Y-96772401D01*
X147844900Y-96772401D01*
X147844900Y-96772401D01*
X147844900Y-96772401D01*
X147844899Y-96772401D01*
X147844899Y-96772401D01*
X147844899Y-96772401D01*
X147844899Y-96772401D01*
X147844899Y-96772401D01*
X147844899Y-96772401D01*
X147844899Y-96772400D01*
X147844899Y-96772400D01*
X147844899Y-96772400D01*
X147844899Y-96772400D01*
X147844899Y-96772400D01*
X147844899Y-96772400D01*
X147844900Y-96772400D01*
D96*
X147844900Y-96572400D02*
G75*
G02*
X147844900Y-96772400I0J-100000D01*
G01*
X147844900Y-96772400D02*
G75*
G02*
X147844900Y-96572400I0J100000D01*
G01*
%TO.C,U1*%
D94*
X124311300Y-82724400D02*
X125261300Y-82724400D01*
X124311300Y-83674400D02*
X124311300Y-82724400D01*
X124311300Y-92944400D02*
X124311300Y-91994400D01*
X125261300Y-92944400D02*
X124311300Y-92944400D01*
X133581300Y-82724400D02*
X134531300Y-82724400D01*
X134531300Y-82724400D02*
X134531300Y-83674400D01*
X134531300Y-91994400D02*
X134531300Y-92944400D01*
X134531300Y-92944400D02*
X133581300Y-92944400D01*
X135511300Y-92464400D02*
X134831300Y-92464400D01*
X135171300Y-91994400D01*
X135511300Y-92464400D01*
G36*
X135511300Y-92464400D02*
G01*
X134831300Y-92464400D01*
X135171300Y-91994400D01*
X135511300Y-92464400D01*
G37*
%TO.C,C3*%
X133692048Y-79148000D02*
X134214552Y-79148000D01*
X133692048Y-80618000D02*
X134214552Y-80618000D01*
%TO.C,D3*%
X124154100Y-70653400D02*
X124154100Y-73513400D01*
X124154100Y-73513400D02*
X126074100Y-73513400D01*
X126074100Y-73513400D02*
X126074100Y-70653400D01*
%TO.C,Y3*%
X141933400Y-91799500D02*
X145353400Y-91799500D01*
X145353400Y-91799500D02*
X145353400Y-87679500D01*
%TO.C,C22*%
X140482700Y-63979248D02*
X140482700Y-64501752D01*
X141952700Y-63979248D02*
X141952700Y-64501752D01*
%TO.C,J7*%
X155944500Y-57981400D02*
X155944500Y-59231400D01*
X156244500Y-60531400D02*
X156994500Y-60531400D01*
X156994500Y-60531400D02*
X156994500Y-63481400D01*
X156994500Y-63481400D02*
X160044500Y-63481400D01*
X157194500Y-57981400D02*
X155944500Y-57981400D01*
X163094500Y-60531400D02*
X163094500Y-63481400D01*
X163094500Y-63481400D02*
X160044500Y-63481400D01*
X163844500Y-60531400D02*
X163094500Y-60531400D01*
X156234500Y-58271400D02*
X163854500Y-58271400D01*
X163854500Y-64241400D01*
X156234500Y-64241400D01*
X156234500Y-58271400D01*
X156244500Y-58281400D02*
X158044500Y-58281400D01*
X158044500Y-59031400D01*
X156244500Y-59031400D01*
X156244500Y-58281400D01*
X159544500Y-58281400D02*
X160544500Y-58281400D01*
X160544500Y-59031400D01*
X159544500Y-59031400D01*
X159544500Y-58281400D01*
X162044500Y-58281400D02*
X163844500Y-58281400D01*
X163844500Y-59031400D01*
X162044500Y-59031400D01*
X162044500Y-58281400D01*
%TO.C,D5*%
X124701900Y-59009400D02*
X124701900Y-60929400D01*
X124701900Y-60929400D02*
X127561900Y-60929400D01*
X127561900Y-59009400D02*
X124701900Y-59009400D01*
%TO.C,R2*%
X126919036Y-101449200D02*
X127373164Y-101449200D01*
X126919036Y-102919200D02*
X127373164Y-102919200D01*
%TO.C,J1*%
X102017100Y-105130600D02*
X102017100Y-97400600D01*
X104777100Y-97400600D02*
X102017100Y-97400600D01*
X104777100Y-105130600D02*
X102017100Y-105130600D01*
X104777100Y-105130600D02*
X104777100Y-97400600D01*
X104777100Y-106400600D02*
X104777100Y-107780600D01*
X104777100Y-107780600D02*
X103397100Y-107780600D01*
%TO.C,R10*%
X126715900Y-62968136D02*
X126715900Y-63422264D01*
X128185900Y-62968136D02*
X128185900Y-63422264D01*
%TO.C,R6*%
X126639700Y-71400936D02*
X126639700Y-71855064D01*
X128109700Y-71400936D02*
X128109700Y-71855064D01*
%TO.C,D4*%
X120561700Y-74224000D02*
X120561700Y-76144000D01*
X120561700Y-76144000D02*
X123421700Y-76144000D01*
X123421700Y-74224000D02*
X120561700Y-74224000D01*
%TO.C,S3*%
D95*
X146061034Y-69210209D02*
X146061034Y-69710209D01*
X146386034Y-70835209D02*
X152386034Y-70835209D01*
X148136034Y-68085209D02*
X149186034Y-68085209D01*
X152711034Y-69210209D02*
X152711034Y-69710209D01*
D96*
X147186034Y-66060209D02*
G75*
G02*
X146986034Y-66060209I-100000J0D01*
G01*
X146986034Y-66060209D02*
G75*
G02*
X147186034Y-66060209I100000J0D01*
G01*
%TO.C,D2*%
D94*
X112368500Y-80153000D02*
X112368500Y-83013000D01*
X112368500Y-83013000D02*
X114288500Y-83013000D01*
X114288500Y-83013000D02*
X114288500Y-80153000D01*
%TO.C,C14*%
X138171300Y-72662148D02*
X138171300Y-73184652D01*
X139641300Y-72662148D02*
X139641300Y-73184652D01*
%TO.C,R3*%
X118791036Y-88241200D02*
X119245164Y-88241200D01*
X118791036Y-89711200D02*
X119245164Y-89711200D01*
%TO.C,C25*%
X123013152Y-80392600D02*
X122490648Y-80392600D01*
X123013152Y-81862600D02*
X122490648Y-81862600D01*
%TO.C,C17*%
X140508100Y-59290852D02*
X140508100Y-58768348D01*
X141978100Y-59290852D02*
X141978100Y-58768348D01*
%TO.C,C26*%
X149479952Y-91797200D02*
X148957448Y-91797200D01*
X149479952Y-93267200D02*
X148957448Y-93267200D01*
%TO.C,J5*%
X145449500Y-61642600D02*
X146199500Y-61642600D01*
X146199500Y-58692600D02*
X149249500Y-58692600D01*
X146199500Y-61642600D02*
X146199500Y-58692600D01*
X152099500Y-64192600D02*
X153349500Y-64192600D01*
X152299500Y-58692600D02*
X149249500Y-58692600D01*
X152299500Y-61642600D02*
X152299500Y-58692600D01*
X153049500Y-61642600D02*
X152299500Y-61642600D01*
X153349500Y-64192600D02*
X153349500Y-62942600D01*
X145449500Y-63142600D02*
X147249500Y-63142600D01*
X147249500Y-63892600D01*
X145449500Y-63892600D01*
X145449500Y-63142600D01*
X148749500Y-63142600D02*
X149749500Y-63142600D01*
X149749500Y-63892600D01*
X148749500Y-63892600D01*
X148749500Y-63142600D01*
X151249500Y-63142600D02*
X153049500Y-63142600D01*
X153049500Y-63892600D01*
X151249500Y-63892600D01*
X151249500Y-63142600D01*
X145439500Y-57932600D02*
X153059500Y-57932600D01*
X153059500Y-63902600D01*
X145439500Y-63902600D01*
X145439500Y-57932600D01*
%TO.C,C18*%
X138069700Y-59265452D02*
X138069700Y-58742948D01*
X139539700Y-59265452D02*
X139539700Y-58742948D01*
%TO.C,C20*%
X139637700Y-87168848D02*
X139637700Y-87691352D01*
X141107700Y-87168848D02*
X141107700Y-87691352D01*
%TO.C,C6*%
X156221848Y-82983400D02*
X156744352Y-82983400D01*
X156221848Y-84453400D02*
X156744352Y-84453400D01*
%TO.C,J6*%
X156066100Y-102211200D02*
X156066100Y-103461200D01*
X156366100Y-104761200D02*
X157116100Y-104761200D01*
X157116100Y-104761200D02*
X157116100Y-107711200D01*
X157116100Y-107711200D02*
X160166100Y-107711200D01*
X157316100Y-102211200D02*
X156066100Y-102211200D01*
X163216100Y-104761200D02*
X163216100Y-107711200D01*
X163216100Y-107711200D02*
X160166100Y-107711200D01*
X163966100Y-104761200D02*
X163216100Y-104761200D01*
X156356100Y-102501200D02*
X163976100Y-102501200D01*
X163976100Y-108471200D01*
X156356100Y-108471200D01*
X156356100Y-102501200D01*
X156366100Y-102511200D02*
X158166100Y-102511200D01*
X158166100Y-103261200D01*
X156366100Y-103261200D01*
X156366100Y-102511200D01*
X159666100Y-102511200D02*
X160666100Y-102511200D01*
X160666100Y-103261200D01*
X159666100Y-103261200D01*
X159666100Y-102511200D01*
X162166100Y-102511200D02*
X163966100Y-102511200D01*
X163966100Y-103261200D01*
X162166100Y-103261200D01*
X162166100Y-102511200D01*
%TO.C,C23*%
X138120500Y-64051548D02*
X138120500Y-64574052D01*
X139590500Y-64051548D02*
X139590500Y-64574052D01*
%TO.C,J9*%
X110487043Y-62675082D02*
X110487043Y-63925082D01*
X110787043Y-65225082D02*
X111537043Y-65225082D01*
X111537043Y-65225082D02*
X111537043Y-68175082D01*
X111537043Y-68175082D02*
X118337043Y-68175082D01*
X111737043Y-62675082D02*
X110487043Y-62675082D01*
X125137043Y-65225082D02*
X125137043Y-68175082D01*
X125137043Y-68175082D02*
X118337043Y-68175082D01*
X125887043Y-65225082D02*
X125137043Y-65225082D01*
X110777043Y-62965082D02*
X125897043Y-62965082D01*
X125897043Y-68935082D01*
X110777043Y-68935082D01*
X110777043Y-62965082D01*
X110787043Y-62975082D02*
X112587043Y-62975082D01*
X112587043Y-63725082D01*
X110787043Y-63725082D01*
X110787043Y-62975082D01*
X114087043Y-62975082D02*
X122587043Y-62975082D01*
X122587043Y-63725082D01*
X114087043Y-63725082D01*
X114087043Y-62975082D01*
X124087043Y-62975082D02*
X125887043Y-62975082D01*
X125887043Y-63725082D01*
X124087043Y-63725082D01*
X124087043Y-62975082D01*
%TO.C,J3*%
X105550900Y-85284400D02*
X103770900Y-85284400D01*
X105550900Y-94684400D02*
X103770900Y-94684400D01*
X108470900Y-87184400D02*
X108470900Y-86384400D01*
%TO.C,C19*%
X139637700Y-91628352D02*
X139637700Y-91105848D01*
X141107700Y-91628352D02*
X141107700Y-91105848D01*
%TO.C,J2*%
X133182100Y-106035800D02*
X134512100Y-106035800D01*
X133182100Y-107365800D02*
X133182100Y-106035800D01*
X135782100Y-106035800D02*
X153622100Y-106035800D01*
X135782100Y-108695800D02*
X135782100Y-106035800D01*
X135782100Y-108695800D02*
X153622100Y-108695800D01*
X153622100Y-108695800D02*
X153622100Y-106035800D01*
%TO.C,C4*%
X134174648Y-95150000D02*
X134697152Y-95150000D01*
X134174648Y-96620000D02*
X134697152Y-96620000D01*
%TO.C,C1*%
X121721900Y-93903748D02*
X121721900Y-94426252D01*
X123191900Y-93903748D02*
X123191900Y-94426252D01*
%TO.C,C9*%
X154595300Y-85369300D02*
X154595300Y-88789300D01*
X154595300Y-88789300D02*
X161535300Y-88789300D01*
X161535300Y-85369300D02*
X154595300Y-85369300D01*
%TO.C,R4*%
X118791036Y-90298600D02*
X119245164Y-90298600D01*
X118791036Y-91768600D02*
X119245164Y-91768600D01*
%TO.C,C24*%
X136748900Y-86708348D02*
X136748900Y-87230852D01*
X138218900Y-86708348D02*
X138218900Y-87230852D01*
%TO.C,R7*%
X112033824Y-86523300D02*
X111524376Y-86523300D01*
X112033824Y-87568300D02*
X111524376Y-87568300D01*
%TO.C,C15*%
X140381100Y-68714252D02*
X140381100Y-68191748D01*
X141851100Y-68714252D02*
X141851100Y-68191748D01*
%TO.C,J8*%
X106720900Y-102466800D02*
X107470900Y-102466800D01*
X107470900Y-99516800D02*
X113020900Y-99516800D01*
X107470900Y-102466800D02*
X107470900Y-99516800D01*
X118370900Y-105016800D02*
X119620900Y-105016800D01*
X118570900Y-99516800D02*
X113020900Y-99516800D01*
X118570900Y-102466800D02*
X118570900Y-99516800D01*
X119320900Y-102466800D02*
X118570900Y-102466800D01*
X119620900Y-105016800D02*
X119620900Y-103766800D01*
X106720900Y-103966800D02*
X108520900Y-103966800D01*
X108520900Y-104716800D01*
X106720900Y-104716800D01*
X106720900Y-103966800D01*
X110020900Y-103966800D02*
X116020900Y-103966800D01*
X116020900Y-104716800D01*
X110020900Y-104716800D01*
X110020900Y-103966800D01*
X117520900Y-103966800D02*
X119320900Y-103966800D01*
X119320900Y-104716800D01*
X117520900Y-104716800D01*
X117520900Y-103966800D01*
X106710900Y-98756800D02*
X119330900Y-98756800D01*
X119330900Y-104726800D01*
X106710900Y-104726800D01*
X106710900Y-98756800D01*
%TO.C,C16*%
X140410900Y-72855548D02*
X140410900Y-73378052D01*
X141880900Y-72855548D02*
X141880900Y-73378052D01*
%TO.C,R17*%
X105732364Y-64924000D02*
X105278236Y-64924000D01*
X105732364Y-66394000D02*
X105278236Y-66394000D01*
%TO.C,C21*%
X140321448Y-99188600D02*
X140843952Y-99188600D01*
X140321448Y-100658600D02*
X140843952Y-100658600D01*
%TD*%
M02*
